<?xml version="1.0" encoding="utf-8"?>
<!-- Generator: Adobe Illustrator 22.1.0, SVG Export Plug-In . SVG Version: 6.00 Build 0)  -->
<svg version="1.1" id="Layer_1" xmlns="http://www.w3.org/2000/svg" xmlns:xlink="http://www.w3.org/1999/xlink" x="0px" y="0px"
	 viewBox="0 0 1920 700" style="enable-background:new 0 0 1920 700;" xml:space="preserve">
<style type="text/css">
	.st0{fill:url(#SVGID_1_);}
	.st1{fill:url(#SVGID_2_);}
	.st2{fill:url(#SVGID_3_);}
	.st3{fill:url(#SVGID_4_);}
	.st4{fill:url(#SVGID_5_);}
	.st5{fill:url(#SVGID_6_);}
	.st6{fill:url(#SVGID_7_);}
	.st7{fill:url(#SVGID_8_);}
	.st8{fill:url(#SVGID_9_);}
	.st9{fill:url(#SVGID_10_);}
	.st10{fill:url(#SVGID_11_);}
	.st11{fill:url(#SVGID_12_);}
	.st12{fill:url(#SVGID_13_);}
	.st13{fill:url(#SVGID_14_);}
	.st14{fill:url(#SVGID_15_);}
	.st15{fill:url(#SVGID_16_);}
	.st16{fill:url(#SVGID_17_);}
	.st17{fill:url(#SVGID_18_);}
	.st18{fill:url(#SVGID_19_);}
	.st19{fill:url(#SVGID_20_);}
	.st20{fill:url(#SVGID_21_);}
	.st21{fill:url(#SVGID_22_);}
	.st22{fill:url(#SVGID_23_);}
	.st23{fill:url(#SVGID_24_);}
	.st24{fill:url(#SVGID_25_);}
	.st25{fill:url(#SVGID_26_);}
	.st26{fill:url(#SVGID_27_);}
	.st27{fill:url(#SVGID_28_);}
	.st28{fill:url(#SVGID_29_);}
	.st29{fill:url(#SVGID_30_);}
	.st30{fill:url(#SVGID_31_);}
	.st31{fill:url(#SVGID_32_);}
	.st32{fill:url(#SVGID_33_);}
	.st33{fill:url(#SVGID_34_);}
	.st34{fill:url(#SVGID_35_);}
	.st35{fill:url(#SVGID_36_);}
	.st36{fill:url(#SVGID_37_);}
	.st37{fill:url(#SVGID_38_);}
	.st38{fill:url(#SVGID_39_);}
	.st39{fill:url(#SVGID_40_);}
	.st40{fill:url(#SVGID_41_);}
	.st41{fill:url(#SVGID_42_);}
	.st42{fill:url(#SVGID_43_);}
	.st43{fill:url(#SVGID_44_);}
	.st44{fill:url(#SVGID_45_);}
	.st45{fill:url(#SVGID_46_);}
	.st46{fill:url(#SVGID_47_);}
	.st47{fill:url(#SVGID_48_);}
	.st48{fill:url(#SVGID_49_);}
	.st49{fill:url(#SVGID_50_);}
	.st50{fill:url(#SVGID_51_);}
	.st51{fill:url(#SVGID_52_);}
	.st52{fill:url(#SVGID_53_);}
	.st53{fill:url(#SVGID_54_);}
	.st54{fill:url(#SVGID_55_);}
	.st55{fill:url(#SVGID_56_);}
	.st56{fill:url(#SVGID_57_);}
	.st57{fill:url(#SVGID_58_);}
	.st58{fill:url(#SVGID_59_);}
	.st59{fill:url(#SVGID_60_);}
	.st60{fill:url(#SVGID_61_);}
	.st61{fill:url(#SVGID_62_);}
	.st62{fill:url(#SVGID_63_);}
	.st63{fill:url(#SVGID_64_);}
	.st64{fill:url(#SVGID_65_);}
	.st65{fill:url(#SVGID_66_);}
	.st66{fill:url(#SVGID_67_);}
	.st67{fill:url(#SVGID_68_);}
	.st68{fill:url(#SVGID_69_);}
	.st69{fill:url(#SVGID_70_);}
	.st70{fill:url(#SVGID_71_);}
	.st71{fill:url(#SVGID_72_);}
	.st72{fill:url(#SVGID_73_);}
	.st73{fill:url(#SVGID_74_);}
	.st74{fill:url(#SVGID_75_);}
	.st75{fill:url(#SVGID_76_);}
	.st76{fill:url(#SVGID_77_);}
	.st77{fill:url(#SVGID_78_);}
	.st78{fill:url(#SVGID_79_);}
	.st79{fill:url(#SVGID_80_);}
	.st80{fill:url(#SVGID_81_);}
	.st81{fill:url(#SVGID_82_);}
	.st82{fill:url(#SVGID_83_);}
	.st83{fill:url(#SVGID_84_);}
	.st84{fill:url(#SVGID_85_);}
	.st85{fill:url(#SVGID_86_);}
	.st86{fill:url(#SVGID_87_);}
	.st87{fill:url(#SVGID_88_);}
	.st88{fill:url(#SVGID_89_);}
	.st89{fill:url(#SVGID_90_);}
	.st90{fill:url(#SVGID_91_);}
	.st91{fill:url(#SVGID_92_);}
	.st92{fill:url(#SVGID_93_);}
	.st93{fill:url(#SVGID_94_);}
	.st94{fill:url(#SVGID_95_);}
	.st95{fill:url(#SVGID_96_);}
	.st96{fill:url(#SVGID_97_);}
	.st97{fill:url(#SVGID_98_);}
	.st98{fill:url(#SVGID_99_);}
	.st99{fill:url(#SVGID_100_);}
	.st100{fill:url(#SVGID_101_);}
	.st101{fill:url(#SVGID_102_);}
	.st102{fill:url(#SVGID_103_);}
	.st103{fill:url(#SVGID_104_);}
	.st104{fill:url(#SVGID_105_);}
	.st105{fill:url(#SVGID_106_);}
	.st106{fill:url(#SVGID_107_);}
	.st107{fill:url(#SVGID_108_);}
	.st108{fill:url(#SVGID_109_);}
	.st109{fill:url(#SVGID_110_);}
	.st110{fill:url(#SVGID_111_);}
	.st111{fill:url(#SVGID_112_);}
</style>
<g>
	<linearGradient id="SVGID_1_" gradientUnits="userSpaceOnUse" x1="1278.2174" y1="867.697" x2="373.7626" y2="-603.7295">
		<stop  offset="0" style="stop-color:#403591"/>
		<stop  offset="1" style="stop-color:#5E2768"/>
	</linearGradient>
	<rect class="st0" width="1920" height="700"/>
</g>
<g>
	<g>
		<linearGradient id="SVGID_2_" gradientUnits="userSpaceOnUse" x1="99.7543" y1="46.5607" x2="203.0761" y2="46.5607">
			<stop  offset="0" style="stop-color:#403591"/>
			<stop  offset="1" style="stop-color:#5E2768"/>
		</linearGradient>
		<polygon class="st1" points="177.1,91.1 125.3,91.1 99.8,46.9 102.4,45.4 127,88.1 175.4,88.1 199.5,46.2 174.9,3.5 177.6,2 
			203.1,46.2 		"/>
	</g>
	<g>
		<linearGradient id="SVGID_3_" gradientUnits="userSpaceOnUse" x1="174.1782" y1="89.5818" x2="277.9409" y2="89.5818">
			<stop  offset="0" style="stop-color:#403591"/>
			<stop  offset="1" style="stop-color:#5E2768"/>
		</linearGradient>
		<path class="st2" d="M252,134.5h-51.9l-25.9-44.9l25.9-44.9H252l25.9,44.9L252,134.5z M201.9,131.5h48.4l24.2-41.9l-24.2-41.9
			h-48.4l-24.2,41.9L201.9,131.5z"/>
	</g>
	<g>
		<linearGradient id="SVGID_4_" gradientUnits="userSpaceOnUse" x1="249.0429" y1="46.1794" x2="325.9829" y2="46.1794">
			<stop  offset="0" style="stop-color:#403591"/>
			<stop  offset="1" style="stop-color:#5E2768"/>
		</linearGradient>
		<polygon class="st3" points="326,91.1 275,91.1 249,46.2 275,1.2 326,1.2 326,4.3 276.7,4.3 252.6,46.2 276.7,88.1 326,88.1 		"/>
	</g>
	<g>
		<linearGradient id="SVGID_5_" gradientUnits="userSpaceOnUse" x1="324.3487" y1="89.9631" x2="427.6705" y2="89.9631">
			<stop  offset="0" style="stop-color:#403591"/>
			<stop  offset="1" style="stop-color:#5E2768"/>
		</linearGradient>
		<polygon class="st4" points="401.7,134.5 349.8,134.5 324.3,90.3 327,88.8 351.6,131.5 400,131.5 424.1,89.6 399.5,46.9 
			402.2,45.4 427.7,89.6 		"/>
	</g>
	<g>
		<linearGradient id="SVGID_6_" gradientUnits="userSpaceOnUse" x1="425.5964" y1="68.2619" x2="502.0944" y2="68.2619">
			<stop  offset="0" style="stop-color:#403591"/>
			<stop  offset="1" style="stop-color:#5E2768"/>
		</linearGradient>
		<polygon class="st5" points="476.6,91.1 425.6,91.1 425.6,88.1 474.8,88.1 499.4,45.4 502.1,46.9 		"/>
	</g>
	<g>
		<linearGradient id="SVGID_7_" gradientUnits="userSpaceOnUse" x1="473.6384" y1="89.2005" x2="576.9601" y2="89.2005">
			<stop  offset="0" style="stop-color:#403591"/>
			<stop  offset="1" style="stop-color:#5E2768"/>
		</linearGradient>
		<polygon class="st6" points="499.1,133.7 473.6,89.6 499.6,44.7 551.5,44.7 577,88.8 574.3,90.3 549.7,47.7 501.3,47.7 
			477.2,89.6 501.8,132.2 		"/>
	</g>
	<g>
		<linearGradient id="SVGID_8_" gradientUnits="userSpaceOnUse" x1="548.5021" y1="46.5607" x2="651.826" y2="46.5607">
			<stop  offset="0" style="stop-color:#403591"/>
			<stop  offset="1" style="stop-color:#5E2768"/>
		</linearGradient>
		<polygon class="st7" points="626.3,91.1 574.4,91.1 548.5,46.2 574,2 576.6,3.5 552,46.2 576.2,88.1 624.6,88.1 649.2,45.4 
			651.8,46.9 		"/>
	</g>
	<g>
		<linearGradient id="SVGID_9_" gradientUnits="userSpaceOnUse" x1="623.3679" y1="89.2005" x2="727.1317" y2="89.2005">
			<stop  offset="0" style="stop-color:#403591"/>
			<stop  offset="1" style="stop-color:#5E2768"/>
		</linearGradient>
		<polygon class="st8" points="701.6,133.7 699,132.2 723.6,89.6 699.4,47.7 651.1,47.7 626.9,89.6 651.5,132.2 648.9,133.7 
			623.4,89.6 649.3,44.7 701.2,44.7 727.1,89.6 		"/>
	</g>
	<g>
		<linearGradient id="SVGID_10_" gradientUnits="userSpaceOnUse" x1="698.6737" y1="46.5607" x2="801.9975" y2="46.5607">
			<stop  offset="0" style="stop-color:#403591"/>
			<stop  offset="1" style="stop-color:#5E2768"/>
		</linearGradient>
		<polygon class="st9" points="776.1,91.1 724.2,91.1 698.7,46.9 701.3,45.4 725.9,88.1 774.3,88.1 798.5,46.2 773.8,3.5 776.5,2 
			802,46.2 		"/>
	</g>
	<g>
		<linearGradient id="SVGID_11_" gradientUnits="userSpaceOnUse" x1="773.0975" y1="89.5818" x2="876.8613" y2="89.5818">
			<stop  offset="0" style="stop-color:#403591"/>
			<stop  offset="1" style="stop-color:#5E2768"/>
		</linearGradient>
		<path class="st10" d="M850.9,134.5H799l-25.9-44.9L799,44.7h51.9l25.9,44.9L850.9,134.5z M800.8,131.5h48.4l24.2-41.9l-24.2-41.9
			h-48.4l-24.2,41.9L800.8,131.5z"/>
	</g>
	<g>
		<linearGradient id="SVGID_12_" gradientUnits="userSpaceOnUse" x1="99.3124" y1="132.9842" x2="203.0761" y2="132.9842">
			<stop  offset="0" style="stop-color:#403591"/>
			<stop  offset="1" style="stop-color:#5E2768"/>
		</linearGradient>
		<path class="st11" d="M177.1,177.9h-51.9L99.3,133l25.9-44.9h51.9l25.9,44.9L177.1,177.9z M127,174.9h48.4l24.2-41.9l-24.2-41.9
			H127L102.8,133L127,174.9z"/>
	</g>
	<g>
		<linearGradient id="SVGID_13_" gradientUnits="userSpaceOnUse" x1="174.1782" y1="176.769" x2="277.501" y2="176.769">
			<stop  offset="0" style="stop-color:#403591"/>
			<stop  offset="1" style="stop-color:#5E2768"/>
		</linearGradient>
		<polygon class="st12" points="252,221.3 200.1,221.3 174.2,176.4 199.7,132.2 202.3,133.7 177.7,176.4 201.9,218.3 250.2,218.3 
			274.9,175.6 277.5,177.2 		"/>
	</g>
	<g>
		<linearGradient id="SVGID_14_" gradientUnits="userSpaceOnUse" x1="275.8668" y1="132.9842" x2="352.8057" y2="132.9842">
			<stop  offset="0" style="stop-color:#403591"/>
			<stop  offset="1" style="stop-color:#5E2768"/>
		</linearGradient>
		<polygon class="st13" points="326.9,177.9 275.9,177.9 275.9,174.9 325.1,174.9 349.3,133 325.1,91.1 275.9,91.1 275.9,88.1 
			326.9,88.1 352.8,133 		"/>
	</g>
	<g>
		<linearGradient id="SVGID_15_" gradientUnits="userSpaceOnUse" x1="323.9087" y1="176.3866" x2="427.6705" y2="176.3866">
			<stop  offset="0" style="stop-color:#403591"/>
			<stop  offset="1" style="stop-color:#5E2768"/>
		</linearGradient>
		<path class="st14" d="M401.7,221.3h-51.9l-25.9-44.9l25.9-44.9h51.9l25.9,44.9L401.7,221.3z M351.6,218.3H400l24.2-41.9L400,134.5
			h-48.4l-24.2,41.9L351.6,218.3z"/>
	</g>
	<g>
		<linearGradient id="SVGID_16_" gradientUnits="userSpaceOnUse" x1="474.0783" y1="198.4702" x2="550.5783" y2="198.4702">
			<stop  offset="0" style="stop-color:#403591"/>
			<stop  offset="1" style="stop-color:#5E2768"/>
		</linearGradient>
		<polygon class="st15" points="550.6,221.3 499.6,221.3 474.1,177.2 476.7,175.6 501.3,218.3 550.6,218.3 		"/>
	</g>
	<g>
		<linearGradient id="SVGID_17_" gradientUnits="userSpaceOnUse" x1="624.1203" y1="132.9842" x2="652.2669" y2="132.9842">
			<stop  offset="0" style="stop-color:#403591"/>
			<stop  offset="1" style="stop-color:#5E2768"/>
		</linearGradient>
		<polygon class="st16" points="626.8,177.2 624.1,175.6 648.7,133 624.1,90.3 626.8,88.8 652.3,133 		"/>
	</g>
	<g>
		<linearGradient id="SVGID_18_" gradientUnits="userSpaceOnUse" x1="698.2327" y1="132.9842" x2="801.9975" y2="132.9842">
			<stop  offset="0" style="stop-color:#403591"/>
			<stop  offset="1" style="stop-color:#5E2768"/>
		</linearGradient>
		<path class="st17" d="M776.1,177.9h-51.9L698.2,133l25.9-44.9h51.9L802,133L776.1,177.9z M725.9,174.9h48.4l24.2-41.9l-24.2-41.9
			h-48.4L701.8,133L725.9,174.9z"/>
	</g>
	<g>
		<linearGradient id="SVGID_19_" gradientUnits="userSpaceOnUse" x1="773.0975" y1="176.3866" x2="850.0385" y2="176.3866">
			<stop  offset="0" style="stop-color:#403591"/>
			<stop  offset="1" style="stop-color:#5E2768"/>
		</linearGradient>
		<polygon class="st18" points="850,221.3 799,221.3 773.1,176.4 799,131.5 850,131.5 850,134.5 800.8,134.5 776.6,176.4 
			800.8,218.3 850,218.3 		"/>
	</g>
	<g>
		<linearGradient id="SVGID_20_" gradientUnits="userSpaceOnUse" x1="99.3124" y1="393.4033" x2="203.0761" y2="393.4033">
			<stop  offset="0" style="stop-color:#403591"/>
			<stop  offset="1" style="stop-color:#5E2768"/>
		</linearGradient>
		<path class="st19" d="M177.1,438.3h-51.9l-25.9-44.9l25.9-44.9h51.9l25.9,44.9L177.1,438.3z M127,435.3h48.4l24.2-41.9l-24.2-41.9
			H127l-24.2,41.9L127,435.3z"/>
	</g>
	<g>
		<linearGradient id="SVGID_21_" gradientUnits="userSpaceOnUse" x1="174.1782" y1="436.4233" x2="277.501" y2="436.4233">
			<stop  offset="0" style="stop-color:#403591"/>
			<stop  offset="1" style="stop-color:#5E2768"/>
		</linearGradient>
		<polygon class="st20" points="199.7,481 174.2,436.8 200.1,391.9 252,391.9 277.5,436 274.9,437.6 250.2,394.9 201.9,394.9 
			177.7,436.8 202.3,479.4 		"/>
	</g>
	<g>
		<linearGradient id="SVGID_22_" gradientUnits="userSpaceOnUse" x1="249.0429" y1="393.4033" x2="352.8057" y2="393.4033">
			<stop  offset="0" style="stop-color:#403591"/>
			<stop  offset="1" style="stop-color:#5E2768"/>
		</linearGradient>
		<path class="st21" d="M326.9,438.3H275L249,393.4l25.9-44.9h51.9l25.9,44.9L326.9,438.3z M276.7,435.3h48.4l24.2-41.9l-24.2-41.9
			h-48.4l-24.2,41.9L276.7,435.3z"/>
	</g>
	<g>
		<linearGradient id="SVGID_23_" gradientUnits="userSpaceOnUse" x1="323.9087" y1="437.1872" x2="427.2285" y2="437.1872">
			<stop  offset="0" style="stop-color:#403591"/>
			<stop  offset="1" style="stop-color:#5E2768"/>
		</linearGradient>
		<polygon class="st22" points="401.7,481.7 349.8,481.7 323.9,436.8 349.4,392.6 352.1,394.2 327.4,436.8 351.6,478.7 400,478.7 
			424.6,436 427.2,437.6 		"/>
	</g>
	<g>
		<linearGradient id="SVGID_24_" gradientUnits="userSpaceOnUse" x1="99.3124" y1="480.2094" x2="176.2523" y2="480.2094">
			<stop  offset="0" style="stop-color:#403591"/>
			<stop  offset="1" style="stop-color:#5E2768"/>
		</linearGradient>
		<polygon class="st23" points="176.3,525.1 125.3,525.1 99.3,480.2 125.3,435.3 176.3,435.3 176.3,438.3 127,438.3 102.8,480.2 
			127,522.1 176.3,522.1 		"/>
	</g>
	<g>
		<linearGradient id="SVGID_25_" gradientUnits="userSpaceOnUse" x1="398.7736" y1="479.8273" x2="475.7125" y2="479.8273">
			<stop  offset="0" style="stop-color:#403591"/>
			<stop  offset="1" style="stop-color:#5E2768"/>
		</linearGradient>
		<polygon class="st24" points="424.3,524.4 398.8,480.2 424.7,435.3 475.7,435.3 475.7,438.3 426.5,438.3 402.3,480.2 426.9,522.8 
					"/>
	</g>
	<g>
		<linearGradient id="SVGID_26_" gradientUnits="userSpaceOnUse" x1="99.3124" y1="219.7891" x2="203.0761" y2="219.7891">
			<stop  offset="0" style="stop-color:#403591"/>
			<stop  offset="1" style="stop-color:#5E2768"/>
		</linearGradient>
		<path class="st25" d="M177.1,264.7h-51.9l-25.9-44.9l25.9-44.9h51.9l25.9,44.9L177.1,264.7z M127,261.7h48.4l24.2-41.9l-24.2-41.9
			H127l-24.2,41.9L127,261.7z"/>
	</g>
	<g>
		<linearGradient id="SVGID_27_" gradientUnits="userSpaceOnUse" x1="174.1782" y1="262.8113" x2="277.501" y2="262.8113">
			<stop  offset="0" style="stop-color:#403591"/>
			<stop  offset="1" style="stop-color:#5E2768"/>
		</linearGradient>
		<polygon class="st26" points="199.7,307.4 174.2,263.2 200.1,218.3 252,218.3 277.5,262.4 274.9,264 250.2,221.3 201.9,221.3 
			177.7,263.2 202.3,305.8 		"/>
	</g>
	<g>
		<linearGradient id="SVGID_28_" gradientUnits="userSpaceOnUse" x1="249.0429" y1="219.7901" x2="325.9829" y2="219.7901">
			<stop  offset="0" style="stop-color:#403591"/>
			<stop  offset="1" style="stop-color:#5E2768"/>
		</linearGradient>
		<polygon class="st27" points="326,264.7 275,264.7 249,219.8 275,174.9 326,174.9 326,177.9 276.7,177.9 252.6,219.8 276.7,261.7 
			326,261.7 		"/>
	</g>
	<g>
		<linearGradient id="SVGID_29_" gradientUnits="userSpaceOnUse" x1="398.7736" y1="220.1725" x2="502.0944" y2="220.1725">
			<stop  offset="0" style="stop-color:#403591"/>
			<stop  offset="1" style="stop-color:#5E2768"/>
		</linearGradient>
		<polygon class="st28" points="476.6,264.7 424.7,264.7 398.8,219.8 424.3,175.6 426.9,177.2 402.3,219.8 426.5,261.7 474.8,261.7 
			499.4,219 502.1,220.6 		"/>
	</g>
	<g>
		<linearGradient id="SVGID_30_" gradientUnits="userSpaceOnUse" x1="474.0783" y1="263.5759" x2="577.4022" y2="263.5759">
			<stop  offset="0" style="stop-color:#403591"/>
			<stop  offset="1" style="stop-color:#5E2768"/>
		</linearGradient>
		<polygon class="st29" points="551.5,308.1 499.6,308.1 474.1,264 476.7,262.4 501.3,305.1 549.7,305.1 573.9,263.2 549.3,220.6 
			551.9,219 577.4,263.2 		"/>
	</g>
	<g>
		<linearGradient id="SVGID_31_" gradientUnits="userSpaceOnUse" x1="548.9441" y1="220.1725" x2="652.2669" y2="220.1725">
			<stop  offset="0" style="stop-color:#403591"/>
			<stop  offset="1" style="stop-color:#5E2768"/>
		</linearGradient>
		<polygon class="st30" points="626.3,264.7 574.4,264.7 548.9,220.6 551.6,219 576.2,261.7 624.6,261.7 648.7,219.8 624.1,177.2 
			626.8,175.6 652.3,219.8 		"/>
	</g>
	<g>
		<linearGradient id="SVGID_32_" gradientUnits="userSpaceOnUse" x1="623.8079" y1="241.1101" x2="726.6908" y2="241.1101">
			<stop  offset="0" style="stop-color:#403591"/>
			<stop  offset="1" style="stop-color:#5E2768"/>
		</linearGradient>
		<polygon class="st31" points="724,264 699.4,221.3 651.1,221.3 626.5,264 623.8,262.4 649.3,218.3 701.2,218.3 726.7,262.4 		"/>
	</g>
	<g>
		<linearGradient id="SVGID_33_" gradientUnits="userSpaceOnUse" x1="698.2327" y1="219.7912" x2="801.9975" y2="219.7912">
			<stop  offset="0" style="stop-color:#403591"/>
			<stop  offset="1" style="stop-color:#5E2768"/>
		</linearGradient>
		<path class="st32" d="M776.1,264.7h-51.9l-25.9-44.9l25.9-44.9h51.9l25.9,44.9L776.1,264.7z M725.9,261.7h48.4l24.2-41.9
			l-24.2-41.9h-48.4l-24.2,41.9L725.9,261.7z"/>
	</g>
	<g>
		<linearGradient id="SVGID_34_" gradientUnits="userSpaceOnUse" x1="773.0975" y1="263.1936" x2="876.8613" y2="263.1936">
			<stop  offset="0" style="stop-color:#403591"/>
			<stop  offset="1" style="stop-color:#5E2768"/>
		</linearGradient>
		<path class="st33" d="M850.9,308.1H799l-25.9-44.9l25.9-44.9h51.9l25.9,44.9L850.9,308.1z M800.8,305.1h48.4l24.2-41.9l-24.2-41.9
			h-48.4l-24.2,41.9L800.8,305.1z"/>
	</g>
	<g>
		<linearGradient id="SVGID_35_" gradientUnits="userSpaceOnUse" x1="99.3124" y1="306.5965" x2="176.2523" y2="306.5965">
			<stop  offset="0" style="stop-color:#403591"/>
			<stop  offset="1" style="stop-color:#5E2768"/>
		</linearGradient>
		<polygon class="st34" points="176.3,351.5 125.3,351.5 99.3,306.6 125.3,261.7 176.3,261.7 176.3,264.7 127,264.7 102.8,306.6 
			127,348.5 176.3,348.5 		"/>
	</g>
	<g>
		<linearGradient id="SVGID_36_" gradientUnits="userSpaceOnUse" x1="275.8668" y1="306.5965" x2="352.8057" y2="306.5965">
			<stop  offset="0" style="stop-color:#403591"/>
			<stop  offset="1" style="stop-color:#5E2768"/>
		</linearGradient>
		<polygon class="st35" points="326.9,351.5 275.9,351.5 275.9,348.5 325.1,348.5 349.3,306.6 325.1,264.7 275.9,264.7 275.9,261.7 
			326.9,261.7 352.8,306.6 		"/>
	</g>
	<g>
		<linearGradient id="SVGID_37_" gradientUnits="userSpaceOnUse" x1="398.7736" y1="306.2142" x2="502.0944" y2="306.2142">
			<stop  offset="0" style="stop-color:#403591"/>
			<stop  offset="1" style="stop-color:#5E2768"/>
		</linearGradient>
		<polygon class="st36" points="424.3,350.8 398.8,306.6 424.7,261.7 476.6,261.7 502.1,305.8 499.4,307.4 474.8,264.7 426.5,264.7 
			402.3,306.6 426.9,349.2 		"/>
	</g>
	<g>
		<linearGradient id="SVGID_38_" gradientUnits="userSpaceOnUse" x1="548.5021" y1="306.2142" x2="651.826" y2="306.2142">
			<stop  offset="0" style="stop-color:#403591"/>
			<stop  offset="1" style="stop-color:#5E2768"/>
		</linearGradient>
		<polygon class="st37" points="574,350.8 548.5,306.6 574.4,261.7 626.3,261.7 651.8,305.8 649.2,307.4 624.6,264.7 576.2,264.7 
			552,306.6 576.6,349.2 		"/>
	</g>
	<g>
		<linearGradient id="SVGID_39_" gradientUnits="userSpaceOnUse" x1="725.0555" y1="306.2142" x2="801.9975" y2="306.2142">
			<stop  offset="0" style="stop-color:#403591"/>
			<stop  offset="1" style="stop-color:#5E2768"/>
		</linearGradient>
		<polygon class="st38" points="776.5,350.8 773.8,349.2 798.5,306.6 774.3,264.7 725.1,264.7 725.1,261.7 776.1,261.7 802,306.6 		
			"/>
	</g>
	<g>
		<linearGradient id="SVGID_40_" gradientUnits="userSpaceOnUse" x1="773.0975" y1="350.0003" x2="850.0385" y2="350.0003">
			<stop  offset="0" style="stop-color:#403591"/>
			<stop  offset="1" style="stop-color:#5E2768"/>
		</linearGradient>
		<polygon class="st39" points="850,394.9 799,394.9 773.1,350 799,305.1 850,305.1 850,308.1 800.8,308.1 776.6,350 800.8,391.9 
			850,391.9 		"/>
	</g>
	<g>
		<linearGradient id="SVGID_41_" gradientUnits="userSpaceOnUse" x1="99.3124" y1="567.0148" x2="203.0761" y2="567.0148">
			<stop  offset="0" style="stop-color:#403591"/>
			<stop  offset="1" style="stop-color:#5E2768"/>
		</linearGradient>
		<path class="st40" d="M177.1,611.9h-51.9L99.3,567l25.9-44.9h51.9l25.9,44.9L177.1,611.9z M127,608.9h48.4l24.2-41.9l-24.2-41.9
			H127L102.8,567L127,608.9z"/>
	</g>
	<g>
		<linearGradient id="SVGID_42_" gradientUnits="userSpaceOnUse" x1="174.1782" y1="610.4172" x2="277.9409" y2="610.4172">
			<stop  offset="0" style="stop-color:#403591"/>
			<stop  offset="1" style="stop-color:#5E2768"/>
		</linearGradient>
		<path class="st41" d="M252,655.3h-51.9l-25.9-44.9l25.9-44.9H252l25.9,44.9L252,655.3z M201.9,652.3h48.4l24.2-41.9l-24.2-41.9
			h-48.4l-24.2,41.9L201.9,652.3z"/>
	</g>
	<g>
		<linearGradient id="SVGID_43_" gradientUnits="userSpaceOnUse" x1="249.0429" y1="567.0148" x2="352.8057" y2="567.0148">
			<stop  offset="0" style="stop-color:#403591"/>
			<stop  offset="1" style="stop-color:#5E2768"/>
		</linearGradient>
		<path class="st42" d="M326.9,611.9H275L249,567l25.9-44.9h51.9l25.9,44.9L326.9,611.9z M276.7,608.9h48.4l24.2-41.9l-24.2-41.9
			h-48.4L252.6,567L276.7,608.9z"/>
	</g>
	<g>
		<linearGradient id="SVGID_44_" gradientUnits="userSpaceOnUse" x1="323.9087" y1="610.4172" x2="427.6705" y2="610.4172">
			<stop  offset="0" style="stop-color:#403591"/>
			<stop  offset="1" style="stop-color:#5E2768"/>
		</linearGradient>
		<path class="st43" d="M401.7,655.3h-51.9l-25.9-44.9l25.9-44.9h51.9l25.9,44.9L401.7,655.3z M351.6,652.3H400l24.2-41.9L400,568.5
			h-48.4l-24.2,41.9L351.6,652.3z"/>
	</g>
	<g>
		<linearGradient id="SVGID_45_" gradientUnits="userSpaceOnUse" x1="398.7736" y1="567.3969" x2="475.7125" y2="567.3969">
			<stop  offset="0" style="stop-color:#403591"/>
			<stop  offset="1" style="stop-color:#5E2768"/>
		</linearGradient>
		<polygon class="st44" points="475.7,611.9 424.7,611.9 398.8,567 424.3,522.8 426.9,524.4 402.3,567 426.5,608.9 475.7,608.9 		
			"/>
	</g>
	<g>
		<linearGradient id="SVGID_46_" gradientUnits="userSpaceOnUse" x1="99.3124" y1="653.8209" x2="203.0761" y2="653.8209">
			<stop  offset="0" style="stop-color:#403591"/>
			<stop  offset="1" style="stop-color:#5E2768"/>
		</linearGradient>
		<path class="st45" d="M177.1,698.8h-51.9l-25.9-44.9l25.9-44.9h51.9l25.9,44.9L177.1,698.8z M127,695.7h48.4l24.2-41.9l-24.2-41.9
			H127l-24.2,41.9L127,695.7z"/>
	</g>
	<g>
		<linearGradient id="SVGID_47_" gradientUnits="userSpaceOnUse" x1="174.6181" y1="675.1403" x2="277.501" y2="675.1403">
			<stop  offset="0" style="stop-color:#403591"/>
			<stop  offset="1" style="stop-color:#5E2768"/>
		</linearGradient>
		<polygon class="st46" points="274.9,698 250.2,655.3 201.9,655.3 177.3,698 174.6,696.5 200.1,652.3 252,652.3 277.5,696.5 		"/>
	</g>
	<g>
		<linearGradient id="SVGID_48_" gradientUnits="userSpaceOnUse" x1="249.0429" y1="653.8209" x2="352.8057" y2="653.8209">
			<stop  offset="0" style="stop-color:#403591"/>
			<stop  offset="1" style="stop-color:#5E2768"/>
		</linearGradient>
		<path class="st47" d="M326.9,698.8H275L249,653.8l25.9-44.9h51.9l25.9,44.9L326.9,698.8z M276.7,695.7h48.4l24.2-41.9l-24.2-41.9
			h-48.4l-24.2,41.9L276.7,695.7z"/>
	</g>
	<g>
		<linearGradient id="SVGID_49_" gradientUnits="userSpaceOnUse" x1="324.3487" y1="675.1403" x2="427.2285" y2="675.1403">
			<stop  offset="0" style="stop-color:#403591"/>
			<stop  offset="1" style="stop-color:#5E2768"/>
		</linearGradient>
		<polygon class="st48" points="424.6,698 400,655.3 351.6,655.3 327,698 324.3,696.5 349.8,652.3 401.7,652.3 427.2,696.5 		"/>
	</g>
	<g>
		<linearGradient id="SVGID_50_" gradientUnits="userSpaceOnUse" x1="398.7736" y1="653.8209" x2="502.5364" y2="653.8209">
			<stop  offset="0" style="stop-color:#403591"/>
			<stop  offset="1" style="stop-color:#5E2768"/>
		</linearGradient>
		<path class="st49" d="M476.6,698.8h-51.9l-25.9-44.9l25.9-44.9h51.9l25.9,44.9L476.6,698.8z M426.5,695.7h48.4l24.2-41.9
			l-24.2-41.9h-48.4l-24.2,41.9L426.5,695.7z"/>
	</g>
	<g>
		<linearGradient id="SVGID_51_" gradientUnits="userSpaceOnUse" x1="470.594" y1="437.1749" x2="480.5925" y2="437.1749">
			<stop  offset="0" style="stop-color:#403591"/>
			<stop  offset="1" style="stop-color:#5E2768"/>
		</linearGradient>
		<circle class="st50" cx="475.6" cy="437.2" r="5"/>
	</g>
	<g>
		<linearGradient id="SVGID_52_" gradientUnits="userSpaceOnUse" x1="420.5746" y1="349.2358" x2="430.5731" y2="349.2358">
			<stop  offset="0" style="stop-color:#403591"/>
			<stop  offset="1" style="stop-color:#5E2768"/>
		</linearGradient>
		<circle class="st51" cx="425.6" cy="349.2" r="5"/>
	</g>
	<g>
		<linearGradient id="SVGID_53_" gradientUnits="userSpaceOnUse" x1="570.3308" y1="350.7632" x2="580.3293" y2="350.7632">
			<stop  offset="0" style="stop-color:#403591"/>
			<stop  offset="1" style="stop-color:#5E2768"/>
		</linearGradient>
		<circle class="st52" cx="575.3" cy="350.8" r="5"/>
	</g>
	<g>
		<linearGradient id="SVGID_54_" gradientUnits="userSpaceOnUse" x1="645.1699" y1="306.2148" x2="655.1684" y2="306.2148">
			<stop  offset="0" style="stop-color:#403591"/>
			<stop  offset="1" style="stop-color:#5E2768"/>
		</linearGradient>
		<circle class="st53" cx="650.2" cy="306.2" r="5"/>
	</g>
	<g>
		<linearGradient id="SVGID_55_" gradientUnits="userSpaceOnUse" x1="470.0143" y1="176.3877" x2="480.0129" y2="176.3877">
			<stop  offset="0" style="stop-color:#403591"/>
			<stop  offset="1" style="stop-color:#5E2768"/>
		</linearGradient>
		<circle class="st54" cx="475" cy="176.4" r="5"/>
	</g>
	<g>
		<linearGradient id="SVGID_56_" gradientUnits="userSpaceOnUse" x1="495.8515" y1="133.7499" x2="505.85" y2="133.7499">
			<stop  offset="0" style="stop-color:#403591"/>
			<stop  offset="1" style="stop-color:#5E2768"/>
		</linearGradient>
		<circle class="st55" cx="500.9" cy="133.7" r="5"/>
	</g>
	<g>
		<linearGradient id="SVGID_57_" gradientUnits="userSpaceOnUse" x1="196.6122" y1="306.5971" x2="206.6107" y2="306.5971">
			<stop  offset="0" style="stop-color:#403591"/>
			<stop  offset="1" style="stop-color:#5E2768"/>
		</linearGradient>
		<circle class="st56" cx="201.6" cy="306.6" r="5"/>
	</g>
	<g>
		<linearGradient id="SVGID_58_" gradientUnits="userSpaceOnUse" x1="196.6122" y1="479.827" x2="206.6107" y2="479.827">
			<stop  offset="0" style="stop-color:#403591"/>
			<stop  offset="1" style="stop-color:#5E2768"/>
		</linearGradient>
		<circle class="st57" cx="201.6" cy="479.8" r="5"/>
	</g>
	<g>
		<linearGradient id="SVGID_59_" gradientUnits="userSpaceOnUse" x1="845.0392" y1="393.2339" x2="855.0378" y2="393.2339">
			<stop  offset="0" style="stop-color:#403591"/>
			<stop  offset="1" style="stop-color:#5E2768"/>
		</linearGradient>
		<circle class="st58" cx="850" cy="393.2" r="5"/>
	</g>
	<g>
		<linearGradient id="SVGID_60_" gradientUnits="userSpaceOnUse" x1="745.7269" y1="393.2339" x2="755.7255" y2="393.2339">
			<stop  offset="0" style="stop-color:#403591"/>
			<stop  offset="1" style="stop-color:#5E2768"/>
		</linearGradient>
		<circle class="st59" cx="750.7" cy="393.2" r="5"/>
	</g>
	<g>
		<linearGradient id="SVGID_61_" gradientUnits="userSpaceOnUse" x1="0.442" y1="46.5607" x2="103.7649" y2="46.5607">
			<stop  offset="0" style="stop-color:#403591"/>
			<stop  offset="1" style="stop-color:#5E2768"/>
		</linearGradient>
		<polygon class="st60" points="77.8,91.1 25.9,91.1 0.4,46.9 3.1,45.4 27.7,88.1 76.1,88.1 100.2,46.2 75.6,3.5 78.3,2 103.8,46.2 
					"/>
	</g>
	<g>
		<linearGradient id="SVGID_62_" gradientUnits="userSpaceOnUse" x1="74.8649" y1="89.5818" x2="178.6296" y2="89.5818">
			<stop  offset="0" style="stop-color:#403591"/>
			<stop  offset="1" style="stop-color:#5E2768"/>
		</linearGradient>
		<path class="st61" d="M152.7,134.5h-51.9L74.9,89.6l25.9-44.9h51.9l25.9,44.9L152.7,134.5z M102.6,131.5h48.4l24.2-41.9
			l-24.2-41.9h-48.4L78.4,89.6L102.6,131.5z"/>
	</g>
	<g>
		<linearGradient id="SVGID_63_" gradientUnits="userSpaceOnUse" x1="149.7307" y1="46.1794" x2="226.6716" y2="46.1794">
			<stop  offset="0" style="stop-color:#403591"/>
			<stop  offset="1" style="stop-color:#5E2768"/>
		</linearGradient>
		<polygon class="st62" points="226.7,91.1 175.7,91.1 149.7,46.2 175.7,1.2 226.7,1.2 226.7,4.3 177.4,4.3 153.3,46.2 177.4,88.1 
			226.7,88.1 		"/>
	</g>
	<g>
		<linearGradient id="SVGID_64_" gradientUnits="userSpaceOnUse" x1="225.0373" y1="89.9631" x2="328.3593" y2="89.9631">
			<stop  offset="0" style="stop-color:#403591"/>
			<stop  offset="1" style="stop-color:#5E2768"/>
		</linearGradient>
		<polygon class="st63" points="302.4,134.5 250.5,134.5 225,90.3 227.7,88.8 252.3,131.5 300.7,131.5 324.8,89.6 300.2,46.9 
			302.9,45.4 328.4,89.6 		"/>
	</g>
	<g>
		<linearGradient id="SVGID_65_" gradientUnits="userSpaceOnUse" x1="326.283" y1="68.2619" x2="402.7841" y2="68.2619">
			<stop  offset="0" style="stop-color:#403591"/>
			<stop  offset="1" style="stop-color:#5E2768"/>
		</linearGradient>
		<polygon class="st64" points="377.3,91.1 326.3,91.1 326.3,88.1 375.5,88.1 400.1,45.4 402.8,46.9 		"/>
	</g>
	<g>
		<linearGradient id="SVGID_66_" gradientUnits="userSpaceOnUse" x1="374.324" y1="89.2005" x2="477.6489" y2="89.2005">
			<stop  offset="0" style="stop-color:#403591"/>
			<stop  offset="1" style="stop-color:#5E2768"/>
		</linearGradient>
		<polygon class="st65" points="399.8,133.7 374.3,89.6 400.3,44.7 452.1,44.7 477.6,88.8 475,90.3 450.4,47.7 402,47.7 377.9,89.6 
			402.5,132.2 		"/>
	</g>
	<g>
		<linearGradient id="SVGID_67_" gradientUnits="userSpaceOnUse" x1="449.1888" y1="46.5607" x2="552.5126" y2="46.5607">
			<stop  offset="0" style="stop-color:#403591"/>
			<stop  offset="1" style="stop-color:#5E2768"/>
		</linearGradient>
		<polygon class="st66" points="527,91.1 475.1,91.1 449.2,46.2 474.7,2 477.3,3.5 452.7,46.2 476.9,88.1 525.2,88.1 549.9,45.4 
			552.5,46.9 		"/>
	</g>
	<g>
		<linearGradient id="SVGID_68_" gradientUnits="userSpaceOnUse" x1="524.0546" y1="89.2005" x2="627.8194" y2="89.2005">
			<stop  offset="0" style="stop-color:#403591"/>
			<stop  offset="1" style="stop-color:#5E2768"/>
		</linearGradient>
		<polygon class="st67" points="602.3,133.7 599.7,132.2 624.3,89.6 600.1,47.7 551.8,47.7 527.6,89.6 552.2,132.2 549.6,133.7 
			524.1,89.6 550,44.7 601.9,44.7 627.8,89.6 		"/>
	</g>
	<g>
		<linearGradient id="SVGID_69_" gradientUnits="userSpaceOnUse" x1="599.3613" y1="46.5607" x2="702.6841" y2="46.5607">
			<stop  offset="0" style="stop-color:#403591"/>
			<stop  offset="1" style="stop-color:#5E2768"/>
		</linearGradient>
		<polygon class="st68" points="676.7,91.1 624.9,91.1 599.4,46.9 602,45.4 626.6,88.1 675,88.1 699.2,46.2 674.5,3.5 677.2,2 
			702.7,46.2 		"/>
	</g>
	<g>
		<linearGradient id="SVGID_70_" gradientUnits="userSpaceOnUse" x1="673.7852" y1="89.5818" x2="777.55" y2="89.5818">
			<stop  offset="0" style="stop-color:#403591"/>
			<stop  offset="1" style="stop-color:#5E2768"/>
		</linearGradient>
		<path class="st69" d="M751.6,134.5h-51.9l-25.9-44.9l25.9-44.9h51.9l25.9,44.9L751.6,134.5z M701.5,131.5h48.4L774,89.6
			l-24.2-41.9h-48.4l-24.2,41.9L701.5,131.5z"/>
	</g>
	<g>
		<linearGradient id="SVGID_71_" gradientUnits="userSpaceOnUse" x1="0" y1="132.9842" x2="103.7649" y2="132.9842">
			<stop  offset="0" style="stop-color:#403591"/>
			<stop  offset="1" style="stop-color:#5E2768"/>
		</linearGradient>
		<path class="st70" d="M77.8,177.9H25.9L0,133l25.9-44.9h51.9l25.9,44.9L77.8,177.9z M27.7,174.9h48.4l24.2-41.9L76.1,91.1H27.7
			L3.5,133L27.7,174.9z"/>
	</g>
	<g>
		<linearGradient id="SVGID_72_" gradientUnits="userSpaceOnUse" x1="74.8649" y1="176.769" x2="178.1877" y2="176.769">
			<stop  offset="0" style="stop-color:#403591"/>
			<stop  offset="1" style="stop-color:#5E2768"/>
		</linearGradient>
		<polygon class="st71" points="152.7,221.3 100.8,221.3 74.9,176.4 100.4,132.2 103,133.7 78.4,176.4 102.6,218.3 150.9,218.3 
			175.5,175.6 178.2,177.2 		"/>
	</g>
	<g>
		<linearGradient id="SVGID_73_" gradientUnits="userSpaceOnUse" x1="176.5534" y1="132.9842" x2="253.4944" y2="132.9842">
			<stop  offset="0" style="stop-color:#403591"/>
			<stop  offset="1" style="stop-color:#5E2768"/>
		</linearGradient>
		<polygon class="st72" points="227.6,177.9 176.6,177.9 176.6,174.9 225.8,174.9 250,133 225.8,91.1 176.6,91.1 176.6,88.1 
			227.6,88.1 253.5,133 		"/>
	</g>
	<g>
		<linearGradient id="SVGID_74_" gradientUnits="userSpaceOnUse" x1="224.5954" y1="176.3866" x2="328.3593" y2="176.3866">
			<stop  offset="0" style="stop-color:#403591"/>
			<stop  offset="1" style="stop-color:#5E2768"/>
		</linearGradient>
		<path class="st73" d="M302.4,221.3h-51.9l-25.9-44.9l25.9-44.9h51.9l25.9,44.9L302.4,221.3z M252.3,218.3h48.4l24.2-41.9
			l-24.2-41.9h-48.4l-24.2,41.9L252.3,218.3z"/>
	</g>
	<g>
		<linearGradient id="SVGID_75_" gradientUnits="userSpaceOnUse" x1="374.7659" y1="198.4702" x2="451.2671" y2="198.4702">
			<stop  offset="0" style="stop-color:#403591"/>
			<stop  offset="1" style="stop-color:#5E2768"/>
		</linearGradient>
		<polygon class="st74" points="451.3,221.3 400.3,221.3 374.8,177.2 377.4,175.6 402,218.3 451.3,218.3 		"/>
	</g>
	<g>
		<linearGradient id="SVGID_76_" gradientUnits="userSpaceOnUse" x1="524.808" y1="132.9842" x2="552.9546" y2="132.9842">
			<stop  offset="0" style="stop-color:#403591"/>
			<stop  offset="1" style="stop-color:#5E2768"/>
		</linearGradient>
		<polygon class="st75" points="527.5,177.2 524.8,175.6 549.4,133 524.8,90.3 527.5,88.8 553,133 		"/>
	</g>
	<g>
		<linearGradient id="SVGID_77_" gradientUnits="userSpaceOnUse" x1="598.9205" y1="132.9842" x2="702.6841" y2="132.9842">
			<stop  offset="0" style="stop-color:#403591"/>
			<stop  offset="1" style="stop-color:#5E2768"/>
		</linearGradient>
		<path class="st76" d="M676.7,177.9h-51.9L598.9,133l25.9-44.9h51.9l25.9,44.9L676.7,177.9z M626.6,174.9H675l24.2-41.9L675,91.1
			h-48.4L602.4,133L626.6,174.9z"/>
	</g>
	<g>
		<linearGradient id="SVGID_78_" gradientUnits="userSpaceOnUse" x1="673.7852" y1="176.3866" x2="750.7262" y2="176.3866">
			<stop  offset="0" style="stop-color:#403591"/>
			<stop  offset="1" style="stop-color:#5E2768"/>
		</linearGradient>
		<polygon class="st77" points="750.7,221.3 699.7,221.3 673.8,176.4 699.7,131.5 750.7,131.5 750.7,134.5 701.5,134.5 677.3,176.4 
			701.5,218.3 750.7,218.3 		"/>
	</g>
	<g>
		<linearGradient id="SVGID_79_" gradientUnits="userSpaceOnUse" x1="0" y1="393.4033" x2="103.7649" y2="393.4033">
			<stop  offset="0" style="stop-color:#403591"/>
			<stop  offset="1" style="stop-color:#5E2768"/>
		</linearGradient>
		<path class="st78" d="M77.8,438.3H25.9L0,393.4l25.9-44.9h51.9l25.9,44.9L77.8,438.3z M27.7,435.3h48.4l24.2-41.9l-24.2-41.9H27.7
			L3.5,393.4L27.7,435.3z"/>
	</g>
	<g>
		<linearGradient id="SVGID_80_" gradientUnits="userSpaceOnUse" x1="74.8649" y1="436.4233" x2="178.1877" y2="436.4233">
			<stop  offset="0" style="stop-color:#403591"/>
			<stop  offset="1" style="stop-color:#5E2768"/>
		</linearGradient>
		<polygon class="st79" points="100.4,481 74.9,436.8 100.8,391.9 152.7,391.9 178.2,436 175.5,437.6 150.9,394.9 102.6,394.9 
			78.4,436.8 103,479.4 		"/>
	</g>
	<g>
		<linearGradient id="SVGID_81_" gradientUnits="userSpaceOnUse" x1="149.7307" y1="393.4033" x2="253.4934" y2="393.4033">
			<stop  offset="0" style="stop-color:#403591"/>
			<stop  offset="1" style="stop-color:#5E2768"/>
		</linearGradient>
		<path class="st80" d="M227.6,438.3h-51.9l-25.9-44.9l25.9-44.9h51.9l25.9,44.9L227.6,438.3z M177.4,435.3h48.4l24.2-41.9
			l-24.2-41.9h-48.4l-24.2,41.9L177.4,435.3z"/>
	</g>
	<g>
		<linearGradient id="SVGID_82_" gradientUnits="userSpaceOnUse" x1="224.5954" y1="437.1872" x2="327.9172" y2="437.1872">
			<stop  offset="0" style="stop-color:#403591"/>
			<stop  offset="1" style="stop-color:#5E2768"/>
		</linearGradient>
		<polygon class="st81" points="302.4,481.7 250.5,481.7 224.6,436.8 250.1,392.6 252.7,394.2 228.1,436.8 252.3,478.7 300.7,478.7 
			325.3,436 327.9,437.6 		"/>
	</g>
	<g>
		<linearGradient id="SVGID_83_" gradientUnits="userSpaceOnUse" x1="0" y1="480.2094" x2="76.941" y2="480.2094">
			<stop  offset="0" style="stop-color:#403591"/>
			<stop  offset="1" style="stop-color:#5E2768"/>
		</linearGradient>
		<polygon class="st82" points="76.9,525.1 25.9,525.1 0,480.2 25.9,435.3 76.9,435.3 76.9,438.3 27.7,438.3 3.5,480.2 27.7,522.1 
			76.9,522.1 		"/>
	</g>
	<g>
		<linearGradient id="SVGID_84_" gradientUnits="userSpaceOnUse" x1="299.4603" y1="479.8273" x2="376.4002" y2="479.8273">
			<stop  offset="0" style="stop-color:#403591"/>
			<stop  offset="1" style="stop-color:#5E2768"/>
		</linearGradient>
		<polygon class="st83" points="325,524.4 299.5,480.2 325.4,435.3 376.4,435.3 376.4,438.3 327.2,438.3 303,480.2 327.6,522.8 		
			"/>
	</g>
	<g>
		<linearGradient id="SVGID_85_" gradientUnits="userSpaceOnUse" x1="0" y1="219.7891" x2="103.7649" y2="219.7891">
			<stop  offset="0" style="stop-color:#403591"/>
			<stop  offset="1" style="stop-color:#5E2768"/>
		</linearGradient>
		<path class="st84" d="M77.8,264.7H25.9L0,219.8l25.9-44.9h51.9l25.9,44.9L77.8,264.7z M27.7,261.7h48.4l24.2-41.9l-24.2-41.9H27.7
			L3.5,219.8L27.7,261.7z"/>
	</g>
	<g>
		<linearGradient id="SVGID_86_" gradientUnits="userSpaceOnUse" x1="74.8649" y1="262.8113" x2="178.1877" y2="262.8113">
			<stop  offset="0" style="stop-color:#403591"/>
			<stop  offset="1" style="stop-color:#5E2768"/>
		</linearGradient>
		<polygon class="st85" points="100.4,307.4 74.9,263.2 100.8,218.3 152.7,218.3 178.2,262.4 175.5,264 150.9,221.3 102.6,221.3 
			78.4,263.2 103,305.8 		"/>
	</g>
	<g>
		<linearGradient id="SVGID_87_" gradientUnits="userSpaceOnUse" x1="149.7307" y1="219.7901" x2="226.6716" y2="219.7901">
			<stop  offset="0" style="stop-color:#403591"/>
			<stop  offset="1" style="stop-color:#5E2768"/>
		</linearGradient>
		<polygon class="st86" points="226.7,264.7 175.7,264.7 149.7,219.8 175.7,174.9 226.7,174.9 226.7,177.9 177.4,177.9 153.3,219.8 
			177.4,261.7 226.7,261.7 		"/>
	</g>
	<g>
		<linearGradient id="SVGID_88_" gradientUnits="userSpaceOnUse" x1="299.4612" y1="220.1725" x2="402.7841" y2="220.1725">
			<stop  offset="0" style="stop-color:#403591"/>
			<stop  offset="1" style="stop-color:#5E2768"/>
		</linearGradient>
		<polygon class="st87" points="377.3,264.7 325.4,264.7 299.5,219.8 325,175.6 327.6,177.2 303,219.8 327.2,261.7 375.5,261.7 
			400.1,219 402.8,220.6 		"/>
	</g>
	<g>
		<linearGradient id="SVGID_89_" gradientUnits="userSpaceOnUse" x1="374.7659" y1="263.5759" x2="478.0888" y2="263.5759">
			<stop  offset="0" style="stop-color:#403591"/>
			<stop  offset="1" style="stop-color:#5E2768"/>
		</linearGradient>
		<polygon class="st88" points="452.1,308.1 400.3,308.1 374.8,264 377.4,262.4 402,305.1 450.4,305.1 474.6,263.2 449.9,220.6 
			452.6,219 478.1,263.2 		"/>
	</g>
	<g>
		<linearGradient id="SVGID_90_" gradientUnits="userSpaceOnUse" x1="449.6308" y1="220.1725" x2="552.9546" y2="220.1725">
			<stop  offset="0" style="stop-color:#403591"/>
			<stop  offset="1" style="stop-color:#5E2768"/>
		</linearGradient>
		<polygon class="st89" points="527,264.7 475.1,264.7 449.6,220.6 452.3,219 476.9,261.7 525.2,261.7 549.4,219.8 524.8,177.2 
			527.5,175.6 553,219.8 		"/>
	</g>
	<g>
		<linearGradient id="SVGID_91_" gradientUnits="userSpaceOnUse" x1="524.4966" y1="241.1101" x2="627.3784" y2="241.1101">
			<stop  offset="0" style="stop-color:#403591"/>
			<stop  offset="1" style="stop-color:#5E2768"/>
		</linearGradient>
		<polygon class="st90" points="624.7,264 600.1,221.3 551.8,221.3 527.1,264 524.5,262.4 550,218.3 601.9,218.3 627.4,262.4 		"/>
	</g>
	<g>
		<linearGradient id="SVGID_92_" gradientUnits="userSpaceOnUse" x1="598.9205" y1="219.7912" x2="702.6841" y2="219.7912">
			<stop  offset="0" style="stop-color:#403591"/>
			<stop  offset="1" style="stop-color:#5E2768"/>
		</linearGradient>
		<path class="st91" d="M676.7,264.7h-51.9l-25.9-44.9l25.9-44.9h51.9l25.9,44.9L676.7,264.7z M626.6,261.7H675l24.2-41.9L675,177.9
			h-48.4l-24.2,41.9L626.6,261.7z"/>
	</g>
	<g>
		<linearGradient id="SVGID_93_" gradientUnits="userSpaceOnUse" x1="673.7852" y1="263.1936" x2="777.55" y2="263.1936">
			<stop  offset="0" style="stop-color:#403591"/>
			<stop  offset="1" style="stop-color:#5E2768"/>
		</linearGradient>
		<path class="st92" d="M751.6,308.1h-51.9l-25.9-44.9l25.9-44.9h51.9l25.9,44.9L751.6,308.1z M701.5,305.1h48.4l24.2-41.9
			l-24.2-41.9h-48.4l-24.2,41.9L701.5,305.1z"/>
	</g>
	<g>
		<linearGradient id="SVGID_94_" gradientUnits="userSpaceOnUse" x1="0" y1="306.5965" x2="76.941" y2="306.5965">
			<stop  offset="0" style="stop-color:#403591"/>
			<stop  offset="1" style="stop-color:#5E2768"/>
		</linearGradient>
		<polygon class="st93" points="76.9,351.5 25.9,351.5 0,306.6 25.9,261.7 76.9,261.7 76.9,264.7 27.7,264.7 3.5,306.6 27.7,348.5 
			76.9,348.5 		"/>
	</g>
	<g>
		<linearGradient id="SVGID_95_" gradientUnits="userSpaceOnUse" x1="176.5534" y1="306.5965" x2="253.4944" y2="306.5965">
			<stop  offset="0" style="stop-color:#403591"/>
			<stop  offset="1" style="stop-color:#5E2768"/>
		</linearGradient>
		<polygon class="st94" points="227.6,351.5 176.6,351.5 176.6,348.5 225.8,348.5 250,306.6 225.8,264.7 176.6,264.7 176.6,261.7 
			227.6,261.7 253.5,306.6 		"/>
	</g>
	<g>
		<linearGradient id="SVGID_96_" gradientUnits="userSpaceOnUse" x1="299.4603" y1="306.2142" x2="402.7831" y2="306.2142">
			<stop  offset="0" style="stop-color:#403591"/>
			<stop  offset="1" style="stop-color:#5E2768"/>
		</linearGradient>
		<polygon class="st95" points="325,350.8 299.5,306.6 325.4,261.7 377.3,261.7 402.8,305.8 400.1,307.4 375.5,264.7 327.2,264.7 
			303,306.6 327.6,349.2 		"/>
	</g>
	<g>
		<linearGradient id="SVGID_97_" gradientUnits="userSpaceOnUse" x1="449.1888" y1="306.2142" x2="552.5126" y2="306.2142">
			<stop  offset="0" style="stop-color:#403591"/>
			<stop  offset="1" style="stop-color:#5E2768"/>
		</linearGradient>
		<polygon class="st96" points="474.7,350.8 449.2,306.6 475.1,261.7 527,261.7 552.5,305.8 549.9,307.4 525.2,264.7 476.9,264.7 
			452.7,306.6 477.3,349.2 		"/>
	</g>
	<g>
		<linearGradient id="SVGID_98_" gradientUnits="userSpaceOnUse" x1="625.7432" y1="306.2142" x2="702.6841" y2="306.2142">
			<stop  offset="0" style="stop-color:#403591"/>
			<stop  offset="1" style="stop-color:#5E2768"/>
		</linearGradient>
		<polygon class="st97" points="677.2,350.8 674.5,349.2 699.2,306.6 675,264.7 625.7,264.7 625.7,261.7 676.7,261.7 702.7,306.6 		
			"/>
	</g>
	<g>
		<linearGradient id="SVGID_99_" gradientUnits="userSpaceOnUse" x1="673.7852" y1="350.0003" x2="750.7262" y2="350.0003">
			<stop  offset="0" style="stop-color:#403591"/>
			<stop  offset="1" style="stop-color:#5E2768"/>
		</linearGradient>
		<polygon class="st98" points="750.7,394.9 699.7,394.9 673.8,350 699.7,305.1 750.7,305.1 750.7,308.1 701.5,308.1 677.3,350 
			701.5,391.9 750.7,391.9 		"/>
	</g>
	<g>
		<linearGradient id="SVGID_100_" gradientUnits="userSpaceOnUse" x1="0" y1="567.0148" x2="103.7638" y2="567.0148">
			<stop  offset="0" style="stop-color:#403591"/>
			<stop  offset="1" style="stop-color:#5E2768"/>
		</linearGradient>
		<path class="st99" d="M77.8,611.9H25.9L0,567l25.9-44.9h51.9l25.9,44.9L77.8,611.9z M27.7,608.9h48.4l24.2-41.9l-24.2-41.9H27.7
			L3.5,567L27.7,608.9z"/>
	</g>
	<g>
		<linearGradient id="SVGID_101_" gradientUnits="userSpaceOnUse" x1="74.8649" y1="610.4172" x2="178.6286" y2="610.4172">
			<stop  offset="0" style="stop-color:#403591"/>
			<stop  offset="1" style="stop-color:#5E2768"/>
		</linearGradient>
		<path class="st100" d="M152.7,655.3h-51.9l-25.9-44.9l25.9-44.9h51.9l25.9,44.9L152.7,655.3z M102.6,652.3h48.4l24.2-41.9
			l-24.2-41.9h-48.4l-24.2,41.9L102.6,652.3z"/>
	</g>
	<g>
		<linearGradient id="SVGID_102_" gradientUnits="userSpaceOnUse" x1="149.7307" y1="567.0148" x2="253.4934" y2="567.0148">
			<stop  offset="0" style="stop-color:#403591"/>
			<stop  offset="1" style="stop-color:#5E2768"/>
		</linearGradient>
		<path class="st101" d="M227.6,611.9h-51.9L149.7,567l25.9-44.9h51.9l25.9,44.9L227.6,611.9z M177.4,608.9h48.4L250,567l-24.2-41.9
			h-48.4L153.3,567L177.4,608.9z"/>
	</g>
	<g>
		<linearGradient id="SVGID_103_" gradientUnits="userSpaceOnUse" x1="224.5954" y1="610.4172" x2="328.3593" y2="610.4172">
			<stop  offset="0" style="stop-color:#403591"/>
			<stop  offset="1" style="stop-color:#5E2768"/>
		</linearGradient>
		<path class="st102" d="M302.4,655.3h-51.9l-25.9-44.9l25.9-44.9h51.9l25.9,44.9L302.4,655.3z M252.3,652.3h48.4l24.2-41.9
			l-24.2-41.9h-48.4l-24.2,41.9L252.3,652.3z"/>
	</g>
	<g>
		<linearGradient id="SVGID_104_" gradientUnits="userSpaceOnUse" x1="299.4603" y1="567.3969" x2="376.4002" y2="567.3969">
			<stop  offset="0" style="stop-color:#403591"/>
			<stop  offset="1" style="stop-color:#5E2768"/>
		</linearGradient>
		<polygon class="st103" points="376.4,611.9 325.4,611.9 299.5,567 325,522.8 327.6,524.4 303,567 327.2,608.9 376.4,608.9 		"/>
	</g>
	<g>
		<linearGradient id="SVGID_105_" gradientUnits="userSpaceOnUse" x1="0" y1="653.8209" x2="103.7638" y2="653.8209">
			<stop  offset="0" style="stop-color:#403591"/>
			<stop  offset="1" style="stop-color:#5E2768"/>
		</linearGradient>
		<path class="st104" d="M77.8,698.8H25.9L0,653.8l25.9-44.9h51.9l25.9,44.9L77.8,698.8z M27.7,695.7h48.4l24.2-41.9l-24.2-41.9
			H27.7L3.5,653.8L27.7,695.7z"/>
	</g>
	<g>
		<linearGradient id="SVGID_106_" gradientUnits="userSpaceOnUse" x1="75.3057" y1="675.1403" x2="178.1877" y2="675.1403">
			<stop  offset="0" style="stop-color:#403591"/>
			<stop  offset="1" style="stop-color:#5E2768"/>
		</linearGradient>
		<polygon class="st105" points="175.5,698 150.9,655.3 102.6,655.3 78,698 75.3,696.5 100.8,652.3 152.7,652.3 178.2,696.5 		"/>
	</g>
	<g>
		<linearGradient id="SVGID_107_" gradientUnits="userSpaceOnUse" x1="149.7307" y1="653.8209" x2="253.4934" y2="653.8209">
			<stop  offset="0" style="stop-color:#403591"/>
			<stop  offset="1" style="stop-color:#5E2768"/>
		</linearGradient>
		<path class="st106" d="M227.6,698.8h-51.9l-25.9-44.9l25.9-44.9h51.9l25.9,44.9L227.6,698.8z M177.4,695.7h48.4l24.2-41.9
			l-24.2-41.9h-48.4l-24.2,41.9L177.4,695.7z"/>
	</g>
	<g>
		<linearGradient id="SVGID_108_" gradientUnits="userSpaceOnUse" x1="225.0364" y1="675.1403" x2="327.9172" y2="675.1403">
			<stop  offset="0" style="stop-color:#403591"/>
			<stop  offset="1" style="stop-color:#5E2768"/>
		</linearGradient>
		<polygon class="st107" points="325.3,698 300.7,655.3 252.3,655.3 227.7,698 225,696.5 250.5,652.3 302.4,652.3 327.9,696.5 		"/>
	</g>
	<g>
		<linearGradient id="SVGID_109_" gradientUnits="userSpaceOnUse" x1="299.4603" y1="653.8209" x2="403.224" y2="653.8209">
			<stop  offset="0" style="stop-color:#403591"/>
			<stop  offset="1" style="stop-color:#5E2768"/>
		</linearGradient>
		<path class="st108" d="M377.3,698.8h-51.9l-25.9-44.9l25.9-44.9h51.9l25.9,44.9L377.3,698.8z M327.2,695.7h48.4l24.2-41.9
			l-24.2-41.9h-48.4L303,653.8L327.2,695.7z"/>
	</g>
	<g>
		<linearGradient id="SVGID_110_" gradientUnits="userSpaceOnUse" x1="371.4009" y1="437.1873" x2="381.3995" y2="437.1873">
			<stop  offset="0" style="stop-color:#403591"/>
			<stop  offset="1" style="stop-color:#5E2768"/>
		</linearGradient>
		<circle class="st109" cx="376.4" cy="437.2" r="5"/>
	</g>
	<g>
		<linearGradient id="SVGID_111_" gradientUnits="userSpaceOnUse" x1="470.7132" y1="349.2358" x2="480.7117" y2="349.2358">
			<stop  offset="0" style="stop-color:#403591"/>
			<stop  offset="1" style="stop-color:#5E2768"/>
		</linearGradient>
		<circle class="st110" cx="475.7" cy="349.2" r="5"/>
	</g>
	<g>
		<linearGradient id="SVGID_112_" gradientUnits="userSpaceOnUse" x1="371.7277" y1="176.3034" x2="381.7263" y2="176.3034">
			<stop  offset="0" style="stop-color:#403591"/>
			<stop  offset="1" style="stop-color:#5E2768"/>
		</linearGradient>
		<circle class="st111" cx="376.7" cy="176.3" r="5"/>
	</g>
</g>
</svg>
