<svg id="Layer_1" data-name="Layer 1" xmlns="http://www.w3.org/2000/svg" viewBox="0 0 96 96"><title>Large-Security-ISO</title><path d="M48,7A41,41,0,1,1,7,48,41,41,0,0,1,48,7m0-3A44,44,0,1,0,92,48,44.05,44.05,0,0,0,48,4Z"/><path d="M38.79,82.48a1.47,1.47,0,0,0-.73.47,2.13,2.13,0,0,0-.43.88,2,2,0,0,0,.08,1.41,1.54,1.54,0,0,0,1.06.76,2.72,2.72,0,0,0,.91.08l.09-.34a3.56,3.56,0,0,1-.85-.08,1.17,1.17,0,0,1-.81-.6,1.56,1.56,0,0,1,0-1.12,1.6,1.6,0,0,1,.58-1,1.2,1.2,0,0,1,1-.15,1.9,1.9,0,0,1,.73.38l.26-.3a2.18,2.18,0,0,0-.89-.43A1.77,1.77,0,0,0,38.79,82.48Z"/><path d="M42.06,83.86a1.06,1.06,0,0,0-.9.23,1.62,1.62,0,0,0-.47,1,1.34,1.34,0,0,0,.17,1,1.23,1.23,0,0,0,.86.51,1.9,1.9,0,0,0,.46,0,1.64,1.64,0,0,0,.42-.06l0-.35a2.09,2.09,0,0,1-.86,0,.77.77,0,0,1-.58-.34,1.07,1.07,0,0,1-.12-.74l1.8.3,0-.25a1.28,1.28,0,0,0-.14-.9A1,1,0,0,0,42.06,83.86Zm.46,1.21-1.37-.23a1,1,0,0,1,.32-.53.68.68,0,0,1,.53-.12.6.6,0,0,1,.45.28A.88.88,0,0,1,42.52,85.07Z"/><path d="M44.58,84.32a1.16,1.16,0,0,0-.4.37h0v-.49l-.33,0-.26,2.64.4,0,.14-1.42a.89.89,0,0,1,.29-.62.71.71,0,0,1,.57-.21l.29.06.09-.36a1.42,1.42,0,0,0-.31-.06A.75.75,0,0,0,44.58,84.32Z"/><path d="M46.37,83.74h-.24l-.19.56-.39.15v.19l.37,0-.06,1.57a.7.7,0,0,0,.73.85h.23A.64.64,0,0,0,47,87l0-.3-.16,0h-.21a.43.43,0,0,1-.31-.14.55.55,0,0,1-.09-.38l.07-1.56.76,0,0-.31-.77,0Z"/><path d="M48,83.41a.18.18,0,0,0-.17.06.24.24,0,0,0-.07.2.28.28,0,0,0,.06.2.22.22,0,0,0,.17.07.25.25,0,0,0,.17-.06.27.27,0,0,0,.07-.21.3.3,0,0,0-.06-.2A.25.25,0,0,0,48,83.41Z"/><rect x="46.63" y="85.52" width="2.65" height="0.4" transform="translate(-38.47 132.38) rotate(-89.14)"/><polygon points="50.72 84.3 50.87 86.94 51.27 86.92 51.12 84.27 50.72 84.3"/><path d="M50.9,83.83a.2.2,0,0,0,.16-.07.33.33,0,0,0,.06-.21.26.26,0,0,0-.08-.19.27.27,0,0,0-.17-.06.24.24,0,0,0-.17.07.33.33,0,0,0-.06.21.34.34,0,0,0,.08.2A.23.23,0,0,0,50.9,83.83Z"/><path d="M49.15,84.22v.15l-.47.17v.18l.48,0L49.31,87l.4,0-.13-2.34.67,0v-.31l-.68,0v-.17a.92.92,0,0,1,.08-.49.39.39,0,0,1,.33-.17,1.24,1.24,0,0,1,.4,0l.09-.33a1.91,1.91,0,0,0-.5,0C49.38,83.23,49.11,83.57,49.15,84.22Z"/><path d="M53.47,86.36a.85.85,0,0,1-.66-.16,1,1,0,0,1-.33-.67l1.81-.25,0-.25a1.29,1.29,0,0,0-.41-.82A1,1,0,0,0,53,84a1.05,1.05,0,0,0-.79.48,1.57,1.57,0,0,0-.17,1.06,1.39,1.39,0,0,0,.47.94,1.26,1.26,0,0,0,1,.23A2.11,2.11,0,0,0,54,86.6a1.85,1.85,0,0,0,.38-.18l0-.36A2.1,2.1,0,0,1,53.47,86.36Zm-.88-1.75a.64.64,0,0,1,.47-.28.62.62,0,0,1,.51.13.94.94,0,0,1,.25.56l-1.38.19A.93.93,0,0,1,52.59,84.61Z"/><path d="M56.3,82.3l.23,1.06,0,.18.06.18h0a1,1,0,0,0-.9-.21,1,1,0,0,0-.71.53,1.61,1.61,0,0,0-.06,1.06,1.55,1.55,0,0,0,.5.92,1,1,0,0,0,.87.18.93.93,0,0,0,.72-.58h0l.13.33.32-.07-.81-3.67Zm.54,2.47a1.15,1.15,0,0,1,0,.75.75.75,0,0,1-.54.35.65.65,0,0,1-.59-.14,1.28,1.28,0,0,1-.34-.71,1.34,1.34,0,0,1,0-.8.63.63,0,0,1,.47-.38.72.72,0,0,1,.64.11,1.28,1.28,0,0,1,.35.74Z"/><rect x="11.43" y="38.63" width="0.41" height="3.54" transform="translate(-30.29 43.57) rotate(-78.26)"/><path d="M13.71,39.25l-1.34-.37a1.13,1.13,0,0,1-.67-.39.73.73,0,0,1,0-.64.59.59,0,0,1,.28-.41.7.7,0,0,1,.5,0l1.66.45.1-.38L12.52,37a1,1,0,0,0-.77,0,1.06,1.06,0,0,0-.42.64,1.1,1.1,0,0,0,0,.51.77.77,0,0,0,.21.41v0l-.37,0-.08.32,2.55.7Z"/><path d="M11.87,35.59l.14,0,0,.49.17.06.16-.44,2.21.77.13-.38-2.21-.77.23-.64-.3-.1-.22.63-.16,0a1,1,0,0,1-.43-.27.39.39,0,0,1,0-.37,1.53,1.53,0,0,1,.21-.35l-.27-.2a1.67,1.67,0,0,0-.25.44C11,35,11.26,35.37,11.87,35.59Z"/><path d="M13.79,34.63a1.65,1.65,0,0,0,.73.15,1.09,1.09,0,0,0,.61-.21,1.28,1.28,0,0,0,.42-1.48,1.41,1.41,0,0,0-.8-.7,1.46,1.46,0,0,0-1.05-.1A1.17,1.17,0,0,0,13,33a1.14,1.14,0,0,0,0,1A1.45,1.45,0,0,0,13.79,34.63Zm-.47-1.53a.76.76,0,0,1,.48-.45,1.32,1.32,0,0,1,.79.12,1.26,1.26,0,0,1,.63.49.73.73,0,0,1,0,.66.71.71,0,0,1-.49.44,1.18,1.18,0,0,1-.79-.12,1.21,1.21,0,0,1-.63-.49A.74.74,0,0,1,13.32,33.1Z"/><path d="M16.5,31.89l-1.27-.65a1,1,0,0,1-.47-.51.72.72,0,0,1,0-.61,2.22,2.22,0,0,1,.17-.24l-.31-.22a3.18,3.18,0,0,0-.17.27.76.76,0,0,0-.08.47,1,1,0,0,0,.19.5v0l-.46-.19L14,31l2.35,1.22Z"/><path d="M17.46,30.09l-1.17-.76a1.22,1.22,0,0,1-.53-.55.64.64,0,0,1,.11-.59.52.52,0,0,1,.36-.27.72.72,0,0,1,.47.15l1.45.93.22-.33-1.24-.81a1,1,0,0,1-.46-.51.65.65,0,0,1,.12-.58.52.52,0,0,1,.36-.27.68.68,0,0,1,.47.15l1.45.93.22-.34-1.45-.93a1,1,0,0,0-.75-.22.92.92,0,0,0-.56.44,1.11,1.11,0,0,0-.17.5.75.75,0,0,0,.09.47h0a.8.8,0,0,0-.82.44.91.91,0,0,0-.16.45.74.74,0,0,0,.08.44h0l-.34-.14L15,29l2.23,1.44Z"/><path d="M18.61,24.33a.5.5,0,0,1,.38-.24.63.63,0,0,1,.44.18l.13.1-.27.36c-.51.69-.57,1.2-.15,1.53a.74.74,0,0,0,.59.19.91.91,0,0,0,.55-.35,1.38,1.38,0,0,0,.24-.44,1,1,0,0,0,0-.52l0,0,.34.18.19-.23-1.41-1.14a.86.86,0,0,0-.67-.24,1,1,0,0,0-.61.41,1.63,1.63,0,0,0-.24.4,1.6,1.6,0,0,0-.14.44l.31.1A1.73,1.73,0,0,1,18.61,24.33Zm1.17.23.19.15a.78.78,0,0,1,.31.53.8.8,0,0,1-.21.59.53.53,0,0,1-.32.21.41.41,0,0,1-.34-.1.47.47,0,0,1-.19-.42,1.51,1.51,0,0,1,.32-.64Z"/><path d="M19.51,23l.15.13.25-.28,1.17,1.07a.69.69,0,0,0,1.11,0,.86.86,0,0,0,.14-.18.85.85,0,0,0,.1-.18l-.23-.2-.08.13-.13.17a.43.43,0,0,1-.31.14.5.5,0,0,1-.34-.17l-1.15-1,.52-.57-.23-.21-.52.57-.46-.42-.15.17.3.51Z"/><path d="M20.67,20.82a.23.23,0,0,0,.17-.07.33.33,0,0,0,.07-.17.27.27,0,0,0-.1-.19.26.26,0,0,0-.19-.09.24.24,0,0,0-.16.07.23.23,0,0,0,0,.36A.28.28,0,0,0,20.67,20.82Z"/><rect x="21.89" y="20.68" width="0.4" height="2.65" transform="translate(-9.09 22.01) rotate(-44.91)"/><path d="M23.41,21.72a1.11,1.11,0,0,0,.64.08,1.16,1.16,0,0,0,.58-.3,1.13,1.13,0,0,0,.44-.87,1.49,1.49,0,0,0-.42-1,1.47,1.47,0,0,0-.91-.54,1.15,1.15,0,0,0-.91.31,1.18,1.18,0,0,0-.44.87,1.46,1.46,0,0,0,.43,1A1.63,1.63,0,0,0,23.41,21.72Zm-.36-2a.7.7,0,0,1,.62-.21,1.56,1.56,0,0,1,1,1.16.79.79,0,0,1-.9.79,1.26,1.26,0,0,1-.66-.44,1.22,1.22,0,0,1-.36-.72A.71.71,0,0,1,23.05,19.7Z"/><path d="M26.41,20l-.83-1.12a1.14,1.14,0,0,1-.29-.71.74.74,0,0,1,.36-.54.57.57,0,0,1,.46-.15.71.71,0,0,1,.41.3l1,1.38.33-.24-1-1.39a1,1,0,0,0-.64-.45,1,1,0,0,0-.72.24,1.18,1.18,0,0,0-.33.38.82.82,0,0,0-.1.45v0l-.27-.26-.27.2,1.58,2.13Z"/><path d="M28.82,15.83a1.71,1.71,0,0,0,.82,0,3.92,3.92,0,0,1,.57-.06.58.58,0,0,1,.32.07.56.56,0,0,1,.25.7,1,1,0,0,1-.46.44,2.49,2.49,0,0,1-.47.21,3.11,3.11,0,0,1-.49.11l.2.34a2.28,2.28,0,0,0,.92-.34,1.48,1.48,0,0,0,.68-.68,1,1,0,0,0-.54-1.21,2,2,0,0,0-.88,0,2.34,2.34,0,0,1-.53.05.57.57,0,0,1-.31-.07.59.59,0,0,1-.21-.23.47.47,0,0,1,0-.43.78.78,0,0,1,.37-.37,2,2,0,0,1,.84-.26l-.07-.38a2.6,2.6,0,0,0-.94.31,1.32,1.32,0,0,0-.59.61.8.8,0,0,0,.06.72A.89.89,0,0,0,28.82,15.83Z"/><path d="M32.22,16a1.24,1.24,0,0,0,1-.07,2.68,2.68,0,0,0,.4-.23,2.09,2.09,0,0,0,.31-.29l-.15-.33a2,2,0,0,1-.69.52.82.82,0,0,1-.68.05,1,1,0,0,1-.51-.54l1.66-.78-.11-.23a1.27,1.27,0,0,0-.63-.66,1.13,1.13,0,0,0-1.46.74,1.52,1.52,0,0,0,.14,1.06A1.4,1.4,0,0,0,32.22,16Zm-.5-1.81a.66.66,0,0,1,.37-.4.62.62,0,0,1,.53,0,.93.93,0,0,1,.4.46l-1.26.59A1,1,0,0,1,31.72,14.17Z"/><path d="M34.78,14.84a1.11,1.11,0,0,0,1,0,1.45,1.45,0,0,0,.57-.37l-.12-.33a1.71,1.71,0,0,1-.59.37.68.68,0,0,1-.64,0,1.32,1.32,0,0,1-.45-.63c-.24-.65-.11-1.06.39-1.26a1.81,1.81,0,0,1,.27-.06,1.67,1.67,0,0,1,.31,0v-.36a1.11,1.11,0,0,0-.31,0,1.64,1.64,0,0,0-.38.1,1.13,1.13,0,0,0-.72.66A1.52,1.52,0,0,0,34.12,14,1.48,1.48,0,0,0,34.78,14.84Z"/><path d="M37.15,14.12a1.06,1.06,0,0,0,.77,0,1.22,1.22,0,0,0,.45-.24.73.73,0,0,0,.24-.38h0l.16.33.31-.09-.74-2.55L38,11.3l.4,1.34a1.2,1.2,0,0,1,0,.77.75.75,0,0,1-.52.39.58.58,0,0,1-.49,0,.68.68,0,0,1-.28-.42l-.48-1.65-.39.11.49,1.67A1,1,0,0,0,37.15,14.12Z"/><path d="M40.37,13.45l-.3-1.39a1,1,0,0,1,.09-.69.71.71,0,0,1,.48-.37l.29,0,0-.38a1.27,1.27,0,0,0-.32,0,.73.73,0,0,0-.41.23,1.14,1.14,0,0,0-.27.47h0l-.15-.47-.32.07L40,13.53Z"/><rect x="41.81" y="10.46" width="0.4" height="2.65" transform="translate(-1.35 6.92) rotate(-9.26)"/><path d="M41.73,10a.24.24,0,0,0,.15-.09.28.28,0,0,0,0-.21.31.31,0,0,0-.1-.19.24.24,0,0,0-.18,0,.24.24,0,0,0-.16.09.28.28,0,0,0,0,.21.29.29,0,0,0,.1.19A.22.22,0,0,0,41.73,10Z"/><path d="M43.08,10.6l.18,1.57a.71.71,0,0,0,.87.71,1.12,1.12,0,0,0,.22-.05.52.52,0,0,0,.18-.07l0-.31-.15.06-.21,0a.42.42,0,0,1-.32-.09.55.55,0,0,1-.16-.36l-.18-1.55.76-.09,0-.31-.76.09-.07-.61-.23,0-.11.58-.35.21,0,.2Z"/><path d="M45.66,13.09a.61.61,0,0,1-.57.5,1.45,1.45,0,0,1-.3,0l0,.32a1.51,1.51,0,0,0,.37,0,.78.78,0,0,0,.54-.22,1.56,1.56,0,0,0,.36-.65l1-3.09-.43,0c-.32,1-.5,1.67-.56,1.87s-.09.35-.1.43h0a7.71,7.71,0,0,0-.28-.73L45,10.08l-.43,0,1.22,2.6Z"/><path d="M49.61,10.38c0-.34,0-.63,0-.88h0l.95,3.22.33,0,1.45-3h0c0,.3-.08.59-.1.85l-.18,2.27.41,0,.28-3.53-.61,0-1.36,2.82h0l-.89-3-.61,0-.28,3.53.38,0Z"/><path d="M54.11,13.2a1.19,1.19,0,0,0,.5,0,1.06,1.06,0,0,0,.45-.26h0v.39l.3.05.32-1.78a.87.87,0,0,0-.1-.7,1,1,0,0,0-.65-.34,1.91,1.91,0,0,0-.48,0,1.63,1.63,0,0,0-.45.09l.07.32a1.78,1.78,0,0,1,.77-.07.58.58,0,0,1,.4.23.71.71,0,0,1,0,.48l0,.16-.45-.07c-.85-.13-1.32.07-1.42.6a.78.78,0,0,0,.12.61A.88.88,0,0,0,54.11,13.2Zm-.27-.84a.46.46,0,0,1,.28-.37,1.59,1.59,0,0,1,.71,0l.4.06,0,.23a.75.75,0,0,1-.31.53.84.84,0,0,1-.62.1.56.56,0,0,1-.34-.18A.41.41,0,0,1,53.84,12.36Z"/><path d="M57,12.33a1.14,1.14,0,0,1,.38-.67A.78.78,0,0,1,58,11.6a.62.62,0,0,1,.4.28.64.64,0,0,1,0,.5L58,14l.39.1.45-1.67a.94.94,0,0,0,0-.77,1,1,0,0,0-.64-.42,1.21,1.21,0,0,0-.5,0,.87.87,0,0,0-.42.2h0l0-.37L56.9,11l-.69,2.56.38.11Z"/><path d="M59.78,14.68a1.21,1.21,0,0,0,.5.09,1.1,1.1,0,0,0,.48-.18h0l-.05.39.28.1.62-1.7a.9.9,0,0,0,0-.72,1,1,0,0,0-.59-.44,2.21,2.21,0,0,0-.46-.1,2.34,2.34,0,0,0-.46,0v.33a1.73,1.73,0,0,1,.78.07.54.54,0,0,1,.35.28.68.68,0,0,1,0,.48l-.06.16-.43-.14c-.81-.27-1.31-.15-1.49.35a.74.74,0,0,0,0,.62A.85.85,0,0,0,59.78,14.68Zm-.13-.87A.46.46,0,0,1,60,13.5a1.36,1.36,0,0,1,.7.09l.38.12-.08.23a.75.75,0,0,1-.39.47.86.86,0,0,1-.63,0,.54.54,0,0,1-.31-.23A.45.45,0,0,1,59.65,13.81Z"/><path d="M61.64,15.36a.66.66,0,0,0-.29.94,1.4,1.4,0,0,0,.65.5A1.89,1.89,0,0,0,63,17a.75.75,0,0,0,.6-.46.63.63,0,0,0,0-.58,1.06,1.06,0,0,0-.52-.44l-.43-.19a.64.64,0,0,1-.26-.18.17.17,0,0,1,0-.18.38.38,0,0,1,.37-.21,1.18,1.18,0,0,0,.19.11,1.07,1.07,0,0,0,.77.09.77.77,0,0,0,.5-.45,1.22,1.22,0,0,0,.08-.3,1.06,1.06,0,0,0,0-.26l.47.16.1-.24-.83-.38a2,2,0,0,0-.32-.2,1.08,1.08,0,0,0-.77-.09.85.85,0,0,0-.52.5.91.91,0,0,0-.08.48.79.79,0,0,0,.19.4,1,1,0,0,0-.31.09.44.44,0,0,0-.18.2.5.5,0,0,0,0,.24.54.54,0,0,0,.1.2A.8.8,0,0,0,61.64,15.36Zm1.17-1.48a.62.62,0,0,1,.32-.35.63.63,0,0,1,.46,0,.53.53,0,0,1,.3.79.52.52,0,0,1-.78.28.65.65,0,0,1-.34-.31A.56.56,0,0,1,62.81,13.88Zm-.4,1.74.44.2a1,1,0,0,1,.42.28.32.32,0,0,1,0,.33.48.48,0,0,1-.39.27,1.51,1.51,0,0,1-.75-.17,1.09,1.09,0,0,1-.43-.32.35.35,0,0,1,0-.37.48.48,0,0,1,.3-.28A.59.59,0,0,1,62.41,15.62Z"/><path d="M64.62,16.4a1.2,1.2,0,0,0,.64.77,2.51,2.51,0,0,0,.42.19l.41.08.18-.32a2.11,2.11,0,0,1-.83-.25.8.8,0,0,1-.43-.52,1,1,0,0,1,.13-.74l1.6.89.13-.22a1.29,1.29,0,0,0,.16-.9,1,1,0,0,0-.53-.67,1.06,1.06,0,0,0-.93-.08,1.56,1.56,0,0,0-.77.74A1.41,1.41,0,0,0,64.62,16.4Zm1.17-1.46a.65.65,0,0,1,.54.06.62.62,0,0,1,.33.42.87.87,0,0,1-.14.59l-1.21-.68A1,1,0,0,1,65.79,14.94Z"/><path d="M67.1,18.18,67.9,17a1.2,1.2,0,0,1,.57-.51.66.66,0,0,1,.58.14.49.49,0,0,1,.25.37.7.7,0,0,1-.16.47l-1,1.41.33.23.85-1.21a1,1,0,0,1,.53-.44.7.7,0,0,1,.58.14.52.52,0,0,1,.25.37.74.74,0,0,1-.16.47l-1,1.41.32.23,1-1.41A1.09,1.09,0,0,0,71.1,18a.86.86,0,0,0-.42-.57,1.09,1.09,0,0,0-.49-.2.84.84,0,0,0-.47.07h0a.78.78,0,0,0-.4-.84,1.09,1.09,0,0,0-.44-.17.82.82,0,0,0-.44.06h0l.16-.34-.27-.18L66.77,18Z"/><path d="M71.32,21.46a1.64,1.64,0,0,0,.37.27,2.4,2.4,0,0,0,.39.17l.23-.27a2.28,2.28,0,0,1-.75-.42.82.82,0,0,1-.32-.6,1,1,0,0,1,.29-.69l1.38,1.2.16-.19a1.2,1.2,0,0,0,.35-.85,1,1,0,0,0-.38-.76,1,1,0,0,0-.88-.27,1.48,1.48,0,0,0-.91.56,1.39,1.39,0,0,0-.4,1A1.23,1.23,0,0,0,71.32,21.46Zm1-2.07a.67.67,0,0,1,.52.18.57.57,0,0,1,.23.47.88.88,0,0,1-.25.55l-1-.91A1,1,0,0,1,72.3,19.39Z"/><path d="M72.86,22.83l1-1a1.14,1.14,0,0,1,.67-.38.78.78,0,0,1,.59.28.61.61,0,0,1,.2.44.65.65,0,0,1-.24.45l-1.23,1.19.28.29,1.24-1.21a1,1,0,0,0,.36-.69,1,1,0,0,0-.34-.67.89.89,0,0,0-.42-.28.81.81,0,0,0-.46,0h0l.21-.31-.22-.23-1.9,1.85Z"/><path d="M75.3,24.32a.7.7,0,0,0-.12,1.11,1.21,1.21,0,0,0,.16.16.43.43,0,0,0,.17.11l.23-.19-.12-.1-.15-.15a.4.4,0,0,1-.1-.32.54.54,0,0,1,.2-.33l1.19-1,.5.59.24-.2L77,23.4l.47-.4-.15-.17-.54.23-.37-.18-.15.13.24.29Z"/><path d="M77.16,27.32a2.32,2.32,0,0,1-.15-.47l-.33.22a2.32,2.32,0,0,0,.42.89,1.48,1.48,0,0,0,.73.61.87.87,0,0,0,.8-.13.83.83,0,0,0,.36-.51,1.89,1.89,0,0,0-.08-.87,3.1,3.1,0,0,1-.1-.53.72.72,0,0,1,0-.31.62.62,0,0,1,.21-.22.45.45,0,0,1,.43-.07.83.83,0,0,1,.4.34,2.1,2.1,0,0,1,.33.81l.37-.1a2.35,2.35,0,0,0-.39-.91,1.22,1.22,0,0,0-.66-.53.79.79,0,0,0-.71.11.93.93,0,0,0-.4.53,1.7,1.7,0,0,0,0,.82,2.82,2.82,0,0,1,.11.56.68.68,0,0,1,0,.33.53.53,0,0,1-.2.23.52.52,0,0,1-.48.07,1,1,0,0,1-.48-.42A3.21,3.21,0,0,1,77.16,27.32Z"/><path d="M79,30.12h0c.11-.11.29-.3.53-.58l1-1.26-.21-.38-1.77,2.27-.4.06a.62.62,0,0,1-.7-.28,1.62,1.62,0,0,1-.13-.27l-.28.16a1.66,1.66,0,0,0,.15.33.87.87,0,0,0,.44.39,1.42,1.42,0,0,0,.75,0l3.19-.52-.22-.38L79.42,30Z"/><path d="M81.18,30.76a.55.55,0,0,0-.24.21.67.67,0,0,0-.11.31,2.89,2.89,0,0,0,0,.58,1.8,1.8,0,0,1,0,.58.37.37,0,0,1-.18.24.34.34,0,0,1-.35,0,.91.91,0,0,1-.3-.39,1.65,1.65,0,0,1-.14-.41,2.09,2.09,0,0,1,0-.43l-.33.16a1.58,1.58,0,0,0,.21.82,1.26,1.26,0,0,0,.52.6.64.64,0,0,0,.63,0,.59.59,0,0,0,.32-.34,1.61,1.61,0,0,0,0-.73,3.31,3.31,0,0,1,0-.5.45.45,0,0,1,0-.22.26.26,0,0,1,.14-.13.26.26,0,0,1,.28,0,.79.79,0,0,1,.27.35,1.86,1.86,0,0,1,.17.72h.36a2.31,2.31,0,0,0-.21-.83,1.23,1.23,0,0,0-.49-.57A.6.6,0,0,0,81.18,30.76Z"/><path d="M81.2,33.7a.7.7,0,0,0-.45,1,.81.81,0,0,0,.11.2.44.44,0,0,0,.12.16l.28-.12-.09-.13a1.51,1.51,0,0,1-.09-.18.4.4,0,0,1,0-.34.49.49,0,0,1,.29-.25l1.44-.6.3.71.29-.12-.3-.71.57-.24-.09-.21L83,33l-.3-.29-.18.08.15.35Z"/><path d="M82.36,35.08a1.36,1.36,0,0,0-.83.64,1.17,1.17,0,0,0,0,1,2.23,2.23,0,0,0,.18.43,2.37,2.37,0,0,0,.26.34l.34-.12a2.2,2.2,0,0,1-.45-.74.83.83,0,0,1,0-.68,1,1,0,0,1,.59-.45L83,37.22l.25-.09a1.25,1.25,0,0,0,.72-.55,1.11,1.11,0,0,0-.58-1.53A1.5,1.5,0,0,0,82.36,35.08Zm1.38.75a.62.62,0,0,1,0,.52.85.85,0,0,1-.49.35l-.45-1.31a.89.89,0,0,1,.61,0A.63.63,0,0,1,83.74,35.83Z"/><path d="M85.35,40.5a1,1,0,0,0-.23-.47.84.84,0,0,0-.4-.27v0a.79.79,0,0,0,.26-.89,1,1,0,0,0-.21-.43.82.82,0,0,0-.37-.24v0l.34-.15-.08-.31-2.58.58.09.4,1.35-.31a1.24,1.24,0,0,1,.77,0,.7.7,0,0,1,.34.49.55.55,0,0,1-.06.45.74.74,0,0,1-.44.24l-1.68.38.09.39L84,40a1,1,0,0,1,.68,0,.7.7,0,0,1,.34.5.5.5,0,0,1-.07.44.71.71,0,0,1-.43.24l-1.68.38.09.39,1.68-.38a1,1,0,0,0,.68-.38A.92.92,0,0,0,85.35,40.5Z"/><path d="M16.22,48A31.78,31.78,0,1,0,48,16.22,31.82,31.82,0,0,0,16.22,48ZM48,17.46A30.54,30.54,0,1,1,17.46,48,30.57,30.57,0,0,1,48,17.46Z"/><path d="M28.32,37.46a23.61,23.61,0,0,1,2-3c1.21.3,2.44.57,3.69.8.23.05.47.08.71.12,1,.17,1.92.34,2.89.47h0c-.15.49-.27,1-.4,1.51-.09.32-.18.64-.26,1,0,.17-.08.34-.11.51H38.1a2.3,2.3,0,0,1,.06-.28c.07-.33.17-.63.25-.94.14-.55.29-1.09.46-1.61l.31,0c1.28.14,2.56.26,3.86.34h.05c1.31.08,2.62.12,3.93.13l.36,0h0v.84a10,10,0,0,1,1.24.41V36.5h0l.36,0c1.31,0,2.63,0,3.93-.13H53c1.3-.08,2.59-.2,3.86-.34l.31,0c.17.52.32,1.06.46,1.61l0,.11h0a10.18,10.18,0,0,1,1.18-.39h0c-.13-.5-.25-1-.4-1.49h0c1-.13,1.91-.3,2.85-.47.25,0,.51-.07.76-.12,1.24-.23,2.47-.5,3.68-.8a22.08,22.08,0,0,1,2.64,4.38h1.35A23.77,23.77,0,0,0,67,34.1h0l-.6-.75L66.17,33h0A23.42,23.42,0,0,0,48.62,24.5v0H47.38v0A23.42,23.42,0,0,0,29.84,33h0l-.25.31-.6.75h0a24.34,24.34,0,0,0-2.08,3.36ZM64.8,33.34c-.81.19-1.63.38-2.47.54l-.74.16c-1.18.22-2.38.4-3.59.56l-.12-.3-.3-.79L57.37,33c-.11-.26-.23-.51-.34-.77l-.21-.44c-.14-.29-.29-.57-.44-.85l-.14-.27c-.2-.36-.41-.7-.62-1l-.17-.25c-.16-.24-.32-.48-.49-.7l-.24-.31c-.15-.19-.3-.38-.45-.55L54,27.52l-.46-.47-.27-.27-.51-.43-.19-.16A22.16,22.16,0,0,1,64.8,33.34ZM48.62,25.76h0a5,5,0,0,1,1.08.25l.15,0a6.12,6.12,0,0,1,1,.47l.17.1a8.74,8.74,0,0,1,1,.69l.15.13a11.65,11.65,0,0,1,.95.92l.09.11a14.23,14.23,0,0,1,.92,1.16l0,0A16.14,16.14,0,0,1,55,31.05a1.74,1.74,0,0,0,.11.18q.39.7.75,1.5c0,.09.09.17.13.26.23.53.46,1.08.67,1.66a.49.49,0,0,1,0,.11l-.37,0c-1.2.13-2.4.24-3.61.32H52.6q-1.8.1-3.6.12h-.38ZM44,27.32a7.82,7.82,0,0,1,1-.69l.17-.1a6.12,6.12,0,0,1,1-.47l.15,0a5,5,0,0,1,1.08-.25h0v9.49H47c-1.21,0-2.42-.05-3.62-.12h-.12c-1.22-.08-2.42-.19-3.62-.32l-.37,0a.36.36,0,0,1,0-.11c.21-.58.44-1.13.67-1.65l.13-.27c.24-.53.49-1,.76-1.5l.1-.18a16.14,16.14,0,0,1,.87-1.37l0,0a14.23,14.23,0,0,1,.92-1.16l.09-.11a11.65,11.65,0,0,1,.95-.92Zm-.56-1.13c-.06,0-.12.1-.18.15s-.35.29-.52.44l-.27.27c-.15.15-.31.31-.46.48s-.18.19-.27.3-.3.36-.45.55l-.24.31c-.17.22-.33.46-.49.7l-.17.25c-.21.33-.42.67-.62,1l-.13.26c-.15.28-.31.57-.45.87-.07.14-.14.28-.2.43s-.24.51-.35.77l-.21.51-.3.78L38,34.6c-1.21-.16-2.41-.34-3.6-.56l-.73-.16c-.84-.16-1.66-.35-2.47-.54A22.16,22.16,0,0,1,43.43,26.19Z"/><path d="M65.7,61.71c-1.21-.29-2.44-.56-3.69-.79l-.52-.09h0v1.25h.11l.74.16c.83.16,1.65.35,2.47.54a22.35,22.35,0,0,1-3.32,3.07v1.56a24.14,24.14,0,0,0,4.67-4.32h0l.25-.31.6-.75h0A23.21,23.21,0,0,0,70.23,56H68.9A21.86,21.86,0,0,1,65.7,61.71Z"/><path d="M52.57,70l.18-.14.52-.46.26-.25c.16-.16.32-.32.47-.49l.27-.29.45-.56.24-.31a.76.76,0,0,0,.08-.11h0a3.73,3.73,0,0,1-1.77.42h-.14a11.65,11.65,0,0,1-.95.92l-.16.13a7.72,7.72,0,0,1-1,.69l-.18.1a6.12,6.12,0,0,1-1,.47l-.15,0a5.18,5.18,0,0,1-1.07.25h0V67.69a4.55,4.55,0,0,1-.67.08,5.1,5.1,0,0,1-.57,0v2.65h0a5.18,5.18,0,0,1-1.07-.25l-.15,0a6.12,6.12,0,0,1-1-.47l-.18-.1a8.55,8.55,0,0,1-1-.69l-.16-.13a11.65,11.65,0,0,1-.95-.92l-.07-.09H41.22l.06.08c.15.19.3.38.46.56l.25.29.48.49.26.25c.17.16.35.32.53.46l.17.14a21.74,21.74,0,0,1-6.13-2.27H34.89a23.39,23.39,0,0,0,12.49,4v0h1.24v0a23.39,23.39,0,0,0,12.49-4H58.7A21.74,21.74,0,0,1,52.57,70Z"/><path d="M33.21,61.09h0c-1,.2-2,.4-2.91.63a22.5,22.5,0,0,1-2.11-3.3H26.81A23.31,23.31,0,0,0,29,62h0l.6.75.25.31h0a23.92,23.92,0,0,0,3.72,3.61v-1.6A22.47,22.47,0,0,1,31.2,62.8c.81-.19,1.63-.38,2.46-.54l.47-.1h0Z"/><path d="M26.2,57.08h8.45v-1.5l-2.12-.21c0-2.22,0-4.45,0-6.68V47.42c0-2.33,0-4.65,0-6.92l2.12-.21V38.8h-9v1.49h0l1.27.14.78.08c0,2.3.05,4.62.05,6.91v1.27c0,2.25,0,4.49-.05,6.68l-.87.09-1.22.12v1.5Z"/><path d="M43.09,55.94a7.21,7.21,0,0,1-2.73-.5L39.81,52H37.22l-.16,4v.16a7.59,7.59,0,0,0,.9.46h0a13.18,13.18,0,0,0,5.13,1,9.7,9.7,0,0,0,4.29-.87A5.72,5.72,0,0,0,48.55,56l.07-.07A5,5,0,0,0,50.36,52a4.93,4.93,0,0,0-1.08-3.3,5.32,5.32,0,0,0-.66-.69,7,7,0,0,0-.71-.55l-.53-.35a18,18,0,0,0-2-1.06L44,45.44c-1.65-.74-2.53-1.51-2.53-3a2.64,2.64,0,0,1,2.87-2.53,4.59,4.59,0,0,1,1.88.39l.53,3.27h2.55l.23-3.9a7.12,7.12,0,0,0-1-.5,8.43,8.43,0,0,0-1-.39l-.21-.08a11,11,0,0,0-3.07-.44,9.76,9.76,0,0,0-3.25.52,5,5,0,0,0-3.67,4.85,5.23,5.23,0,0,0,1.46,3.8,7.51,7.51,0,0,0,1.5,1.24,15.66,15.66,0,0,0,2.21,1.18l1.18.54c1.67.75,2.4,1.41,2.4,2.88S45.07,55.94,43.09,55.94Z"/><path d="M64.56,38.8a9.28,9.28,0,0,0-3.06-.52,8.84,8.84,0,0,0-2.36.31h0q-.33.09-.66.21L58,39h0c-2.9,1.23-5.1,4-5.26,8.45,0,.16,0,.32,0,.49s0,.5,0,.75A9.16,9.16,0,0,0,56.31,56a7.82,7.82,0,0,0,1.67.93h0a9.55,9.55,0,0,0,1.18.38h0a10,10,0,0,0,2.32.29A8.77,8.77,0,0,0,66.65,56a9.16,9.16,0,0,0,3.64-7.29c0-.25,0-.49,0-.75s0-.33,0-.49C70.14,42.76,67.69,39.89,64.56,38.8Zm.82,9.89C65.27,52.92,64.14,56,61.5,56a2.79,2.79,0,0,1-1.93-.73h0a4.31,4.31,0,0,1-1-1.5h0a13.9,13.9,0,0,1-.92-5.06c0-.25,0-.5,0-.75s0-.33,0-.49a14.28,14.28,0,0,1,.9-5.28h0a4.46,4.46,0,0,1,1-1.51h0a2.82,2.82,0,0,1,2-.79c2.7,0,3.81,3.23,3.89,7.58,0,.16,0,.32,0,.49S65.39,48.44,65.38,48.69Z"/><path d="M84,45.64A36.65,36.65,0,0,1,61.68,78.81c-.78.34.7,5.7,0,6A36.79,36.79,0,0,0,84,51.43C84,49.63,83.94,47.06,84,45.64Z"/><path d="M34.32,78.81A36.65,36.65,0,0,1,12,45.64c0,1.43-.06,4,0,5.79A36.81,36.81,0,0,0,34.32,84.82C33.62,84.51,35.1,79.15,34.32,78.81Z"/><path d="M35.76,60.26a6.24,6.24,0,0,0-.64.47h0a2.09,2.09,0,0,0-.17.14l.85,1h0l.07.08.14-.11h0a3.55,3.55,0,0,1,.52-.38,1.23,1.23,0,0,1,.6-.16.6.6,0,0,1,.44.14.28.28,0,0,1,.1.14h0a.56.56,0,0,1,0,.23,1,1,0,0,1-.08.38,1.8,1.8,0,0,1-.28.43c-.13.17-.42.48-.85.93L35,65.11v1.11h4.54V65.08h0v-.25H37.19v0c.7-.62,1.15-1,1.36-1.26s.1-.13.16-.2h0a4.2,4.2,0,0,0,.35-.44s0,0,0-.05a2.22,2.22,0,0,0,.27-.56,2.53,2.53,0,0,0,.06-.49v0c0-.06,0-.11,0-.17a1.46,1.46,0,0,0,0-.22h0a1.68,1.68,0,0,0-.23-.66,1.84,1.84,0,0,0-.23-.25h0a1.47,1.47,0,0,0-.31-.23h0l-.18-.11a2.81,2.81,0,0,0-.94-.2h-.15a3.88,3.88,0,0,0-.87.09A2.86,2.86,0,0,0,35.76,60.26Z"/><polygon points="41.25 65.57 41.02 66.09 40.96 66.22 41.02 66.22 41.68 66.22 41.69 66.22 42.71 66.22 44.25 62.55 44.92 60.97 44.92 60.97 44.92 60.95 44.92 60.05 44.92 59.97 41.07 59.97 40.75 59.97 40.43 59.97 40.4 59.97 40.4 60.01 40.4 60.03 40.4 61.26 40.4 61.27 40.4 61.37 40.87 61.37 43.11 61.37 41.26 65.55 41.25 65.57"/><path d="M46.38,60.51l-.14.14c-.05.08-.09.17-.14.26v0a4.61,4.61,0,0,0-.39,2,1.41,1.41,0,0,0,0,.21,4.17,4.17,0,0,0,.57,2.4,1.77,1.77,0,0,0,1.12.74,2.54,2.54,0,0,0,.57.07,2.85,2.85,0,0,0,.67-.09,1.81,1.81,0,0,0,1-.69,1.48,1.48,0,0,0,.18-.33,4.82,4.82,0,0,0,.37-2.1A4.69,4.69,0,0,0,49.81,61l-.05-.09h0a1.14,1.14,0,0,0-.12-.22,1.78,1.78,0,0,0-1-.71,2.41,2.41,0,0,0-.67-.1,3.36,3.36,0,0,0-.57,0A1.84,1.84,0,0,0,46.38,60.51Zm1.57.72c.2,0,.35.14.44.41a5.47,5.47,0,0,1,.13,1.46,5.38,5.38,0,0,1-.13,1.45c-.08.27-.23.41-.44.41s-.36-.13-.45-.4a3.89,3.89,0,0,1-.12-.9c0-.17,0-.35,0-.56s0-.39,0-.56a4,4,0,0,1,.12-.91C47.59,61.36,47.74,61.23,48,61.23Z"/><path d="M51.57,65.5a1.92,1.92,0,0,0,1.69.81A2.21,2.21,0,0,0,54.47,66h0a1.79,1.79,0,0,0,.47-.44,2.84,2.84,0,0,0,.43-1.1.08.08,0,0,0,0,0,7.05,7.05,0,0,0,.11-1.29V63a5.39,5.39,0,0,0-.28-1.75v0c0-.12-.11-.23-.16-.33a1.32,1.32,0,0,0-.12-.2,1.92,1.92,0,0,0-1.68-.81,2,2,0,0,0-1.71.77c-.06.09-.11.2-.17.31v0h0A4.87,4.87,0,0,0,51,63.1a4.69,4.69,0,0,0,.39,2.09A2.29,2.29,0,0,0,51.57,65.5Zm1.24-3.87c.09-.27.24-.4.45-.4s.35.14.44.41a5.47,5.47,0,0,1,.13,1.46,5.38,5.38,0,0,1-.13,1.45c-.08.27-.23.41-.44.41s-.36-.13-.45-.4a5.27,5.27,0,0,1-.13-1.46A5.41,5.41,0,0,1,52.81,61.63Z"/><path d="M56.78,61.37h0l0,0h0l-.36.3.16.19v0l.41.5.3.36.41-.34h0l.3-.24a4.83,4.83,0,0,0,.39-.41q0,.51,0,1.11v3.31H60V61.86h0V60.6h0V60H58.5l0,0-.36.29h0l-1.3,1.06Z"/></svg>