<svg id="Layer_1" data-name="Layer 1" xmlns="http://www.w3.org/2000/svg" viewBox="0 0 96 96"><title>Large-Industry-CPG-sales-beat-optimization-Avoiding Overlap copy</title><path d="M69,4.5a14.49,14.49,0,0,0-12.94,8H14A1.5,1.5,0,0,0,12.5,14V90a1.5,1.5,0,0,0,2.42,1.19l6.83-5.29,6.84,5.29a1.53,1.53,0,0,0,1.84,0l6.83-5.29,6.83,5.29a1.52,1.52,0,0,0,1.84,0l6.83-5.29,6.83,5.29a1.49,1.49,0,0,0,1.83,0l6.83-5.29,6.83,5.29a1.52,1.52,0,0,0,1.58.16A1.52,1.52,0,0,0,77.5,90V30.72A14.48,14.48,0,0,0,69,4.5Zm5.5,82.44-5.33-4.13a1.5,1.5,0,0,0-1.84,0L60.51,88.1l-6.83-5.29a1.5,1.5,0,0,0-1.84,0L45,88.1l-6.83-5.29a1.53,1.53,0,0,0-1.84,0L29.51,88.1l-6.84-5.29a1.51,1.51,0,0,0-1.83,0L15.5,86.94V15.5H55A13.93,13.93,0,0,0,54.5,19a14.49,14.49,0,0,0,20,13.41Zm3-60.22A11.48,11.48,0,0,1,57.5,19a11.53,11.53,0,0,1,2-6.5,11.49,11.49,0,1,1,18,14.22Z"/><path d="M69,13.5a5.51,5.51,0,1,0,4.24,2A5.5,5.5,0,0,0,69,13.5Zm0,8A2.5,2.5,0,1,1,71.5,19,2.5,2.5,0,0,1,69,21.5Z"/><rect x="23" y="24.5" width="22" height="3"/><rect x="23" y="35.5" width="33" height="3"/><rect x="23" y="46.5" width="33" height="3"/><rect x="23" y="57.5" width="33" height="3"/><rect x="59" y="46.5" width="10" height="3"/><rect x="59" y="57.5" width="10" height="3"/><rect x="23" y="67.5" width="33" height="3"/><rect x="59" y="67.5" width="10" height="3"/></svg>