<?xml version="1.0" encoding="utf-8"?>
<!-- Generator: Adobe Illustrator 22.1.0, SVG Export Plug-In . SVG Version: 6.00 Build 0)  -->
<svg version="1.1" id="Layer_1" xmlns="http://www.w3.org/2000/svg" xmlns:xlink="http://www.w3.org/1999/xlink" x="0px" y="0px"
	 viewBox="0 0 876.9 700" style="enable-background:new 0 0 876.9 700;" xml:space="preserve">
<style type="text/css">
	.st0{fill:url(#SVGID_1_);}
</style>
<g>
	
		<linearGradient id="SVGID_1_" gradientUnits="userSpaceOnUse" x1="-1199.2775" y1="350" x2="-1945.2802" y2="350" gradientTransform="matrix(-1 0 0 -1 -1209.4163 700)">
		<stop  offset="0" style="stop-color:#FFFFFF"/>
		<stop  offset="1" style="stop-color:#F5F7FA"/>
	</linearGradient>
	<path class="st0" d="M26.8,391.9h-0.9L0,436.8l25.9,44.9h0.9h48.9l24.2,41.9l-24.2,41.9H26.8h-0.9L0,610.4l25.9,44.9h49.8
		l24.6,42.6l2.6-1.5l-24.5-42.4l23-39.8l23.7,41.1h49.8l24.6,42.6l2.6-1.5l-23.7-41.1h49l23.7-41.1l23.7,41.1h49l-23.7,41.1l2.6,1.5
		l24.6-42.6h49.8l23.7-41.1l23,39.8l-24.5,42.4l2.6,1.5l24.6-42.6h49.8l25.1-43.4h47.7l24.6,42.6l2.6-1.5l-23.7-41.1h46.9l24.3,42.1
		l-24,41.6h-49.2v3.1h51l25.1-43.4h47.7l23.3,40.3h-47.8v3.1h51l25.1-43.4H774l24.6,42.6l2.6-1.5l-24.5-42.4l24.3-42.1h48l24.6,42.6
		l2.6-1.5l-24.6-42.6l25.1-43.4l-25.1-43.4l25.1-43.4l-25.1-43.4l25.1-43.4L851.8,350l25.1-43.4l-25.1-43.4l25.1-43.4l-25.1-43.4
		l25.1-43.4l-25.1-43.4l25.1-43.4L850.9,1.2H799l-23.7,41.1L751.6,1.2h-50.4h-1.5h-50.4l-23.7,41.1L601.9,1.2h-50.4H550h-50.4
		l-23.7,41.1L452.1,1.2h-51.9l-25.9,44.9l25.9,44.9h0.9h48.9l24.3,42.1l-24.5,42.4l1.3,0.8l-1.3,0.8l24.5,42.4l-24.3,42.1h-44
		c-0.5-2.2-2.5-3.8-4.9-3.8c-2.8,0-5,2.2-5,5c0,2.8,2.2,5,5,5c2.1,0,3.9-1.3,4.6-3.1h46.3l25.1-43.4h48l23.3,40.3h-43.2
		c-0.5-2.2-2.5-3.9-4.9-3.9c-2.8,0-5,2.2-5,5c0,2.8,2.2,5,5,5c2.1,0,3.9-1.3,4.6-3.1h43.2l-24.2,41.9l25.1,43.4l-25.1,43.4
		l24.2,41.9h-46.6l-23.9-41.3l0.3-0.5l-22.9-39.6c0.7-0.8,1.1-1.9,1.1-3c0-2.8-2.2-5-5-5c-2.8,0-5,2.2-5,5c0,2.8,2.2,5,5,5
		c0.5,0,1-0.1,1.4-0.2l21,36.3h-46.9L404.9,354c0.8-0.9,1.2-2,1.2-3.2c0-2.8-2.2-5-5-5c-2.8,0-5,2.2-5,5c0,2.8,2.2,5,5,5
		c0.4,0,0.8-0.1,1.2-0.2l21.7,37.5L401,433l-23.7-41.1h-49.8l-22.5-39c1-0.9,1.6-2.2,1.6-3.6c0-2.8-2.2-5-5-5c-2.8,0-5,2.2-5,5
		c0,2.8,2.2,5,5,5c0.2,0,0.4,0,0.6-0.1l22.5,39l-24.3,42.1h-48l-22-38.1c0.8-0.9,1.4-2.1,1.4-3.4c0-2.8-2.2-5-5-5c-2.8,0-5,2.2-5,5
		c0,2.8,2.2,5,5,5c0.3,0,0.6,0,1-0.1l21.1,36.6h-46.6L178,393.4l25.1-43.4l-25.9-44.9h-46.3c-0.7-1.9-2.5-3.3-4.7-3.3
		c-2.8,0-5,2.2-5,5c0,2.8,2.2,5,5,5c2.3,0,4.2-1.5,4.8-3.6h44.4l24,41.6l-24.3,42.1h-48.9h-0.9l-23.7,41.1l-22.8-39.5l25.1-43.4
		l-25.9-44.9H31.5c-0.7-1.9-2.5-3.3-4.7-3.3c-2.8,0-5,2.2-5,5c0,2.8,2.2,5,5,5c2.3,0,4.2-1.5,4.8-3.6h44.4l24,41.6l-24.3,42.1H26.8z
		 M3.5,436.8l24.2-41.9h48l23.9,41.3l-0.3,0.5l0.3,0.5l-23.9,41.3h-48L3.5,436.8z M477.2,131.5L453,89.6L475.9,50l23.7,41.1h0.9
		h47.8l-23.3,40.3H477.2z M524.9,47.7l23.3,40.3h-46.9L478,47.7H524.9z M623.1,47.7l-23.3,40.3h-46.6l23.3-40.3H623.1z M674.7,47.7
		L698,88.1h-46.6l-23.3-40.3H674.7z M773.1,47.7l-23.3,40.3H703l23.3-40.3H773.1z M749.8,174.9H703l23.3-40.3h46.9L749.8,174.9z
		 M599.8,91.1l23.3,40.3h-46.6l-23.3-40.3H599.8z M698,91.1l-23.3,40.3h-46.6l23.3-40.3H698z M798.2,89.6l-22.8,39.5l-22.8-39.5
		L775.3,50L798.2,89.6z M773.1,131.5h-46.9L703,91.1h46.9L773.1,131.5z M700.5,85.7l-22.8-39.5l22.8-39.5l22.8,39.5L700.5,85.7z
		 M602.8,89.6L625.6,50l22.8,39.5l-22.8,39.5L602.8,89.6z M550.7,85.7l-22.8-39.5l22.8-39.5l22.8,39.5L550.7,85.7z M576.5,134.5
		h46.9l-23.3,40.3h-46.9L576.5,134.5z M674.7,134.5l23.3,40.3h-46.9l-23.3-40.3H674.7z M677.5,133.3l23-39.8l23,39.8l-23,39.8
		L677.5,133.3z M550.7,93.4l23,39.8l-23,39.8l-23-39.8L550.7,93.4z M601.9,177.9l23.7-41.1l23.7,41.1h50.4h0.9h0.6h48.7l24.2,41.9
		l-24.2,41.9h-48l-22.4-38.8c0.5-0.8,0.8-1.7,0.8-2.7c0-2.8-2.2-5-5-5c-2.8,0-5,2.2-5,5c0,2.8,2.2,5,5,5c0.6,0,1.2-0.1,1.8-0.3
		l21.3,36.8h-46.9l-25.1-43.4h-49.8l-23.3-40.3H601.9z M103.7,608.9l23.3-40.3h46.9l-23.3,40.3H103.7z M174.2,481.7l-23.3,40.3h-48
		l-24.2-41.9l22.8-39.5l23.7,41.1h0.9H174.2z M225.5,481.7l23.3,40.3h-46.6l-23.3-40.3H225.5z M324.8,481.7l24.2,41.9L323.9,567
		l25.1,43.4L326.1,650l-23.7-41.1h-48.7l24.2-41.9l-25.1-43.4l24.2-41.9H324.8z M674.7,481.7l23.3,40.3h-46.6l-23.3-40.3H674.7z
		 M773.1,478.7h-46.9L703,438.3h46.9L773.1,478.7z M623.1,481.7l-23.3,40.3h-46.6l23.3-40.3H623.1z M527.9,567l22.8-39.5l22.8,39.5
		l-22.8,39.5L527.9,567z M552.9,525.1H601h0.9l23.9-41.3l22.8,39.5l-24.3,42.1h-48L552.9,525.1z M698,525.1l-23.3,40.3h-46.6
		l23.3-40.3H698z M773.1,481.7l-23.3,40.3H703l23.3-40.3H773.1z M723.3,480.2l-22.8,39.5l-22.8-39.5l22.8-39.5L723.3,480.2z
		 M677.6,567l24.2-41.9h48l23.3,40.3h-49l-23.7,41.1L677.6,567z M752.5,523.6l22.8-39.5l22.8,39.5l-22.8,39.5L752.5,523.6z
		 M651.4,608.9l-23.3-40.3h46.6l23.3,40.3H651.4z M702.6,608.9l23.3-40.3h47.2l-23.3,40.3H702.6z M775.3,570.9l22.8,39.5L775.3,650
		l-22.8-39.5L775.3,570.9z M599.8,438.3l23.3,40.3h-46.6l-23.3-40.3H599.8z M548.8,524.1l-23.9,41.3h-48l-24-41.6l23.1-40.1
		l20.9,36.1c-1.1,0.9-1.7,2.3-1.7,3.8c0,2.8,2.2,5,5,5c2.8,0,5-2.2,5-5c0-2.8-2.2-5-5-5c-0.1,0-0.3,0-0.4,0l-21.4-37h46.9l23.7,41.1
		l-0.5,0.8L548.8,524.1z M475.7,650.2l-23-39.8l23.1-40.1l23,39.8L475.7,650.2z M450.1,608.9h-47.7l-22.7-39.3
		c0.8-0.9,1.3-2.1,1.3-3.4c0-2.8-2.2-5-5-5c-2.8,0-5,2.2-5,5c0,2.8,2.2,5,5,5c0.3,0,0.7,0,1-0.1l21.8,37.7h-46.9l-24.3-42.1
		l24.5-42.4l-1.3-0.8l1.3-0.8l-23.7-41.1h47.2l22.4,38.8c-0.7,0.8-1.1,1.9-1.1,3.1c0,2.8,2.2,5,5,5c2.8,0,5-2.2,5-5c0-2.8-2.2-5-5-5
		c-0.5,0-0.9,0.1-1.4,0.2L378,479.9l22.8-39.5l23.4,40.6l0.2-0.1l0.1,0.1l1-0.6v1.3h47.8l-24.2,41.9l25.1,43.4L450.1,608.9z
		 M473.7,478.7h-46.9l-23.3-40.3h46.9L473.7,478.7z M453,436.8l22.8-39.5l22.8,39.5l-22.8,39.5L453,436.8z M375.2,478.7h-46.6
		l23.3-40.3h46.6L375.2,478.7z M326.1,476.4l-22.8-39.5l22.8-39.5l22.8,39.5L326.1,476.4z M202.2,608.9l-23.9-41.3l0.3-0.5l-0.3-0.5
		l23.9-41.3h46.6L224.6,567l24.2,41.9H202.2z M125.3,565.5l-23.7,41.1L78.7,567l24.2-41.9h48l23.3,40.3h-48.1H125.3z M176.4,570.9
		l22.8,39.5L176.4,650l-22.8-39.5L176.4,570.9z M199.2,523.6l-22.8,39.5l-22.8-39.5l22.8-39.5L199.2,523.6z M251.3,440.7l23,39.8
		l-23,39.8l-23-39.8L251.3,440.7z M251.3,606.6l-23-39.8l23-39.8l23,39.8L251.3,606.6z M202.2,611.9h46.6l-23.3,40.3h-46.6
		L202.2,611.9z M253.8,611.9h46.6l23.3,40.3h-46.6L253.8,611.9z M351.9,611.9h46.6l-23.3,40.3h-46.6L351.9,611.9z M403.5,611.9h46.6
		l23.3,40.3h-46.6L403.5,611.9z M478.4,568.5h46.6l23.3,40.3h-46.6L478.4,568.5z M576.2,568.5h46.9l-23.3,40.3h-46.9L576.2,568.5z
		 M602.6,610.1l22.8-39.5l23.9,41.3h0.9H698l-23.3,40.3h-47.7L602.6,610.1z M700.5,614.3l23,39.8l-23,39.8l-23-39.8L700.5,614.3z
		 M703,611.9h46.9l23.3,40.3h-46.9L703,611.9z M775.3,476.4l-22.8-39.5l23-39.8l22.8,39.5L775.3,476.4z M749.8,435.3h-48l-22.5-39
		c0.6-0.8,0.9-1.8,0.9-2.9c0-2.8-2.2-5-5-5c-2.8,0-5,2.2-5,5c0,2.8,2.2,5,5,5c0.6,0,1.1-0.1,1.6-0.3l21.4,37.2h-47.2l-24.2-41.9
		l24.2-41.9h48.7h0.6h0.3h0.6h48.7l24.2,41.9L749.8,435.3z M576.5,221.3h48l24,41.6l-23,39.8l-23.7-41.1h-48.7L576.5,221.3z
		 M698,264.7l-23.3,40.3h-46.6l23.3-40.3H698z M773.1,305.1h-46.9L703,264.7h46.9L773.1,305.1z M700.5,346.7l-23-39.8l23-39.8
		l23,39.8L700.5,346.7z M674.7,308.1l23.3,40.3h-46.9l-23.3-40.3H674.7z M749.8,348.5H703l23.3-40.3h46.9L749.8,348.5z M775.3,302.7
		l-22.8-39.5l23-39.8l22.8,39.5L775.3,302.7z M552.1,264.7h47.7l23.9,41.3l-0.3,0.5l0.5,0.8l-23.7,41.1h-48.4l-24-41.6L552.1,264.7z
		 M601,351.5h0.9l23.7-41.1l22.8,39.5l-25.1,43.4l25.9,44.9h0.9H698l-23.3,40.3h-47.7l-25.1-43.4H601h-47.8l24.2-41.9l-24.2-41.9
		H601z M573.7,479.9l-23,39.8L527,478.7h-49l23.3-40.3h48.4L573.7,479.9z M450.4,435.3h-46.9l23.3-40.3h46.9L450.4,435.3z
		 M398.5,435.3h-46.9l-23.3-40.3h46.9L398.5,435.3z M323.6,478.7h-46.6l-23.3-40.3h46.6L323.6,478.7z M225.5,478.7h-46.6l23.3-40.3
		h46.6L225.5,478.7z M150.6,438.3l23.3,40.3H127l-23.3-40.3H150.6z M3.5,610.4l24.2-41.9h48l23.9,41.3l-0.3,0.5l0.3,0.5l-23.9,41.3
		h-48L3.5,610.4z M103.7,611.9h46.9l23.3,40.3H127L103.7,611.9z M849.2,608.9h-48l-23.9-41.3l0.3-0.5l-0.3-0.5l23.9-41.3h48
		l24.2,41.9L849.2,608.9z M849.2,522.1h-48l-23.9-41.3l0.3-0.5l-0.3-0.5l23.9-41.3h48l24.2,41.9L849.2,522.1z M849.2,435.3h-48
		l-23.9-41.3l0.3-0.5L752.5,350l22.8-39.5l23.7,41.1h0.9h49.2l24.2,41.9L849.2,435.3z M849.2,348.5h-48.4l-23.7-41.1l0.5-0.8
		l-0.3-0.5l23.9-41.3h48l24.2,41.9L849.2,348.5z M849.2,261.7h-48l-23.9-41.3l0.3-0.5l-25.1-43.4l22.8-39.5l23.7,41.1h0.9h49.2
		l24.2,41.9L849.2,261.7z M849.2,174.9h-48.4l-23.7-41.1l0.5-0.8l-0.3-0.5l23.9-41.3h48l24.2,41.9L849.2,174.9z M873.3,46.2
		l-24.2,41.9h-48l-23.9-41.3l0.3-0.5l-0.3-0.5l23.9-41.3h48L873.3,46.2z M749.8,4.3l23.3,40.3h-46.9L703,4.3H749.8z M674.7,44.7
		h-46.6l23.3-40.3H698L674.7,44.7z M599.8,4.3l23.3,40.3h-46.6L553.2,4.3H599.8z M501.3,4.3h46.9l-23.3,40.3H478L501.3,4.3z
		 M377.9,46.2L402,4.3h48l23.9,41.3l-0.3,0.5l0.3,0.5l-23.9,41.3h-48L377.9,46.2z M477.2,218.3L453,176.4l24.2-41.9h47.7l24.5,42.5
		l-0.2,0.1l24.5,42.4l-23,39.8L527,218.3H477.2z M550.7,353.3l23.1,40.1l-23.1,40.1l-23.1-40.1L550.7,353.3z M127,394.9h48
		l24.2,41.9l-22.8,39.5l-23.7-41.1h-0.9h-48.1L127,394.9z"/>
</g>
</svg>
