<svg id="Layer_1" data-name="Layer 1" xmlns="http://www.w3.org/2000/svg" xmlns:xlink="http://www.w3.org/1999/xlink" viewBox="0 0 500 300"><defs><style>.cls-1{fill:url(#linear-gradient);}.cls-2{fill:url(#linear-gradient-2);}.cls-3{fill:url(#linear-gradient-3);}.cls-4{fill:url(#linear-gradient-4);}.cls-5{fill:url(#linear-gradient-5);}.cls-6{fill:url(#linear-gradient-6);}.cls-7{fill:url(#linear-gradient-7);}.cls-8{fill:url(#linear-gradient-8);}.cls-9{fill:url(#linear-gradient-9);}.cls-10{fill:url(#linear-gradient-10);}.cls-11{fill:url(#linear-gradient-11);}.cls-12{fill:url(#linear-gradient-12);}.cls-13{fill:url(#linear-gradient-13);}.cls-14{fill:#fff;}.cls-15{fill:#394a58;}.cls-16{fill:url(#linear-gradient-14);}.cls-17{fill:url(#linear-gradient-15);}.cls-18{fill:url(#linear-gradient-16);}.cls-19{fill:url(#linear-gradient-17);}.cls-20{fill:url(#linear-gradient-18);}.cls-21{fill:url(#linear-gradient-19);}.cls-22{fill:url(#linear-gradient-20);}.cls-23{fill:url(#linear-gradient-21);}.cls-24{fill:url(#linear-gradient-22);}.cls-25{fill:url(#linear-gradient-23);}.cls-26{fill:url(#linear-gradient-24);}.cls-27{fill:url(#linear-gradient-25);}.cls-28{fill:url(#linear-gradient-26);}.cls-29{fill:url(#linear-gradient-27);}.cls-30{fill:url(#linear-gradient-28);}.cls-31{fill:url(#linear-gradient-29);}.cls-32{fill:url(#linear-gradient-30);}.cls-33{fill:url(#linear-gradient-31);}.cls-34{fill:url(#linear-gradient-32);}</style><linearGradient id="linear-gradient" x1="276.57" y1="229.3" x2="335.32" y2="229.3" gradientUnits="userSpaceOnUse"><stop offset="0" stop-color="#e0242b"/><stop offset="0.87" stop-color="#ff5c60"/></linearGradient><linearGradient id="linear-gradient-2" x1="283.7" y1="239.47" x2="342.44" y2="239.47" xlink:href="#linear-gradient"/><linearGradient id="linear-gradient-3" x1="294.31" y1="260.33" x2="356.68" y2="260.33" xlink:href="#linear-gradient"/><linearGradient id="linear-gradient-4" x1="290.86" y1="249.65" x2="349.55" y2="249.65" xlink:href="#linear-gradient"/><linearGradient id="linear-gradient-5" x1="150.99" y1="143.37" x2="330.55" y2="143.37" xlink:href="#linear-gradient"/><linearGradient id="linear-gradient-6" x1="218.47" y1="177.76" x2="313.87" y2="177.76" xlink:href="#linear-gradient"/><linearGradient id="linear-gradient-7" x1="151.05" y1="164.42" x2="365.62" y2="164.42" xlink:href="#linear-gradient"/><linearGradient id="linear-gradient-8" x1="164.82" y1="119.37" x2="173.31" y2="119.37" xlink:href="#linear-gradient"/><linearGradient id="linear-gradient-9" x1="170.83" y1="117.47" x2="177.65" y2="117.47" xlink:href="#linear-gradient"/><linearGradient id="linear-gradient-10" x1="177.1" y1="117.47" x2="182.42" y2="117.47" xlink:href="#linear-gradient"/><linearGradient id="linear-gradient-11" x1="264.36" y1="30.23" x2="266.92" y2="30.23" xlink:href="#linear-gradient"/><linearGradient id="linear-gradient-12" x1="283.7" y1="43.32" x2="303.99" y2="43.32" xlink:href="#linear-gradient"/><linearGradient id="linear-gradient-13" x1="275.05" y1="29.25" x2="290.12" y2="29.25" xlink:href="#linear-gradient"/><linearGradient id="linear-gradient-14" x1="101.59" y1="198.12" x2="141.54" y2="198.12" gradientUnits="userSpaceOnUse"><stop offset="0.01" stop-color="#e2e6ed"/><stop offset="0.87" stop-color="#d6dfe5"/></linearGradient><linearGradient id="linear-gradient-15" x1="115.33" y1="101.68" x2="141.95" y2="120.78" gradientUnits="userSpaceOnUse"><stop offset="0" stop-color="#dae1e8"/><stop offset="0.65" stop-color="#eff4f9"/><stop offset="1" stop-color="#eff4f9"/></linearGradient><linearGradient id="linear-gradient-16" x1="119.13" y1="96.38" x2="145.75" y2="115.48" xlink:href="#linear-gradient-15"/><linearGradient id="linear-gradient-17" x1="119.88" y1="95.33" x2="146.5" y2="114.43" xlink:href="#linear-gradient-15"/><linearGradient id="linear-gradient-18" x1="114.58" y1="102.73" x2="141.2" y2="121.83" xlink:href="#linear-gradient-15"/><linearGradient id="linear-gradient-19" x1="128.97" y1="82.66" x2="155.59" y2="101.76" xlink:href="#linear-gradient-15"/><linearGradient id="linear-gradient-20" x1="131.18" y1="79.59" x2="157.8" y2="98.69" xlink:href="#linear-gradient-15"/><linearGradient id="linear-gradient-21" x1="131.61" y1="78.98" x2="158.23" y2="98.08" xlink:href="#linear-gradient-15"/><linearGradient id="linear-gradient-22" x1="128.54" y1="83.27" x2="155.16" y2="102.37" xlink:href="#linear-gradient-15"/><linearGradient id="linear-gradient-23" x1="368.66" y1="168.19" x2="391.66" y2="184.69" xlink:href="#linear-gradient-15"/><linearGradient id="linear-gradient-24" x1="371.95" y1="163.61" x2="394.95" y2="180.11" xlink:href="#linear-gradient-15"/><linearGradient id="linear-gradient-25" x1="372.6" y1="162.71" x2="395.6" y2="179.21" xlink:href="#linear-gradient-15"/><linearGradient id="linear-gradient-26" x1="368.01" y1="169.1" x2="391.01" y2="185.6" xlink:href="#linear-gradient-15"/><linearGradient id="linear-gradient-27" x1="380.45" y1="151.76" x2="403.45" y2="168.26" xlink:href="#linear-gradient-15"/><linearGradient id="linear-gradient-28" x1="382.35" y1="149.1" x2="405.35" y2="165.6" xlink:href="#linear-gradient-15"/><linearGradient id="linear-gradient-29" x1="382.73" y1="148.58" x2="405.73" y2="165.08" xlink:href="#linear-gradient-15"/><linearGradient id="linear-gradient-30" x1="380.07" y1="152.28" x2="403.07" y2="168.78" xlink:href="#linear-gradient-15"/><linearGradient id="linear-gradient-31" x1="376.52" y1="74.28" x2="386.25" y2="74.28" xlink:href="#linear-gradient-14"/><linearGradient id="linear-gradient-32" x1="352.91" y1="80.09" x2="398.24" y2="80.09" xlink:href="#linear-gradient-14"/></defs><title>Culture</title><path class="cls-1" d="M277.79,249.87a1.22,1.22,0,0,1-.37-2.38c8.17-2.59,19.72-8.82,30.91-16.66a134.61,134.61,0,0,0,24.86-21.69,1.22,1.22,0,0,1,1.82,1.63,137.48,137.48,0,0,1-25.3,22.06c-11.53,8.09-23,14.28-31.55,17A1.24,1.24,0,0,1,277.79,249.87Z"/><path class="cls-2" d="M284.92,260a1.22,1.22,0,0,1-.37-2.38c8.17-2.59,19.72-8.82,30.91-16.66a133.87,133.87,0,0,0,24.85-21.7,1.22,1.22,0,0,1,1.82,1.63A136.78,136.78,0,0,1,316.84,243c-11.53,8.08-23,14.27-31.55,17A1.24,1.24,0,0,1,284.92,260Z"/><path class="cls-3" d="M295.53,281.44a1.22,1.22,0,0,1-.24-2.41c8-1.61,21.24-8.37,34.46-17.64a134.3,134.3,0,0,0,24.8-21.77,1.22,1.22,0,0,1,1.82,1.62,137.26,137.26,0,0,1-25.23,22.16c-13.47,9.44-27,16.35-35.37,18Z"/><path class="cls-4" d="M292.08,270.26a1.22,1.22,0,0,1-.37-2.38c8.17-2.59,19.73-8.82,30.91-16.66a135,135,0,0,0,24.8-21.77,1.22,1.22,0,0,1,1.82,1.62A137.2,137.2,0,0,1,324,253.22c-11.53,8.09-23,14.28-31.56,17A1.19,1.19,0,0,1,292.08,270.26Z"/><path class="cls-5" d="M273.14,244.39l-.38,0a1.23,1.23,0,0,1-1-.94l-.33-1.52a28.69,28.69,0,0,0-28.09-22.33h-.26c-29.27,0-57.22-15-74.8-40A93.28,93.28,0,0,1,151.87,113c3.26-23.22,15.26-43.16,33.79-56.14C223.88,30,278.28,41.49,306.94,82.37c17.91,25.55,22.27,57.48,11.66,85.42a28.73,28.73,0,0,0,11.15,34.69l.25.16a1.23,1.23,0,0,1,.54.85c.18,1.25-1.11,6.66-25.45,23.72C282.3,243.19,274.86,244.39,273.14,244.39Zm-29.78-27.25a31.11,31.11,0,0,1,30.47,24.24l.11.51c2.23-.4,9.92-2.77,29.75-16.67,19.5-13.67,23.44-19.37,24.23-21a31.19,31.19,0,0,1-11.59-37.29c10.32-27.15,6.06-58.24-11.39-83.13-27.88-39.78-80.77-51-117.89-25-18,12.59-29.6,31.94-32.77,54.48a90.8,90.8,0,0,0,16,64.85c17.12,24.43,44.33,39,72.8,39Z"/><path class="cls-6" d="M284.92,230.61a1.24,1.24,0,0,1-.92-.42c-.5-.58-49.46-57.39-64.24-66.52a1.61,1.61,0,0,1-.28-.24,3.44,3.44,0,0,1-1-2.72c.21-1.73,1.85-2.87,3.43-4l.41-.28c1.67-1.18,3.49-.14,5,.7.9.52,1.94,1.1,2.35.82s.21-1.46,0-2.49c-.29-1.66-.65-3.72,1-4.9s3.5-.14,5,.7c.91.52,1.94,1.11,2.35.82s.21-1.46,0-2.49c-.29-1.66-.65-3.73,1-4.9s3.5-.14,5,.7c.91.51,1.93,1.1,2.34.82s.2-1.45,0-2.48c-.29-1.66-.65-3.72,1-4.9s3.5-.14,5,.7c.9.52,1.93,1.12,2.34.83s.21-1.46,0-2.49c-.29-1.66-.65-3.73,1-4.91s3.5-.13,5,.71c.9.52,1.93,1.12,2.34.82s.21-1.45,0-2.48c-.29-1.66-.65-3.73,1-4.91l.4-.28c1.58-1.12,3.2-2.28,4.91-1.87a3.43,3.43,0,0,1,2.2,1.88,1,1,0,0,1,.12.33c3.51,17,41.53,83.18,41.92,83.85a1.22,1.22,0,0,1-2.11,1.22c-1.57-2.73-38.34-66.71-42.16-84.39a1,1,0,0,0-.53-.52c-.62-.15-2,.8-2.94,1.49l-.41.29c-.41.29-.21,1.46,0,2.49.29,1.66.65,3.72-1,4.9s-3.5.13-5-.71c-.9-.52-1.93-1.12-2.34-.82s-.21,1.46,0,2.49c.29,1.66.65,3.72-1,4.9s-3.5.13-5-.71c-.9-.52-1.93-1.11-2.34-.82s-.21,1.46,0,2.49c.29,1.66.65,3.72-1,4.89s-3.49.14-4.95-.7c-.91-.52-2-1.11-2.36-.82s-.21,1.46,0,2.49c.28,1.66.64,3.72-1,4.9s-3.5.14-5-.7c-.91-.52-1.94-1.11-2.35-.82s-.21,1.46,0,2.49c.29,1.66.65,3.72-1,4.9s-3.49.14-5-.7c-.9-.52-1.93-1.11-2.35-.82l-.41.29c-1,.68-2.32,1.61-2.4,2.26a1.06,1.06,0,0,0,.3.69c15.28,9.63,62.62,64.55,64.63,66.9a1.22,1.22,0,0,1-.92,2Z"/><path class="cls-7" d="M295.56,286.55c-2.11,0-3.81-.54-4.77-1.9-1.35-1.93-.78-4.88,1.69-8.79-4.52,1-7.49.52-8.84-1.41s-.78-4.89,1.7-8.81c-4.54,1-7.51.52-8.86-1.41s-.79-4.89,1.7-8.81c-4.53,1-7.51.53-8.86-1.41-1.51-2.15-.63-5.58,2.62-10.19a1.34,1.34,0,0,1-.16-.39l-.33-1.52a28.7,28.7,0,0,0-28.09-22.33h-.26c-29.27,0-57.22-15-74.8-40a93,93,0,0,1-14.86-74.85,1.21,1.21,0,0,1,2.39.41A91.23,91.23,0,0,0,172.07,168c17.13,24.43,44.33,39,72.81,39h.26a31.11,31.11,0,0,1,30.46,24.23l.11.51c1.73-.32,6.7-1.81,17.93-8.8,1.92-1.48,4-3,6.07-4.45,3.73-2.62,7.52-5.07,11.24-7.29,2.24-1.64,4.54-3.43,6.94-5.4A31.23,31.23,0,0,1,312.43,174c10.36-27.1,6.12-58.16-11.34-83.08-27.89-39.78-80.77-51-117.9-25a76.62,76.62,0,0,0-21.7,23.19A1.22,1.22,0,0,1,159.35,88a80,80,0,0,1,26.3-31.17c18.53-13,41.36-17.46,64.3-12.6a93.21,93.21,0,0,1,57,38.16c17.91,25.55,22.27,57.48,11.66,85.42a28.73,28.73,0,0,0,10.74,34.42c7.52-2.71,12.26-2.76,14.09-.15,1.36,1.94.79,4.89-1.69,8.81,4.53-1,7.5-.52,8.86,1.41s.78,4.89-1.7,8.81c4.53-1,7.5-.52,8.86,1.41s.78,4.88-1.69,8.79c4.52-1,7.48-.52,8.84,1.41h0c3.62,5.17-7.55,16.53-13.16,21.72,1.74,6.78-5.66,19.23-10.41,22.87-5,3.82-24,9-29.61,4.36C307,283.86,300.28,286.55,295.56,286.55Zm-.15-14a1.22,1.22,0,0,1,1,2c-4.7,6.12-3.94,8.21-3.59,8.7,1.24,1.78,7.5,1.18,18.67-4.17a1.22,1.22,0,0,1,1.49.35c3.09,4,21.56,0,26.91-4.07,4.72-3.61,11.34-15.93,9.36-20.86a1.22,1.22,0,0,1,.31-1.35c11.21-10.22,14.79-17,13.38-19.05-.34-.49-2-1.92-9.4.41a1.22,1.22,0,0,1-1.34-1.91c4.7-6.12,3.94-8.21,3.59-8.7s-2.05-1.93-9.43.41a1.22,1.22,0,0,1-1.34-1.9c4.72-6.14,4-8.24,3.61-8.73s-2.05-1.93-9.44.41a1.22,1.22,0,0,1-1.33-1.9c4.72-6.14,4-8.23,3.61-8.73-.85-1.21-4.4-1.51-11.83,1.24a1.2,1.2,0,0,1-1.09-.12,31.25,31.25,0,0,1-14.29-28.44,28.81,28.81,0,0,0,6.3,29,1.22,1.22,0,0,1-.11,1.78c-2.79,2.32-5.45,4.4-8.12,6.36q-5.67,3.38-11.19,7.25C299.06,222,297,223.46,295,225c-15.32,9.55-19.74,9.42-20.48,9.28a1.19,1.19,0,0,1-1-.94l-.33-1.51a28.7,28.7,0,0,0-28.1-22.34h-.25c-29.27,0-57.22-14.95-74.8-40a93.58,93.58,0,0,1-16.59-43,90.55,90.55,0,0,0,16.8,51.72c17.13,24.44,44.34,39,72.81,39h.26a31.09,31.09,0,0,1,30.46,24.24l.12.5a1.26,1.26,0,0,1,1.1.59,1.24,1.24,0,0,1-.08,1.37c-3.79,4.91-4.37,7.75-3.65,8.77.35.5,2.05,1.93,9.44-.41a1.22,1.22,0,0,1,1.33,1.9c-4.72,6.14-3.95,8.24-3.61,8.73s2.06,1.93,9.44-.41a1.21,1.21,0,0,1,1.33,1.9c-4.72,6.14-3.95,8.24-3.61,8.73s2.06,1.92,9.41-.4A1.19,1.19,0,0,1,295.41,272.59ZM228.15,49.47c28.21,0,56.75,14.1,74.93,40,14.17,20.22,19.85,44.39,16.35,67.4,6-24.58.85-51.26-14.49-73.14a90.77,90.77,0,0,0-55.49-37.18c-22.27-4.71-44.43-.38-62.4,12.22a77.64,77.64,0,0,0-12,10.43,81.47,81.47,0,0,1,6.77-5.3A80.29,80.29,0,0,1,228.15,49.47Z"/><path class="cls-8" d="M168.45,144.57a1.23,1.23,0,0,1-1.2-1c-7.06-35.31,3.46-48.45,3.91-49A1.22,1.22,0,0,1,173,96.17h0c-.1.12-10.19,13-3.39,47a1.21,1.21,0,0,1-.95,1.43A1,1,0,0,1,168.45,144.57Z"/><path class="cls-9" d="M173.79,136.08a1.21,1.21,0,0,1-1.19-1c-5.16-25.75,2.57-35.4,2.9-35.79a1.22,1.22,0,0,1,1.88,1.55c-.09.11-7.28,9.34-2.39,33.76a1.23,1.23,0,0,1-1,1.44Z"/><path class="cls-10" d="M179.46,130.12a1.22,1.22,0,0,1-1.19-1c-3.43-17.12,1.77-23.6,2-23.87a1.21,1.21,0,1,1,1.87,1.55c-.07.09-4.64,6.08-1.48,21.84a1.23,1.23,0,0,1-1,1.44Z"/><path class="cls-11" d="M265.71,42.13a1.22,1.22,0,0,1-1.22-1.21l-.13-21.37a1.22,1.22,0,0,1,1.21-1.23h0a1.21,1.21,0,0,1,1.21,1.21l.13,21.38a1.2,1.2,0,0,1-1.21,1.22Z"/><path class="cls-12" d="M284.92,50.05a1.22,1.22,0,0,1-.64-2.26l17.85-11a1.22,1.22,0,1,1,1.28,2.07l-17.85,11A1.24,1.24,0,0,1,284.92,50.05Z"/><path class="cls-13" d="M276.26,45.06a1.37,1.37,0,0,1-.48-.1,1.22,1.22,0,0,1-.63-1.61l12.64-29.17a1.23,1.23,0,0,1,1.6-.63,1.21,1.21,0,0,1,.63,1.6L277.38,44.32A1.23,1.23,0,0,1,276.26,45.06Z"/><path class="cls-14" d="M184.18,263.49a5.12,5.12,0,0,1-3.45-1.41c-1.88-1.72-2.87-4.59-3-8.6l-2.41.94a5.79,5.79,0,0,1-2.18.45,4.47,4.47,0,0,1-3.71-1.88,4.75,4.75,0,0,1-.55-4.4c.91-3,3.49-5.36,8.36-7.66.52-.26,1.11-.53,1.77-.83q.39-2.7.93-5.84l-2.08.8a5.3,5.3,0,0,1-2,.4,4.75,4.75,0,0,1-4-2.14,4.9,4.9,0,0,1-.34-4.59c1.08-2.74,3.53-4.8,8.41-7.11.76-.35,1.64-.73,2.68-1.16,1.12-5.22,2.33-10.3,3.26-13.66a5.13,5.13,0,0,1,4.87-4.24,5,5,0,0,1,4.05,2.16c1.38,1.83,2,4.48,1.83,8.47,1.16-4.8,2.27-8.79,3.18-11.31a5.06,5.06,0,0,1,4.79-3.76,5,5,0,0,1,4.28,2.56c.61.95,2.19,3.57,1.24,11,.8-.18,1.53-.32,2.19-.43a7.67,7.67,0,0,1,1.26-.11,4.82,4.82,0,0,1,4.29,2.28,4.89,4.89,0,0,1-.05,4.9c-2.08,4-6.76,6.06-10.51,7.26l-1.2,5.35c1.13-.29,2.21-.56,3.19-.77a7.15,7.15,0,0,1,1.54-.18,4.73,4.73,0,0,1,4.21,2.28,4.88,4.88,0,0,1-.05,5c-2.37,4.38-8.2,6.65-11.47,7.62l-.45.13c-.9,4.4-1.59,8.2-2.13,11.81l0,.1a4.68,4.68,0,0,1-4.6,4.12,5.08,5.08,0,0,1-3.42-1.39c-1.79-1.63-2.76-4.51-2.86-8.29-.46,2.74-.87,5.36-1.26,7.91A4.65,4.65,0,0,1,184.18,263.49Z"/><path class="cls-14" d="M223,255.21a5.5,5.5,0,0,1-3-.93c-1.78-1.06-5.74-4.46-5.22-13.4.79-13.7,6.48-40.15,10.67-52.92a5.29,5.29,0,0,1,5-4,5.5,5.5,0,0,1,4.07,1.9c3.45,3.8,4.23,9.82,2.36,18l-.09.37c-2.66,11.42-7.11,30.53-9.2,46.43A4.68,4.68,0,0,1,223,255.21Z"/><path class="cls-14" d="M242.19,249.37a10.92,10.92,0,0,1-8.95-4.76c-3.73-5.11-4.38-13.5-1.68-21.88,3.81-11.93,10.13-20.25,16.89-22.26a10.55,10.55,0,0,1,3-.44,9.12,9.12,0,0,1,2.77.43c1.92-9.06,4.14-18.41,5.6-22.71,1.3-3.78,4.18-4.07,5-4.07a5.27,5.27,0,0,1,4.2,2.19c3.23,4,3.85,9.37,2,17.54-.41,1.82-.91,4-1.46,6.39-2.09,9-4.94,21.43-6.21,29.69,0,.17,0,.33-.07.5a36.38,36.38,0,0,0,2.8-9l0-.15a4.92,4.92,0,0,1,4.76-4.08,5,5,0,0,1,3.65,1.65l.13.14c1.66,1.94,2.4,5.55,1.85,9-1.14,6.69-6.08,14.65-13,16.31a15.32,15.32,0,0,1-3.53.43,10.75,10.75,0,0,1-6.07-1.77,16,16,0,0,1-8.24,6.35A12.17,12.17,0,0,1,242.19,249.37Zm7.93-32.08a45,45,0,0,0-3.83,9.59,28.09,28.09,0,0,0-1.12,8.87A37.28,37.28,0,0,0,249,224.21C249.56,221.35,249.91,219.08,250.12,217.29Z"/><path class="cls-14" d="M282.17,237.44a14.82,14.82,0,0,1-11.55-5.4c-3.94-4.71-5.4-11.82-4-19.51,2.35-13,9.9-22.51,17.95-22.51a9.58,9.58,0,0,1,2.15.25,21.24,21.24,0,0,1,8.07,3.76c3.34,2.48,4.54,8.24,3.19,14.06a4.84,4.84,0,0,1,2.08-.47,5,5,0,0,1,3.82,1.8c2,2.27,2,6.67.95,9.9a27.18,27.18,0,0,1-17.07,17.23,18.77,18.77,0,0,1-5.58.89Zm-.23-14.77a6.66,6.66,0,0,0,1.4,3.05,1.1,1.1,0,0,0,.86.45h0a1.59,1.59,0,0,0,.36,0c3.49-.86,6.12-4.31,7.92-7.76a13.79,13.79,0,0,1-10,4.32Z"/><path class="cls-14" d="M308.94,229.56a11,11,0,0,1-9-4.78c-3.74-5.14-4.37-13.55-1.66-21.95,4-12.26,10.14-20.44,16.93-22.45a10.5,10.5,0,0,1,3-.45,9.14,9.14,0,0,1,3.4.65,5.19,5.19,0,0,1,4.79-3.36,5.32,5.32,0,0,1,3.07,1c3,2.07,5.61,7.12,4.53,13.82-.36,2.18-1,4.9-1.76,7.78-.87,3.48-1.77,7.07-2.14,9.8-.05.33-.08.64-.11.93a35.35,35.35,0,0,0,3.06-9.54l0-.15a4.81,4.81,0,0,1,8.53-2.29c1.6,1.88,2.3,5.39,1.77,9-1.06,6.88-6.2,14.93-13,16.55a15,15,0,0,1-3.45.42,11.1,11.1,0,0,1-6.27-1.84,16.07,16.07,0,0,1-8.32,6.4,12.15,12.15,0,0,1-3.44.51Zm8.42-33.18a44.7,44.7,0,0,0-4.25,10.56,29.92,29.92,0,0,0-1.13,8.7c1.07-1.93,2.51-5.42,4-11.69A60.91,60.91,0,0,0,317.36,196.38Z"/><path class="cls-15" d="M176.36,231.22c-.85.35-1.38-.16-1-.93.54-1.4,2-2.88,6.36-4.94,1.18-.54,2.71-1.18,4.5-1.91,1.34-6.41,2.75-12.27,3.67-15.59.3-1.24,1-1.53,1.62-.67,1.41,1.87,1.18,6.23.57,10.61-.13,1.18-.4,2.51-.59,3.8,2.58-1,5.36-1.87,8.08-2.68a146.65,146.65,0,0,1,4.14-15.64c.41-1.17,1.11-1.38,1.69-.41,1.24,1.93,1.07,6.18.32,10.41-.28,1.32-.55,2.64-.8,4a74.52,74.52,0,0,1,8.08-2c1.28-.18,1.68.18,1.18,1.09-1.39,2.7-5.09,4.37-9.13,5.57l-1.22.36c-1,4.4-2.11,9.31-3.24,14.51,3.66-1.18,7.11-2.1,9.61-2.66,1.26-.27,1.68.17,1.18,1.08-1.35,2.51-5.07,4.47-9,5.64l-2.81.83c-1,4.69-1.94,9.55-2.68,14.44-.14.81-.58.94-1.23.37s-1.78-3.1-1.39-7.89c.14-1.48.35-3.35.68-5.45-2.81.83-5.5,1.73-8.11,2.59-.71,4-1.43,8.35-2.1,12.84-.12.9-.59.94-1.23.37-.79-.72-1.82-2.9-1.57-7.84.07-1.07.17-2.34.33-3.72-2.75,1-5.6,2-8.41,3.16-1,.4-1.25,0-1-.75.42-1.47,1.84-3.13,6.19-5.18,1-.49,2.27-1.06,3.79-1.7.56-4.56,1.49-9.79,2.53-15C182.29,229,179.36,230.05,176.36,231.22Zm14.18-5c-.82,4.64-1.85,9.52-2.93,14.9,2.49-.93,5.27-1.85,8.06-2.77.75-4.52,1.73-9.58,2.76-14.47Z"/><path class="cls-15" d="M231.51,188.71c2,2.18,3.14,6.42,1.35,14.2-2.6,11.18-7.23,31-9.36,47.25-.09,1-.42,1.18-1.35.59-1.62-.95-3.59-3.7-3.24-9.63.75-13.2,6.41-39.5,10.47-51.87C229.83,187.87,230.67,187.82,231.51,188.71Z"/><path class="cls-15" d="M262.31,237.21c3.55-1.24,6.54-8.52,7.81-15.48.21-.92.82-1.11,1.38-.51a8,8,0,0,1,.91,5.65c-.93,5.52-5,11.79-9.89,13s-8-.79-9.19-4.91c-1.77,4.34-4.75,8.76-8.87,10-8.16,2.42-13-8.25-9-20.91,3.91-12.23,9.75-18.26,14.14-19.56,3.59-1.07,6.15,1.13,7,4.4,2.06-10.44,5.18-24.35,7-29.76.52-1.49,1.33-1.63,2.11-.62,2.08,2.53,2.94,6.38,1.21,14.05-2,8.79-6.1,25.76-7.73,36.36C258.4,234.65,259.39,238.27,262.31,237.21Zm-20-11.43c-2.5,8.95-1.2,16.86,2.24,15.94s6.74-7.54,8.49-16.74c2.2-11.25,1.88-17.16-.69-16.5C249.61,209.2,244.85,216.63,242.32,225.78Z"/><path class="cls-15" d="M285.51,230.14c7.38-1.81,11.7-10.72,13.75-17.63.23-.84.94-1,1.52-.36s1,3.13.12,5.88c-2.09,6.45-7.65,12.49-14.38,14.58-11.08,3.48-18.2-6.34-15.85-19.35s9.93-20.22,15.07-19a16.92,16.92,0,0,1,6.53,3c2.21,1.63,3.09,7.19.74,12.76-2.74,6.54-7.94,10.56-15.56,7.38C277,226.36,280.78,231.26,285.51,230.14Zm1.29-22.33c1.71-4.52,2.29-9.65.78-10.25-2.29-.95-8,6.48-9.66,16-.1.61-.21,1.21-.26,1.7C282.77,216.73,285.24,211.89,286.8,207.81Z"/><path class="cls-15" d="M325.18,182.77c.45-1.37,1.1-1.76,1.95-1.15,1.78,1.19,3.6,4.75,2.8,9.76-.76,4.52-3.19,12.4-3.92,17.68-.73,5.56.3,9.36,3.23,8.3,3.54-1.25,6.6-8.64,7.87-15.61.21-.91.79-1.18,1.38-.5s1.23,2.88.82,5.67c-.85,5.5-4.94,12-9.84,13.14s-8.11-.94-9.33-5.06c-1.74,4.43-4.73,8.84-8.93,10.09-8.16,2.42-13.13-8.22-9-21,4-12.45,9.79-18.46,14.17-19.76,3.78-1.12,6.39,1.26,7.23,4.73C324.13,186.62,324.63,184.46,325.18,182.77Zm-5.95,5.68c-2.89.57-7.6,8.17-10.1,17.41-2.42,8.92-1.27,17,2.18,16,3.62-1,6.52-7.94,8.7-17C322.68,193.63,321.85,188,319.23,188.45Z"/><path class="cls-16" d="M105.17,212.77a3.59,3.59,0,0,1-3.58-3.59.77.77,0,0,1,.77-.77h2.26V188a.78.78,0,0,1,.78-.78h27l-1.8-1.45a.79.79,0,0,1-.25-.83.77.77,0,0,1,.66-.55l8.74-.92a.79.79,0,0,1,.84.69l.92,8.73a.77.77,0,0,1-.4.76.79.79,0,0,1-.37.1.8.8,0,0,1-.49-.18l-1.77-1.43v16.27h2.26a.78.78,0,0,1,.78.77,3.59,3.59,0,0,1-3.59,3.59ZM138,211.22a2,2,0,0,0,1.88-1.26H125.15v.63a.79.79,0,0,1-.32.63ZM103.29,210a2,2,0,0,0,1.88,1.26H118.3a.77.77,0,0,1-.33-.63V210ZM137,208.41v-16l-1,1.28v12.66a.78.78,0,0,1-.77.78H107.91l-.08,0s0,0,0,0l-.14,0a.74.74,0,0,1-.21-.13l-.06,0,0-.07a.81.81,0,0,1-.1-.18l0-.06,0-.14h0a.63.63,0,0,1,0-.11V190.58a.77.77,0,0,1,.78-.77H131.6l.84-1H106.18v19.64Zm-2.59-2.81v-10l-5.6,6.93a.79.79,0,0,1-.61.29h-.08l-.17,0-9.87-3.3L112,205.6Zm-24.61,0,7.52-7.52a.78.78,0,0,1,.55-.23h.08l.17,0,9.82,3.27,9.1-11.24a.68.68,0,0,1,.24-.2l.08,0,0,0,.18,0h0a.78.78,0,0,1,.53.17l1.71,1.39-.64-6.09-6.1.64,1.72,1.38a.77.77,0,0,1,.28.53.8.8,0,0,1-.17.57l-7.58,9.37a.78.78,0,0,1-.6.28h-.08l-.17,0-9.57-3.19-8.1,8.1v2.86Zm-1-5,7.36-7.36a.76.76,0,0,1,.55-.23h.08l.16,0,9.52,3.17,3.91-4.83H108.76Z"/><path class="cls-17" d="M119.48,101.67a1.09,1.09,0,0,1-1.08,1.09h-6.18a1.09,1.09,0,0,1,0-2.17h6.18A1.09,1.09,0,0,1,119.48,101.67Z"/><path class="cls-18" d="M130.69,101.67a1.09,1.09,0,0,1-1.09,1.09h-6.17a1.09,1.09,0,1,1,0-2.17h6.17A1.09,1.09,0,0,1,130.69,101.67Z"/><path class="cls-19" d="M122,99.16a1.09,1.09,0,0,1-2.17,0V93A1.09,1.09,0,0,1,122,93Z"/><path class="cls-20" d="M122,110.36a1.09,1.09,0,1,1-2.17,0v-6.17a1.09,1.09,0,1,1,2.17,0Z"/><path class="cls-21" d="M143.27,91a.87.87,0,0,1-.86.87h-3.58a.87.87,0,0,1,0-1.73h3.58A.87.87,0,0,1,143.27,91Z"/><path class="cls-22" d="M149.77,91a.87.87,0,0,1-.87.87h-3.58a.87.87,0,0,1,0-1.73h3.58A.87.87,0,0,1,149.77,91Z"/><path class="cls-23" d="M144.73,89.56a.87.87,0,1,1-1.73,0V86a.87.87,0,1,1,1.73,0Z"/><path class="cls-24" d="M144.73,96.06a.87.87,0,0,1-1.73,0V92.48a.87.87,0,0,1,1.73,0Z"/><path class="cls-25" d="M372.25,168.18a.94.94,0,0,1-.94.94H366a.94.94,0,1,1,0-1.87h5.33A.94.94,0,0,1,372.25,168.18Z"/><path class="cls-26" d="M381.93,168.18a.94.94,0,0,1-.94.94h-5.33a.94.94,0,1,1,0-1.87H381A.94.94,0,0,1,381.93,168.18Z"/><path class="cls-27" d="M374.42,166a.94.94,0,1,1-1.87,0v-5.33a.94.94,0,1,1,1.87,0Z"/><path class="cls-28" d="M374.42,175.69a.94.94,0,1,1-1.87,0v-5.33a.94.94,0,1,1,1.87,0Z"/><path class="cls-29" d="M392.8,159a.75.75,0,0,1-.74.75H389a.76.76,0,0,1-.75-.75.75.75,0,0,1,.75-.74h3.09A.74.74,0,0,1,392.8,159Z"/><path class="cls-30" d="M398.41,159a.75.75,0,0,1-.74.75h-3.09a.76.76,0,0,1-.75-.75.75.75,0,0,1,.75-.74h3.09A.74.74,0,0,1,398.41,159Z"/><path class="cls-31" d="M394.06,157.72a.75.75,0,0,1-.74.75.76.76,0,0,1-.75-.75v-3.09a.76.76,0,0,1,.75-.75.75.75,0,0,1,.74.75Z"/><path class="cls-32" d="M394.06,163.33a.75.75,0,0,1-.74.75.76.76,0,0,1-.75-.75v-3.09a.76.76,0,0,1,.75-.75.75.75,0,0,1,.74.75Z"/><path class="cls-33" d="M381.38,79.15a4.87,4.87,0,1,1,3.45-8.31,4.87,4.87,0,0,1-3.45,8.31Zm0-7.68a2.82,2.82,0,1,0,2,.82A2.8,2.8,0,0,0,381.38,71.47Z"/><path class="cls-34" d="M376.54,102.76a1,1,0,0,1-.47-.12l-.09,0-.16-.13a1.06,1.06,0,0,1-.29-.91l1.29-7.46-5.89-5.9a58.89,58.89,0,0,1-5.23,3.15.92.92,0,0,1-.46.11,1,1,0,0,1-.92-1.48s1.54-2.88,3.16-5.23l-5.89-5.9-7.54,1.3h-.11a1,1,0,0,1-.73-.3l-.07-.07-.11-.17a1,1,0,0,1,.18-1.21c6.28-6.28,12.53-7,14.25-7.08a71.78,71.78,0,0,1,13.36-8.89l.21-.14c9.55-4.81,15.92-4.86,16.18-4.86a1,1,0,0,1,1,1c0,.27-.06,6.64-4.86,16.18l-.06.12-.07.07a72.53,72.53,0,0,1-8.9,13.39c-.08,1.71-.79,8-7.08,14.25A1,1,0,0,1,376.54,102.76Zm1.64-4.48a21.52,21.52,0,0,0,3.55-7c-.92,1-1.87,2-2.85,3Zm-.29-6,4.52-4.92a70.88,70.88,0,0,0,9-13.44,10,10,0,0,0-9.66-9.65,70.66,70.66,0,0,0-13.43,9l-4.92,4.51,5.3,5.31.12-.14a6.59,6.59,0,0,1,.49-.54,16.27,16.27,0,0,1,5.95-3.29l.1,0h.18a1.06,1.06,0,0,1,.83.42,1,1,0,0,1,.17.9,16.21,16.21,0,0,1-3.3,6c-.16.16-.33.32-.52.48l-.15.13Zm-4.14-10.34a11,11,0,0,0-3,1.94,11.94,11.94,0,0,0-1.14,1.38c-.54.73-1.09,1.58-1.58,2.38.8-.49,1.64-1,2.37-1.58a12.28,12.28,0,0,0,1.38-1.14A10.76,10.76,0,0,0,373.75,81.91Zm-9.32-8a21.86,21.86,0,0,0-7.05,3.54l4.07-.7C362.42,75.81,363.42,74.86,364.43,73.94ZM385,62.72a12.16,12.16,0,0,1,4.94,3,11.9,11.9,0,0,1,3,4.94,39.68,39.68,0,0,0,3.16-11.1A40.38,40.38,0,0,0,385,62.72Z"/></svg>