<svg id="Layer_1" data-name="Layer 1" xmlns="http://www.w3.org/2000/svg" xmlns:xlink="http://www.w3.org/1999/xlink" viewBox="0 0 500 300"><defs><style>.cls-1{fill:url(#linear-gradient);}.cls-2{fill:url(#linear-gradient-2);}.cls-3{fill:url(#linear-gradient-3);}.cls-4{fill:url(#linear-gradient-4);}.cls-5{fill:url(#linear-gradient-5);}.cls-6{fill:url(#linear-gradient-6);}.cls-7{fill:url(#linear-gradient-7);}.cls-8{fill:url(#linear-gradient-8);}.cls-9{fill:url(#linear-gradient-9);}.cls-10{fill:url(#linear-gradient-10);}.cls-11{fill:url(#linear-gradient-11);}.cls-12{fill:url(#linear-gradient-12);}.cls-13{fill:url(#linear-gradient-13);}.cls-14{fill:url(#linear-gradient-14);}.cls-15{fill:url(#linear-gradient-15);}.cls-16,.cls-17,.cls-18,.cls-19{fill-rule:evenodd;}.cls-16{fill:url(#linear-gradient-16);}.cls-17{fill:url(#linear-gradient-17);}.cls-18{fill:url(#linear-gradient-18);}.cls-19{fill:url(#linear-gradient-19);}.cls-20{fill:#fff;}.cls-21{fill:url(#linear-gradient-20);}.cls-22{fill:url(#linear-gradient-21);}.cls-23{fill:url(#linear-gradient-22);}.cls-24{fill:url(#linear-gradient-23);}.cls-25{fill:url(#linear-gradient-24);}.cls-26{fill:url(#linear-gradient-25);}.cls-27{fill:url(#linear-gradient-26);}.cls-28{fill:url(#linear-gradient-27);}.cls-29{fill:url(#linear-gradient-28);}.cls-30{fill:url(#linear-gradient-29);}.cls-31{fill:url(#linear-gradient-30);}.cls-32{fill:url(#linear-gradient-31);}.cls-33{fill:url(#linear-gradient-32);}.cls-34{fill:url(#linear-gradient-33);}.cls-35{fill:url(#linear-gradient-34);}.cls-36{fill:url(#linear-gradient-35);}.cls-37{fill:url(#linear-gradient-36);}.cls-38{fill:url(#linear-gradient-37);}.cls-39{fill:url(#linear-gradient-38);}.cls-40{fill:url(#linear-gradient-39);}.cls-41{fill:url(#linear-gradient-40);}.cls-42{fill:url(#linear-gradient-41);}.cls-43{fill:url(#linear-gradient-42);}.cls-44{fill:#394a58;}</style><linearGradient id="linear-gradient" x1="356.37" y1="142.58" x2="399.58" y2="142.58" gradientUnits="userSpaceOnUse"><stop offset="0.01" stop-color="#e2e6ed"/><stop offset="0.87" stop-color="#d6dfe5"/></linearGradient><linearGradient id="linear-gradient-2" x1="376.08" y1="136.53" x2="385.93" y2="136.53" xlink:href="#linear-gradient"/><linearGradient id="linear-gradient-3" x1="389.44" y1="228.19" x2="400.1" y2="228.19" gradientTransform="translate(107.03 -121.39) rotate(20.55)" xlink:href="#linear-gradient"/><linearGradient id="linear-gradient-4" x1="363.55" y1="234.56" x2="413.25" y2="234.56" gradientTransform="translate(107.03 -121.39) rotate(20.55)" xlink:href="#linear-gradient"/><linearGradient id="linear-gradient-5" x1="82.85" y1="212.32" x2="129.32" y2="212.32" xlink:href="#linear-gradient"/><linearGradient id="linear-gradient-6" x1="88.6" y1="208.51" x2="112.35" y2="208.51" xlink:href="#linear-gradient"/><linearGradient id="linear-gradient-7" x1="115.2" y1="91.11" x2="143.44" y2="91.11" xlink:href="#linear-gradient"/><linearGradient id="linear-gradient-8" x1="121.94" y1="85.5" x2="136.71" y2="85.5" xlink:href="#linear-gradient"/><linearGradient id="linear-gradient-9" x1="121.94" y1="87.74" x2="136.71" y2="87.74" xlink:href="#linear-gradient"/><linearGradient id="linear-gradient-10" x1="121.94" y1="89.99" x2="136.71" y2="89.99" xlink:href="#linear-gradient"/><linearGradient id="linear-gradient-11" x1="273.54" y1="69.3" x2="308.17" y2="69.3" xlink:href="#linear-gradient"/><linearGradient id="linear-gradient-12" x1="277.02" y1="59.87" x2="294.68" y2="59.87" xlink:href="#linear-gradient"/><linearGradient id="linear-gradient-13" x1="277.09" y1="63.47" x2="294.76" y2="63.47" xlink:href="#linear-gradient"/><linearGradient id="linear-gradient-14" x1="277.17" y1="67.06" x2="294.84" y2="67.06" xlink:href="#linear-gradient"/><linearGradient id="linear-gradient-15" x1="289.1" y1="73.8" x2="305.11" y2="73.8" xlink:href="#linear-gradient"/><linearGradient id="linear-gradient-16" x1="179.18" y1="35.53" x2="194.53" y2="35.53" gradientUnits="userSpaceOnUse"><stop offset="0" stop-color="#e0242b"/><stop offset="0.87" stop-color="#ff5c60"/></linearGradient><linearGradient id="linear-gradient-17" x1="201.98" y1="27.41" x2="208.88" y2="27.41" xlink:href="#linear-gradient-16"/><linearGradient id="linear-gradient-18" x1="225.81" y1="30.08" x2="233.42" y2="30.08" xlink:href="#linear-gradient-16"/><linearGradient id="linear-gradient-19" x1="169.97" y1="45.56" x2="180.09" y2="45.56" xlink:href="#linear-gradient-16"/><linearGradient id="linear-gradient-20" x1="173.21" y1="172.58" x2="321.17" y2="172.58" xlink:href="#linear-gradient-16"/><linearGradient id="linear-gradient-21" x1="220.41" y1="64.63" x2="248.86" y2="64.63" xlink:href="#linear-gradient-16"/><linearGradient id="linear-gradient-22" x1="211.56" y1="66.91" x2="215.13" y2="66.91" xlink:href="#linear-gradient-16"/><linearGradient id="linear-gradient-23" x1="101.49" y1="151.36" x2="111.24" y2="151.36" xlink:href="#linear-gradient"/><linearGradient id="linear-gradient-24" x1="114.58" y1="151.36" x2="124.33" y2="151.36" xlink:href="#linear-gradient"/><linearGradient id="linear-gradient-25" x1="111.64" y1="144.82" x2="114.18" y2="144.82" xlink:href="#linear-gradient"/><linearGradient id="linear-gradient-26" x1="111.64" y1="157.91" x2="114.18" y2="157.91" xlink:href="#linear-gradient"/><linearGradient id="linear-gradient-27" x1="132.84" y1="138.92" x2="139.04" y2="138.92" xlink:href="#linear-gradient"/><linearGradient id="linear-gradient-28" x1="140.43" y1="138.92" x2="146.63" y2="138.92" xlink:href="#linear-gradient"/><linearGradient id="linear-gradient-29" x1="138.73" y1="135.12" x2="140.75" y2="135.12" xlink:href="#linear-gradient"/><linearGradient id="linear-gradient-30" x1="138.73" y1="142.71" x2="140.75" y2="142.71" xlink:href="#linear-gradient"/><linearGradient id="linear-gradient-31" x1="355.47" y1="51.91" x2="358.36" y2="51.91" xlink:href="#linear-gradient"/><linearGradient id="linear-gradient-32" x1="355.47" y1="68.71" x2="358.36" y2="68.71" xlink:href="#linear-gradient"/><linearGradient id="linear-gradient-33" x1="342.44" y1="60.31" x2="354.58" y2="60.31" xlink:href="#linear-gradient"/><linearGradient id="linear-gradient-34" x1="359.24" y1="60.31" x2="371.39" y2="60.31" xlink:href="#linear-gradient"/><linearGradient id="linear-gradient-35" x1="366.62" y1="88.57" x2="368.89" y2="88.57" xlink:href="#linear-gradient"/><linearGradient id="linear-gradient-36" x1="366.62" y1="98.79" x2="368.89" y2="98.79" xlink:href="#linear-gradient"/><linearGradient id="linear-gradient-37" x1="358.7" y1="93.68" x2="366.59" y2="93.68" xlink:href="#linear-gradient"/><linearGradient id="linear-gradient-38" x1="368.92" y1="93.68" x2="376.81" y2="93.68" xlink:href="#linear-gradient"/><linearGradient id="linear-gradient-39" x1="394.32" y1="48.92" x2="396.34" y2="48.92" xlink:href="#linear-gradient"/><linearGradient id="linear-gradient-40" x1="394.32" y1="56.46" x2="396.34" y2="56.46" xlink:href="#linear-gradient"/><linearGradient id="linear-gradient-41" x1="388.48" y1="52.69" x2="394.64" y2="52.69" xlink:href="#linear-gradient"/><linearGradient id="linear-gradient-42" x1="396.02" y1="52.69" x2="402.18" y2="52.69" xlink:href="#linear-gradient"/></defs><title>Interview Process</title><path class="cls-1" d="M363.26,163l-.25-.08a1,1,0,0,1-.52-.53l-6.05-14.58a1,1,0,0,1,.53-1.28l2.25-.93-.76-1.83a1,1,0,0,1,0-.74,1,1,0,0,1,.53-.53l2.25-.93-.76-1.83a1,1,0,0,1,.53-1.28l2.25-.93-.76-1.83a1,1,0,0,1,0-.74,1,1,0,0,1,.53-.53l29.28-12.13.26,0,.26,0a1.15,1.15,0,0,1,.43.25l.09.09.11.22,6.05,14.59a1,1,0,0,1-.53,1.28l-2.25.93.76,1.82a1,1,0,0,1-.53,1.28l-2.24.93.75,1.83a1,1,0,0,1,0,.74,1,1,0,0,1-.54.54l-2.24.93.76,1.82a1,1,0,0,1-.53,1.28l-29.29,12.13-.25,0Zm.66-2.26,27.36-11.33-.38-.93-25.24,10.46-.25,0a.9.9,0,0,1-.37-.07l-.09,0-.1-.07a1,1,0,0,1-.35-.42L360,147.36l-1.35.55Zm2-4,27.37-11.33-.39-.93-25.24,10.45-.24,0a1,1,0,0,1-.49-.12l0,0-.08-.06a1,1,0,0,1-.3-.38l-4.54-11-1.34.56Zm2-4,27.36-11.33-.38-.93-25.24,10.46-.24,0a1.05,1.05,0,0,1-.49-.13l-.08-.05-.13-.1a1,1,0,0,1-.21-.32l-4.54-11-1.34.55Zm2-4,2.34-1a3.67,3.67,0,0,0-2.88-1.4l-.43,0Zm-.54-4.32a5.63,5.63,0,0,1,4.72,2.58l19-7.86a5.63,5.63,0,0,1,2.46-5.92l-1.83-4.41a4.92,4.92,0,0,1-1.2.14,5.5,5.5,0,0,1-2.15-.43,5.59,5.59,0,0,1-2.57-2.16l-19,7.86a5.61,5.61,0,0,1-2.45,5.93l1.82,4.4A6.12,6.12,0,0,1,369.43,144.27Zm26.93-9.36a3.67,3.67,0,0,0-1.37,3.32l2.34-1Zm-30.71,3.24a3.69,3.69,0,0,0,1.37-3.31l-2.35,1Zm24-12.7a3.72,3.72,0,0,0,1.48,1.12,3.76,3.76,0,0,0,1.4.28l.44,0-1-2.35Z"/><path class="cls-2" d="M381,141.46a4.93,4.93,0,0,1-1.88-9.48,5,5,0,0,1,1.88-.37,4.93,4.93,0,0,1,0,9.85Zm0-7.9a2.93,2.93,0,0,0-1.13.23,2.89,2.89,0,0,0-1.61,1.61,3,3,0,0,0,1.61,3.88,2.92,2.92,0,0,0,1.13.22,3,3,0,0,0,2.75-4.1A3,3,0,0,0,381,133.56Z"/><path class="cls-3" d="M394.73,235.83a5.32,5.32,0,0,1-3.12-6.87,5.19,5.19,0,0,1,2.78-3,5.33,5.33,0,1,1,.34,9.85Zm2.95-7.88a3,3,0,0,0-2.36.08,3.08,3.08,0,0,0-1.53,4.08,3.09,3.09,0,0,0,4.09,1.53,3.08,3.08,0,0,0,1.61-1.73,3,3,0,0,0-.08-2.35A3.07,3.07,0,0,0,397.68,228Z"/><path class="cls-4" d="M380.67,258.21a1.32,1.32,0,0,1-.44-.3l-.08-.09-.11-.2a1.13,1.13,0,0,1,.06-1l4.19-7.16-3.78-8.33c-3.05.76-6.55,1.22-6.58,1.23a1.24,1.24,0,0,1-.51-.07,1.08,1.08,0,0,1-.63-.59,1.13,1.13,0,0,1,.25-1.29s2.69-2.36,5.26-4.16l-3.78-8.31-8.24-1.57-.12,0a1.09,1.09,0,0,1-.63-.58l0-.1,0-.22a1.13,1.13,0,0,1,.65-1.18c8.86-4,15.56-2.36,17.35-1.78a79.05,79.05,0,0,1,17.14-4l.27-.06c11.65-1.26,18.22,1.13,18.49,1.24a1.12,1.12,0,0,1,.66,1.45c-.1.27-2.61,6.79-11.22,14.74l-.1.1-.1,0a79.32,79.32,0,0,1-14.3,10.32c-.73,1.73-3.87,7.87-12.75,11.91A1.16,1.16,0,0,1,380.67,258.21Zm3.4-4a23.73,23.73,0,0,0,6.36-5.89q-2,1-4.07,2Zm2-6.31,6.54-3.32a77.3,77.3,0,0,0,14.43-10.32,11,11,0,0,0-6.2-13.63,77.86,77.86,0,0,0-17.26,4.09l-6.79,2.75,3.4,7.48.18-.1a7.81,7.81,0,0,1,.7-.36,18,18,0,0,1,7.39-1.09h.1l.2.05a1.16,1.16,0,0,1,.69.76,1.09,1.09,0,0,1-.17,1,17.79,17.79,0,0,1-5.68,4.85c-.22.1-.47.2-.73.29l-.2.07Zm-.26-12.21a12.09,12.09,0,0,0-3.8.85,14.51,14.51,0,0,0-1.7,1c-.83.55-1.73,1.21-2.54,1.84,1-.2,2.09-.44,3-.71a14.16,14.16,0,0,0,1.85-.64A12.09,12.09,0,0,0,385.83,235.73ZM379.33,224a23.85,23.85,0,0,0-8.61.92l4.44.85Q377.23,224.8,379.33,224Zm25.44-3.6a13.3,13.3,0,0,1,5.09,11.2,43.64,43.64,0,0,0,7.52-10.18A43.73,43.73,0,0,0,404.77,220.36Z"/><path class="cls-5" d="M122.91,233.77a.81.81,0,0,1-.58-.19l-9.48-7.93a.87.87,0,0,1-.3-.57.82.82,0,0,1,.19-.6l.29-.35-1.9-1.59a17.47,17.47,0,0,1-9.08,3.52l-.5,0a17.63,17.63,0,0,1-2.64-35.16l.52,0a17.62,17.62,0,0,1,16.75,25.6l1.9,1.59.29-.35a.83.83,0,0,1,.59-.3.86.86,0,0,1,.58.19l9.49,7.94a.85.85,0,0,1,.29.56.82.82,0,0,1-.19.6l-5.63,6.74a.81.81,0,0,1-.56.29Zm-.15-2,4.57-5.46-8.22-6.87-4.57,5.46ZM99.06,192.6a16,16,0,1,0,11.56,28.23.92.92,0,0,1,.48-.19.82.82,0,0,1,.58.2l2.42,2,2.91-3.49-2.41-2a.82.82,0,0,1-.19-1,16,16,0,0,0-14.88-23.75Z"/><path class="cls-6" d="M101.2,220.35a11.87,11.87,0,1,1,6.9-21,11.88,11.88,0,0,1-6.57,20.94Zm-1.63-22a10.43,10.43,0,1,0,.3,0Z"/><path class="cls-7" d="M115.89,105.3a.69.69,0,0,1-.34-.09,1,1,0,0,1-.21-.19l-.12-.1v-.12l0-.19V87.74a.61.61,0,0,1,.1-.34l0-.05.06-.06,0-.06,3.68-2.77V81.57a.69.69,0,0,1,.69-.69h4.06l5.06-3.81a.69.69,0,0,1,.83,0l5.06,3.81h4.07a.69.69,0,0,1,.69.69v2.9l3.67,2.77.13.17a.76.76,0,0,1,.08.33v17l-.05.17,0,.1,0,0a.54.54,0,0,1-.15.15.76.76,0,0,1-.41.14Zm25.28-1.38-7.75-8.28-3.68,2.77a.71.71,0,0,1-.42.14.68.68,0,0,1-.41-.14l-3.75-2.82-7.69,8.33Zm.9-1V89.12l-7.54,5.68Zm-25.49,0,7.48-8.09-7.48-5.64ZM129.32,97l8.86-6.67V82.26h-17.7v8.08ZM119.1,89.3V86.18L117,87.74Zm20.46,0,2.05-1.55-2.05-1.55Zm-7.05-8.41-3.19-2.4-3.18,2.4Z"/><path class="cls-8" d="M122.63,86.18a.68.68,0,0,1-.69-.68.69.69,0,0,1,.69-.69H136a.69.69,0,0,1,.69.69.68.68,0,0,1-.69.68Z"/><path class="cls-9" d="M122.63,88.43a.69.69,0,0,1,0-1.38H136a.69.69,0,1,1,0,1.38Z"/><path class="cls-10" d="M122.63,90.67a.68.68,0,0,1-.69-.68.69.69,0,0,1,.69-.69H136a.69.69,0,0,1,.69.69.68.68,0,0,1-.69.68Z"/><path class="cls-11" d="M303.37,83.93a.71.71,0,0,1-.62-.33l-3.89-6.19L287,77.67a.72.72,0,0,1-.73-.7l-.11-5-1.88,0-4.12,7.22a.75.75,0,0,1-.61.37h-.06l-.13,0a.72.72,0,0,1-.54-.68l-.14-6.76-4.08.08a.7.7,0,0,1-.73-.7l-.34-15.66a.72.72,0,0,1,.7-.74l23.15-.49a.72.72,0,0,1,.74.7l.14,6.77,8.87-.19a.72.72,0,0,1,.74.7l.29,13.85a.71.71,0,0,1-.7.73L304,77.3l.12,5.9a.71.71,0,0,1-.51.7l-.06,0Zm-4.13-8a.73.73,0,0,1,.62.34l2.73,4.34-.09-4a.72.72,0,0,1,.7-.73l3.52-.08-.26-12.42-8.16.18.05,2.29,5.88-.13a.72.72,0,0,1,.73.7.71.71,0,0,1-.7.73l-5.88.13.05,2.16,5.87-.12a.72.72,0,0,1,.74.7.73.73,0,0,1-.71.73l-5.87.13V71a.72.72,0,0,1-.7.73L287.6,72l.09,4.23Zm-19.87-5.24a.72.72,0,0,1,.73.7l.11,4.9,3-5.33a.71.71,0,0,1,.61-.36L297,70.35l-.3-14.23L275,56.58l.3,14.24Z"/><path class="cls-12" d="M277.75,60.76a.7.7,0,0,1-.73-.7.71.71,0,0,1,.7-.73L294,59a.72.72,0,1,1,0,1.43Z"/><path class="cls-13" d="M277.82,64.36a.72.72,0,0,1-.73-.7.71.71,0,0,1,.7-.73L294,62.58a.72.72,0,1,1,0,1.43Z"/><path class="cls-14" d="M277.9,68a.72.72,0,0,1,0-1.43l16.24-.34a.72.72,0,1,1,0,1.43Z"/><path class="cls-15" d="M289.83,74.67a.72.72,0,0,1,0-1.43l14.58-.31a.72.72,0,0,1,0,1.43Z"/><path class="cls-16" d="M179.18,28.42c2.31-1,3.17-.86,4.52.72,2.31,2.71,4.59,5.46,6.85,8.22a25.25,25.25,0,0,0,3.48,4,1.12,1.12,0,0,1,.39.53c.09.26.18.65.05.82a1.24,1.24,0,0,1-.88.51,5.12,5.12,0,0,1-3.32-1.63c-1.07-1.14-2.16-2.26-3.17-3.44-2.53-2.93-5-5.88-7.52-8.84A3.86,3.86,0,0,1,179.18,28.42Z"/><path class="cls-17" d="M208.88,36.7c-.25.28-.41.63-.63.66s-.84,0-1-.2a10.11,10.11,0,0,1-1.43-2.48c-1.65-4.86-2.22-10-3.64-14.91a5.68,5.68,0,0,1-.21-1.09,1.07,1.07,0,0,1,.63-1.08,1.15,1.15,0,0,1,1.43.21,5.91,5.91,0,0,1,.78,1.57,60.65,60.65,0,0,1,2,8c.24,1.38.71,2.72,1,4.09C208.23,33.19,208.54,34.94,208.88,36.7Z"/><path class="cls-18" d="M225.81,35.15a9.58,9.58,0,0,1,.23-1.33,27.86,27.86,0,0,1,4.9-9.85,4.17,4.17,0,0,1,.47-.47,1.26,1.26,0,0,1,1.45-.12,1.13,1.13,0,0,1,.49,1.35,15,15,0,0,1-1.23,2.35,14,14,0,0,0-1.47,2.72c-.76,1.85-1.65,3.64-2.54,5.43a7.76,7.76,0,0,1-1.16,1.6c-.26.3-1,0-1.08-.37A11.41,11.41,0,0,1,225.81,35.15Z"/><path class="cls-19" d="M180,46.86a4.2,4.2,0,0,0-1.88-1.5c-1.43-.61-2.81-1.34-4.28-1.84a7.59,7.59,0,0,0-2.61-.25A1.25,1.25,0,0,0,170,44.35a1.35,1.35,0,0,0,1,1.31c.2.08.43.1.64.18a12.09,12.09,0,0,1,1.65.61A13.92,13.92,0,0,0,178,47.84c.52,0,1,0,1.55,0A.64.64,0,0,0,180,46.86Z"/><path class="cls-20" d="M265.72,141.46c-.45-1.26-.83-2.54-1.17-3.83a70.49,70.49,0,0,1-1.84-7.1c-.12-.81-.31-1.61-.44-2.42q-.47-2.84-.87-5.68c-.21-1.46-.26-6.77-.28-8Q261,107.23,261,100c0-3.79.16-7.6-.15-11.37s-.33-7.26-.77-10.88c-.24-2-.45-4-.88-5.94a14.59,14.59,0,0,0-5.3-8.78,24.18,24.18,0,0,0-6-3.43,39.31,39.31,0,0,0-14.2-2.49,190.74,190.74,0,0,0-25.4,1.17,149.31,149.31,0,0,0-17.56,3.08c-2.59.64-7.75,2.08-8.48,2.88,1.07,0,5.4.21,7.23,1.84s2.66,5.17,3,7.06a42.9,42.9,0,0,1,.52,5.07,77.09,77.09,0,0,1-.17,9.37c-.28,3.63-.9,7.23-1.29,10.85q-.9,8.33-1.68,16.65c-.21,2.22-.76,14.71-.76,14.71s10.26-1.37,14.28-1.63a78.86,78.86,0,0,1,10.8.06c3.5.24,12.2,1.7,17.86,2.8s15.94,5.62,17.8,6.77c2.16,1.35,7.53,5.2,9.83,10.3a50.61,50.61,0,0,1,7.51-1.83S266.11,142.58,265.72,141.46Z"/><path class="cls-20" d="M245.83,233.25c.08.81.24,1.6.35,2.29a6.13,6.13,0,0,0,4.19,1,3,3,0,0,0,3.21-3q.1-1,.12-2,0-3.45.07-6.91c0-8.17-.14-16.35.31-24.52a2.24,2.24,0,0,0-.18-.58L241.63,198c.09.73.1,1.18.2,1.6a128.18,128.18,0,0,1,2.57,18.08C244.88,222.89,245.34,228.07,245.83,233.25Z"/><path class="cls-20" d="M197.17,252.07a11.17,11.17,0,0,0-.61,1.43,4.94,4.94,0,0,1-2.08,2.54,5.3,5.3,0,0,1-3.54,1.07c-.73-.06-1.48,0-2.66,0a5.55,5.55,0,0,0,3.51,2c1.68.19,3.44.53,5.05-.22a14.09,14.09,0,0,0,2.91-2,2.18,2.18,0,0,0,.74-1.31,7.43,7.43,0,0,0-1.62-5.07A3,3,0,0,0,197.17,252.07Z"/><path class="cls-20" d="M187.83,151.24c-.54-3.37-.91-9.52-1.32-10.63a4.48,4.48,0,0,0-1.45-1.92,3.57,3.57,0,0,1-1.29-3.79c.53-1.86,1.15-3.74,3.21-4.54.06-2.59,2.59-29,2.78-30.5S191,88.2,191.14,87c.49-5.45.22-17-2.15-19.42-.83-.86-3.93-2-6-2a3.71,3.71,0,0,0-3.49,1.55,9,9,0,0,0-1,1.74,34.7,34.7,0,0,0-3.39,13.77,133.74,133.74,0,0,0,1,23.83c.83,6,1.38,12.12,2.07,18.17.64,5.62,1.26,11.24,2,16.85.79,6.12,1.62,12.24,2.56,18.34.56,3.66,2.93,15.18,3.3,17a1.35,1.35,0,0,0,1.4,1.18,1.64,1.64,0,0,0,1.55-1.1,4.27,4.27,0,0,0,.21-1.52C189.31,171.91,188.18,153.44,187.83,151.24Z"/><path class="cls-20" d="M255,185.81c0,1.67.73,3.79,2,4.09s4.5-.2,5.09-1.17a4.49,4.49,0,0,0,.54-2.38,53.57,53.57,0,0,0,.13-5.77c-.08-2.59-1-17-1.48-21.1a22.24,22.24,0,0,0-3.1-9.22c-1.27-2-2.21-4.4-3.94-6.1a49.71,49.71,0,0,0-8.28-6.09,42.29,42.29,0,0,0-10.31-3.79c-3.11-.74-6.21-1.48-9.34-2.11-1.7-.34-3.42-.64-5.14-.9a66,66,0,0,0-13.09-1.05c-1.41.07-2.83,0-4.24,0-.89,0-1.77.15-2.66.23-4,.39-9.58.73-10.94,1s-2.56.3-3.16,1c-.89,1-1.5,1.35-1.53,3.29s1.83,2.85,3.67,3c.67.06,1.34,0,2,0h21.87a20,20,0,0,1,2.45.11c2.31.3,4.61.62,6.92.91a57.47,57.47,0,0,1,6.73.73c3.72.92,7.49,1.64,11.13,2.86a19.76,19.76,0,0,1,8.28,5.49,18.36,18.36,0,0,1,3.5,5.7,51.7,51.7,0,0,1,1.68,8.19c.32,2.07,1,8.87,1,9.91a20.59,20.59,0,0,0,.08,2.23,55.69,55.69,0,0,1,.12,8.47C255,184.17,255,185,255,185.81Z"/><path class="cls-20" d="M264.43,175.87c.12,1.28.1,3.3.29,4.37a13.05,13.05,0,0,0,4.32,0,73.63,73.63,0,0,0,21-5.61c5.73-2.53,11.32-5.27,16.25-9.21a25.5,25.5,0,0,1,6.44-4,20,20,0,0,0,2.46-1.41c-.06-.13-.08-.21-.12-.24-4-2.74-8.68-4.14-13.17-5.86-1.79-.68-3.72-1-5.57-1.46-3.13-.83-8.24-2.5-10.45-2.9a68.91,68.91,0,0,0-22-.85,23.31,23.31,0,0,0-3.53.78,50.17,50.17,0,0,1,3.24,14.73C264,168.25,264.32,174.58,264.43,175.87Z"/><path class="cls-20" d="M265.79,119.39a35.07,35.07,0,0,1,3.56.18c2.26.33,9.8,1.29,11,1.33.67,0,9.55,1.64,13.14,3.08,1,.39,1.94.74,2.87,1.2a17.49,17.49,0,0,1,4.93,3.73,14.61,14.61,0,0,1,2.91,3.9,59.27,59.27,0,0,1,1.93,6.1c.73,2.19,1.63,11.45,1.85,13.8,0,.44.11.87.17,1.33,1.28.53,2.53,1,3.73,1.56s2.31,1.2,3.67,1.91a13,13,0,0,0,0-1.46c-.13-1.11-.37-2.2-.43-3.31-.11-2.15-.11-4.3-.18-6.45a43.67,43.67,0,0,0-3.46-16.38,14.76,14.76,0,0,0-3.66-5.38c-3.52-3.31-10.88-7.36-15.78-9.07-3.35-1.17-11.39-2.85-19.53-3.87a41,41,0,0,0-8.42-.73,8.63,8.63,0,0,0-1.19.26,34.11,34.11,0,0,0,.74,8.18Z"/><path class="cls-20" d="M192.91,174.13c6.21-3.36,12.54-6.48,19-9.29,1.16-.5,2.35-.94,3.48-1.5a128,128,0,0,1,14.44-5.87c5.52-2,11.07-3.91,16.6-5.88.45-.16,1-.18,1.25-1a30.44,30.44,0,0,0-4.51-3.75,6.64,6.64,0,0,0-2.53-1.36c-2.45-.56-4.71-1.72-7.22-2.14-2.7-.45-6.58-1.35-8.74-1.65s-10.38-1.23-13-1.13c-1.48,0-3,0-4.46,0h-16.5c-.64,0-1.36-.2-1.91.43.39,2.56.58,8.79.81,10.1.46,2.63,1.22,11,1.25,11.69q.18,4.68.31,9.36c0,.81,0,1.62,0,2.84C192,174.59,192.47,174.37,192.91,174.13Z"/><path class="cls-20" d="M223.45,179.22c2.37-.12,4.74-.24,7.12-.29,1.26,0,2.51-.22,3.77-.32,3.17-.26,18.43-.79,18.83-.82.38-2.43-1.21-15.11-1.59-17.75a14.93,14.93,0,0,0-.75-2.79c-.27-.77-1.46-4.44-2.16-4.9-.7.17-13.81,4.82-19.88,7.05-3.69,1.36-7.33,2.86-10.95,4.41-5.33,2.29-10.68,4.53-15.84,7.18-2.77,1.43-5.48,3-8.2,4.52a13.7,13.7,0,0,0-1.52,1.21c.95.7,15.08,2.52,17.79,2.66C214.52,179.59,219,179.45,223.45,179.22Z"/><path class="cls-20" d="M254.62,251c-.22-2.65-.37-5.31-.56-8.09a40.27,40.27,0,0,0-7.28-.11,5.61,5.61,0,0,0-.14.77q-.63,8.2-1.25,16.43c-.35,4.52-.78,9-1.07,13.55-.16,2.51-.08,5,0,7.43,1.46,1.08,1.78,1.32,2.92,1.34,2.3,0,4.6,0,6.89-.14,1.87-.13,2.36-.82,2.4-2.74a122.43,122.43,0,0,0-.77-15.79C255.32,259.44,255,255.22,254.62,251Z"/><path class="cls-20" d="M250.75,238.28c-.52,0-1,0-1.55,0a9.26,9.26,0,0,1-4.66-1.93c-1-.64-.71-1.73-1.35-2.5-1.56.44-1.8,2-2.44,3.14a1.15,1.15,0,0,0,.63,1.5,14.34,14.34,0,0,0,6.08,2c2,.08,4,0,6,0a5.22,5.22,0,0,0,3.89-1.86,2.82,2.82,0,0,0-.2-4c-.43-.36-.87-.79-1.43-.73-.66,1-1.22,2-1.89,2.84A3.8,3.8,0,0,1,250.75,238.28Z"/><path class="cls-20" d="M269,187.21c-1-1-4-3.94-4.44-4.28-.24.81-.12,5.19-1.17,7-.71,1.23-2.86,1.93-5.78,1.64s-4.23-2-4.28-4c0-1.71,0-3.42,0-5.13,0-.81-.07-1.62-.11-2.7-1.95-.2-13.12.18-14.37.35-1.92.27-3.84.49-5.75.73A7,7,0,0,1,232,181c-3.65,0-11.66.54-12,.54-3,0-6,0-8.93,0-.88,0-1.77-.17-2.65-.25-2.74-.24-9-1.38-9.45-1.43-1.4-.17-8.35-1.27-9-1a1.18,1.18,0,0,0-.66,1.81,22.11,22.11,0,0,0,4.29,5.06c2.62,2.45,8,4.11,9.94,4.87a19.39,19.39,0,0,0,5.4,1.11c3.12.29,6.16,1,9.26,1.33s6.35.81,9.54,1c3.56.25,7.09.72,10.61,1.23,3.09.44,6.17.92,9.24,1.41a94,94,0,0,0,15.37.69c3.79,0,6.13-.17,7.27-3.13C271.05,192,271.17,189.2,269,187.21Z"/><path class="cls-20" d="M238.45,236.81h-1.81c-4.53,0-9.07.06-13.6-.11-4.9-.18-9.79-.55-14.69-.46a21.18,21.18,0,0,0-4,.44A56.3,56.3,0,0,0,188.74,243a6.84,6.84,0,0,0-3.56,5.6c-.09,1-.06,2.08-.1,3.12a2.28,2.28,0,0,0,.83,1.73A6.46,6.46,0,0,0,191,255.2a3.85,3.85,0,0,0,3.67-2.4c.22-.47.36-1,.62-1.42a8.91,8.91,0,0,1,5.47-4.57,93.68,93.68,0,0,1,11.13-2.23,120.65,120.65,0,0,1,15.55-1.06c2.82,0,5.65-.2,8.46-.4,2.15-.16,4.28-.44,6.42-.7.3,0,.78,0,.78-.64l-2-.9C239.53,240.12,238.22,239.1,238.45,236.81Z"/><path class="cls-20" d="M256.66,242.27a9.43,9.43,0,0,0,1.45.36c4.45.32,8.89.81,13.35.87A120.92,120.92,0,0,1,289.89,245c3,.51,5.94,1.33,8.91,2a5.23,5.23,0,0,1,2.46,1.44,10.61,10.61,0,0,1,3,4.37,3.46,3.46,0,0,0,2.82,2.27,7.38,7.38,0,0,0,4.17-.4,3.67,3.67,0,0,0,2.55-3.94c0-.52,0-1,0-1.56a7.1,7.1,0,0,0-4-6.46,66,66,0,0,0-10.34-4.71,27,27,0,0,0-8-1.79c-2.15-.08-4.32,0-6.47,0-6.84.25-13.66.77-20.51.58-1.4,0-2.8.06-4.15.09a16,16,0,0,0-1.43,2.87C258.47,241,257.55,241.45,256.66,242.27Z"/><path class="cls-20" d="M318.9,165.39a16.13,16.13,0,0,0-.78-3c-.31-.83-.92-1.33-2.16-.86a22.16,22.16,0,0,0-6.14,3.55,68.54,68.54,0,0,1-6.52,5.06,81.47,81.47,0,0,1-24.54,10.39c-3.55.82-12.11,1.64-12.11,1.64s3.37,3.12,4.28,4.11c1.8,2,2.55,4.65,2.08,6.46a7,7,0,0,1-2.33,4c.91-.13,5-.48,6.52-.89a146.34,146.34,0,0,0,19.64-6.64,72,72,0,0,0,12.48-6.9,26.08,26.08,0,0,0,7.85-8.11,10.54,10.54,0,0,0,1.78-6.55C318.88,166.88,319,166.11,318.9,165.39Z"/><path class="cls-20" d="M246.47,284.32c-.06,2.94,1.83,3.82,3.86,3.94.59,0,1.18,0,1.77,0,2.28-.05,2.9-.64,3-2.87a8.27,8.27,0,0,0-.11-1.07Z"/><path class="cls-20" d="M307.87,257.1a5.57,5.57,0,0,1-5.52-3.66c-.2-.48-.42-.95-.64-1.42a2.79,2.79,0,0,0-1.79-1.53,10.7,10.7,0,0,0-1.41,3.33,3.18,3.18,0,0,0,1.29,3.69c1.61,1.2,3.23,2.08,5.3,1.78a5.27,5.27,0,0,1,.89,0A6.21,6.21,0,0,0,309.7,258c.29-.21.65-.4.37-.9Z"/><path class="cls-21" d="M321.14,166.57c-.14-3.33-1-6.32-4-8.25,0-.57-.1-1.08-.1-1.6,0-1.3-.06-2.59-.1-3.89-.21-7.13-.15-14.5-2.9-21.2a34.32,34.32,0,0,0-3.84-6.56c-1.44-2.15-7.05-6.23-8.14-7a76.66,76.66,0,0,0-8.77-4.28A153.55,153.55,0,0,0,275,109.84c-3.67-.53-7.33-1.3-11.08-1.11a6.22,6.22,0,0,1-1.1-.16c0-.92-.07-1.66-.07-2.39-.05-4.92.08-9.84-.19-14.74-.24-4.31-.25-8.62-.34-12.93,0-1.92-.17-3.86-.39-5.78a17,17,0,0,0-7.94-12.83,31.29,31.29,0,0,0-16.2-5.08,170.17,170.17,0,0,0-34,1.66,109.07,109.07,0,0,0-19,4.73A11.33,11.33,0,0,0,179.2,65,22.47,22.47,0,0,0,176,70.35a36.9,36.9,0,0,0-2.71,12.81c-.08,3,0,6-.1,8.93a81.18,81.18,0,0,0,.75,11.13q1,9.19,2.07,18.41c.5,4.51,1,9,1.51,13.52.81,6.5,1.6,13,2.58,19.47.59,3.88,2.5,13.61,2.67,14.41s1.37,6.89,1.91,8.71c.64,2.15,2.41,2.12,2.89,2.4a7.84,7.84,0,0,0,2.41,4.7c.76.71,1.44,1.51,2.21,2.21a14.69,14.69,0,0,0,4.62,3c2.23.83,4.5,1.51,6.71,2.37,1.61.62,13.85,2.16,14.22,2.21,2.5.36,5,.71,7.51,1,1.4.2,2.79.42,4.2.51a22,22,0,0,1,3.31.39c1.88.4,3.8.63,5.71.93.42.07.84.17,1.35.27.62,5.64,1.28,11.17,1.81,16.71s1,11.25,1.44,16.75l-4.53,3.38c-5.23-.06-10.58.08-15.94-.25-4.6-.29-9.22-.36-13.83-.54a20.2,20.2,0,0,0-5.52.66A61.33,61.33,0,0,0,189.41,240,20.46,20.46,0,0,0,185,243.9a11.12,11.12,0,0,0-1.78,5.67c0,.82,0,1.64,0,2.46a3.13,3.13,0,0,0,1.05,2.59,3.59,3.59,0,0,1,1.29,2,2.32,2.32,0,0,0,.56.95,8.67,8.67,0,0,0,6.41,3.6c.82,0,1.64.08,2.45.12a6,6,0,0,0,3.79-1.09l2-1.43a4.21,4.21,0,0,0,1.85-4.05,10.78,10.78,0,0,0-.48-2.39c-.38-1.1-.88-2.16-1.35-3.3a6.15,6.15,0,0,1,.85-.35,119.38,119.38,0,0,1,24.34-2.89,121.92,121.92,0,0,0,14.91-.92,25.43,25.43,0,0,0,2.82-.63c.34-.08.67-.33,1.1.12-.13,1.16-.28,2.41-.41,3.65-.5,5-.95,9.93-1.51,14.88a127.69,127.69,0,0,0-.88,16.93c0,.37,0,.74,0,1.11a2.61,2.61,0,0,0,1.07,2.12,2.73,2.73,0,0,1,1.21,2,18.49,18.49,0,0,0,.48,1.95,3.76,3.76,0,0,0,2.07,2.5,9.22,9.22,0,0,0,2.73.9,19.19,19.19,0,0,0,3.79,0,4.07,4.07,0,0,0,3.95-4.07,19.25,19.25,0,0,0,0-2,1.72,1.72,0,0,1,.54-1.4,3.5,3.5,0,0,0,1-2.65,118.43,118.43,0,0,0-.38-12.49c-.37-3.7-.76-7.4-1.14-11.1s-.79-7.54-1.17-11.32a2.55,2.55,0,0,1,.15-.68,6.75,6.75,0,0,1,.9,0,114.73,114.73,0,0,0,14.23,1.05c3.49.08,7,.14,10.47.46a140.52,140.52,0,0,1,15.42,2.44,4.75,4.75,0,0,1,.82.34c-.51,1.29-1.07,2.48-1.49,3.73a5.14,5.14,0,0,0,1.85,6.32c2.11,1.62,4.32,2.6,7,2.15.58-.09,1.19-.05,1.78-.15a8.36,8.36,0,0,0,6-4.26,9.06,9.06,0,0,1,1.55-2.37,3,3,0,0,0,.95-2.42c0-.81,0-1.63,0-2.45a10.94,10.94,0,0,0-1.76-5.75,13,13,0,0,0-3.08-3.1,71.75,71.75,0,0,0-12.45-5.45,24.23,24.23,0,0,0-7-1.38c-2.68,0-5.36,0-8,.14-7.29.4-14.57.76-21.87.61-.59,0-1.18,0-1.41-.06l-4.47-3.28c0-.07-.15-17.62-.1-26.17a55.76,55.76,0,0,1,.57-5.59c.7,0,1.28-.09,1.86-.1,3-.08,10.08-.4,10.67-.44a34.28,34.28,0,0,0,4.65-.34,116.66,116.66,0,0,0,25.3-7.85,68.26,68.26,0,0,0,12.05-6.77,24.34,24.34,0,0,0,5.6-5.07c.77-1,1.57-2,2.35-3a10.93,10.93,0,0,0,2.53-7.21C321.13,168.06,321.17,167.31,321.14,166.57Zm-58.22-55.45a8.63,8.63,0,0,1,1.19-.26,41,41,0,0,1,8.42.73c8.14,1,16.18,2.7,19.53,3.87,4.9,1.71,12.26,5.76,15.78,9.07a14.76,14.76,0,0,1,3.66,5.38A43.67,43.67,0,0,1,315,146.29c.07,2.15.07,4.3.18,6.45.06,1.11.3,2.2.43,3.31a13,13,0,0,1,0,1.46c-1.36-.71-2.49-1.36-3.67-1.91s-2.45-1-3.73-1.56c-.06-.46-.13-.89-.17-1.33-.22-2.35-1.12-11.61-1.85-13.8a59.27,59.27,0,0,0-1.93-6.1,14.61,14.61,0,0,0-2.91-3.9,17.49,17.49,0,0,0-4.93-3.73c-.93-.46-1.91-.81-2.87-1.2-3.59-1.44-12.47-3.06-13.14-3.08-1.18,0-8.72-1-11-1.33a35.07,35.07,0,0,0-3.56-.18l-2.13-.09A34.11,34.11,0,0,1,262.92,111.12Zm-8,63.77a20.59,20.59,0,0,1-.08-2.23c0-1-.69-7.84-1-9.91a51.7,51.7,0,0,0-1.68-8.19,18.36,18.36,0,0,0-3.5-5.7,19.76,19.76,0,0,0-8.28-5.49c-3.64-1.22-7.41-1.94-11.13-2.86a57.47,57.47,0,0,0-6.73-.73c-2.31-.29-4.61-.61-6.92-.91a20,20,0,0,0-2.45-.11H191.24c-.67,0-1.34,0-2,0-1.84-.17-3.71-1.08-3.67-3s.64-2.3,1.53-3.29c.6-.66,1.8-.71,3.16-1s6.95-.59,10.94-1c.89-.08,1.77-.21,2.66-.23,1.41,0,2.83,0,4.24,0a66,66,0,0,1,13.09,1.05c1.72.26,3.44.56,5.14.9,3.13.63,6.23,1.37,9.34,2.11A42.29,42.29,0,0,1,246,138.07a49.71,49.71,0,0,1,8.28,6.09c1.73,1.7,2.67,4.05,3.94,6.1a22.24,22.24,0,0,1,3.1,9.22c.49,4.06,1.4,18.51,1.48,21.1a53.57,53.57,0,0,1-.13,5.77,4.49,4.49,0,0,1-.54,2.38c-.59,1-3.78,1.48-5.09,1.17s-2.06-2.42-2-4.09c0-.82,0-1.64,0-2.45A55.69,55.69,0,0,0,254.89,174.89Zm-63.71-2.71q-.13-4.68-.31-9.36c0-.66-.79-9.06-1.25-11.69-.23-1.31-.42-7.54-.81-10.1.55-.63,1.27-.42,1.91-.43h16.5c1.49,0,3,0,4.46,0,2.63-.1,10.85.84,13,1.13s6,1.2,8.74,1.65c2.51.42,4.77,1.58,7.22,2.14a6.64,6.64,0,0,1,2.53,1.36,30.44,30.44,0,0,1,4.51,3.75c-.22.79-.8.81-1.25,1-5.53,2-11.08,3.89-16.6,5.88a128,128,0,0,0-14.44,5.87c-1.13.56-2.32,1-3.48,1.5-6.47,2.81-12.8,5.93-19,9.29-.44.24-.89.46-1.72.89C191.19,173.8,191.21,173,191.18,172.18Zm2.62,3.33c2.72-1.53,5.43-3.09,8.2-4.52,5.16-2.65,10.51-4.89,15.84-7.18,3.62-1.55,7.26-3.05,10.95-4.41,6.07-2.23,19.18-6.88,19.88-7.05.7.46,1.89,4.13,2.16,4.9a14.93,14.93,0,0,1,.75,2.79c.38,2.64,2,15.32,1.59,17.75-.4,0-15.66.56-18.83.82-1.26.1-2.51.29-3.77.32-2.38,0-4.75.17-7.12.29-4.46.23-8.93.37-13.38.16-2.71-.14-16.84-2-17.79-2.66A13.7,13.7,0,0,1,193.8,175.51Zm66.63-26a23.31,23.31,0,0,1,3.53-.78,68.91,68.91,0,0,1,22,.85c2.21.4,7.32,2.07,10.45,2.9,1.85.5,3.78.78,5.57,1.46,4.49,1.72,9.13,3.12,13.17,5.86,0,0,.06.11.12.24a20,20,0,0,1-2.46,1.41,25.5,25.5,0,0,0-6.44,4c-4.93,3.94-10.52,6.68-16.25,9.21a73.63,73.63,0,0,1-21,5.61,13.05,13.05,0,0,1-4.32,0c-.19-1.07-.17-3.09-.29-4.37s-.46-7.62-.76-11.62A50.17,50.17,0,0,0,260.43,149.52Zm8.63-3.52s-3.31-10.68-4-13.87c-.51-2.37-1.46-10.78-1.46-10.78s1.69-.11,2.57-.12a18.25,18.25,0,0,1,2.45.09c1.24.19,14.37,1.79,16.46,2.35,1.14.3,2.31.47,3.47.73a14.93,14.93,0,0,1,1.69.52,19.76,19.76,0,0,0,2.51.89c2.06.41,8.32,5,9.46,7.33a30,30,0,0,1,2.8,9.12c.25,2.44,1.35,10.32.92,11-.83-.31-1.57-.6-2.33-.87s-1.54-.53-2.32-.78c-1.19-.4-9.21-2.12-11.4-2.8-.28-.09-.58-.13-.86-.23a52.53,52.53,0,0,0-11.71-2.3C274.59,146,269.06,146,269.06,146ZM190.74,61.32a149.31,149.31,0,0,1,17.56-3.08,190.74,190.74,0,0,1,25.4-1.17,39.31,39.31,0,0,1,14.2,2.49,24.18,24.18,0,0,1,6,3.43,14.59,14.59,0,0,1,5.3,8.78c.43,2,.64,4,.88,5.94.44,3.62.47,7.26.77,10.88S261,96.17,261,100q.06,7.26.14,14.51c0,1.19.07,6.5.28,8q.41,2.85.87,5.68c.13.81.32,1.61.44,2.42a70.49,70.49,0,0,0,1.84,7.1c.34,1.29.72,2.57,1.17,3.83s1.46,4.76,1.46,4.76a50.61,50.61,0,0,0-7.51,1.83c-2.3-5.1-7.67-9-9.83-10.3C248,136.6,237.7,132.09,232,131s-14.36-2.56-17.86-2.8a78.86,78.86,0,0,0-10.8-.06c-4,.26-14.28,1.63-14.28,1.63s.55-12.49.76-14.71q.79-8.33,1.68-16.65c.39-3.62,1-7.22,1.29-10.85a77.09,77.09,0,0,0,.17-9.37,42.9,42.9,0,0,0-.52-5.07c-.33-1.89-1.16-5.42-3-7.06s-6.16-1.84-7.23-1.84C183,63.4,188.15,62,190.74,61.32ZM187.5,178a1.35,1.35,0,0,1-1.4-1.18c-.37-1.81-2.74-13.33-3.3-17-.94-6.1-1.77-12.22-2.56-18.34-.72-5.61-1.34-11.23-2-16.85-.69-6-1.24-12.13-2.07-18.17a133.74,133.74,0,0,1-1-23.83,34.7,34.7,0,0,1,3.39-13.77,9,9,0,0,1,1-1.74A3.71,3.71,0,0,1,183,65.61c2,0,5.13,1.09,6,2,2.37,2.45,2.64,14,2.15,19.42C191,88.2,190,98.3,189.76,99.86S187,127.77,187,130.36c-2.06.8-2.68,2.68-3.21,4.54a3.57,3.57,0,0,0,1.29,3.79,4.48,4.48,0,0,1,1.45,1.92c.41,1.11.78,7.26,1.32,10.63.35,2.2,1.48,20.67,1.43,24.17a4.27,4.27,0,0,1-.21,1.52A1.64,1.64,0,0,1,187.5,178Zm54.33,21.6c-.1-.42-.11-.87-.2-1.6l12.27,1.53a2.24,2.24,0,0,1,.18.58c-.45,8.17-.26,16.35-.31,24.52q0,3.47-.07,6.91,0,1-.12,2a3,3,0,0,1-3.21,3,6.13,6.13,0,0,1-4.19-1c-.11-.69-.27-1.48-.35-2.29-.49-5.18-1-10.36-1.43-15.54A128.18,128.18,0,0,0,241.83,199.63Zm-41.34,56a2.18,2.18,0,0,1-.74,1.31,14.09,14.09,0,0,1-2.91,2c-1.61.75-3.37.41-5.05.22a5.55,5.55,0,0,1-3.51-2c1.18,0,1.93-.05,2.66,0a5.3,5.3,0,0,0,3.54-1.07,4.94,4.94,0,0,0,2.08-2.54,11.17,11.17,0,0,1,.61-1.43,3,3,0,0,1,1.7-1.56A7.43,7.43,0,0,1,200.49,255.58Zm41.86-13.16c-2.14.26-4.27.54-6.42.7-2.81.2-5.64.41-8.46.4a120.65,120.65,0,0,0-15.55,1.06,93.68,93.68,0,0,0-11.13,2.23,8.91,8.91,0,0,0-5.47,4.57c-.26.44-.4,1-.62,1.42a3.85,3.85,0,0,1-3.67,2.4,6.46,6.46,0,0,1-5.12-1.71,2.28,2.28,0,0,1-.83-1.73c0-1,0-2.08.1-3.12a6.84,6.84,0,0,1,3.56-5.6,56.3,56.3,0,0,1,15.63-6.36,21.18,21.18,0,0,1,4-.44c4.9-.09,9.79.28,14.69.46,4.53.17,9.07.08,13.6.11h1.81c-.23,2.29,1.08,3.31,2.72,4.07l2,.9C243.13,242.45,242.65,242.38,242.35,242.42Zm9.75,45.84c-.59,0-1.18,0-1.77,0-2-.12-3.92-1-3.86-3.94H255a8.27,8.27,0,0,1,.11,1.07C255,287.62,254.38,288.21,252.1,288.26Zm4.43-8.82c0,1.92-.53,2.61-2.4,2.74-2.29.16-4.59.16-6.89.14-1.14,0-1.46-.26-2.92-1.34-.08-2.4-.16-4.92,0-7.43.29-4.52.72-9,1.07-13.55q.63-8.22,1.25-16.43a5.61,5.61,0,0,1,.14-.77,40.27,40.27,0,0,1,7.28.11c.19,2.78.34,5.44.56,8.09.36,4.22.7,8.44,1.14,12.65A122.43,122.43,0,0,1,256.53,279.44ZM309.7,258a6.21,6.21,0,0,1-3.71,1.27,5.27,5.27,0,0,0-.89,0c-2.07.3-3.69-.58-5.3-1.78a3.18,3.18,0,0,1-1.29-3.69,10.7,10.7,0,0,1,1.41-3.33,2.79,2.79,0,0,1,1.79,1.53c.22.47.44.94.64,1.42a5.57,5.57,0,0,0,5.52,3.66h2.2C310.35,257.6,310,257.79,309.7,258Zm-49.5-21c1.35,0,2.75-.12,4.15-.09,6.85.19,13.67-.33,20.51-.58,2.15-.09,4.32-.12,6.47,0a27,27,0,0,1,8,1.79,66,66,0,0,1,10.34,4.71,7.1,7.1,0,0,1,4,6.46c0,.52,0,1,0,1.56a3.67,3.67,0,0,1-2.55,3.94,7.38,7.38,0,0,1-4.17.4,3.46,3.46,0,0,1-2.82-2.27,10.61,10.61,0,0,0-3-4.37A5.23,5.23,0,0,0,298.8,247c-3-.67-5.92-1.49-8.91-2a120.92,120.92,0,0,0-18.43-1.54c-4.46-.06-8.9-.55-13.35-.87a9.43,9.43,0,0,1-1.45-.36c.89-.82,1.81-1.31,2.11-2.43A16,16,0,0,1,260.2,237Zm-4.46-3c.56-.06,1,.37,1.43.73a2.82,2.82,0,0,1,.2,4,5.22,5.22,0,0,1-3.89,1.86c-2,0-4,.05-6,0a14.34,14.34,0,0,1-6.08-2,1.15,1.15,0,0,1-.63-1.5c.64-1.16.88-2.7,2.44-3.14.64.77.36,1.86,1.35,2.5a9.26,9.26,0,0,0,4.66,1.93c.51,0,1,0,1.55,0a3.8,3.8,0,0,0,3.1-1.51C254.52,235.9,255.08,234.94,255.74,233.93Zm7.2-36.59a94,94,0,0,1-15.37-.69c-3.07-.49-6.15-1-9.24-1.41-3.52-.51-7.05-1-10.61-1.23-3.19-.22-6.36-.68-9.54-1s-6.14-1-9.26-1.33a19.39,19.39,0,0,1-5.4-1.11c-1.92-.76-7.32-2.42-9.94-4.87a22.11,22.11,0,0,1-4.29-5.06,1.18,1.18,0,0,1,.66-1.81c.6-.24,7.55.86,9,1,.44,0,6.71,1.19,9.45,1.43.88.08,1.77.24,2.65.25,3,0,6,0,8.93,0,.37,0,8.38-.58,12-.54a7,7,0,0,0,1.11-.13c1.91-.24,3.83-.46,5.75-.73,1.25-.17,12.42-.55,14.37-.35,0,1.08.1,1.89.11,2.7,0,1.71,0,3.42,0,5.13.05,1.95,1.37,3.67,4.28,4s5.07-.41,5.78-1.64c1.05-1.81.93-6.19,1.17-7,.47.34,3.4,3.33,4.44,4.28,2.18,2,2.06,4.79,1.22,7C269.07,197.17,266.73,197.31,262.94,197.34Zm54.23-23.18a26.08,26.08,0,0,1-7.85,8.11,72,72,0,0,1-12.48,6.9,146.34,146.34,0,0,1-19.64,6.64c-1.5.41-5.61.76-6.52.89a7,7,0,0,0,2.33-4c.47-1.81-.28-4.49-2.08-6.46-.91-1-4.28-4.11-4.28-4.11s8.56-.82,12.11-1.64a81.47,81.47,0,0,0,24.54-10.39,68.54,68.54,0,0,0,6.52-5.06,22.16,22.16,0,0,1,6.14-3.55c1.24-.47,1.85,0,2.16.86a16.13,16.13,0,0,1,.78,3c.12.72,0,1.49.05,2.22A10.54,10.54,0,0,1,317.17,174.16Z"/><path class="cls-22" d="M227.94,65.44C229,65.26,242.2,65,247.69,65c.41,0,.87.15,1.17-.3-.06-.13-.08-.33-.17-.37a13.09,13.09,0,0,0-5.18-1.07c-3.26.07-11,.36-13.44.54s-5.69.5-7.82.75c-.76.09-2.18.8-1.77,1.27S225.52,65.82,227.94,65.44Z"/><path class="cls-23" d="M215.13,66.65c-.21-.92-3.73-.34-3.56.54S215.33,67.56,215.13,66.65Z"/><path class="cls-24" d="M111.24,151.36a1.27,1.27,0,0,1-1.27,1.27h-7.21a1.27,1.27,0,1,1,0-2.54H110A1.27,1.27,0,0,1,111.24,151.36Z"/><path class="cls-25" d="M124.33,151.36a1.27,1.27,0,0,1-1.27,1.27h-7.21a1.27,1.27,0,0,1,0-2.54h7.21A1.27,1.27,0,0,1,124.33,151.36Z"/><path class="cls-26" d="M114.18,148.42a1.27,1.27,0,0,1-2.54,0v-7.21a1.27,1.27,0,0,1,2.54,0Z"/><path class="cls-27" d="M114.18,161.52a1.27,1.27,0,0,1-2.54,0V154.3a1.27,1.27,0,1,1,2.54,0Z"/><path class="cls-28" d="M139,138.92a1,1,0,0,1-1,1h-4.18a1,1,0,1,1,0-2H138A1,1,0,0,1,139,138.92Z"/><path class="cls-29" d="M146.63,138.92a1,1,0,0,1-1,1h-4.18a1,1,0,1,1,0-2h4.18A1,1,0,0,1,146.63,138.92Z"/><path class="cls-30" d="M140.75,137.21a1,1,0,1,1-2,0V133a1,1,0,0,1,2,0Z"/><path class="cls-31" d="M140.75,144.8a1,1,0,1,1-2,0v-4.18a1,1,0,0,1,2,0Z"/><path class="cls-32" d="M356.91,58a1.45,1.45,0,0,1-1.44-1.44V47.28a1.45,1.45,0,0,1,2.89,0v9.26A1.45,1.45,0,0,1,356.91,58Z"/><path class="cls-33" d="M356.91,74.78a1.44,1.44,0,0,1-1.44-1.44V64.08a1.45,1.45,0,0,1,2.89,0v9.26A1.44,1.44,0,0,1,356.91,74.78Z"/><path class="cls-34" d="M343.88,61.75a1.44,1.44,0,1,1,0-2.88h9.26a1.44,1.44,0,0,1,0,2.88Z"/><path class="cls-35" d="M360.69,61.75a1.44,1.44,0,1,1,0-2.88H370a1.44,1.44,0,0,1,0,2.88Z"/><path class="cls-36" d="M367.75,92.52a1.14,1.14,0,0,1-1.13-1.13V85.76a1.14,1.14,0,0,1,2.27,0v5.63A1.14,1.14,0,0,1,367.75,92.52Z"/><path class="cls-37" d="M367.75,102.73a1.13,1.13,0,0,1-1.13-1.13V96a1.14,1.14,0,0,1,2.27,0v5.63A1.13,1.13,0,0,1,367.75,102.73Z"/><path class="cls-38" d="M359.83,94.81a1.13,1.13,0,1,1,0-2.26h5.63a1.13,1.13,0,0,1,0,2.26Z"/><path class="cls-39" d="M370.05,94.81a1.13,1.13,0,1,1,0-2.26h5.62a1.13,1.13,0,1,1,0,2.26Z"/><path class="cls-40" d="M395.33,52a1,1,0,0,1-1-1V46.84a1,1,0,0,1,2,0V51A1,1,0,0,1,395.33,52Z"/><path class="cls-41" d="M395.33,59.54a1,1,0,0,1-1-1V54.38a1,1,0,0,1,2,0v4.16A1,1,0,0,1,395.33,59.54Z"/><path class="cls-42" d="M389.48,53.7a1,1,0,0,1,0-2h4.16a1,1,0,0,1,0,2Z"/><path class="cls-43" d="M397,53.7a1,1,0,0,1,0-2h4.16a1,1,0,0,1,0,2Z"/><path class="cls-20" d="M178.3,249.93a5.79,5.79,0,0,1-3.54-1.25l-.14-.1c-2-1.58-4.14-4.76-3.34-10.93.77-5.67,4.07-16.19,7.93-25.65a9.56,9.56,0,0,1-2-2.22,5.85,5.85,0,0,1-.69-5.52,5.71,5.71,0,0,1,4.14-3.38,35.31,35.31,0,0,0,6.38-2.61,32.72,32.72,0,0,1,8.15-3.09,15.43,15.43,0,0,1,2.92-.29c3.32,0,7.92,1.25,11,7.21,2.46,4.74,2.37,10.06-.25,15.83-3.36,7.36-11.07,13.88-20.14,17a11.63,11.63,0,0,1-2.24.51c-.89,2.89-1.83,6.21-2.86,10.16A5.49,5.49,0,0,1,178.3,249.93Zm16.51-38.62a20.65,20.65,0,0,1-.54,2.69,16.9,16.9,0,0,0,2.48-3.7l-1.77.91Z"/><path class="cls-20" d="M204.88,248.23a5.82,5.82,0,0,1-3.55-1.24c-4-3.06-5.07-8.27-3-14a123.77,123.77,0,0,1,5.29-11.34,9.5,9.5,0,0,1-.6-5.05c.55-4.13,3.93-10.55,8.6-11.35a6.41,6.41,0,0,1,1.09-.09,6.06,6.06,0,0,1,4.78,2.33,6.24,6.24,0,0,1,.92,1.51,5.85,5.85,0,0,1,6.34.88c3.38,2.81,5.73,7.91,3,12.51a5.56,5.56,0,0,1,4,2.43l.11.16a10.49,10.49,0,0,1,.89,8c-1.44,6-6.56,10.84-12.16,11.43-.45,0-.87.07-1.28.07a10.33,10.33,0,0,1-8.07-3.68l-.41-.54a16,16,0,0,0-.42,2.53A5.55,5.55,0,0,1,204.88,248.23Z"/><path class="cls-20" d="M235.66,241.87a12.67,12.67,0,0,1-9-3.87c-4.65-4.59-5.45-12-2.24-20.25,2.71-7.05,7.5-11.94,12.79-13.07a11.89,11.89,0,0,1,2.35-.26,9.64,9.64,0,0,1,7,3.22,7.68,7.68,0,0,0,.78.64,10.76,10.76,0,0,1,4.44,6.85,5.32,5.32,0,0,1,1.3,7.14l-.11.18a7.26,7.26,0,0,1-1.25,1.46c-1.25,6.42-4.86,13.72-10.68,16.66A12.18,12.18,0,0,1,235.66,241.87Z"/><path class="cls-20" d="M258.77,238.53a12.72,12.72,0,0,1-10.62-5.29c-3.11-4.34-3.67-10.48-1.53-16.86,3.16-9.29,9.55-15.52,15.92-15.52a8.64,8.64,0,0,1,3.4.68,13.58,13.58,0,0,1,6.24,4.77c2,2.89,1.8,6,1.16,8.77a5.68,5.68,0,0,1,3.78,2.79l.05.09c1.72,3.14.11,7.32-.43,8.52a21.6,21.6,0,0,1-15.38,11.84,16.34,16.34,0,0,1-2.59.21Zm2-15.85a10.93,10.93,0,0,0-.2,3.62,8.55,8.55,0,0,0,2.56-1.91A8.36,8.36,0,0,1,260.75,222.68Z"/><path class="cls-20" d="M280.62,235.46A12.76,12.76,0,0,1,270,230.13c-3.13-4.36-3.7-10.51-1.56-16.88,3.14-9.36,9.59-15.64,16.05-15.64a8.93,8.93,0,0,1,3.31.62,17.41,17.41,0,0,1,6.06,4c2.2,2.19,2.89,6,2.05,9.86a5.74,5.74,0,0,1,3.07,2.38c1.7,2.59,1.12,6.46-.24,9.18a21.71,21.71,0,0,1-15.49,11.61A17.56,17.56,0,0,1,280.62,235.46Z"/><path class="cls-20" d="M302.3,232.33a14.07,14.07,0,0,1-11.64-5.77c-3.17-4.32-4.06-11.29-.15-15.58a6.13,6.13,0,0,1,3.71-2c1.11-2.23,2-4.24,2.71-5.89a11.6,11.6,0,0,1,2.78-7.57,8.78,8.78,0,0,1,6.58-3.48,6,6,0,0,1,3.64,1.18c3.85,2.89,2.19,7.16,1.56,8.77l-.07.18-.05.11a54.61,54.61,0,0,0,1.27,6.8,5.54,5.54,0,0,1,2.58-.64,5.81,5.81,0,0,1,4.75,2.53l.13.19c1.36,2.17,1.42,5.48.15,8.86A18.88,18.88,0,0,1,306,232,20,20,0,0,1,302.3,232.33Z"/><path class="cls-20" d="M323.34,229.31a14.07,14.07,0,0,1-11.64-5.77c-3.16-4.32-4.06-11.29-.15-15.58a6,6,0,0,1,3.72-2.05c1.1-2.23,2-4.24,2.71-5.89a11.59,11.59,0,0,1,2.77-7.57,8.81,8.81,0,0,1,6.59-3.49,6,6,0,0,1,3.64,1.19c3.85,2.89,2.19,7.16,1.56,8.77l-.07.18-.05.1a53,53,0,0,0,1.27,6.81,5.48,5.48,0,0,1,2.58-.64A5.83,5.83,0,0,1,341,207.9l.12.19c1.37,2.17,1.42,5.48.15,8.86A18.88,18.88,0,0,1,327,229,21.09,21.09,0,0,1,323.34,229.31Z"/><path class="cls-44" d="M181.35,207c-.43-.67-.36-1.08.48-1.27,5.35-1.37,9.85-4.82,14.27-5.65,3.31-.61,6.34,0,8.55,4.31,1.94,3.72,1.37,7.67-.35,11.46-2.54,5.56-8.89,11.48-17.22,14.34a6,6,0,0,1-4.14-.07c-1.32,3.86-2.66,8.45-4.17,14.2-.17.7-.49.74-1,.35-1.06-.85-2-2.72-1.52-6.39.84-6.19,5.22-19.36,9.62-29.13A4.88,4.88,0,0,1,181.35,207Zm20.58-1.62c-1.89-3.4-7.94.94-12.07,2.8.25,1.77-.07,4.15-1.45,7.55-1.27,3.25-2.67,6.51-4.1,10.46C198.55,221.35,204.35,209.71,201.93,205.39Z"/><path class="cls-44" d="M219.72,214.11c.71-.64,1.22-.84,1.75-.39,1.44,1.2,3.42,3.85,1.83,6.28-2.46,3.75-5.07,8.33-5.63,11.88s.6,6,2.5,5.78c2.57-.24,5.12-4.74,6.54-9.75.18-.56.57-.68.9-.2a5.74,5.74,0,0,1,.26,4.1c-1,4-4.36,7.3-7.84,7.67-4.73.48-7.25-3.57-6.32-8.7.82-4.52,3.95-9.71,6.13-13.09a14.31,14.31,0,0,1-7.29,3.58c-1.83,4.93-6.77,15.12-7.16,21.24,0,.61-.39,1-1.06.49-2.18-1.69-2.61-4.7-1.32-8.28,1.09-3.09,4.58-9.87,6.5-13.68-4.07-1.88.51-10.41,2.92-10.82,2-.36,2,3.51,1,7.86A15.59,15.59,0,0,0,219.72,214.11Z"/><path class="cls-44" d="M247.17,220.84c-.57,5.75-3.74,12.94-8.34,15.27-2.24,1.12-5.55,1.33-8.65-1.69-3.42-3.38-3.26-9.21-1.07-14.86,1.85-4.8,5.29-9.16,9.17-10,2-.42,3.21,0,4.77,1.59,1.79,1.81,3.82,2,4.1,6.74,0,.54.08,1,.09,1.53.39-.06.76-.25,1.28-.32s.51.26.29.62A2.67,2.67,0,0,1,247.17,220.84Zm-5.79-.84a8.21,8.21,0,0,1-3.83-5.32,23.23,23.23,0,0,0-4.15,6.87c-2,5.36-2.15,11.51-.24,12.71s5.7-1.62,8-8.1a34.89,34.89,0,0,0,1.54-5.55A5,5,0,0,1,241.38,220Zm1.39-6.14c-.63-2-1.88-1.46-1.93.48a5.4,5.4,0,0,0,2.1,4.44A12.84,12.84,0,0,0,242.77,213.86Z"/><path class="cls-44" d="M268.12,209.22c1.76,2.55-.35,6.39-1.15,10.11-.15.82-.39,1-1.3.72-1.68-.56-2.88-2.39-2.39-5.46.39-2.46,1.94-5.55.92-6.14-1.24-.75-5.54,4.13-7.63,10.5-2.53,7.9-.38,13.13,3.49,12.64,5.5-.72,9.45-6.62,11.54-11.13.25-.57.83-.72,1.18-.1s.25,2.17-.61,4.09a16.49,16.49,0,0,1-11.59,8.94c-8.28,1.32-12.25-6.38-9.22-15.42,3-8.84,9.1-13.32,12.65-11.82A8.72,8.72,0,0,1,268.12,209.22Z"/><path class="cls-44" d="M282,228.45c5.46-.52,9.48-6.43,11.67-11.15.26-.57.78-.64,1.12-.09s.41,2.34-.52,4.21a16.77,16.77,0,0,1-11.8,8.9c-8.28,1.32-12.33-6.44-9.29-15.48s9.21-13.39,12.75-12a12.49,12.49,0,0,1,4.35,2.84c1.4,1.4,1.45,5.47-.82,9.19-2.64,4.39-6.77,6.71-11.88,3.65C276.3,224.86,278.46,228.75,282,228.45Zm3.27-15.81c1.69-3,2.64-6.65,1.63-7.24-1.54-.91-6.4,3.79-8.58,10.44-.14.42-.28.84-.36,1.18C281.4,218.59,283.68,215.39,285.22,212.64Z"/><path class="cls-44" d="M301.93,204c0-2.59.43-3.93,1.63-5.37s2.71-2,3.38-1.48.53,1.32-.11,2.95c-.2.43-.34.85-.54,1.34.41,6.08,2.38,11,2.83,15.54.24,2.57.18,5.38-1.95,7.28,4.14-2.26,6.32-6.58,7.45-10.34.23-.76.91-.66,1.24-.18s.53,2.26-.29,4.45A13.93,13.93,0,0,1,305,227.07c-3.77.67-7.57.22-10.37-3.51-2-2.72-2.42-7.06-.46-9.21.69-.77,1.25-.58,1.47.46.14.51.21,1,.35,1.55A130.5,130.5,0,0,0,301.93,204Zm-4.81,15.77c1.52,3.65,3.8,6.06,5.87,5.09,2.87-1.34.42-11.46-.6-16.65A114.38,114.38,0,0,1,297.12,219.8Z"/><path class="cls-44" d="M323,201c0-2.59.44-3.93,1.63-5.37s2.71-2,3.39-1.48.52,1.32-.11,3c-.21.43-.35.85-.54,1.34.4,6.08,2.38,11,2.83,15.54.23,2.56.17,5.37-2,7.28,4.15-2.26,6.33-6.58,7.46-10.34.22-.77.9-.66,1.24-.18s.52,2.26-.3,4.45a13.92,13.92,0,0,1-10.53,8.85c-3.77.67-7.57.22-10.38-3.52-2-2.71-2.41-7.05-.45-9.2.69-.77,1.25-.58,1.46.45.14.52.22,1,.36,1.55A131.48,131.48,0,0,0,323,201Zm-4.81,15.77c1.53,3.65,3.81,6.05,5.87,5.09,2.88-1.34.42-11.46-.59-16.66A115.88,115.88,0,0,1,318.16,216.78Z"/></svg>