<svg id="Layer_1" data-name="Layer 1" xmlns="http://www.w3.org/2000/svg" xmlns:xlink="http://www.w3.org/1999/xlink" viewBox="0 0 500 300"><defs><style>.cls-1{fill:none;}.cls-109,.cls-2,.cls-39,.cls-41,.cls-84,.cls-85,.cls-86{fill:#fff;}.cls-109,.cls-2,.cls-39,.cls-41,.cls-85,.cls-86{stroke-miterlimit:10;}.cls-2,.cls-85,.cls-86{stroke-width:1.24px;}.cls-2{stroke:url(#linear-gradient);}.cls-3{fill:url(#linear-gradient-2);}.cls-4{fill:url(#linear-gradient-3);}.cls-5{fill:#394a58;}.cls-6{fill:url(#linear-gradient-4);}.cls-7{fill:url(#linear-gradient-5);}.cls-8{fill:url(#linear-gradient-6);}.cls-9{fill:url(#linear-gradient-7);}.cls-10{fill:url(#linear-gradient-8);}.cls-11{fill:url(#linear-gradient-9);}.cls-12{fill:url(#linear-gradient-10);}.cls-13{fill:url(#linear-gradient-11);}.cls-14{fill:url(#linear-gradient-12);}.cls-15{fill:url(#linear-gradient-13);}.cls-16{fill:url(#linear-gradient-14);}.cls-17{fill:url(#linear-gradient-15);}.cls-18{fill:url(#linear-gradient-16);}.cls-19{fill:url(#linear-gradient-17);}.cls-20{fill:url(#linear-gradient-18);}.cls-21{fill:url(#linear-gradient-19);}.cls-22{fill:url(#linear-gradient-20);}.cls-23{fill:url(#linear-gradient-21);}.cls-24{fill:url(#linear-gradient-22);}.cls-25{fill:url(#linear-gradient-23);}.cls-26{fill:url(#linear-gradient-24);}.cls-27{fill:url(#linear-gradient-25);}.cls-28{fill:url(#linear-gradient-26);}.cls-29{fill:url(#linear-gradient-27);}.cls-30{fill:url(#linear-gradient-28);}.cls-31{fill:url(#linear-gradient-29);}.cls-32{fill:url(#linear-gradient-30);}.cls-33{fill:url(#linear-gradient-31);}.cls-34{fill:url(#linear-gradient-32);}.cls-35{fill:url(#linear-gradient-33);}.cls-36{fill:url(#linear-gradient-34);}.cls-37{fill:url(#linear-gradient-35);}.cls-38{fill:url(#linear-gradient-36);}.cls-109,.cls-39,.cls-41{stroke-width:2.49px;}.cls-39{stroke:url(#linear-gradient-37);}.cls-40{clip-path:url(#clip-path);}.cls-41{stroke:url(#linear-gradient-38);}.cls-42{fill:url(#linear-gradient-39);}.cls-43{fill:url(#linear-gradient-40);}.cls-44{fill:url(#linear-gradient-41);}.cls-45{fill:url(#linear-gradient-42);}.cls-46{fill:url(#linear-gradient-43);}.cls-47{fill:url(#linear-gradient-44);}.cls-48{fill:url(#linear-gradient-45);}.cls-49{fill:url(#linear-gradient-46);}.cls-50{fill:url(#linear-gradient-47);}.cls-51{fill:url(#linear-gradient-48);}.cls-52{fill:url(#linear-gradient-49);}.cls-53{fill:url(#linear-gradient-50);}.cls-54{fill:url(#linear-gradient-51);}.cls-55{fill:url(#linear-gradient-52);}.cls-56{fill:url(#linear-gradient-53);}.cls-57{fill:url(#linear-gradient-54);}.cls-58{fill:url(#linear-gradient-55);}.cls-59{fill:url(#linear-gradient-56);}.cls-60{fill:url(#linear-gradient-57);}.cls-61{fill:url(#linear-gradient-58);}.cls-62{fill:url(#linear-gradient-59);}.cls-63{fill:url(#linear-gradient-60);}.cls-64{fill:url(#linear-gradient-61);}.cls-65{fill:url(#linear-gradient-62);}.cls-66{fill:url(#linear-gradient-63);}.cls-67{fill:url(#linear-gradient-64);}.cls-68{fill:url(#linear-gradient-65);}.cls-69{fill:url(#linear-gradient-66);}.cls-70{fill:url(#linear-gradient-67);}.cls-71{fill:url(#linear-gradient-68);}.cls-72{fill:url(#linear-gradient-69);}.cls-73{fill:url(#linear-gradient-70);}.cls-74{fill:url(#linear-gradient-71);}.cls-75{fill:url(#linear-gradient-72);}.cls-76{fill:url(#linear-gradient-73);}.cls-77{fill:url(#linear-gradient-74);}.cls-78{fill:url(#linear-gradient-75);}.cls-79{fill:url(#linear-gradient-76);}.cls-80{opacity:0.9;}.cls-81{fill:url(#linear-gradient-77);}.cls-82{fill:url(#linear-gradient-78);}.cls-83{opacity:0.5;}.cls-85{stroke:url(#linear-gradient-79);}.cls-86{stroke:url(#linear-gradient-80);}.cls-87{fill:url(#linear-gradient-81);}.cls-88{fill:url(#linear-gradient-82);}.cls-89{fill:url(#linear-gradient-83);}.cls-90{fill:url(#linear-gradient-84);}.cls-91{fill:url(#linear-gradient-85);}.cls-92{fill:url(#linear-gradient-86);}.cls-93{fill:url(#linear-gradient-87);}.cls-94{fill:url(#linear-gradient-88);}.cls-95{fill:url(#linear-gradient-89);}.cls-96{fill:url(#linear-gradient-90);}.cls-97{fill:url(#linear-gradient-91);}.cls-98{fill:url(#linear-gradient-92);}.cls-99{fill:url(#linear-gradient-93);}.cls-100{fill:url(#linear-gradient-94);}.cls-101{fill:url(#linear-gradient-95);}.cls-102{fill:url(#linear-gradient-96);}.cls-103{fill:url(#linear-gradient-97);}.cls-104{fill:url(#linear-gradient-98);}.cls-105{fill:url(#linear-gradient-99);}.cls-106{fill:url(#linear-gradient-100);}.cls-107{fill:url(#linear-gradient-101);}.cls-108{fill:url(#linear-gradient-102);}.cls-109{stroke:url(#linear-gradient-103);}.cls-110{fill:url(#linear-gradient-104);}.cls-111{fill:url(#linear-gradient-105);}.cls-112{fill:url(#linear-gradient-106);}.cls-113{fill:url(#linear-gradient-107);}</style><linearGradient id="linear-gradient" x1="239.46" y1="165.44" x2="370.37" y2="165.44" gradientUnits="userSpaceOnUse"><stop offset="0" stop-color="#e0242b"/><stop offset="0.87" stop-color="#ff5c60"/></linearGradient><linearGradient id="linear-gradient-2" x1="264.22" y1="131.3" x2="355.55" y2="131.3" gradientTransform="translate(-15.98 47.17) rotate(-8.49)" gradientUnits="userSpaceOnUse"><stop offset="0.01" stop-color="#e2e6ed"/><stop offset="0.87" stop-color="#d6dfe5"/></linearGradient><linearGradient id="linear-gradient-3" x1="262.79" y1="140.87" x2="354.12" y2="140.87" gradientTransform="translate(-17.41 47.07) rotate(-8.49)" xlink:href="#linear-gradient-2"/><linearGradient id="linear-gradient-4" x1="285.53" y1="151.97" x2="302.03" y2="151.97" gradientTransform="translate(-19.13 44.79) rotate(-8.44)" gradientUnits="userSpaceOnUse"><stop offset="0" stop-color="#0d47a1"/><stop offset="1" stop-color="#072759"/></linearGradient><linearGradient id="linear-gradient-5" x1="260.85" y1="148.31" x2="277.35" y2="148.31" gradientTransform="translate(-18.86 41.12) rotate(-8.44)" xlink:href="#linear-gradient-4"/><linearGradient id="linear-gradient-6" x1="258.47" y1="164.33" x2="274.97" y2="164.33" gradientTransform="translate(-21.24 40.94) rotate(-8.44)" xlink:href="#linear-gradient-2"/><linearGradient id="linear-gradient-7" x1="257.34" y1="171.95" x2="273.84" y2="171.95" gradientTransform="translate(-22.37 40.87) rotate(-8.44)" xlink:href="#linear-gradient-2"/><linearGradient id="linear-gradient-8" x1="256.21" y1="179.57" x2="272.71" y2="179.57" gradientTransform="translate(-23.5 40.78) rotate(-8.44)" xlink:href="#linear-gradient-4"/><linearGradient id="linear-gradient-9" x1="255.08" y1="187.19" x2="271.58" y2="187.19" gradientTransform="translate(-24.63 40.69) rotate(-8.44)" xlink:href="#linear-gradient-2"/><linearGradient id="linear-gradient-10" x1="253.95" y1="194.81" x2="270.45" y2="194.81" gradientTransform="translate(-25.76 40.61) rotate(-8.44)" xlink:href="#linear-gradient-2"/><linearGradient id="linear-gradient-11" x1="252.82" y1="202.43" x2="269.32" y2="202.43" gradientTransform="translate(-26.89 40.52) rotate(-8.44)" xlink:href="#linear-gradient-2"/><linearGradient id="linear-gradient-12" x1="250.56" y1="217.66" x2="267.06" y2="217.66" gradientTransform="translate(-29.16 40.36) rotate(-8.44)" xlink:href="#linear-gradient-2"/><linearGradient id="linear-gradient-13" x1="283.15" y1="168" x2="299.65" y2="168" gradientTransform="translate(-21.51 44.61) rotate(-8.44)" xlink:href="#linear-gradient-4"/><linearGradient id="linear-gradient-14" x1="282.02" y1="175.62" x2="298.52" y2="175.62" gradientTransform="translate(-22.64 44.52) rotate(-8.44)" xlink:href="#linear-gradient-4"/><linearGradient id="linear-gradient-15" x1="280.89" y1="183.23" x2="297.39" y2="183.23" gradientTransform="translate(-23.77 44.44) rotate(-8.44)" xlink:href="#linear-gradient-2"/><linearGradient id="linear-gradient-16" x1="278.63" y1="198.47" x2="295.12" y2="198.47" gradientTransform="translate(-26.03 44.27) rotate(-8.44)" xlink:href="#linear-gradient-2"/><linearGradient id="linear-gradient-17" x1="277.5" y1="206.09" x2="293.99" y2="206.09" gradientTransform="translate(-27.16 44.19) rotate(-8.44)" xlink:href="#linear-gradient-2"/><linearGradient id="linear-gradient-18" x1="276.37" y1="213.71" x2="292.86" y2="213.71" gradientTransform="translate(-28.29 44.11) rotate(-8.44)" xlink:href="#linear-gradient-2"/><linearGradient id="linear-gradient-19" x1="275.23" y1="221.33" x2="291.73" y2="221.33" gradientTransform="translate(-29.42 44.02) rotate(-8.44)" xlink:href="#linear-gradient-2"/><linearGradient id="linear-gradient-20" x1="307.83" y1="171.66" x2="324.32" y2="171.66" gradientTransform="translate(-21.78 48.27) rotate(-8.44)" xlink:href="#linear-gradient-2"/><linearGradient id="linear-gradient-21" x1="306.7" y1="179.28" x2="323.19" y2="179.28" gradientTransform="translate(-22.91 48.19) rotate(-8.44)" xlink:href="#linear-gradient-2"/><linearGradient id="linear-gradient-22" x1="304.43" y1="194.51" x2="320.93" y2="194.51" gradientTransform="translate(-25.17 48.01) rotate(-8.44)" xlink:href="#linear-gradient-2"/><linearGradient id="linear-gradient-23" x1="303.3" y1="202.13" x2="319.8" y2="202.13" gradientTransform="translate(-26.3 47.93) rotate(-8.44)" xlink:href="#linear-gradient-2"/><linearGradient id="linear-gradient-24" x1="302.17" y1="209.75" x2="318.67" y2="209.75" gradientTransform="translate(-27.43 47.85) rotate(-8.44)" xlink:href="#linear-gradient-2"/><linearGradient id="linear-gradient-25" x1="301.04" y1="217.37" x2="317.54" y2="217.37" gradientTransform="translate(-28.56 47.77) rotate(-8.44)" xlink:href="#linear-gradient-2"/><linearGradient id="linear-gradient-26" x1="299.91" y1="224.99" x2="316.41" y2="224.99" gradientTransform="translate(-29.7 47.69) rotate(-8.44)" xlink:href="#linear-gradient-2"/><linearGradient id="linear-gradient-27" x1="332.5" y1="175.32" x2="349" y2="175.32" gradientTransform="translate(-22.05 51.93) rotate(-8.44)" xlink:href="#linear-gradient-2"/><linearGradient id="linear-gradient-28" x1="331.37" y1="182.94" x2="347.87" y2="182.94" gradientTransform="translate(-23.18 51.85) rotate(-8.44)" xlink:href="#linear-gradient-2"/><linearGradient id="linear-gradient-29" x1="330.24" y1="190.56" x2="346.74" y2="190.56" gradientTransform="translate(-24.31 51.76) rotate(-8.44)" xlink:href="#linear-gradient-2"/><linearGradient id="linear-gradient-30" x1="329.11" y1="198.18" x2="345.61" y2="198.18" gradientTransform="translate(-25.44 51.68) rotate(-8.44)" xlink:href="#linear-gradient-2"/><linearGradient id="linear-gradient-31" x1="326.85" y1="213.41" x2="343.35" y2="213.41" gradientTransform="translate(-27.7 51.52) rotate(-8.44)" xlink:href="#linear-gradient-2"/><linearGradient id="linear-gradient-32" x1="325.72" y1="221.03" x2="342.22" y2="221.03" gradientTransform="translate(-28.83 51.43) rotate(-8.44)" xlink:href="#linear-gradient-2"/><linearGradient id="linear-gradient-33" x1="259.62" y1="159.46" x2="314.88" y2="159.46" gradientTransform="translate(-20.3 43.91) rotate(-8.44)" xlink:href="#linear-gradient-2"/><linearGradient id="linear-gradient-34" x1="270.45" y1="115.59" x2="274.07" y2="101.12" xlink:href="#linear-gradient"/><linearGradient id="linear-gradient-35" x1="285.24" y1="119.29" x2="288.86" y2="104.82" xlink:href="#linear-gradient"/><linearGradient id="linear-gradient-36" x1="303.09" y1="123.75" x2="306.71" y2="109.28" xlink:href="#linear-gradient"/><linearGradient id="linear-gradient-37" x1="132.17" y1="232.6" x2="208.58" y2="232.6" xlink:href="#linear-gradient"/><clipPath id="clip-path"><circle class="cls-1" cx="239.09" cy="110.83" r="62.4" transform="translate(25.38 265.02) rotate(-60.68)"/></clipPath><linearGradient id="linear-gradient-38" x1="199.6" y1="193.49" x2="385.77" y2="193.49" xlink:href="#linear-gradient"/><linearGradient id="linear-gradient-39" x1="235.07" y1="145.15" x2="364.37" y2="145.15" gradientTransform="translate(-18.14 45.83) rotate(-8.49)" xlink:href="#linear-gradient-2"/><linearGradient id="linear-gradient-40" x1="233.05" y1="158.7" x2="362.35" y2="158.7" gradientTransform="translate(-20.16 45.68) rotate(-8.49)" xlink:href="#linear-gradient-2"/><linearGradient id="linear-gradient-41" x1="335.11" y1="184.79" x2="358.47" y2="184.79" gradientTransform="translate(-23.38 52.93) rotate(-8.44)" xlink:href="#linear-gradient-4"/><linearGradient id="linear-gradient-42" x1="265.24" y1="174.42" x2="288.6" y2="174.42" gradientTransform="translate(-22.61 42.55) rotate(-8.44)" xlink:href="#linear-gradient-4"/><linearGradient id="linear-gradient-43" x1="300.18" y1="179.6" x2="323.53" y2="179.6" gradientTransform="translate(-22.99 47.74) rotate(-8.44)" xlink:href="#linear-gradient-4"/><linearGradient id="linear-gradient-44" x1="226.93" y1="191.92" x2="250.29" y2="191.92" gradientTransform="translate(-25.59 37.12) rotate(-8.44)" xlink:href="#linear-gradient-2"/><linearGradient id="linear-gradient-45" x1="225.33" y1="202.71" x2="248.69" y2="202.71" gradientTransform="translate(-27.2 37) rotate(-8.44)" xlink:href="#linear-gradient-2"/><linearGradient id="linear-gradient-46" x1="223.73" y1="213.5" x2="247.09" y2="213.5" gradientTransform="translate(-28.8 36.88) rotate(-8.44)" xlink:href="#linear-gradient-4"/><linearGradient id="linear-gradient-47" x1="222.13" y1="224.28" x2="245.49" y2="224.28" gradientTransform="translate(-30.4 36.76) rotate(-8.44)" xlink:href="#linear-gradient-2"/><linearGradient id="linear-gradient-48" x1="220.53" y1="235.07" x2="243.89" y2="235.07" gradientTransform="translate(-32 36.64) rotate(-8.44)" xlink:href="#linear-gradient-2"/><linearGradient id="linear-gradient-49" x1="218.93" y1="245.85" x2="242.29" y2="245.85" gradientTransform="translate(-33.6 36.52) rotate(-8.44)" xlink:href="#linear-gradient-2"/><linearGradient id="linear-gradient-50" x1="217.33" y1="256.64" x2="240.69" y2="256.64" gradientTransform="translate(-35.2 36.4) rotate(-8.44)" xlink:href="#linear-gradient-4"/><linearGradient id="linear-gradient-51" x1="215.73" y1="267.43" x2="239.08" y2="267.43" gradientTransform="translate(-36.8 36.29) rotate(-8.44)" xlink:href="#linear-gradient-2"/><linearGradient id="linear-gradient-52" x1="261.87" y1="197.11" x2="285.23" y2="197.11" gradientTransform="translate(-25.98 42.3) rotate(-8.44)" xlink:href="#linear-gradient-4"/><linearGradient id="linear-gradient-53" x1="260.27" y1="207.9" x2="283.63" y2="207.9" gradientTransform="translate(-27.58 42.18) rotate(-8.44)" xlink:href="#linear-gradient-4"/><linearGradient id="linear-gradient-54" x1="258.67" y1="218.68" x2="282.03" y2="218.68" gradientTransform="translate(-29.18 42.07) rotate(-8.44)" xlink:href="#linear-gradient-2"/><linearGradient id="linear-gradient-55" x1="257.07" y1="229.47" x2="280.43" y2="229.47" gradientTransform="translate(-30.78 41.95) rotate(-8.44)" xlink:href="#linear-gradient"/><linearGradient id="linear-gradient-56" x1="255.47" y1="240.25" x2="278.83" y2="240.25" gradientTransform="translate(-32.38 41.83) rotate(-8.44)" xlink:href="#linear-gradient-2"/><linearGradient id="linear-gradient-57" x1="253.87" y1="251.04" x2="277.22" y2="251.04" gradientTransform="matrix(0.99, -0.15, 0.15, 0.99, -33.98, 41.71)" xlink:href="#linear-gradient-2"/><linearGradient id="linear-gradient-58" x1="252.27" y1="261.83" x2="275.62" y2="261.83" gradientTransform="translate(-35.58 41.59) rotate(-8.44)" xlink:href="#linear-gradient-2"/><linearGradient id="linear-gradient-59" x1="250.66" y1="272.61" x2="274.02" y2="272.61" gradientTransform="translate(-37.18 41.47) rotate(-8.44)" xlink:href="#linear-gradient-2"/><linearGradient id="linear-gradient-60" x1="296.81" y1="202.3" x2="320.17" y2="202.3" gradientTransform="translate(-26.36 47.49) rotate(-8.44)" xlink:href="#linear-gradient-2"/><linearGradient id="linear-gradient-61" x1="295.21" y1="213.08" x2="318.57" y2="213.08" gradientTransform="translate(-27.96 47.37) rotate(-8.44)" xlink:href="#linear-gradient-2"/><linearGradient id="linear-gradient-62" x1="293.61" y1="223.87" x2="316.96" y2="223.87" gradientTransform="translate(-29.56 47.26) rotate(-8.44)" xlink:href="#linear-gradient"/><linearGradient id="linear-gradient-63" x1="292.01" y1="234.65" x2="315.36" y2="234.65" gradientTransform="translate(-31.16 47.13) rotate(-8.44)" xlink:href="#linear-gradient-2"/><linearGradient id="linear-gradient-64" x1="290.41" y1="245.44" x2="313.76" y2="245.44" gradientTransform="translate(-32.76 47.01) rotate(-8.44)" xlink:href="#linear-gradient-2"/><linearGradient id="linear-gradient-65" x1="288.8" y1="256.23" x2="312.16" y2="256.23" gradientTransform="translate(-34.36 46.89) rotate(-8.44)" xlink:href="#linear-gradient-2"/><linearGradient id="linear-gradient-66" x1="287.2" y1="267.01" x2="310.56" y2="267.01" gradientTransform="translate(-35.97 46.78) rotate(-8.44)" xlink:href="#linear-gradient-2"/><linearGradient id="linear-gradient-67" x1="285.6" y1="277.8" x2="308.96" y2="277.8" gradientTransform="translate(-37.57 46.66) rotate(-8.44)" xlink:href="#linear-gradient-2"/><linearGradient id="linear-gradient-68" x1="331.75" y1="207.48" x2="355.1" y2="207.48" gradientTransform="translate(-26.74 52.68) rotate(-8.44)" xlink:href="#linear-gradient-2"/><linearGradient id="linear-gradient-69" x1="330.15" y1="218.27" x2="353.5" y2="218.27" gradientTransform="translate(-28.34 52.56) rotate(-8.44)" xlink:href="#linear-gradient-2"/><linearGradient id="linear-gradient-70" x1="328.54" y1="229.05" x2="351.9" y2="229.05" gradientTransform="translate(-29.94 52.44) rotate(-8.44)" xlink:href="#linear-gradient-2"/><linearGradient id="linear-gradient-71" x1="326.94" y1="239.84" x2="350.3" y2="239.84" gradientTransform="translate(-31.54 52.32) rotate(-8.44)" xlink:href="#linear-gradient-2"/><linearGradient id="linear-gradient-72" x1="325.34" y1="250.63" x2="348.7" y2="250.63" gradientTransform="translate(-33.15 52.2) rotate(-8.44)" xlink:href="#linear-gradient"/><linearGradient id="linear-gradient-73" x1="323.74" y1="261.41" x2="347.1" y2="261.41" gradientTransform="translate(-34.75 52.08) rotate(-8.44)" xlink:href="#linear-gradient-2"/><linearGradient id="linear-gradient-74" x1="322.14" y1="272.2" x2="345.5" y2="272.2" gradientTransform="translate(-36.35 51.96) rotate(-8.44)" xlink:href="#linear-gradient-2"/><linearGradient id="linear-gradient-75" x1="320.54" y1="282.98" x2="343.9" y2="282.98" gradientTransform="translate(-37.95 51.85) rotate(-8.44)" xlink:href="#linear-gradient-4"/><linearGradient id="linear-gradient-76" x1="228.56" y1="185.03" x2="306.79" y2="185.03" gradientTransform="translate(-24.27 41.31) rotate(-8.44)" gradientUnits="userSpaceOnUse"><stop offset="0.04" stop-color="#b0bec5"/><stop offset="1" stop-color="#546e7a"/></linearGradient><linearGradient id="linear-gradient-77" x1="311.49" y1="139.82" x2="316.62" y2="119.32" xlink:href="#linear-gradient"/><linearGradient id="linear-gradient-78" x1="191.56" y1="70.56" x2="266.42" y2="70.56" gradientTransform="matrix(1, 0, 0, 1, 0, 0)" xlink:href="#linear-gradient-2"/><linearGradient id="linear-gradient-79" x1="137.25" y1="267.96" x2="160.85" y2="267.96" xlink:href="#linear-gradient"/><linearGradient id="linear-gradient-80" x1="140.86" y1="261.67" x2="164.47" y2="261.67" xlink:href="#linear-gradient"/><linearGradient id="linear-gradient-81" x1="94.64" y1="89.35" x2="127.75" y2="113.11" gradientUnits="userSpaceOnUse"><stop offset="0" stop-color="#dae1e8"/><stop offset="0.65" stop-color="#eff4f9"/><stop offset="1" stop-color="#eff4f9"/></linearGradient><linearGradient id="linear-gradient-82" x1="99.37" y1="82.75" x2="132.49" y2="106.51" xlink:href="#linear-gradient-81"/><linearGradient id="linear-gradient-83" x1="100.31" y1="81.45" x2="133.42" y2="105.21" xlink:href="#linear-gradient-81"/><linearGradient id="linear-gradient-84" x1="93.7" y1="90.65" x2="126.82" y2="114.41" xlink:href="#linear-gradient-81"/><linearGradient id="linear-gradient-85" x1="111.61" y1="65.69" x2="144.73" y2="89.45" xlink:href="#linear-gradient-81"/><linearGradient id="linear-gradient-86" x1="114.36" y1="61.86" x2="147.47" y2="85.62" xlink:href="#linear-gradient-81"/><linearGradient id="linear-gradient-87" x1="114.9" y1="61.11" x2="148.01" y2="84.87" xlink:href="#linear-gradient-81"/><linearGradient id="linear-gradient-88" x1="111.07" y1="66.44" x2="144.19" y2="90.2" xlink:href="#linear-gradient-81"/><linearGradient id="linear-gradient-89" x1="373.56" y1="201.83" x2="402.17" y2="222.36" xlink:href="#linear-gradient-81"/><linearGradient id="linear-gradient-90" x1="377.65" y1="196.13" x2="406.26" y2="216.65" xlink:href="#linear-gradient-81"/><linearGradient id="linear-gradient-91" x1="378.46" y1="195.01" x2="407.07" y2="215.53" xlink:href="#linear-gradient-81"/><linearGradient id="linear-gradient-92" x1="372.75" y1="202.96" x2="401.36" y2="223.48" xlink:href="#linear-gradient-81"/><linearGradient id="linear-gradient-93" x1="388.22" y1="181.39" x2="416.84" y2="201.92" xlink:href="#linear-gradient-81"/><linearGradient id="linear-gradient-94" x1="390.59" y1="178.09" x2="419.21" y2="198.61" xlink:href="#linear-gradient-81"/><linearGradient id="linear-gradient-95" x1="391.06" y1="177.43" x2="419.67" y2="197.96" xlink:href="#linear-gradient-81"/><linearGradient id="linear-gradient-96" x1="387.76" y1="182.04" x2="416.37" y2="202.57" xlink:href="#linear-gradient-81"/><linearGradient id="linear-gradient-97" x1="95.35" y1="193.86" x2="132.14" y2="193.86" gradientTransform="matrix(1, 0, 0, 1, 0, 0)" xlink:href="#linear-gradient-2"/><linearGradient id="linear-gradient-98" x1="310.27" y1="37.6" x2="366.37" y2="37.6" gradientTransform="matrix(1, 0, 0, 1, 0, 0)" xlink:href="#linear-gradient-2"/><linearGradient id="linear-gradient-99" x1="315.78" y1="21.75" x2="345.01" y2="21.75" gradientTransform="matrix(1, 0, 0, 1, 0, 0)" xlink:href="#linear-gradient-2"/><linearGradient id="linear-gradient-100" x1="315.78" y1="27.6" x2="345.01" y2="27.6" gradientTransform="matrix(1, 0, 0, 1, 0, 0)" xlink:href="#linear-gradient-2"/><linearGradient id="linear-gradient-101" x1="315.78" y1="33.46" x2="345.01" y2="33.46" gradientTransform="matrix(1, 0, 0, 1, 0, 0)" xlink:href="#linear-gradient-2"/><linearGradient id="linear-gradient-102" x1="334.96" y1="44.8" x2="361.49" y2="44.8" gradientTransform="matrix(1, 0, 0, 1, 0, 0)" xlink:href="#linear-gradient-2"/><linearGradient id="linear-gradient-103" x1="159.07" y1="113.88" x2="319.12" y2="113.88" xlink:href="#linear-gradient"/><linearGradient id="linear-gradient-104" x1="375.76" y1="139.76" x2="415.36" y2="139.76" gradientTransform="matrix(1, 0, 0, 1, 0, 0)" xlink:href="#linear-gradient-2"/><linearGradient id="linear-gradient-105" x1="385.21" y1="131.88" x2="405.91" y2="131.88" gradientTransform="matrix(1, 0, 0, 1, 0, 0)" xlink:href="#linear-gradient-2"/><linearGradient id="linear-gradient-106" x1="385.21" y1="135.03" x2="405.91" y2="135.03" gradientTransform="matrix(1, 0, 0, 1, 0, 0)" xlink:href="#linear-gradient-2"/><linearGradient id="linear-gradient-107" x1="385.21" y1="138.18" x2="405.91" y2="138.18" gradientTransform="matrix(1, 0, 0, 1, 0, 0)" xlink:href="#linear-gradient-2"/></defs><title>Job opening</title><polygon class="cls-2" points="347.35 249.07 369.66 97.81 262.49 81.81 240.16 233.16 347.35 249.07"/><rect class="cls-3" x="263.97" y="129.61" width="91.83" height="3.39" transform="translate(22.77 -44.3) rotate(8.49)"/><rect class="cls-4" x="262.54" y="139.18" width="91.83" height="3.39" transform="translate(24.17 -43.98) rotate(8.49)"/><rect class="cls-5" x="335.03" y="157.69" width="16.2" height="3.2" transform="translate(27.11 -48.66) rotate(8.44)"/><rect class="cls-6" x="285.68" y="150.37" width="16.2" height="3.21" transform="translate(25.5 -41.49) rotate(8.44)"/><rect class="cls-5" x="310.35" y="154.03" width="16.2" height="3.21" transform="translate(26.3 -45.07) rotate(8.44)"/><rect class="cls-7" x="261" y="146.7" width="16.2" height="3.21" transform="translate(24.69 -37.9) rotate(8.44)"/><rect class="cls-8" x="258.62" y="162.73" width="16.2" height="3.2" transform="translate(27.02 -37.38) rotate(8.44)"/><rect class="cls-9" x="257.49" y="170.35" width="16.2" height="3.21" transform="translate(28.13 -37.14) rotate(8.44)"/><rect class="cls-10" x="256.36" y="177.97" width="16.2" height="3.21" transform="translate(29.24 -36.89) rotate(8.44)"/><rect class="cls-11" x="255.23" y="185.59" width="16.2" height="3.2" transform="translate(30.34 -36.64) rotate(8.44)"/><rect class="cls-12" x="254.1" y="193.2" width="16.2" height="3.2" transform="translate(31.44 -36.39) rotate(8.44)"/><rect class="cls-13" x="252.97" y="200.82" width="16.2" height="3.21" transform="translate(32.55 -36.14) rotate(8.44)"/><rect class="cls-5" x="251.84" y="208.44" width="16.2" height="3.21" transform="translate(33.65 -35.89) rotate(8.44)"/><rect class="cls-14" x="250.71" y="216.06" width="16.2" height="3.21" transform="translate(34.77 -35.64) rotate(8.44)"/><rect class="cls-15" x="283.3" y="166.39" width="16.2" height="3.21" transform="translate(27.82 -40.96) rotate(8.44)"/><rect class="cls-16" x="282.17" y="174.01" width="16.2" height="3.21" transform="translate(28.93 -40.72) rotate(8.44)"/><rect class="cls-17" x="281.04" y="181.63" width="16.2" height="3.21" transform="translate(30.04 -40.47) rotate(8.44)"/><rect class="cls-5" x="279.91" y="189.25" width="16.2" height="3.21" transform="translate(31.14 -40.22) rotate(8.44)"/><rect class="cls-18" x="278.77" y="196.87" width="16.2" height="3.2" transform="translate(32.25 -39.97) rotate(8.44)"/><rect class="cls-19" x="277.64" y="204.49" width="16.2" height="3.21" transform="matrix(0.99, 0.15, -0.15, 0.99, 33.36, -39.72)"/><rect class="cls-20" x="276.51" y="212.1" width="16.2" height="3.21" transform="translate(34.46 -39.47) rotate(8.44)"/><rect class="cls-21" x="275.38" y="219.72" width="16.2" height="3.21" transform="matrix(0.99, 0.15, -0.15, 0.99, 35.57, -39.22)"/><rect class="cls-22" x="307.97" y="170.06" width="16.2" height="3.2" transform="translate(28.63 -44.55) rotate(8.44)"/><rect class="cls-23" x="306.84" y="177.68" width="16.2" height="3.21" transform="translate(29.74 -44.3) rotate(8.44)"/><rect class="cls-5" x="305.71" y="185.29" width="16.2" height="3.2" transform="translate(30.85 -44.06) rotate(8.44)"/><rect class="cls-24" x="304.58" y="192.91" width="16.2" height="3.21" transform="matrix(0.99, 0.15, -0.15, 0.99, 31.94, -43.8)"/><rect class="cls-25" x="303.45" y="200.53" width="16.2" height="3.2" transform="translate(33.05 -43.55) rotate(8.44)"/><rect class="cls-26" x="302.32" y="208.15" width="16.2" height="3.21" transform="translate(34.16 -43.3) rotate(8.44)"/><rect class="cls-27" x="301.19" y="215.77" width="16.2" height="3.21" transform="translate(35.27 -43.06) rotate(8.44)"/><rect class="cls-28" x="300.06" y="223.39" width="16.2" height="3.2" transform="translate(36.38 -42.81) rotate(8.44)"/><rect class="cls-29" x="332.65" y="173.72" width="16.2" height="3.2" transform="matrix(0.99, 0.15, -0.15, 0.99, 29.44, -48.13)"/><rect class="cls-30" x="331.52" y="181.34" width="16.2" height="3.21" transform="translate(30.54 -47.88) rotate(8.44)"/><rect class="cls-31" x="330.39" y="188.96" width="16.2" height="3.21" transform="translate(31.65 -47.63) rotate(8.44)"/><rect class="cls-32" x="329.26" y="196.58" width="16.2" height="3.21" transform="translate(32.75 -47.39) rotate(8.44)"/><rect class="cls-5" x="328.13" y="204.19" width="16.2" height="3.2" transform="translate(33.86 -47.14) rotate(8.44)"/><rect class="cls-33" x="327" y="211.81" width="16.2" height="3.21" transform="translate(34.97 -46.89) rotate(8.44)"/><rect class="cls-34" x="325.87" y="219.43" width="16.2" height="3.2" transform="translate(36.07 -46.64) rotate(8.44)"/><rect class="cls-5" x="324.74" y="227.05" width="16.2" height="3.2" transform="translate(37.18 -46.39) rotate(8.44)"/><rect class="cls-35" x="259.56" y="157.86" width="55.38" height="3.21" transform="translate(26.53 -40.45) rotate(8.44)"/><path class="cls-36" d="M268.13,119.21a11,11,0,0,1-2.44-.61l.54-3.7.79.28a4.87,4.87,0,0,0,.93.23,1.94,1.94,0,0,0,1.79-.47,4.41,4.41,0,0,0,.86-2.36L273,96.26l4.79.69-2.29,15.91a8.28,8.28,0,0,1-2.35,5.19A5.87,5.87,0,0,1,268.13,119.21Z"/><path class="cls-37" d="M296.78,108.67c-.43,3-1.48,5.12-3.16,6.45s-3.92,1.8-6.72,1.39a8.43,8.43,0,0,1-6-3.24c-1.25-1.77-1.66-4.13-1.24-7.1s1.48-5.07,3.18-6.4,3.93-1.81,6.73-1.4,4.82,1.47,6,3.22S297.21,105.69,296.78,108.67Zm-12.13-1.75c-.49,3.41.45,5.28,2.82,5.63a3.1,3.1,0,0,0,2.86-.86,9.16,9.16,0,0,0,1.11-7.78,3.07,3.07,0,0,0-2.47-1.64C286.59,101.93,285.14,103.48,284.65,106.92Z"/><path class="cls-38" d="M301.23,100.33l6.15.89a10.62,10.62,0,0,1,5.19,1.84,3.64,3.64,0,0,1,1.26,3.57,4.24,4.24,0,0,1-1.12,2.42,3.46,3.46,0,0,1-2.2,1.07l0,.12a4.1,4.1,0,0,1,2.17,1.79,4.45,4.45,0,0,1,.36,2.73,4.55,4.55,0,0,1-2.35,3.52,8,8,0,0,1-5.12.68l-6.86-1Zm3.29,10.94L304,115l1.67.25c1.49.21,2.32-.31,2.51-1.56a1.63,1.63,0,0,0-.41-1.44,2.76,2.76,0,0,0-1.66-.72Zm.5-3.48,1.44.2a2.57,2.57,0,0,0,1.64-.19,1.49,1.49,0,0,0,.75-1.17c.14-1-.54-1.6-2-1.81l-1.34-.19Z"/><path class="cls-5" d="M327.64,116.67a5.26,5.26,0,0,1-1.25,2.79,5.55,5.55,0,0,1-2.69,1.64,8.87,8.87,0,0,1-3.78.17,15.12,15.12,0,0,1-2.92-.67,11.32,11.32,0,0,1-2.36-1.22l.61-4.25a14.12,14.12,0,0,0,2.68,1.5,9.93,9.93,0,0,0,2.65.78,2.55,2.55,0,0,0,1.6-.14,1.12,1.12,0,0,0,.63-.87,1.08,1.08,0,0,0-.1-.67,2.58,2.58,0,0,0-.56-.64c-.27-.22-1-.72-2.19-1.47a11.46,11.46,0,0,1-2.36-1.89,4.71,4.71,0,0,1-1-1.87,5.71,5.71,0,0,1-.09-2.32,4.57,4.57,0,0,1,2.32-3.54,7.87,7.87,0,0,1,5.07-.66,13.66,13.66,0,0,1,5.4,2.07l-2,3.46a10.69,10.69,0,0,0-4.1-1.74,2.22,2.22,0,0,0-1.4.13,1,1,0,0,0-.54.74,1.17,1.17,0,0,0,.4,1,21,21,0,0,0,2.7,1.92,8.14,8.14,0,0,1,2.85,2.65A4.83,4.83,0,0,1,327.64,116.67Z"/><path class="cls-39" d="M139.26,285h0A11.64,11.64,0,0,1,135,269.1l51.73-90,20.18,11.6-51.73,90A11.64,11.64,0,0,1,139.26,285Z"/><g class="cls-40"><polygon class="cls-41" points="352.76 311.9 384.36 97.74 232.62 75.09 201.01 289.37 352.76 311.9"/><rect class="cls-42" x="234.72" y="142.76" width="130.01" height="4.8" transform="translate(24.71 -42.65) rotate(8.49)"/><rect class="cls-43" x="232.69" y="156.31" width="130.01" height="4.8" transform="translate(26.68 -42.2) rotate(8.49)"/><rect class="cls-44" x="335.32" y="182.52" width="22.94" height="4.54" transform="translate(30.9 -48.92) rotate(8.44)"/><rect class="cls-45" x="265.45" y="172.15" width="22.94" height="4.54" transform="translate(28.61 -38.77) rotate(8.44)"/><rect class="cls-46" x="300.39" y="177.34" width="22.94" height="4.54" transform="translate(29.75 -43.84) rotate(8.44)"/><rect class="cls-5" x="230.51" y="166.96" width="22.94" height="4.54" transform="translate(27.47 -33.69) rotate(8.44)"/><rect class="cls-47" x="227.14" y="189.66" width="22.94" height="4.54" transform="translate(30.77 -32.95) rotate(8.44)"/><rect class="cls-48" x="225.54" y="200.44" width="22.94" height="4.54" transform="translate(32.34 -32.61) rotate(8.44)"/><rect class="cls-49" x="223.94" y="211.23" width="22.94" height="4.54" transform="translate(33.9 -32.25) rotate(8.44)"/><rect class="cls-50" x="222.34" y="222.01" width="22.94" height="4.54" transform="translate(35.47 -31.9) rotate(8.44)"/><rect class="cls-51" x="220.74" y="232.8" width="22.94" height="4.54" transform="translate(37.03 -31.55) rotate(8.44)"/><rect class="cls-52" x="219.14" y="243.59" width="22.94" height="4.54" transform="translate(38.59 -31.19) rotate(8.44)"/><rect class="cls-53" x="217.54" y="254.37" width="22.94" height="4.54" transform="translate(40.16 -30.84) rotate(8.44)"/><rect class="cls-54" x="215.94" y="265.16" width="22.94" height="4.54" transform="translate(41.73 -30.49) rotate(8.44)"/><rect class="cls-55" x="262.08" y="194.84" width="22.94" height="4.54" transform="translate(31.91 -38.03) rotate(8.44)"/><rect class="cls-56" x="260.48" y="205.63" width="22.94" height="4.54" transform="translate(33.47 -37.68) rotate(8.44)"/><rect class="cls-57" x="258.88" y="216.41" width="22.94" height="4.54" transform="translate(35.04 -37.33) rotate(8.44)"/><rect class="cls-58" x="257.28" y="227.2" width="22.94" height="4.54" transform="translate(36.6 -36.97) rotate(8.44)"/><rect class="cls-59" x="255.68" y="237.99" width="22.94" height="4.54" transform="translate(38.17 -36.62) rotate(8.44)"/><rect class="cls-60" x="254.08" y="248.77" width="22.94" height="4.54" transform="translate(39.74 -36.27) rotate(8.44)"/><rect class="cls-61" x="252.47" y="259.56" width="22.94" height="4.54" transform="translate(41.3 -35.92) rotate(8.44)"/><rect class="cls-62" x="250.87" y="270.34" width="22.94" height="4.54" transform="translate(42.87 -35.56) rotate(8.44)"/><rect class="cls-63" x="297.02" y="200.03" width="22.94" height="4.54" transform="translate(33.05 -43.11) rotate(8.44)"/><rect class="cls-64" x="295.42" y="210.81" width="22.94" height="4.54" transform="translate(34.62 -42.75) rotate(8.44)"/><rect class="cls-65" x="293.82" y="221.6" width="22.94" height="4.54" transform="translate(36.18 -42.4) rotate(8.44)"/><rect class="cls-66" x="292.21" y="232.39" width="22.94" height="4.54" transform="translate(37.74 -42.04) rotate(8.44)"/><rect class="cls-67" x="290.61" y="243.17" width="22.94" height="4.54" transform="translate(39.31 -41.69) rotate(8.44)"/><rect class="cls-68" x="289.01" y="253.96" width="22.94" height="4.54" transform="translate(40.87 -41.34) rotate(8.44)"/><rect class="cls-69" x="287.41" y="264.74" width="22.94" height="4.54" transform="translate(42.44 -40.99) rotate(8.44)"/><rect class="cls-70" x="285.81" y="275.53" width="22.94" height="4.54" transform="matrix(0.99, 0.15, -0.15, 0.99, 44.02, -40.64)"/><rect class="cls-71" x="331.96" y="205.21" width="22.94" height="4.54" transform="translate(34.19 -48.18) rotate(8.44)"/><rect class="cls-72" x="330.35" y="216" width="22.94" height="4.54" transform="translate(35.75 -47.83) rotate(8.44)"/><rect class="cls-73" x="328.75" y="226.79" width="22.94" height="4.54" transform="translate(37.32 -47.47) rotate(8.44)"/><rect class="cls-74" x="327.15" y="237.57" width="22.94" height="4.54" transform="translate(38.88 -47.12) rotate(8.44)"/><rect class="cls-75" x="325.55" y="248.36" width="22.94" height="4.54" transform="translate(40.45 -46.77) rotate(8.44)"/><rect class="cls-76" x="323.95" y="259.14" width="22.94" height="4.54" transform="translate(42.02 -46.42) rotate(8.44)"/><rect class="cls-77" x="322.35" y="269.93" width="22.94" height="4.54" transform="translate(43.58 -46.06) rotate(8.44)"/><rect class="cls-78" x="320.75" y="280.72" width="22.94" height="4.54" transform="translate(45.15 -45.71) rotate(8.44)"/><rect class="cls-79" x="228.47" y="182.76" width="78.41" height="4.54" transform="translate(30.07 -37.3) rotate(8.44)"/><g class="cls-80"><path class="cls-5" d="M240.6,128a16.28,16.28,0,0,1-3.45-.86l.76-5.24,1.13.39a5.71,5.71,0,0,0,1.31.32,2.75,2.75,0,0,0,2.54-.66,6.24,6.24,0,0,0,1.21-3.35l3.33-23.1,6.78,1L251,119q-.72,5.07-3.32,7.36T240.6,128Z"/><path class="cls-5" d="M281.17,113.11c-.6,4.2-2.1,7.25-4.47,9.13s-5.55,2.55-9.52,2-6.76-2.1-8.53-4.59-2.36-5.85-1.76-10,2.1-7.18,4.49-9.07,5.57-2.56,9.54-2,6.82,2.1,8.56,4.57S281.78,108.9,281.17,113.11ZM264,110.63q-1,7.25,4,8a4.37,4.37,0,0,0,4.05-1.21q1.48-1.58,2-5.3a9.85,9.85,0,0,0-.46-5.71,4.33,4.33,0,0,0-3.49-2.32Q265.05,103.32,264,110.63Z"/><path class="cls-5" d="M287.47,101.31l8.71,1.26q5.08.72,7.34,2.6a5.16,5.16,0,0,1,1.79,5.06,6,6,0,0,1-1.59,3.43,4.86,4.86,0,0,1-3.11,1.5l0,.17a5.91,5.91,0,0,1,3.07,2.54,6.2,6.2,0,0,1,.51,3.87,6.44,6.44,0,0,1-3.33,5,11.3,11.3,0,0,1-7.24,1l-9.71-1.4Zm4.66,15.49-.76,5.24,2.37.34q3.17.47,3.55-2.21a2.3,2.3,0,0,0-.57-2,3.9,3.9,0,0,0-2.36-1Zm.71-4.94,2,.3a3.7,3.7,0,0,0,2.33-.28,2.08,2.08,0,0,0,1.05-1.66c.2-1.4-.75-2.25-2.87-2.56l-1.9-.27Z"/><path class="cls-81" d="M324.86,124.44a7.5,7.5,0,0,1-1.77,4,7.77,7.77,0,0,1-3.81,2.31,12.87,12.87,0,0,1-5.35.25,20.91,20.91,0,0,1-4.13-1,15.39,15.39,0,0,1-3.34-1.72l.86-6a20.74,20.74,0,0,0,3.79,2.12,14.87,14.87,0,0,0,3.75,1.1,3.73,3.73,0,0,0,2.28-.2,1.63,1.63,0,0,0,.89-1.24,1.51,1.51,0,0,0-.15-.94,3.31,3.31,0,0,0-.8-.9c-.37-.32-1.41-1-3.09-2.09a15.6,15.6,0,0,1-3.35-2.68,6.77,6.77,0,0,1-1.47-2.65,8,8,0,0,1-.12-3.28,6.45,6.45,0,0,1,3.28-5,11.16,11.16,0,0,1,7.18-.94,19.62,19.62,0,0,1,7.65,2.93l-2.82,4.91a15.16,15.16,0,0,0-5.81-2.47,3.16,3.16,0,0,0-2,.18,1.42,1.42,0,0,0-.77,1.06,1.68,1.68,0,0,0,.57,1.43,30.77,30.77,0,0,0,3.82,2.71,11.54,11.54,0,0,1,4,3.76A6.9,6.9,0,0,1,324.86,124.44Z"/></g></g><path class="cls-82" d="M194.37,85.12l-2.81-1.62a54.89,54.89,0,0,1,74.86-20.21l-1.62,2.82A51.65,51.65,0,0,0,194.37,85.12Z"/><g class="cls-83"><path class="cls-84" d="M201.42,53.7,199.64,51a72.29,72.29,0,0,1,43.84-11.7l-.19,3.24A69,69,0,0,0,201.42,53.7Z"/></g><polygon class="cls-85" points="158.38 275.09 160 272.27 139.72 260.84 138.1 263.65 158.38 275.09"/><polygon class="cls-86" points="162 268.8 163.62 265.98 143.33 254.55 141.71 257.36 162 268.8"/><path class="cls-87" d="M99.81,89.34a1.35,1.35,0,0,1-1.35,1.34H90.78a1.35,1.35,0,1,1,0-2.69h7.68A1.35,1.35,0,0,1,99.81,89.34Z"/><path class="cls-88" d="M113.74,89.34a1.34,1.34,0,0,1-1.35,1.34h-7.68a1.35,1.35,0,1,1,0-2.69h7.68A1.34,1.34,0,0,1,113.74,89.34Z"/><path class="cls-89" d="M102.94,86.21a1.35,1.35,0,0,1-2.7,0V78.53a1.35,1.35,0,0,1,2.7,0Z"/><path class="cls-90" d="M102.94,100.14a1.35,1.35,0,1,1-2.7,0V92.46a1.35,1.35,0,0,1,2.7,0Z"/><path class="cls-91" d="M129.4,76.09a1.07,1.07,0,0,1-1.07,1.07h-4.45a1.08,1.08,0,1,1,0-2.15h4.45A1.07,1.07,0,0,1,129.4,76.09Z"/><path class="cls-92" d="M137.48,76.09a1.07,1.07,0,0,1-1.07,1.07H132A1.08,1.08,0,1,1,132,75h4.45A1.07,1.07,0,0,1,137.48,76.09Z"/><path class="cls-93" d="M131.22,74.27a1.08,1.08,0,1,1-2.15,0V69.82a1.08,1.08,0,0,1,2.15,0Z"/><path class="cls-94" d="M131.22,82.35a1.08,1.08,0,0,1-2.15,0V77.9a1.08,1.08,0,1,1,2.15,0Z"/><path class="cls-95" d="M378,201.82a1.18,1.18,0,0,1-1.17,1.17h-6.64a1.17,1.17,0,0,1,0-2.34h6.64A1.18,1.18,0,0,1,378,201.82Z"/><path class="cls-96" d="M390.07,201.82A1.18,1.18,0,0,1,388.9,203h-6.63a1.17,1.17,0,1,1,0-2.34h6.63A1.18,1.18,0,0,1,390.07,201.82Z"/><path class="cls-97" d="M380.73,199.12a1.17,1.17,0,0,1-2.33,0v-6.64a1.17,1.17,0,0,1,2.33,0Z"/><path class="cls-98" d="M380.73,211.16a1.17,1.17,0,0,1-2.33,0v-6.64a1.17,1.17,0,0,1,2.33,0Z"/><path class="cls-99" d="M403.59,190.37a.93.93,0,0,1-.92.93h-3.85a.93.93,0,0,1,0-1.86h3.85A.93.93,0,0,1,403.59,190.37Z"/><path class="cls-100" d="M410.57,190.37a.93.93,0,0,1-.92.93H405.8a.93.93,0,0,1,0-1.86h3.85A.93.93,0,0,1,410.57,190.37Z"/><path class="cls-101" d="M405.16,188.81a.93.93,0,0,1-1.85,0V185a.93.93,0,1,1,1.85,0Z"/><path class="cls-102" d="M405.16,195.78a.93.93,0,1,1-1.85,0v-3.84a.93.93,0,1,1,1.85,0Z"/><path class="cls-103" d="M96.35,209.71a1,1,0,0,1-1-1V182.62a1,1,0,0,1,1-1h4.11a1,1,0,0,1,1-.91h3.6a.92.92,0,0,1,.49.13,13.28,13.28,0,0,1,16.4,0,.91.91,0,0,1,.49-.14H126a1,1,0,0,1,1,.91h4.1a1,1,0,0,1,1,1v26.09a1,1,0,0,1-1,1Zm33.79-3.83v-9.22H116.57v.8a1,1,0,0,1-1,1h-3.65a1,1,0,0,1-1-1v-.8H97.35v9.22Zm-15.38-11.24,2.43-11H110.3l2.43,11Zm-4.61-1.82h.13l-2-9.21H97.35v9.2Zm7.06,0h12.93v-9.2h-10.9Z"/><path class="cls-104" d="M358.08,61.75a1.4,1.4,0,0,1-1.2-.68L350.83,51H331.66a1.4,1.4,0,0,1-1.4-1.4V41.75h-2.7l-6.89,11.51a1.4,1.4,0,0,1-1.2.68h-.12l-.23,0a1.4,1.4,0,0,1-1-1.34V41.75h-6.42a1.39,1.39,0,0,1-1.39-1.39V14.84a1.39,1.39,0,0,1,1.39-1.39h37.7a1.4,1.4,0,0,1,1.4,1.39v10.8H365A1.39,1.39,0,0,1,366.37,27V49.58A1.4,1.4,0,0,1,365,51h-5.51v9.37a1.4,1.4,0,0,1-1,1.35l-.13,0Zm-6.46-13.56a1.4,1.4,0,0,1,1.2.68l3.86,6.45V49.58a1.4,1.4,0,0,1,1.4-1.39h5.51V28.42H350.76V31.7h9.34a1.39,1.39,0,0,1,0,2.78h-9.34v3.07h9.34a1.4,1.4,0,0,1,0,2.79h-9.34v0a1.4,1.4,0,0,1-1.4,1.39H333.05v6.44ZM319.47,39a1.39,1.39,0,0,1,1.39,1.39v7.15l4.72-7.87a1.41,1.41,0,0,1,1.2-.67H348V16.24H313.06V39Z"/><path class="cls-105" d="M317.17,23.14a1.4,1.4,0,0,1,0-2.79h26.44a1.4,1.4,0,1,1,0,2.79Z"/><path class="cls-106" d="M317.17,29a1.4,1.4,0,0,1,0-2.79h26.44a1.4,1.4,0,1,1,0,2.79Z"/><path class="cls-107" d="M317.17,34.85a1.4,1.4,0,0,1,0-2.79h26.44a1.4,1.4,0,1,1,0,2.79Z"/><path class="cls-108" d="M336.35,46.2a1.4,1.4,0,0,1,0-2.79H360.1a1.4,1.4,0,0,1,0,2.79Z"/><path class="cls-109" d="M278.35,42.54a78.77,78.77,0,0,0-89.5,129,6.11,6.11,0,0,0-4.55,11.22l21.19,12.18a6.11,6.11,0,0,0,7.08-9.89A78.78,78.78,0,0,0,278.35,42.54Zm14.84,99.38a62.4,62.4,0,1,1-23-85.19A62.4,62.4,0,0,1,293.19,141.92Z"/><path class="cls-110" d="M376.73,159.65a.91.91,0,0,1-.48-.13,1.09,1.09,0,0,1-.29-.26l-.17-.14V159l0-.26V135a1,1,0,0,1,.13-.48l0-.07.08-.08.06-.09,5.16-3.88v-4.05a1,1,0,0,1,1-1h5.69l7.1-5.35a1,1,0,0,1,.58-.19,1,1,0,0,1,.58.19l7.1,5.35H409a1,1,0,0,1,1,1v4.06l5.15,3.88.18.25a.93.93,0,0,1,.12.46v23.79l-.07.24-.06.15-.05,0a1,1,0,0,1-.2.21,1.1,1.1,0,0,1-.58.19Zm35.44-1.93-10.86-11.61L396.14,150a1,1,0,0,1-.58.19A1,1,0,0,1,395,150l-5.25-4-10.79,11.68Zm1.26-1.48V137l-10.57,8Zm-35.74,0,10.49-11.35L377.69,137Zm17.87-8.2L408,138.66V127.34H383.16v11.33Zm-14.33-10.81v-4.36l-2.9,2.18Zm28.68,0,2.88-2.17-2.88-2.17ZM400,125.41,395.56,122l-4.47,3.37Z"/><path class="cls-111" d="M386.18,132.85a1,1,0,1,1,0-1.93H405a1,1,0,0,1,0,1.93Z"/><path class="cls-112" d="M386.18,136a1,1,0,1,1,0-1.93H405a1,1,0,0,1,0,1.93Z"/><path class="cls-113" d="M386.18,139.14a1,1,0,1,1,0-1.93H405a1,1,0,0,1,0,1.93Z"/></svg>