<svg xmlns="http://www.w3.org/2000/svg" viewBox="0 0 1846 1000"><path d="M1836 579h-280v358h290V569l-10 10zM0 105L106 0H85L0 84v21zm0 50L156 0h-21L0 134v21zM9 0H0v9l9-9zM0 55L56 0H34L0 34v21zm0 150L206 0h-21L0 184v21zm0 50L257 0h-22L0 234v21zm0 50L290 17V0h-4L0 284v21zM474 0l-85 84v21L495 0h-21zm50 0L389 134v21L545 0h-21zM424 0l-35 34v21l56-55h-21zm109 212L679 67V46L511 212h22zM574 0L389 184v21L596 0h-22zm88 212h17v-16l-17 16zM675 0L461 212h22L679 17V0h-4zM411 212h21L646 0h-21L411 212zm151 0h21l96-95V96L562 212zM389 9l10-9h-10v9zm223 203h21l46-45v-21l-67 66zm241 497h22l193-192v-22L853 709zm101 0h21l93-92v-22L954 709zm100 0h14v-14l-14 14zm-150 0h21l143-142v-22L904 709zm100 0h21l43-43v-21l-64 64zM863 0l-85 84v21L884 0h-21zm-50 0l-35 34v21l56-55h-21zm-35 9l10-9h-10v9zm185-9L778 184v21L985 0h-22zm-50 0L778 134v21L934 0h-21zM778 684v21l290-288v-22L778 684zm0-250v21l290-288v-21L778 434zm0-100v21l290-288V46L778 334zm0 50v21l290-288V96L778 384zm0-150v21L1035 0h-21L778 234zm25 475h21l244-242v-22L803 709zM1064 0L778 284v21l290-288V0h-4zM778 584v21l290-288v-21L778 584zm0-100v21l290-288v-21L778 484zm0 150v21l290-288v-21L778 634zm0-100v21l290-288v-21L778 534zM1273 0h-21l-85 84v21L1273 0zm50 0h-21l-135 134v21L1323 0zm51 0h-22l-185 184v21L1374 0zm-151 0h-21l-35 34v21l56-55zm64 336l170-169v-21l-191 190h21zM1177 0h-10v9l10-9zm280 17V0h-4l-286 284v21l290-288zm0 250v-21l-90 90h21l69-69zm0 50v-21l-40 40h21l19-19zm0-100v-21l-141 140h22l119-119zm0-100V96l-241 240h21l220-219zm-270 219l270-269V46l-290 288v2h20zM1424 0h-21l-236 234v21L1424 0zM0 465h290v472H0V465zm389-253h290v725H389V212zm389 497h290v228H778V709zm389-373h290v601h-290V336zM1612 0h-21l-35 34v21l56-55zm-46 0h-10v9l10-9zm16 579l264-262v-21l-285 283h21zm80-579h-21l-85 84v21L1662 0zm-30 579l214-212v-21l-235 233h21zm101 0l113-112v-22l-134 134h21zM1712 0h-21l-135 134v21L1712 0zm71 579l63-62v-22l-84 84h21zm-100 0l163-162v-22l-185 184h22zm163-312v-21l-290 288v21l290-288zm0-150V96l-290 288v21l290-288zm0 50v-21l-290 288v21l290-288zm0 50v-21l-290 288v21l290-288zm0 350v-22l-34 34h21l13-12zM1763 0h-22l-185 184v21L1763 0zm83 67V46l-290 288v21l290-288zm-33-67h-21l-236 234v21L1813 0zm33 17V0h-4l-286 284v21l290-288zM119 465h21l150-148v-21L119 465zm50 0h22l99-98v-21L169 465zm101 0h20v-20l-20 20zm-50 0h21l49-48v-22l-70 70zm-201 0h21l250-248v-21L19 465zM0 334v21L290 67V46L0 334zm69 131h21l200-198v-21L69 465zM0 384v21l290-288V96L0 384zm0 50v21l290-288v-21L0 434z"/></svg>