<svg xmlns="http://www.w3.org/2000/svg" viewBox="0 0 1000 1000"><path d="M308 167V39c0-32-7-39-39-39h-51c-30 0-38 7-38 38v129c0 31 6 38 38 38h51c32 0 39-6 39-38zm513 0V39c0-32-7-39-39-39h-51c-31 0-39 7-39 38v129c0 31 7 38 39 38h51c32 0 39-6 39-38zM359 526v-51c0-32-7-39-38-39h-52c-30 0-38 7-38 38v52c0 31 6 38 38 38h52c32 0 38-6 38-38zm205 0v-51c0-32-7-39-38-39h-52c-30 0-38 7-38 38v52c0 31 6 38 38 38h52c32 0 38-6 38-38zm205 0v-51c0-32-7-39-38-39h-51c-31 0-39 7-39 38v52c0 31 6 38 39 38h51c32 0 38-6 38-38zM359 731v-51c0-32-7-39-38-39h-52c-30 0-38 7-38 38v52c0 31 6 38 38 38h52c32 0 38-6 38-38zm205 0v-51c0-32-7-39-38-39h-52c-30 0-38 7-38 38v52c0 31 6 38 38 38h52c32 0 38-6 38-38zm205 0v-51c0-32-7-39-38-39h-51c-31 0-39 7-39 38v52c0 31 6 38 39 38h51c32 0 38-6 38-38zM77 974h846c62 0 76-12 77-77V154c0-60-10-77-77-77h-51v141c0 32-32 38-64 38H680c-33 0-39-7-39-38V77H359v141c0 32-6 38-38 38H167c-32 0-39-7-39-38V77H77C11 77 0 91 0 154v743c0 63 15 77 77 77zm51-641h744v513H128V333z"/></svg>