<svg xmlns="http://www.w3.org/2000/svg" viewBox="0 0 1000 1000"><path d="M800 133V0h-67v133H533V0h-66v133H267V0h-67v133H0v867h1000V133H800zM200 333h67v67h-67v-67zm133 0h67v67h-67v-67zm134 0h66v67h-66v-67zm133 0h67v67h-67v-67zm133 0h67v67h-67v-67zM200 467h67v66h-67v-66zm133 0h67v66h-67v-66zm134 0h66v66h-66v-66zm133 0h67v66h-67v-66zm133 0h67v66h-67v-66zM200 600h67v67h-67v-67zm133 0h67v67h-67v-67zm134 0h66v67h-66v-67zm133 0h67v67h-67v-67zm133 0h67v67h-67v-67zM200 733h67v67h-67v-67zm133 0h67v67h-67v-67zm134 0h66v67h-66v-67zm466 200H67V200h866v733z"/></svg>