<svg xmlns="http://www.w3.org/2000/svg" viewBox="0 0 1000 1000"><path d="M516 276c-54 0-96 19-125 56-30 38-44 90-44 157 0 73 14 127 41 162 28 35 70 53 127 53 37 0 83-10 137-29v80c-21 9-42 16-64 22s-48 9-79 9c-84 0-148-26-193-78-46-52-68-125-68-219 0-90 24-162 72-216 48-53 113-80 196-80 55 0 109 13 160 39l-38 77c-47-22-87-33-122-33zM0 489c0-87 22-168 65-244S168 109 244 66C320 22 402 0 489 0s168 22 244 65 136 103 180 179 65 158 65 245c0 86-21 166-63 241S814 865 738 910c-75 45-159 68-249 68s-172-23-248-68c-76-44-135-104-178-179C21 655 0 575 0 489zm68 0c0 75 19 145 57 211 38 65 89 116 154 154 66 37 136 56 210 56 76 0 146-19 210-56 65-38 116-89 154-154 38-64 57-135 57-211 0-75-19-145-56-210-38-65-89-116-154-154-64-38-134-57-211-57-75 0-145 19-210 57-64 38-116 89-154 153S68 413 68 489z"/></svg>