<svg xmlns="http://www.w3.org/2000/svg" viewBox="0 0 875 1000"><path d="M775 121H564C557 52 497 0 424 0S291 52 284 121H73c-41 0-73 32-73 74v23c0 36 24 65 58 72v636c0 42 34 74 77 74h581c43 0 76-32 76-74V292c34-7 58-38 58-72v-25c-2-42-34-74-75-74zM424 31c54 0 101 39 108 90H316c7-51 54-90 108-90zm336 897c0 23-20 43-44 43H135c-25 0-45-20-45-43V294h670v634zm-508-98c12 0 19-6 19-12V412c0-8-9-12-19-12-11 0-18 6-18 12v406c0 6 7 12 18 12zm177 0c11 0 18-6 18-12V412c0-8-9-12-18-12-12 0-19 6-19 12v406c0 6 7 12 19 12zm176 0c11 0 18-6 18-12V412c0-8-9-12-18-12-12 0-19 6-19 12v406c0 6 7 12 19 12z"/></svg>