<svg xmlns="http://www.w3.org/2000/svg" viewBox="0 0 1000 1000"><path d="M765 152h209c15 0 26 11 26 26 0 14-11 25-26 25h-79l-98 775c-3 12-14 22-26 22H229c-13 0-23-10-26-22l-99-775H26c-15 0-26-11-26-25 0-15 11-26 26-26h214l96-141c4-7 12-11 21-11h287c8 0 16 4 22 11l99 141zm-63-1H302l68-100h261l71 100zm-53 678c-19 0-35-14-35-32V372c0-18 16-32 35-32 20 0 35 14 35 32v426c0 17-16 31-35 31zm-146 0c-20 0-35-14-35-32V372c0-18 15-32 35-32s35 14 35 32v426c0 17-15 31-35 31zm-158 0c-20 0-35-14-35-32V372c0-18 15-32 35-32s35 14 35 32v426c0 17-15 31-35 31z"/></svg>