<svg xmlns="http://www.w3.org/2000/svg" viewBox="0 0 1000 1000"><path d="M967 133H846c-2 0-3 1-5 1s-3-1-5-1H665V33c0-18-12-33-30-33H365c-18 0-35 15-35 33v100H164c-2 0-3 1-4 1-2 0-3-1-5-1H34c-19 0-34 15-34 34 0 18 15 33 34 33h100v775c1 18 16 25 33 25h670c18 0 33-7 33-25l-1-775h98c18 0 33-15 33-33 0-19-15-34-33-34zM397 67h201v66H397V67zm407 866H201V200h603v733zM332 804h2c19-1 33-17 32-35l2-418c-1-18-17-32-35-31-19 1-33 16-32 35l-2 418c1 17 16 31 33 31zm333 0h2c17 0 32-14 33-31l-2-418c1-19-13-34-32-35-18-1-34 13-35 31l2 418c-1 18 14 34 32 35zm-167 0c18 0 33-15 33-33V353c0-18-15-33-33-33-19 0-34 15-34 33v418c0 18 15 33 34 33z"/></svg>