<svg xmlns="http://www.w3.org/2000/svg" viewBox="0 0 1200 1000"><path d="M662 600c28 81 90 120 172 120h129c138 0 237-100 237-240s-99-240-237-240H834c-96 0-141 36-172 120h287c89 0 133 60 133 120s-44 120-133 120H662zm-124 0H251c-89 0-133-60-133-120s44-120 133-120h287c-31-84-76-120-172-120H237C99 240 0 340 0 480s99 240 237 240h129c82 0 144-39 172-120zm187 182c-6 6-29 23-12 40l79 80c15 15 31-4 39-12 13-14 25-25 11-40l-79-79c-16-17-31 4-38 11zm-246 0c-13-13-23-26-38-11l-79 79c-16 16 4 32 11 40 14 13 24 26 39 11l78-79c17-16-3-32-11-40zm121 26c-20 0-35 0-35 20v112c0 20 15 20 35 20s36 0 36-20V828c0-20-16-20-36-20zm125-630c8 8 22 28 38 11l79-79c15-16-3-31-11-40-13-12-25-26-40-11l-78 79c-17 17 7 35 12 40zm-246 0c14-14 26-24 11-40l-77-79c-16-17-32 3-40 11-13 14-26 24-11 40l78 79c16 17 31-3 39-11zm121-26c20 0 36 0 36-20V20c0-20-16-20-36-20s-35 0-35 20v112c0 20 15 20 35 20z"/></svg>