<svg xmlns="http://www.w3.org/2000/svg" viewBox="0 0 917 1000"><path d="M226 233c65 1 118-52 119-116C345 53 292 0 227 0S109 52 109 116c0 65 52 117 117 117zm-84 48l2-2-81-80-32 32 89 88c5-14 12-27 22-38zm226 200c14 14 34 21 54 19l205-29c17-2 32-12 42-25l-28 73c-4 12 2 26 14 30 12 5 25-2 30-14l78-207c4-12-2-25-14-30-12-4-25 2-30 14l-39 103c1-5 1-10 0-14-5-34-37-58-71-53l-168 23-125-80c-61-74-201-27-183 88l62 307c1 3 1 5 2 8l179-177-8-36zm493 413L589 624c-12-12-28-18-44-18h1-152l-8-36-167 166c18 22 46 37 82 37h261l210 209c25 24 64 24 89 0s25-64 0-88zM154 736c-4-9-7-19-9-28l-44-236C87 397-13 415 1 490l43 234c17 85 79 159 169 186 23 6 47 10 70 10h151c77 1 78-100 1-99l-144-1c-16-1-32-1-48-6-25-8-47-21-63-39l39-39c-11-12-18-27-22-42l-43 42zm392-493l-9 34-43-10 9-37c-7 1-15 3-22 8l-119 69 81 53 68-10 28-16c27-16 35-50 19-77-3-6-8-10-12-14zm2-149l20 5-39 165-21-5 40-165z"/></svg>