<svg xmlns="http://www.w3.org/2000/svg" viewBox="0 0 1000 1000"><path d="M110 180h433c12 0 23-10 23-23 0-12-11-22-23-22H110C63 135 0 145 0 231v672c0 87 63 97 110 97h658c47 0 109-10 109-97V419c0-12-10-23-23-23s-23 11-23 23v484c0 36-9 52-63 52H110c-55 0-64-16-64-52V231c0-35 9-51 64-51zM829 24c-3 2-6 6-10 9L317 551 212 782l253-84 508-524c18-21 29-49 27-77s-15-53-36-71C943 7 916-2 888 0c-23 2-42 10-59 24zm61 3c20-1 40 5 56 19 16 13 25 32 26 53 2 18-4 36-15 51L848 42c12-8 26-14 42-15zM265 735l74-162 104 103-178 59z"/></svg>