<svg xmlns="http://www.w3.org/2000/svg" viewBox="0 0 1000 1000"><path d="M500 908C275 908 92 725 92 500S275 92 500 92s408 183 408 408-183 408-408 408m0-908C224 0 0 224 0 500s224 500 500 500 500-224 500-500S776 0 500 0zm-33 605v-20c0-24 5-44 13-60 9-16 24-32 46-49 26-21 42-36 50-48 7-11 11-24 11-40 0-18-6-32-18-42s-30-15-53-15c-20 0-39 3-57 9s-35 13-51 21l-28-57c44-25 92-37 142-37 42 0 76 11 101 31 25 21 38 50 38 87 0 16-3 30-8 43-4 13-12 25-21 36-10 12-27 27-50 45-20 16-34 29-41 40-7 10-10 24-10 42v14h-64zm-13 104c0-33 16-49 48-49 15 0 27 4 35 13 9 9 13 21 13 36 0 16-4 28-13 37-8 9-20 13-35 13-16 0-28-4-36-13s-12-21-12-37z"/></svg>