<svg xmlns="http://www.w3.org/2000/svg" viewBox="0 0 1263 1000"><path d="M1161 0c-16 0-32 5-47 14-39 22-56 67-48 109l-175 95c-29-43-87-57-132-30-21 12-36 31-44 53l-165-41c-3-7-6-14-10-21-27-48-88-65-136-37-31 18-48 51-49 86l-174 91c-30-42-87-55-131-28-48 28-64 90-36 138 27 49 88 65 136 37 36-22 54-64 48-104l167-88c1 2 2 5 3 7 28 48 89 65 136 36 27-15 43-41 48-69l158 39c2 13 6 27 13 39 27 49 88 65 136 37 36-21 54-62 49-102l177-97c30 39 85 51 129 25 47-28 63-90 36-139-19-33-54-51-89-50zM451 523c-16 0-32 5-47 13-28 17-45 46-49 77l-163 32c-2-5-4-9-6-14-28-48-89-64-136-36-48 28-64 90-36 138 27 49 88 65 136 37 31-18 48-51 49-85l160-31c2 7 5 14 9 21 28 49 89 65 136 37 9-5 16-11 22-17l190 138c-10 28-9 60 7 88 27 49 88 65 136 37 42-25 60-76 44-121l184-113c31 37 84 47 127 22 47-28 63-90 36-138-28-49-89-65-136-37-41 24-59 73-46 117L882 802c-31-35-82-44-123-20-8 5-14 10-20 16L547 660c11-28 9-59-7-87-19-33-53-51-89-50z"/></svg>