<svg xmlns="http://www.w3.org/2000/svg" viewBox="0 0 1000 1000"><path d="M940 353L764 529c-16 16-43 16-59 0s-16-42 0-58l176-176c48-49 48-127 0-176-49-48-127-48-176 0L471 353c-15 15-83 94 0 176 16 16 16 43 0 59s-43 16-59 0c-116-116-50-242 0-293L647 61c80-81 212-81 293 0 80 80 80 212 0 292zm-352 59c-16-16-42-16-59 0-16 16-16 42 0 59 83 82 15 161 0 175L295 881c-48 48-127 48-176 0-48-49-48-127 0-176l176-176c16-16 16-42 0-58-16-17-42-17-59 0L61 646c-81 81-81 213 0 293 80 81 212 81 293 0l234-234c51-51 116-177 0-293z"/></svg>