<svg xmlns="http://www.w3.org/2000/svg" viewBox="0 0 792 1000"><path d="M391 0C287 0 188 42 115 116 41 190 0 290 0 395c0 167 103 315 258 372l133 233 133-233c155-57 258-205 258-372 0-105-41-205-114-279C594 42 495 0 391 0zm0 102c160 0 290 131 290 293S551 689 391 689c-77 0-151-31-205-86s-85-130-85-208c0-162 130-293 290-293zm-73 295v59h59v-59h-59zm79-159l-20 20-139 139 20 20 20-20v119h238V397l20 20 20-20-139-139-20-20zM297 378l7-7 94-89 97 93 3 3v120h-22V397h-79v100l-100-1V378zm160 39v79h-40v-79h40z"/></svg>