<svg xmlns="http://www.w3.org/2000/svg" viewBox="0 0 792 1000"><path d="M391 0C287 0 188 42 115 116 41 190 0 290 0 395c0 167 103 315 258 372l133 233 133-233c155-57 258-205 258-372 0-105-41-205-114-279C594 42 495 0 391 0zm0 102c160 0 290 131 290 293S551 689 391 689c-77 0-151-31-205-86s-85-130-85-208c0-162 130-293 290-293zm132 312c0 45-11 81-34 107s-55 39-96 39c-42 0-74-13-97-39-22-25-34-61-34-108 0-46 12-82 35-107 22-25 55-38 96-38s73 13 96 39c23 25 34 61 34 107zm-226 0c0 38 8 67 25 87 16 20 40 30 71 30s55-10 71-30 24-49 24-87c0-39-8-67-24-87s-39-30-71-30c-31 0-55 10-71 30-17 20-25 49-25 87z"/></svg>