<svg xmlns="http://www.w3.org/2000/svg" viewBox="0 0 792 1000"><path d="M384 253c-79 0-149 36-197 92l44 40c37-44 91-72 153-72s116 28 153 71l44-40c-48-55-118-91-197-91zm0-126c-116 0-220 51-291 131l44 41c60-69 149-113 247-113s186 43 246 111l43-41c-71-79-174-129-289-129zm0-127C231 0 94 67 0 172l44 41c83-94 205-153 340-153 134 0 255 58 338 150l44-40C671 66 535 0 384 0zm182 542c0-60-49-109-109-109H325c-60 0-109 49-109 109v349c0 60 49 109 109 109h132c60 0 109-49 109-109V542zM397 923c-21 0-37-17-37-37s16-37 37-37c20 0 36 17 36 37s-16 37-36 37zm104-163H282V557c0-33 22-59 55-59h118c33 0 46 26 46 59v203z"/></svg>