<svg xmlns="http://www.w3.org/2000/svg" viewBox="0 0 1000 1000"><path d="M948 199h-24V50c0-27-21-50-47-50H119C93 0 71 22 71 50v149H48c-27 0-48 23-48 50v125c0 14 11 25 24 25s24-11 24-25V249h24v600c0 27 21 50 48 50h47v50c0 28 23 51 51 51h119c28 0 51-22 51-51v-50h231v50c0 28 22 51 50 51h119c28 0 51-22 51-51v-50h42c25 0 47-22 47-50V249h24v125c0 14 11 25 24 25s24-11 24-25V249c-4-27-25-50-52-50zm-687-74h474c13 0 24-12 24-26 0-13-11-25-24-25H261c-13 0-24 12-24 25 0 14 11 26 24 26zm93 598H192c-15 0-28 14-28 29v16c0 16 13 29 28 29h162c15 0 28-13 28-29v-16c0-15-13-29-28-29zm296 75h147c20 0 36-16 36-37s-16-38-36-38H650c-19 0-35 17-35 38s16 37 35 37zM119 195c7 3 15 4 23 4h95v177c0 2 0 3 1 5 0 2 1 4 2 5 0 1 0 1 1 2l48 74c5 7 12 12 20 12 5 0 9-1 13-5 11-7 14-23 7-34l-44-68V199h123c36 0 67 21 67 46v328c0 27-21 50-48 50H119V195zm759 654H119V674h355v49c0 14 11 25 24 25s24-11 24-25v-50h356v176zm0-226h-55c-9-59-58-105-117-105s-108 46-117 105h-20c-26 0-48-22-48-50V246c0-25 31-46 67-46h266c8 0 16-2 24-4v427zm0-498c0 13-11 25-24 25H142c-12 0-23-12-23-25V50h759v75zm-95 236h-26v-33h-91v39c-16 13-26 33-26 56 0 41 32 75 71 75 18 0 35-8 48-20v-31h19c3-7 4-15 4-25 0-13-4-26-10-37h10c7 0 12-6 12-13 1-4-5-11-11-11z"/></svg>