<svg xmlns="http://www.w3.org/2000/svg" viewBox="0 0 148 50" style="enable-background:new 0 0 148 50" xml:space="preserve"><path class="st0" d="M140.5 49.4H7.5c-3.8 0-7-3.1-7-7V7.6c0-3.8 3.1-7 7-7h133.1c3.8 0 7 3.1 7 7v34.9c-.1 3.8-3.2 6.9-7.1 6.9zM7.5 1.6c-3.3 0-6 2.7-6 6v34.9c0 3.3 2.7 6 6 6h133.1c3.3 0 6-2.7 6-6V7.6c0-3.3-2.7-6-6-6H7.5z"/><path class="st0" d="M12.2 11.7v29.9c0 .1 0 .2.1.3l15.5-15.4-15.4-15.3c-.1.1-.2.3-.2.5zM29.3 25.1l2.9-2.9-6.3-3.6-.2-.1-12.1-7-.2-.1 14.9 14.7zM13.4 41.6l.9-.5.2-.1 11.1-6.4.1-.1.1-.1 6.4-3.6-2-1.9-1.9-2zM29.7 27.5l3 2.9 4.9-2.8 1.2-.7c.3-.1.4-.3.4-.5 0-.1-.1-.3-.3-.4-.6-.3-5.2-3-6.2-3.6l-2 1.9-2.1 2 1.1 1.2zM114.6 32.8c-.6 0-1.2-.1-1.7-.3-.5-.2-.9-.6-1.3-1h-.1c.1.5.1 1.1.1 1.6V37h-1.4V23.2h1.2l.2 1.3h.1c.4-.5.8-.9 1.3-1.1.5-.2 1-.3 1.7-.3 1.2 0 2.2.4 2.9 1.3.7.9 1 2 1 3.6 0 1.5-.3 2.7-1 3.6-.8.8-1.8 1.2-3 1.2zm-.2-8.5c-1 0-1.7.3-2.1.8-.4.5-.6 1.4-.7 2.5v.3c0 1.3.2 2.3.7 2.8.4.6 1.1.9 2.1.9.8 0 1.4-.3 1.9-1s.7-1.6.7-2.7c0-1.2-.2-2.1-.7-2.7-.4-.6-1-.9-1.9-.9zM121.8 32.6h-1.4V19.3h1.4v13.3zM130 32.6l-.3-1.3h-.1c-.5.6-.9 1-1.4 1.2-.5.2-1 .3-1.7.3-.9 0-1.7-.2-2.2-.7-.5-.5-.8-1.2-.8-2.1 0-1.9 1.5-2.9 4.6-3l1.6-.1v-.6c0-.7-.2-1.3-.5-1.6-.3-.4-.8-.5-1.5-.5-.8 0-1.7.2-2.7.7l-.4-1.1c.5-.3 1-.4 1.5-.6.6-.1 1.1-.2 1.7-.2 1.1 0 2 .2 2.5.7.5.5.8 1.3.8 2.4v6.4H130zm-3.2-1c.9 0 1.6-.2 2.1-.7.5-.5.8-1.2.8-2V28l-1.4.1c-1.1 0-1.9.2-2.4.5s-.8.8-.8 1.5c0 .5.2.9.5 1.2.2.2.6.3 1.2.3zM131.9 23.2h1.5l2.1 5.4c.5 1.2.7 2.1.8 2.7h.1c.1-.3.2-.8.5-1.5.2-.7 1-2.9 2.3-6.5h1.5l-4 10.7c-.4 1.1-.9 1.8-1.4 2.3-.5.4-1.2.7-2 .7-.4 0-.9 0-1.3-.1v-1.1c.3.1.7.1 1.1.1 1 0 1.7-.5 2.1-1.6l.5-1.3-3.8-9.8zM88.2 24.1c.5.4 1.4 1.2 1.4 2.7 0 1.5-.8 2.1-1.7 2.8-.3.3-.6.5-.6 1 0 .4.3.7.5.8l.7.5c.9.7 1.7 1.4 1.7 2.8 0 1.8-1.8 3.7-5.2 3.7-2.9 0-4.2-1.4-4.2-2.8 0-.7.4-1.7 1.5-2.4 1.2-.7 2.9-.8 3.8-.9-.3-.4-.6-.7-.6-1.3 0-.3.1-.5.2-.8h-.6c-2.1 0-3.3-1.6-3.3-3.1 0-.9.4-1.9 1.3-2.6 1.1-.9 2.5-1.1 3.5-1.1h4.1l-1.3.7h-1.2zm-1.4 8.7h-.5c-.2 0-1.2 0-2.1.3-.4.2-1.7.6-1.7 2s1.4 2.4 3.5 2.4c1.9 0 2.9-.9 2.9-2.1.1-1-.6-1.5-2.1-2.6zm.6-3.7c.5-.5.5-1.1.5-1.4 0-1.4-.8-3.6-2.5-3.6-.5 0-1.1.3-1.4.6-.3.4-.4.9-.4 1.5 0 1.3.8 3.5 2.5 3.5.5 0 1-.3 1.3-.6zM75.8 32.5c-3.1 0-4.8-2.4-4.8-4.6 0-2.6 2.1-4.8 5.1-4.8 2.9 0 4.7 2.3 4.7 4.6 0 2.4-1.7 4.8-5 4.8zm2.5-1.6c.5-.6.6-1.4.6-2.2 0-1.7-.8-5-3.3-5-.6 0-1.3.3-1.8.7-.8.7-.9 1.6-.9 2.4 0 1.9 1 5.1 3.3 5.1.9 0 1.7-.3 2.1-1zM65.2 32.5c-3.1 0-4.8-2.4-4.8-4.6 0-2.6 2.1-4.8 5.1-4.8 2.9 0 4.7 2.3 4.7 4.6 0 2.4-1.8 4.8-5 4.8zm2.5-1.6c.5-.6.6-1.4.6-2.2 0-1.7-.8-5-3.3-5-.6 0-1.3.3-1.8.7-.8.7-.9 1.6-.9 2.4 0 1.9 1 5.1 3.3 5.1.8 0 1.6-.3 2.1-1zM58.9 32.2l-2.8.7c-1.1.2-2.2.3-3.3.3-5.5 0-7.5-4-7.5-7.1 0-3.8 2.9-7.4 8-7.4 1.1 0 2.1.2 3 .4 1.5.4 2.2.9 2.6 1.2l-1.6 1.6-.7.1.5-.8c-.7-.7-1.9-1.9-4.2-1.9-3.1 0-5.5 2.4-5.5 5.8 0 3.7 2.7 7.2 7 7.2 1.3 0 1.9-.3 2.5-.5v-3.2l-3 .2 1.6-.8h4.2l-.5.5c-.1.1-.2.2-.2.3v3.4z"/><path class="st0" d="M94.5 31.6c-.7-.1-.8-.2-.8-.9V19.4c.1-.7.3-.8.9-1.2h-2.8l-1.5.7h1.5v12.2c0 .4-.1.5-.5 1h3.5l.7-.4c-.4 0-.7 0-1-.1zM102.5 31.8c-.2.1-.4.3-.6.4-.6.3-1.3.4-1.9.4-.6 0-1.6 0-2.6-.8-1.4-1-2-2.7-2-4.1 0-3 2.5-4.5 4.5-4.5.7 0 1.4.2 2 .5 1 .6 1.2 1.5 1.4 1.9l-4.6 1.9-1.5.1c.5 2.5 2.2 3.9 4 3.9 1 0 1.7-.4 2.4-.7l-1.1 1zm-1.8-5.8c.4-.1.6-.3.6-.5 0-.8-.9-1.7-1.9-1.7-.8 0-2.3.6-2.3 2.7 0 .3 0 .7.1 1l3.5-1.5zM104.4 23.3v1.3h-.2v-1.3h-.4v-.1h1v.1h-.4zM106.2 24.6v-1.3l-.4 1.3h-.1l-.4-1.3v1.3h-.1v-1.4h.2l.4 1.2.4-1.2h.2v1.4h-.2zM49.2 14.8h-1c0-.1-.1-.5-.3-1.1h-1.4c-.2.6-.3 1-.3 1.1h-.9c0-.1.2-.7.7-2 .5-1.2.7-1.9.7-2h1.2c0 .1.2.8.6 2 .5 1.3.7 1.9.7 2zm-1.4-1.7c-.3-1.1-.5-1.6-.5-1.7 0 .1-.2.7-.5 1.7h1zM53.2 14.8h-.8c0-.1-.3-.5-.8-1.3-.6-.8-.9-1.4-1-1.7.1.4.1.9.1 1.2v1.8h-.8v-4h.9c0 .1.3.5.8 1.3s.8 1.3.9 1.6c0-.5-.1-.9-.1-1.2v-1.7h.8v1.9c-.1.8 0 1.5 0 2.1zM57.6 12.7c0 .6-.2 1.1-.6 1.5-.4.4-.9.7-1.6.7h-1.3v-4h1.2c.7 0 1.3.2 1.6.6.6.2.7.7.7 1.2zm-.8.1c0-.4-.1-.7-.3-1-.2-.3-.6-.4-1-.4h-.4v2.8h.4c.4 0 .8-.1 1-.4.2-.3.3-.6.3-1zM61.7 14.8h-.9c-.2-.7-.4-1.2-.5-1.3-.1-.2-.3-.3-.6-.3h-.3v1.6h-.9v-4h1.4c.9 0 1.4.3 1.4 1 0 .5-.3.9-.8 1.1.2.1.4.2.5.5.2.2.5.7.7 1.4zM60.6 12c0-.4-.3-.6-.8-.6h-.5v1.2h.3c.6.1 1-.1 1-.6zM66.1 12.8c0 .6-.2 1.1-.6 1.6-.4.4-.9.6-1.4.6-.5 0-1-.2-1.4-.6-.4-.4-.5-.9-.5-1.4 0-.6.2-1.1.6-1.6.4-.4.9-.6 1.4-.6.5 0 1 .2 1.4.6.3.3.5.8.5 1.4zm-.8 0c0-.4-.1-.8-.3-1-.2-.3-.5-.4-.8-.4-.3 0-.6.1-.8.4-.2.3-.3.6-.3 1s.1.8.3 1c.2.3.5.4.8.4.3 0 .6-.1.8-.4.2-.2.3-.5.3-1zM67.9 14.8H67v-4h.9v1.9c-.1.8-.1 1.5 0 2.1zM72.3 12.7c0 .6-.2 1.1-.6 1.5-.4.4-.9.7-1.6.7h-1.3v-4H70c.7 0 1.3.2 1.6.6.5.2.7.7.7 1.2zm-.8.1c0-.4-.1-.7-.3-1-.2-.3-.6-.4-1-.4h-.4v2.8h.4c.4 0 .8-.1 1-.4.2-.3.3-.6.3-1zM78.2 14.8h-1c0-.1-.1-.5-.3-1.1h-1.4c-.2.6-.3 1-.3 1.1h-.9c0-.1.2-.7.7-2 .5-1.2.7-1.9.7-2h1.2c0 .1.2.8.6 2 .5 1.3.7 1.9.7 2zm-1.4-1.7c-.3-1.1-.5-1.6-.5-1.7 0 .1-.2.7-.5 1.7h1zM81.8 11.9c0 .5-.2.8-.5 1.1-.4.2-.8.3-1.3.3h-.2v1.5h-.9v-4h1.5c.4 0 .7.1 1 .3.2.2.4.4.4.8zm-.8.1c0-.4-.3-.7-.9-.7h-.5v1.3h.2c.8.2 1.2-.1 1.2-.6zM85.4 11.9c0 .5-.2.8-.5 1.1-.4.2-.8.3-1.3.3h-.2v1.5h-.9v-4H84c.4 0 .7.1 1 .3.3.2.4.4.4.8zm-.7.1c0-.4-.3-.7-.9-.7h-.5v1.3h.2c.8.2 1.2-.1 1.2-.6zM91.5 12.8c0 .6-.2 1.1-.6 1.6s-.9.6-1.4.6c-.5 0-1-.2-1.4-.6-.4-.4-.5-.9-.5-1.4 0-.6.2-1.1.6-1.6.4-.4.9-.6 1.4-.6.5 0 1 .2 1.4.6.3.3.5.8.5 1.4zm-.9 0c0-.4-.1-.8-.3-1-.2-.3-.5-.4-.8-.4-.3 0-.6.1-.8.4-.2.3-.3.6-.3 1s.1.8.3 1c.2.3.5.4.8.4.3 0 .6-.1.8-.4.2-.2.3-.5.3-1zM95.6 14.8h-.8c0-.1-.3-.5-.8-1.3-.6-.8-.9-1.4-1-1.7v3h-.8v-4h.9c0 .1.3.5.8 1.3s.8 1.3.9 1.6c0-.5-.1-.9-.1-1.2v-1.7h.8v1.9c.1.8.1 1.5.1 2.1z"/></svg>