<?xml version="1.0" encoding="utf-8"?>
<!-- Generator: Adobe Illustrator 22.1.0, SVG Export Plug-In . SVG Version: 6.00 Build 0)  -->
<svg version="1.1" id="Isolation_Mode" xmlns="http://www.w3.org/2000/svg" xmlns:xlink="http://www.w3.org/1999/xlink" x="0px"
	 y="0px" viewBox="0 0 1920 1057" style="enable-background:new 0 0 1920 1057;" xml:space="preserve">
<style type="text/css">
	.st0{opacity:5.000000e-02;}
	.st1{fill:none;stroke:url(#SVGID_1_);stroke-miterlimit:10;}
	.st2{fill:none;stroke:url(#SVGID_2_);stroke-miterlimit:10;}
	.st3{fill:none;stroke:url(#SVGID_3_);stroke-miterlimit:10;}
	.st4{fill:none;stroke:url(#SVGID_4_);stroke-miterlimit:10;}
	.st5{fill:none;stroke:url(#SVGID_5_);stroke-miterlimit:10;}
	.st6{fill:none;stroke:url(#SVGID_6_);stroke-miterlimit:10;}
	.st7{fill:none;stroke:url(#SVGID_7_);stroke-miterlimit:10;}
	.st8{fill:none;stroke:url(#SVGID_8_);stroke-miterlimit:10;}
	.st9{fill:none;stroke:url(#SVGID_9_);stroke-miterlimit:10;}
	.st10{fill:none;stroke:url(#SVGID_10_);stroke-miterlimit:10;}
	.st11{fill:none;stroke:url(#SVGID_11_);stroke-miterlimit:10;}
	.st12{fill:none;stroke:url(#SVGID_12_);stroke-miterlimit:10;}
	.st13{fill:none;stroke:url(#SVGID_13_);stroke-miterlimit:10;}
	.st14{fill:none;stroke:url(#SVGID_14_);stroke-miterlimit:10;}
	.st15{fill:none;stroke:url(#SVGID_15_);stroke-miterlimit:10;}
	.st16{fill:none;stroke:url(#SVGID_16_);stroke-miterlimit:10;}
	.st17{fill:none;stroke:url(#SVGID_17_);stroke-miterlimit:10;}
	.st18{fill:url(#SVGID_18_);}
</style>
<g class="st0">
	
		<linearGradient id="SVGID_1_" gradientUnits="userSpaceOnUse" x1="95.6882" y1="646.2144" x2="1824.5358" y2="1120.7009" gradientTransform="matrix(-1 0 0 1 1920 0)">
		<stop  offset="0" style="stop-color:#2F0F70"/>
		<stop  offset="0.6383" style="stop-color:#002B62"/>
		<stop  offset="0.9659" style="stop-color:#1B0A24"/>
	</linearGradient>
	<path class="st1" d="M1920,995c0,0-867.2,172.8-1920-223.2"/>
	
		<linearGradient id="SVGID_2_" gradientUnits="userSpaceOnUse" x1="95.6882" y1="598.7175" x2="1824.5358" y2="1073.2041" gradientTransform="matrix(-1 0 0 1 1920 0)">
		<stop  offset="0" style="stop-color:#2F0F70"/>
		<stop  offset="0.6383" style="stop-color:#002B62"/>
		<stop  offset="0.9659" style="stop-color:#1B0A24"/>
	</linearGradient>
	<path class="st2" d="M1920,947.5c0,0-867.2,172.8-1920-223.2"/>
	
		<linearGradient id="SVGID_3_" gradientUnits="userSpaceOnUse" x1="95.6882" y1="551.2205" x2="1824.5358" y2="1025.7072" gradientTransform="matrix(-1 0 0 1 1920 0)">
		<stop  offset="0" style="stop-color:#2F0F70"/>
		<stop  offset="0.6383" style="stop-color:#002B62"/>
		<stop  offset="0.9659" style="stop-color:#1B0A24"/>
	</linearGradient>
	<path class="st3" d="M1920,900c0,0-867.2,172.8-1920-223.2"/>
	
		<linearGradient id="SVGID_4_" gradientUnits="userSpaceOnUse" x1="95.6882" y1="503.7236" x2="1824.5358" y2="978.2102" gradientTransform="matrix(-1 0 0 1 1920 0)">
		<stop  offset="0" style="stop-color:#2F0F70"/>
		<stop  offset="0.6383" style="stop-color:#002B62"/>
		<stop  offset="0.9659" style="stop-color:#1B0A24"/>
	</linearGradient>
	<path class="st4" d="M1920,852.5c0,0-867.2,172.8-1920-223.2"/>
	
		<linearGradient id="SVGID_5_" gradientUnits="userSpaceOnUse" x1="95.6882" y1="456.2267" x2="1824.5358" y2="930.7133" gradientTransform="matrix(-1 0 0 1 1920 0)">
		<stop  offset="0" style="stop-color:#2F0F70"/>
		<stop  offset="0.6383" style="stop-color:#002B62"/>
		<stop  offset="0.9659" style="stop-color:#1B0A24"/>
	</linearGradient>
	<path class="st5" d="M1920,805c0,0-867.2,172.8-1920-223.2"/>
	
		<linearGradient id="SVGID_6_" gradientUnits="userSpaceOnUse" x1="95.6882" y1="408.7298" x2="1824.5358" y2="883.2164" gradientTransform="matrix(-1 0 0 1 1920 0)">
		<stop  offset="0" style="stop-color:#2F0F70"/>
		<stop  offset="0.6383" style="stop-color:#002B62"/>
		<stop  offset="0.9659" style="stop-color:#1B0A24"/>
	</linearGradient>
	<path class="st6" d="M1920,757.5c0,0-867.2,172.8-1920-223.2"/>
	
		<linearGradient id="SVGID_7_" gradientUnits="userSpaceOnUse" x1="95.6882" y1="361.2329" x2="1824.5358" y2="835.7195" gradientTransform="matrix(-1 0 0 1 1920 0)">
		<stop  offset="0" style="stop-color:#2F0F70"/>
		<stop  offset="0.6383" style="stop-color:#002B62"/>
		<stop  offset="0.9659" style="stop-color:#1B0A24"/>
	</linearGradient>
	<path class="st7" d="M1920,710c0,0-867.2,172.8-1920-223.2"/>
	
		<linearGradient id="SVGID_8_" gradientUnits="userSpaceOnUse" x1="95.6882" y1="313.736" x2="1824.5358" y2="788.2226" gradientTransform="matrix(-1 0 0 1 1920 0)">
		<stop  offset="0" style="stop-color:#2F0F70"/>
		<stop  offset="0.6383" style="stop-color:#002B62"/>
		<stop  offset="0.9659" style="stop-color:#1B0A24"/>
	</linearGradient>
	<path class="st8" d="M1920,662.5c0,0-867.2,172.8-1920-223.2"/>
	
		<linearGradient id="SVGID_9_" gradientUnits="userSpaceOnUse" x1="95.6882" y1="266.239" x2="1824.5358" y2="740.7256" gradientTransform="matrix(-1 0 0 1 1920 0)">
		<stop  offset="0" style="stop-color:#2F0F70"/>
		<stop  offset="0.6383" style="stop-color:#002B62"/>
		<stop  offset="0.9659" style="stop-color:#1B0A24"/>
	</linearGradient>
	<path class="st9" d="M1920,615c0,0-867.2,172.8-1920-223.2"/>
	
		<linearGradient id="SVGID_10_" gradientUnits="userSpaceOnUse" x1="95.6882" y1="218.7421" x2="1824.5358" y2="693.2288" gradientTransform="matrix(-1 0 0 1 1920 0)">
		<stop  offset="0" style="stop-color:#2F0F70"/>
		<stop  offset="0.6383" style="stop-color:#002B62"/>
		<stop  offset="0.9659" style="stop-color:#1B0A24"/>
	</linearGradient>
	<path class="st10" d="M1920,567.5c0,0-867.2,172.8-1920-223.2"/>
	
		<linearGradient id="SVGID_11_" gradientUnits="userSpaceOnUse" x1="95.6882" y1="171.2452" x2="1824.5358" y2="645.7318" gradientTransform="matrix(-1 0 0 1 1920 0)">
		<stop  offset="0" style="stop-color:#2F0F70"/>
		<stop  offset="0.6383" style="stop-color:#002B62"/>
		<stop  offset="0.9659" style="stop-color:#1B0A24"/>
	</linearGradient>
	<path class="st11" d="M1920,520c0,0-867.2,172.8-1920-223.2"/>
	
		<linearGradient id="SVGID_12_" gradientUnits="userSpaceOnUse" x1="95.6882" y1="123.7483" x2="1824.5358" y2="598.2349" gradientTransform="matrix(-1 0 0 1 1920 0)">
		<stop  offset="0" style="stop-color:#2F0F70"/>
		<stop  offset="0.6383" style="stop-color:#002B62"/>
		<stop  offset="0.9659" style="stop-color:#1B0A24"/>
	</linearGradient>
	<path class="st12" d="M1920,472.5c0,0-867.2,172.8-1920-223.2"/>
	
		<linearGradient id="SVGID_13_" gradientUnits="userSpaceOnUse" x1="95.6882" y1="76.2514" x2="1824.5358" y2="550.738" gradientTransform="matrix(-1 0 0 1 1920 0)">
		<stop  offset="0" style="stop-color:#2F0F70"/>
		<stop  offset="0.6383" style="stop-color:#002B62"/>
		<stop  offset="0.9659" style="stop-color:#1B0A24"/>
	</linearGradient>
	<path class="st13" d="M1920,425c0,0-867.2,172.8-1920-223.2"/>
	
		<linearGradient id="SVGID_14_" gradientUnits="userSpaceOnUse" x1="95.6882" y1="28.7545" x2="1824.5358" y2="503.2411" gradientTransform="matrix(-1 0 0 1 1920 0)">
		<stop  offset="0" style="stop-color:#2F0F70"/>
		<stop  offset="0.6383" style="stop-color:#002B62"/>
		<stop  offset="0.9659" style="stop-color:#1B0A24"/>
	</linearGradient>
	<path class="st14" d="M1920,377.5c0,0-867.2,172.8-1920-223.2"/>
	
		<linearGradient id="SVGID_15_" gradientUnits="userSpaceOnUse" x1="95.6882" y1="-18.7425" x2="1824.5358" y2="455.7442" gradientTransform="matrix(-1 0 0 1 1920 0)">
		<stop  offset="0" style="stop-color:#2F0F70"/>
		<stop  offset="0.6383" style="stop-color:#002B62"/>
		<stop  offset="0.9659" style="stop-color:#1B0A24"/>
	</linearGradient>
	<path class="st15" d="M1920,330c0,0-867.2,172.8-1920-223.2"/>
	
		<linearGradient id="SVGID_16_" gradientUnits="userSpaceOnUse" x1="95.6882" y1="-66.2394" x2="1824.5358" y2="408.2473" gradientTransform="matrix(-1 0 0 1 1920 0)">
		<stop  offset="0" style="stop-color:#2F0F70"/>
		<stop  offset="0.6383" style="stop-color:#002B62"/>
		<stop  offset="0.9659" style="stop-color:#1B0A24"/>
	</linearGradient>
	<path class="st16" d="M1920,282.5c0,0-867.2,172.8-1920-223.2"/>
	
		<linearGradient id="SVGID_17_" gradientUnits="userSpaceOnUse" x1="95.6882" y1="-113.7363" x2="1824.5358" y2="360.7503" gradientTransform="matrix(-1 0 0 1 1920 0)">
		<stop  offset="0" style="stop-color:#2F0F70"/>
		<stop  offset="0.6383" style="stop-color:#002B62"/>
		<stop  offset="0.9659" style="stop-color:#1B0A24"/>
	</linearGradient>
	<path class="st17" d="M1920,235c0,0-867.2,172.8-1920-223.2"/>
</g>
<g>
	
		<linearGradient id="SVGID_18_" gradientUnits="userSpaceOnUse" x1="920.9305" y1="812.8492" x2="1528.9305" y2="1540.8492" gradientTransform="matrix(-1 0 0 1 1920 0)">
		<stop  offset="0" style="stop-color:#2F0F70"/>
		<stop  offset="0.6383" style="stop-color:#002B62"/>
		<stop  offset="0.9659" style="stop-color:#1B0A24"/>
	</linearGradient>
	<path class="st18" d="M1920,947.5c0,0-867.2,172.8-1920-223.2l0,47.5C1052.8,1167.8,1920,995,1920,995V947.5z"/>
</g>
</svg>
