<?xml version="1.0" encoding="utf-8"?>
<!-- Generator: Adobe Illustrator 22.0.1, SVG Export Plug-In . SVG Version: 6.00 Build 0)  -->
<svg version="1.1" id="Layer_1" xmlns="http://www.w3.org/2000/svg" xmlns:xlink="http://www.w3.org/1999/xlink" x="0px" y="0px"
	 viewBox="0 0 30 30" style="enable-background:new 0 0 30 30;" xml:space="preserve">
<style type="text/css">
	.st0{fill:#231F20;}
	.st1{fill:#FFFFFF;}
	.st2{fill:none;stroke:#231F20;stroke-miterlimit:10;}
	.st3{fill:none;stroke:#231F20;stroke-width:1.2094;stroke-miterlimit:10;}
	.st4{fill:none;stroke:#231F20;stroke-width:2;stroke-miterlimit:10;}
	.st5{fill:none;stroke:#231F20;stroke-width:0.9701;stroke-miterlimit:10;}
</style>
<g>
	<path class="st0" d="M24.3,26.2v0.3c0,0.6-0.4,1-1,1H2.7c-0.6,0-1-0.4-1-1v-23c0-0.6,0.4-1,1-1h20.6c0.6,0,1,0.4,1,1v6
		c0.3,0.3,0.6,0.6,0.8,0.9c0.1,0.1,0.1,0.2,0.2,0.3V3.5c0-1.1-0.9-2-2-2H2.7c-1.1,0-2,0.9-2,2v23c0,1.1,0.9,2,2,2h20.6
		c0.8,0,1.5-0.5,1.8-1.2c0,0,0,0,0,0L24.3,26.2z"/>
	<path class="st0" d="M22.4,6.2c0-0.3-0.2-0.5-0.5-0.5H4.2c-0.3,0-0.5,0.2-0.5,0.5s0.2,0.5,0.5,0.5h17.7C22.2,6.7,22.4,6.5,22.4,6.2
		z"/>
	<path class="st0" d="M14.9,8.9c0.1-0.1,0.3-0.2,0.4-0.3H4.2c-0.3,0-0.5,0.2-0.5,0.5s0.2,0.5,0.5,0.5h9.9
		C14.3,9.4,14.6,9.1,14.9,8.9z"/>
	<path class="st0" d="M4.2,12.6h8.1c0.1-0.3,0.2-0.7,0.4-1H4.2c-0.3,0-0.5,0.2-0.5,0.5C3.7,12.3,3.9,12.6,4.2,12.6z"/>
	<path class="st0" d="M21.9,11.6h-5.5c-0.3,0.3-0.6,0.6-0.8,1h6.4c0.3,0,0.5-0.2,0.5-0.5C22.4,11.8,22.2,11.6,21.9,11.6z"/>
	<path class="st0" d="M21.9,14.5H15c0,0.3,0,0.7,0.1,1h6.9c0.3,0,0.5-0.2,0.5-0.5C22.4,14.7,22.2,14.5,21.9,14.5z"/>
	<path class="st0" d="M4.2,15.5H12c0-0.3,0-0.7,0-1H4.2c-0.3,0-0.5,0.2-0.5,0.5C3.7,15.3,3.9,15.5,4.2,15.5z"/>
	<path class="st0" d="M21.9,17.4h-6c0.3,0.4,0.7,0.7,1.1,1h4.6c0.1-0.1,0.2-0.1,0.3-0.2c0.2-0.1,0.3-0.3,0.5-0.5
		C22.3,17.6,22.1,17.4,21.9,17.4z"/>
	<path class="st0" d="M4.2,17.4c-0.3,0-0.5,0.2-0.5,0.5s0.2,0.5,0.5,0.5h8.8c-0.2-0.3-0.3-0.7-0.5-1H4.2z"/>
	<path class="st0" d="M4.2,20.4c-0.3,0-0.5,0.2-0.5,0.5c0,0.3,0.2,0.5,0.5,0.5h11.9c-0.5-0.3-1.1-0.6-1.5-1H4.2z"/>
	<path class="st0" d="M3.7,23.8c0,0.3,0.2,0.5,0.5,0.5h17.7c0.3,0,0.5-0.2,0.5-0.5c0-0.1,0-0.1,0-0.2l-0.1-0.2
		c-0.1-0.1-0.2-0.1-0.3-0.1H4.2C3.9,23.3,3.7,23.5,3.7,23.8z"/>
	<path class="st0" d="M28.9,24.5l-3.6-4.8l-1.1,0.8l-0.7-0.9l-0.4,0.3c2.8-2.1,3.4-6.1,1.3-8.9c-1.2-1.7-3.1-2.5-5.1-2.5
		c-1.3,0-2.7,0.4-3.8,1.3c-2.8,2.1-3.4,6.1-1.3,8.9c1.2,1.7,3.1,2.5,5.1,2.5c1.3,0,2.7-0.4,3.8-1.3l-0.4,0.3l0.7,0.9l-1.1,0.8
		l3.6,4.8c0.4,0.5,0.9,0.7,1.5,0.7c0.4,0,0.8-0.1,1.1-0.4C29.3,26.5,29.5,25.3,28.9,24.5z M22.5,19c-0.9,0.7-2,1.1-3.2,1.1
		c-1.7,0-3.3-0.8-4.3-2.1c-0.9-1.1-1.2-2.5-1-4c0.2-1.4,0.9-2.7,2.1-3.5c0.9-0.7,2-1.1,3.2-1.1c1.7,0,3.3,0.8,4.3,2.1
		C25.3,13.9,24.8,17.3,22.5,19z M27.9,26.3c-0.2,0.1-0.4,0.2-0.5,0.2c-0.3,0-0.5-0.1-0.7-0.3l-3-4l1.3-1l3,4
		c0.1,0.2,0.2,0.4,0.2,0.6C28.2,25.9,28.1,26.1,27.9,26.3z"/>
</g>
</svg>
