<svg version="1.1" id="Layer_1" xmlns="http://www.w3.org/2000/svg" xmlns:xlink="http://www.w3.org/1999/xlink" x="0" y="0" viewBox="0 0 1920 717.9" style="enable-background:new 0 0 1920 717.9" xml:space="preserve"><style>.st1{clip-path:url(#SVGID_3_)}</style><linearGradient id="SVGID_1_" gradientUnits="userSpaceOnUse" x1="581.427" y1="-407.514" x2="1244.55" y2="928.819"><stop offset="0" style="stop-color:#aa0047"/><stop offset="1" style="stop-color:#e0542b"/></linearGradient><path d="M0 0v710.8c510.8-6.2 1142.5-38.6 1920-113.8V0H0z" style="fill:url(#SVGID_1_)"/><defs><path id="SVGID_2_" d="M0 0v710.8c510.8-6.2 1142.5-38.6 1920-113.8V0H0z"/></defs><clipPath id="SVGID_3_"><use xlink:href="#SVGID_2_" style="overflow:visible"/></clipPath><g class="st1"><linearGradient id="SVGID_4_" gradientUnits="userSpaceOnUse" x1="208.905" y1="-146.393" x2="1542.021" y2="747.132" gradientTransform="matrix(1.0573 .03309 .03309 1.0191 -34.287 -19.796)"><stop offset="0" style="stop-color:#550038"/><stop offset="1" style="stop-color:#e0242b"/></linearGradient><path transform="rotate(30 901.29 315.231)" style="fill:none;stroke:url(#SVGID_4_);stroke-width:1.0375;stroke-miterlimit:10" d="M38.7 280.5h1725.2v69.6H38.7z"/><linearGradient id="SVGID_5_" gradientUnits="userSpaceOnUse" x1="104.768" y1="-67.314" x2="1437.884" y2="826.212" gradientTransform="matrix(1.0573 .03309 .03309 1.0191 -34.287 -19.796)"><stop offset="0" style="stop-color:#550038"/><stop offset="1" style="stop-color:#e0242b"/></linearGradient><path transform="rotate(30 793.806 392.38)" style="fill:none;stroke:url(#SVGID_5_);stroke-width:1.0375;stroke-miterlimit:10" d="M-68.8 357.6h1725.2v69.6H-68.8z"/><linearGradient id="SVGID_6_" gradientUnits="userSpaceOnUse" x1=".63" y1="11.766" x2="1333.747" y2="905.291" gradientTransform="matrix(1.0573 .03309 .03309 1.0191 -34.287 -19.796)"><stop offset="0" style="stop-color:#550038"/><stop offset="1" style="stop-color:#e0242b"/></linearGradient><path transform="rotate(30 686.322 469.529)" style="fill:none;stroke:url(#SVGID_6_);stroke-width:1.0375;stroke-miterlimit:10" d="M-176.3 434.8h1725.2v69.6H-176.3z"/></g><g class="st1"><linearGradient id="SVGID_7_" gradientUnits="userSpaceOnUse" x1="821.218" y1="-452.553" x2="2154.334" y2="440.973" gradientTransform="matrix(1.0573 .03309 .03309 1.0191 -34.287 -19.796)"><stop offset="0" style="stop-color:#550038"/><stop offset="1" style="stop-color:#e0242b"/></linearGradient><path transform="rotate(30 1538.542 23.457)" style="fill:none;stroke:url(#SVGID_7_);stroke-width:1.0375;stroke-miterlimit:10" d="M676-11.3h1725.2v69.6H676z"/><linearGradient id="SVGID_8_" gradientUnits="userSpaceOnUse" x1="717.081" y1="-373.473" x2="2050.197" y2="520.052" gradientTransform="matrix(1.0573 .03309 .03309 1.0191 -34.287 -19.796)"><stop offset="0" style="stop-color:#550038"/><stop offset="1" style="stop-color:#e0242b"/></linearGradient><path transform="rotate(30 1431.059 100.606)" style="fill:none;stroke:url(#SVGID_8_);stroke-width:1.0375;stroke-miterlimit:10" d="M568.5 65.9h1725.2v69.6H568.5z"/><linearGradient id="SVGID_9_" gradientUnits="userSpaceOnUse" x1="612.944" y1="-294.394" x2="1946.06" y2="599.132" gradientTransform="matrix(1.0573 .03309 .03309 1.0191 -34.287 -19.796)"><stop offset="0" style="stop-color:#550038"/><stop offset="1" style="stop-color:#e0242b"/></linearGradient><path transform="rotate(30 1323.575 177.755)" style="fill:none;stroke:url(#SVGID_9_);stroke-width:1.0375;stroke-miterlimit:10" d="M461 143h1725.2v69.6H461z"/></g><g class="st1"><linearGradient id="SVGID_10_" gradientUnits="userSpaceOnUse" x1="-187.175" y1="279.855" x2="1145.941" y2="1173.38" gradientTransform="matrix(1.0573 .03309 .03309 1.0191 -34.287 -19.796)"><stop offset="0" style="stop-color:#550038"/><stop offset="1" style="stop-color:#e0242b"/></linearGradient><path transform="rotate(30 496.639 736.531)" style="fill:none;stroke:url(#SVGID_10_);stroke-width:1.0375;stroke-miterlimit:10" d="M-366 701.8h1725.2v69.6H-366z"/><linearGradient id="SVGID_11_" gradientUnits="userSpaceOnUse" x1="-291.313" y1="358.935" x2="1041.804" y2="1252.46" gradientTransform="matrix(1.0573 .03309 .03309 1.0191 -34.287 -19.796)"><stop offset="0" style="stop-color:#550038"/><stop offset="1" style="stop-color:#e0242b"/></linearGradient><path transform="rotate(30 389.155 813.68)" style="fill:none;stroke:url(#SVGID_11_);stroke-width:1.0375;stroke-miterlimit:10" d="M-473.5 778.9h1725.2v69.6H-473.5z"/><linearGradient id="SVGID_12_" gradientUnits="userSpaceOnUse" x1="-395.45" y1="438.014" x2="937.666" y2="1331.539" gradientTransform="matrix(1.0573 .03309 .03309 1.0191 -34.287 -19.796)"><stop offset="0" style="stop-color:#550038"/><stop offset="1" style="stop-color:#e0242b"/></linearGradient><path transform="rotate(30 281.672 890.829)" style="fill:none;stroke:url(#SVGID_12_);stroke-width:1.0375;stroke-miterlimit:10" d="M-580.9 856.1h1725.2v69.6H-580.9z"/></g></svg>