<svg xmlns="http://www.w3.org/2000/svg" viewBox="0 0 2832 853.1" style="enable-background:new 0 0 2832 853.1" xml:space="preserve"><linearGradient id="a" gradientUnits="userSpaceOnUse" x1="2407.559" y1="836.98" x2="2407.559" y2="422.059"><stop offset="0" style="stop-color:#edf0f4"/><stop offset="1" style="stop-color:#f5f7fa"/></linearGradient><path style="fill:url(#a)" d="m2017.9 0-34.8 60.3L2832 550.4V470z"/><linearGradient id="b" gradientUnits="userSpaceOnUse" x1="2353.814" y1="836.98" x2="2353.814" y2="422.059"><stop offset="0" style="stop-color:#edf0f4"/><stop offset="1" style="stop-color:#f5f7fa"/></linearGradient><path style="fill:url(#b)" d="M1875.6 137.4 2832 689.6v-80.4L1910.4 77.1z"/><linearGradient id="c" gradientUnits="userSpaceOnUse" x1="2300.07" y1="836.98" x2="2300.07" y2="422.059"><stop offset="0" style="stop-color:#edf0f4"/><stop offset="1" style="stop-color:#f5f7fa"/></linearGradient><path style="fill:url(#c)" d="M1768.1 214.5 2832 828.8v-80.4L1802.9 154.3z"/><linearGradient id="d" gradientUnits="userSpaceOnUse" x1="2032.35" y1="836.98" x2="2032.35" y2="422.059"><stop offset="0" style="stop-color:#edf0f4"/><stop offset="1" style="stop-color:#f5f7fa"/></linearGradient><path style="fill:url(#d)" d="m1276.1 60.3 1373.3 792.8h139.2L1310.9 0z"/><linearGradient id="e" gradientUnits="userSpaceOnUse" x1="1858.052" y1="836.98" x2="1858.052" y2="422.059"><stop offset="0" style="stop-color:#edf0f4"/><stop offset="1" style="stop-color:#f5f7fa"/></linearGradient><path style="fill:url(#e)" d="m1168.6 137.4 1239.7 715.7h139.2l-1344.1-776z"/><linearGradient id="f" gradientUnits="userSpaceOnUse" x1="1683.755" y1="836.98" x2="1683.755" y2="422.059"><stop offset="0" style="stop-color:#edf0f4"/><stop offset="1" style="stop-color:#f5f7fa"/></linearGradient><path style="fill:url(#f)" d="m1061.1 214.5 1106.1 638.6h139.2L1095.9 154.3z"/><linearGradient id="g" gradientUnits="userSpaceOnUse" x1="1325.35" y1="836.98" x2="1325.35" y2="422.059"><stop offset="0" style="stop-color:#edf0f4"/><stop offset="1" style="stop-color:#f5f7fa"/></linearGradient><path style="fill:url(#g)" d="m569.1 60.3 1373.3 792.8h139.2L603.9 0z"/><linearGradient id="h" gradientUnits="userSpaceOnUse" x1="1151.052" y1="836.98" x2="1151.052" y2="422.059"><stop offset="0" style="stop-color:#edf0f4"/><stop offset="1" style="stop-color:#f5f7fa"/></linearGradient><path style="fill:url(#h)" d="m461.6 137.4 1239.7 715.7h139.2L496.4 77.1z"/><linearGradient id="i" gradientUnits="userSpaceOnUse" x1="976.755" y1="836.98" x2="976.755" y2="422.059"><stop offset="0" style="stop-color:#edf0f4"/><stop offset="1" style="stop-color:#f5f7fa"/></linearGradient><path style="fill:url(#i)" d="m354.1 214.5 1106.1 638.6h139.2L388.9 154.3z"/><linearGradient id="j" gradientUnits="userSpaceOnUse" x1="687.291" y1="836.98" x2="687.291" y2="422.059"><stop offset="0" style="stop-color:#edf0f4"/><stop offset="1" style="stop-color:#f5f7fa"/></linearGradient><path style="fill:url(#j)" d="m0 139.9 1235.4 713.2h139.2L0 59.5z"/><linearGradient id="k" gradientUnits="userSpaceOnUse" x1="566.738" y1="836.98" x2="566.738" y2="422.059"><stop offset="0" style="stop-color:#edf0f4"/><stop offset="1" style="stop-color:#f5f7fa"/></linearGradient><path style="fill:url(#k)" d="m0 279.1 994.3 574h139.2L0 198.7z"/><linearGradient id="l" gradientUnits="userSpaceOnUse" x1="446.184" y1="836.98" x2="446.184" y2="422.059"><stop offset="0" style="stop-color:#edf0f4"/><stop offset="1" style="stop-color:#f5f7fa"/></linearGradient><path style="fill:url(#l)" d="m0 418.3 753.2 434.8h139.2L0 337.9z"/><linearGradient id="m" gradientUnits="userSpaceOnUse" x1="313.754" y1="836.98" x2="313.754" y2="422.059"><stop offset="0" style="stop-color:#edf0f4"/><stop offset="1" style="stop-color:#f5f7fa"/></linearGradient><path style="fill:url(#m)" d="m0 571.2 488.4 281.9h139.1L0 490.8z"/><linearGradient id="n" gradientUnits="userSpaceOnUse" x1="193.201" y1="836.98" x2="193.201" y2="422.059"><stop offset="0" style="stop-color:#edf0f4"/><stop offset="1" style="stop-color:#f5f7fa"/></linearGradient><path style="fill:url(#n)" d="m0 710.4 247.3 142.7h139.1L0 630z"/><linearGradient id="o" gradientUnits="userSpaceOnUse" x1="72.647" y1="836.98" x2="72.647" y2="422.059"><stop offset="0" style="stop-color:#edf0f4"/><stop offset="1" style="stop-color:#f5f7fa"/></linearGradient><path style="fill:url(#o)" d="m0 849.6 6.1 3.5h139.2L0 769.3z"/></svg>