<?xml version="1.0" encoding="utf-8"?>
<!-- Generator: Adobe Illustrator 22.1.0, SVG Export Plug-In . SVG Version: 6.00 Build 0)  -->
<svg version="1.1" id="Layer_1" xmlns="http://www.w3.org/2000/svg" xmlns:xlink="http://www.w3.org/1999/xlink" x="0px" y="0px"
	 viewBox="0 0 1920 833" style="enable-background:new 0 0 1920 833;" xml:space="preserve">
<style type="text/css">
	.st0{fill:url(#SVGID_1_);}
	.st1{fill:none;stroke:url(#SVGID_2_);stroke-miterlimit:10;}
	.st2{fill:none;stroke:url(#SVGID_3_);stroke-miterlimit:10;}
	.st3{fill:none;stroke:url(#SVGID_4_);stroke-miterlimit:10;}
	.st4{fill:none;stroke:url(#SVGID_5_);stroke-miterlimit:10;}
	.st5{fill:none;stroke:url(#SVGID_6_);stroke-miterlimit:10;}
	.st6{fill:none;stroke:url(#SVGID_7_);stroke-miterlimit:10;}
	.st7{fill:none;stroke:url(#SVGID_8_);stroke-miterlimit:10;}
	.st8{fill:none;stroke:url(#SVGID_9_);stroke-miterlimit:10;}
	.st9{fill:none;stroke:url(#SVGID_10_);stroke-miterlimit:10;}
	.st10{fill:none;stroke:url(#SVGID_11_);stroke-miterlimit:10;}
	.st11{fill:none;stroke:url(#SVGID_12_);stroke-miterlimit:10;}
	.st12{fill:none;stroke:url(#SVGID_13_);stroke-miterlimit:10;}
	.st13{fill:url(#SVGID_14_);}
	.st14{fill:url(#SVGID_15_);}
	.st15{fill:url(#SVGID_16_);}
	.st16{fill:url(#SVGID_17_);}
	.st17{fill:url(#SVGID_18_);}
	.st18{fill:none;stroke:#FFFFFF;stroke-width:5;stroke-miterlimit:10;}
</style>
<linearGradient id="SVGID_1_" gradientUnits="userSpaceOnUse" x1="1198.4271" y1="1118.2585" x2="678.8104" y2="-411.1206">
	<stop  offset="0" style="stop-color:#5F00E9"/>
	<stop  offset="1" style="stop-color:#0B002A"/>
</linearGradient>
<rect class="st0" width="1920" height="833"/>
<g>
	<linearGradient id="SVGID_2_" gradientUnits="userSpaceOnUse" x1="-0.3785" y1="649.3376" x2="1920.3123" y2="649.3376">
		<stop  offset="0" style="stop-color:#6B2BFF"/>
		<stop  offset="0.1439" style="stop-color:#D2D3FF"/>
		<stop  offset="0.2537" style="stop-color:#9195FF"/>
		<stop  offset="0.5172" style="stop-color:#5B33FF"/>
		<stop  offset="0.7951" style="stop-color:#F0A7CE"/>
		<stop  offset="1" style="stop-color:#72409D"/>
	</linearGradient>
	<path class="st1" d="M0,833c0,0,216.5-250.7,488-113.6c273.4,138.1,431.2-36.6,521.6-123.3c91.9-88.1,225-187.5,379.5-90
		S1788,736.8,1920,631.2"/>
	<linearGradient id="SVGID_3_" gradientUnits="userSpaceOnUse" x1="-0.376" y1="653.2875" x2="1920.2826" y2="653.2875">
		<stop  offset="0" style="stop-color:#6B2BFF"/>
		<stop  offset="0.1439" style="stop-color:#D2D3FF"/>
		<stop  offset="0.2537" style="stop-color:#9195FF"/>
		<stop  offset="0.5172" style="stop-color:#5B33FF"/>
		<stop  offset="0.7951" style="stop-color:#F0A7CE"/>
		<stop  offset="1" style="stop-color:#72409D"/>
	</linearGradient>
	<path class="st2" d="M0,823c0,0,217.6-248.2,486.1-105.1C754.9,860.6,921.2,689.7,1012,607c99.2-90.3,222.7-174.2,369.8-85.7
		c163.7,98.5,393.7,178.8,538.2,79.8"/>
	<linearGradient id="SVGID_4_" gradientUnits="userSpaceOnUse" x1="-0.3734" y1="657.1164" x2="1920.2538" y2="657.1164">
		<stop  offset="0" style="stop-color:#6B2BFF"/>
		<stop  offset="0.1439" style="stop-color:#D2D3FF"/>
		<stop  offset="0.2537" style="stop-color:#9195FF"/>
		<stop  offset="0.5172" style="stop-color:#5B33FF"/>
		<stop  offset="0.7951" style="stop-color:#F0A7CE"/>
		<stop  offset="1" style="stop-color:#72409D"/>
	</linearGradient>
	<path class="st3" d="M0,813c0,0,218.7-245.6,484.2-96.6c264.1,147.3,439.2-19.6,530.3-98.5c106.7-92.4,220.8-161.4,360.1-81.3
		c173,99.4,388.5,126.8,545.4,34.4"/>
	<linearGradient id="SVGID_5_" gradientUnits="userSpaceOnUse" x1="-0.3708" y1="660.8295" x2="1920.2261" y2="660.8295">
		<stop  offset="0" style="stop-color:#6B2BFF"/>
		<stop  offset="0.1439" style="stop-color:#D2D3FF"/>
		<stop  offset="0.2537" style="stop-color:#9195FF"/>
		<stop  offset="0.5172" style="stop-color:#5B33FF"/>
		<stop  offset="0.7951" style="stop-color:#F0A7CE"/>
		<stop  offset="1" style="stop-color:#72409D"/>
	</linearGradient>
	<path class="st4" d="M0,803c0,0,219.8-243.1,482.3-88.1c259.4,151.9,443.6-10.9,534.6-86.1c114.3-94.4,219.2-149,350.4-77
		C1550,652.1,1750.7,626.8,1920,541"/>
	<linearGradient id="SVGID_6_" gradientUnits="userSpaceOnUse" x1="-0.3681" y1="651.9227" x2="1920.1997" y2="651.9227">
		<stop  offset="0" style="stop-color:#6B2BFF"/>
		<stop  offset="0.1439" style="stop-color:#D2D3FF"/>
		<stop  offset="0.2537" style="stop-color:#9195FF"/>
		<stop  offset="0.5172" style="stop-color:#5B33FF"/>
		<stop  offset="0.7951" style="stop-color:#F0A7CE"/>
		<stop  offset="1" style="stop-color:#72409D"/>
	</linearGradient>
	<path class="st5" d="M0,793c0,0,220.6-240,480.5-79.6c254.4,157.1,448-2,538.9-73.6c122.1-96.2,217.8-137,340.8-72.6
		c192.4,100.7,378.1,23,559.8-56.2"/>
	<linearGradient id="SVGID_7_" gradientUnits="userSpaceOnUse" x1="-0.3654" y1="632.0765" x2="1920.1752" y2="632.0765">
		<stop  offset="0" style="stop-color:#6B2BFF"/>
		<stop  offset="0.1439" style="stop-color:#D2D3FF"/>
		<stop  offset="0.2537" style="stop-color:#9195FF"/>
		<stop  offset="0.5172" style="stop-color:#5B33FF"/>
		<stop  offset="0.7951" style="stop-color:#F0A7CE"/>
		<stop  offset="1" style="stop-color:#72409D"/>
	</linearGradient>
	<path class="st6" d="M0,783c0,0,221.7-237.4,478.6-71.1c249.7,161.7,452.6,7.1,543.3-61.2c129.9-97.9,216.7-125.3,331.1-68.3
		c202.4,100.9,372.9-28.9,567.1-101.5"/>
	<linearGradient id="SVGID_8_" gradientUnits="userSpaceOnUse" x1="-0.3627" y1="618.5311" x2="1920.1522" y2="618.5311">
		<stop  offset="0" style="stop-color:#6B2BFF"/>
		<stop  offset="0.1439" style="stop-color:#D2D3FF"/>
		<stop  offset="0.2537" style="stop-color:#9195FF"/>
		<stop  offset="0.5172" style="stop-color:#5B33FF"/>
		<stop  offset="0.7951" style="stop-color:#F0A7CE"/>
		<stop  offset="1" style="stop-color:#72409D"/>
	</linearGradient>
	<path class="st7" d="M0,773c0,0,222.8-234.9,476.7-62.6c245.1,166.3,457.3,16.3,547.6-48.8c138-99.4,215.7-114,321.4-64
		c212.6,100.8,367.7-80.9,574.3-146.9"/>
	<linearGradient id="SVGID_9_" gradientUnits="userSpaceOnUse" x1="-0.36" y1="605.0728" x2="1920.1309" y2="605.0728">
		<stop  offset="0" style="stop-color:#6B2BFF"/>
		<stop  offset="0.1439" style="stop-color:#D2D3FF"/>
		<stop  offset="0.2537" style="stop-color:#9195FF"/>
		<stop  offset="0.5172" style="stop-color:#5B33FF"/>
		<stop  offset="0.7951" style="stop-color:#F0A7CE"/>
		<stop  offset="1" style="stop-color:#72409D"/>
	</linearGradient>
	<path class="st8" d="M0,763c0,0,223.9-232.4,474.8-54c240.4,170.9,462.1,25.6,551.9-36.4c146.1-100.7,214.9-103,311.7-59.6
		C1561.6,713.1,1701,480.2,1920,420.8"/>
	<linearGradient id="SVGID_10_" gradientUnits="userSpaceOnUse" x1="-0.3573" y1="591.6084" x2="1920.1112" y2="591.6084">
		<stop  offset="0" style="stop-color:#6B2BFF"/>
		<stop  offset="0.1439" style="stop-color:#D2D3FF"/>
		<stop  offset="0.2537" style="stop-color:#9195FF"/>
		<stop  offset="0.5172" style="stop-color:#5B33FF"/>
		<stop  offset="0.7951" style="stop-color:#F0A7CE"/>
		<stop  offset="1" style="stop-color:#72409D"/>
	</linearGradient>
	<path class="st9" d="M0,753c0,0,225.4-230.4,472.9-45.5c236.1,175,466.9,35,556.3-23.9c154.4-101.8,214.2-92.3,302-55.3
		c233.9,98.6,357.4-184.7,588.7-237.5"/>
	<linearGradient id="SVGID_11_" gradientUnits="userSpaceOnUse" x1="-0.3545" y1="578.36" x2="1920.0931" y2="578.36">
		<stop  offset="0" style="stop-color:#6B2BFF"/>
		<stop  offset="0.1439" style="stop-color:#D2D3FF"/>
		<stop  offset="0.2537" style="stop-color:#9195FF"/>
		<stop  offset="0.5172" style="stop-color:#5B33FF"/>
		<stop  offset="0.7951" style="stop-color:#F0A7CE"/>
		<stop  offset="1" style="stop-color:#72409D"/>
	</linearGradient>
	<path class="st10" d="M0,743c0,0,226.6-227.8,471.1-37c231.5,179.6,471.8,44.5,560.6-11.5c162.9-102.6,213.6-81.8,292.3-50.9
		c245.1,96.1,352.2-236.6,596-282.8"/>
	<linearGradient id="SVGID_12_" gradientUnits="userSpaceOnUse" x1="-0.3516" y1="565.2155" x2="1920.0764" y2="565.2155">
		<stop  offset="0" style="stop-color:#6B2BFF"/>
		<stop  offset="0.1439" style="stop-color:#D2D3FF"/>
		<stop  offset="0.2537" style="stop-color:#9195FF"/>
		<stop  offset="0.5172" style="stop-color:#5B33FF"/>
		<stop  offset="0.7951" style="stop-color:#F0A7CE"/>
		<stop  offset="1" style="stop-color:#72409D"/>
	</linearGradient>
	<path class="st11" d="M0,733c0,0,227.7-225.3,469.2-28.5c226.8,184.2,476.7,54,565,0.9c171.4-103.2,213-71.6,282.7-46.6
		c256.8,92,347-288.6,603.2-328.2"/>
	<linearGradient id="SVGID_13_" gradientUnits="userSpaceOnUse" x1="-0.3487" y1="552.1776" x2="1920.0609" y2="552.1776">
		<stop  offset="0" style="stop-color:#6B2BFF"/>
		<stop  offset="0.1439" style="stop-color:#D2D3FF"/>
		<stop  offset="0.2537" style="stop-color:#9195FF"/>
		<stop  offset="0.5172" style="stop-color:#5B33FF"/>
		<stop  offset="0.7951" style="stop-color:#F0A7CE"/>
		<stop  offset="1" style="stop-color:#72409D"/>
	</linearGradient>
	<path class="st12" d="M0,723c0,0,228.8-222.7,467.3-20c222.1,188.8,481.6,63.7,569.3,13.3c180.1-103.5,212.4-61.5,273-42.2
		c269,85.6,341.8-340.5,610.4-373.5"/>
</g>
<g>
	<linearGradient id="SVGID_14_" gradientUnits="userSpaceOnUse" x1="-2.0439" y1="659.1796" x2="351.9384" y2="579.6837">
		<stop  offset="0" style="stop-color:#5F00E9"/>
		<stop  offset="1" style="stop-color:#0B002A"/>
	</linearGradient>
	<path class="st13" d="M0,559v170c0,0,199.6-207.9,431-64C257,455.3,0,559,0,559z"/>
	<linearGradient id="SVGID_15_" gradientUnits="userSpaceOnUse" x1="431" y1="618.1783" x2="873.3193" y2="618.1783">
		<stop  offset="0" style="stop-color:#831092"/>
		<stop  offset="1" style="stop-color:#BF2A00"/>
	</linearGradient>
	<path class="st14" d="M431,665c174.9,210.8,300.8-35.1,442.3-175.6c-17.2,8-34.7,18.8-54.2,30.2C612.8,640.2,594,711.2,431,665z"/>
	<linearGradient id="SVGID_16_" gradientUnits="userSpaceOnUse" x1="873.3193" y1="559.3416" x2="1382.7041" y2="559.3416">
		<stop  offset="0" style="stop-color:#5F00E9"/>
		<stop  offset="1" style="stop-color:#0B002A"/>
	</linearGradient>
	<path class="st15" d="M1251.1,531.6c-69.6-103.3-147-144-247.5-124.5c-45.9,8.9-88.7,41.1-130.3,82.3
		c264-122.6,325.2,230.4,509.4,226.9C1327.5,669.7,1287.7,586,1251.1,531.6z"/>
	<linearGradient id="SVGID_17_" gradientUnits="userSpaceOnUse" x1="1382.7041" y1="452.2376" x2="1920" y2="452.2376">
		<stop  offset="0" style="stop-color:#831092"/>
		<stop  offset="1" style="stop-color:#BF2A00"/>
	</linearGradient>
	<path class="st16" d="M1488.1,680.1c-39.7,24.9-74.3,35.6-105.4,36.2c37.7,31.8,82.5,46.3,138.4,22.3
		c176.5-75.8,198-228.2,398.9-309.2V154.7C1701,132.7,1613.1,601.6,1488.1,680.1z"/>
	<g>
		<linearGradient id="SVGID_18_" gradientUnits="userSpaceOnUse" x1="-0.9355" y1="577.2169" x2="1922.9435" y2="577.2169">
			<stop  offset="0" style="stop-color:#FFFFFF"/>
			<stop  offset="0.2851" style="stop-color:#F5C4DE"/>
			<stop  offset="0.5172" style="stop-color:#FFFFFF"/>
			<stop  offset="0.7951" style="stop-color:#F0A7CE"/>
			<stop  offset="1" style="stop-color:#FFFFFF"/>
		</linearGradient>
		<path class="st17" d="M-0.9,556.7c5.9-2.4,11.8-4.3,17.8-6.3c6-1.9,12-3.6,18-5.2c12.1-3.2,24.3-5.9,36.6-8.2
			c6.2-1.1,12.3-2.1,18.5-3c6.2-0.8,12.4-1.6,18.7-2.2c12.5-1.2,25-1.9,37.5-2.1c12.5-0.2,25.1,0.2,37.6,1.2c12.5,1,25,2.6,37.4,4.7
			c24.8,4.4,49.1,11.3,72.5,20.7c11.7,4.7,23.1,10.1,34.2,16.1c11.1,6,21.8,12.7,32.2,19.8c20.8,14.3,39.9,31,57.2,49.3
			c2.2,2.3,4.3,4.6,6.4,7l3.2,3.5l3.1,3.6l6.1,7.2c2,2.3,3.9,4.7,6,7c8.1,9.2,16.5,18.2,25.5,26.4c4.5,4.2,9.1,8.1,13.9,11.9
			c4.8,3.8,9.7,7.3,14.7,10.7c5,3.3,10.3,6.4,15.6,9.1c5.4,2.8,10.8,5.2,16.5,7.3c11.3,4.1,23.1,6.5,35,7c11.9,0.5,23.9-1,35.5-4.1
			c11.6-3.1,22.9-7.8,33.6-13.5c10.8-5.7,21.1-12.4,30.9-19.7c19.8-14.6,37.9-31.5,55.3-49.1c17.4-17.6,34-36.1,50.4-54.7
			c32.8-37.3,64.8-75.5,100.1-110.8c17.7-17.6,36.3-34.4,56.6-49c10.1-7.3,20.8-14,31.9-19.8c11.1-5.8,22.8-10.6,35-13.8
			c3-0.8,6.1-1.6,9.2-2.2c3.1-0.6,6.2-1.1,9.2-1.7c3.1-0.6,6.2-0.9,9.3-1.4c1.5-0.2,3.1-0.4,4.7-0.5l4.7-0.5
			c12.5-1.1,25-1.4,37.5-0.3c25,2,49.6,8.8,72.1,20.1c11.2,5.6,21.9,12.3,32,19.8c10.1,7.4,19.6,15.6,28.6,24.3
			c18,17.4,33.7,37,48.1,57.4c7.2,10.2,14,20.7,20.6,31.3c6.6,10.6,13,21.2,19.4,31.9c12.9,21.3,25.9,42.4,40,62.7
			c14.2,20.3,29.6,39.7,47.4,56.7c4.5,4.2,9.1,8.2,13.9,12.1c4.8,3.8,9.8,7.3,14.9,10.6c10.3,6.5,21.4,11.7,33,15
			c11.6,3.4,23.7,4.7,35.8,4.1c12.1-0.6,24-3.2,35.5-7.1l4.3-1.5c1.4-0.5,2.8-1.1,4.2-1.7c2.8-1.1,5.6-2.4,8.4-3.7l8.4-3.8l2.1-1
			l2.1-1l4.1-2.1l8.3-4.2c2.7-1.5,5.4-3,8.1-4.5c2.7-1.5,5.4-3,8-4.6l7.9-4.9l3.9-2.4c1.3-0.8,2.6-1.7,3.9-2.6l7.7-5.2
			c2.6-1.7,5-3.6,7.5-5.4c2.5-1.8,5-3.6,7.5-5.5c9.7-7.6,19.3-15.4,28.5-23.7c9.3-8.2,18.1-16.9,26.9-25.6
			c8.7-8.8,17.3-17.8,25.7-26.9c16.9-18.2,33.5-36.7,50.8-54.7c17.2-18,35.4-35.2,54.6-51.1c19.2-15.9,39.7-30.4,61.3-42.9l8.2-4.6
			l4.1-2.3c1.4-0.8,2.7-1.5,4.1-2.2l8.3-4.3l4.2-2.1c1.4-0.7,2.8-1.4,4.2-2.1c5.7-2.6,11.3-5.3,17-7.8l17.3-7.1l0.6,1.6
			c-22.9,9.6-45.1,20.7-66.4,33.5c-21.2,12.8-41.2,27.6-60.1,43.5c-18.9,16-36.6,33.3-53.6,51.4c-17.1,18-33.4,36.7-50.3,55.1
			c-8.4,9.2-17,18.3-25.6,27.2c-8.8,8.9-17.7,17.7-27,26c-9.2,8.5-18.9,16.4-28.8,24.1c-2.5,1.9-5,3.7-7.6,5.6
			c-2.5,1.8-5,3.8-7.6,5.5l-7.8,5.3c-1.3,0.9-2.6,1.8-3.9,2.6l-4,2.5l-8,5c-2.7,1.6-5.4,3.1-8.2,4.7c-2.7,1.5-5.4,3.1-8.2,4.6
			l-8.4,4.3l-4.2,2.1l-2.1,1.1l-2.1,1l-8.5,3.9c-2.9,1.3-5.7,2.6-8.6,3.8c-1.5,0.6-2.9,1.2-4.4,1.8l-4.5,1.6
			c-12,4.1-24.6,6.8-37.4,7.5c-12.8,0.6-25.7-0.8-38-4.4c-12.3-3.5-23.9-9-34.6-15.9c-5.4-3.4-10.5-7.1-15.4-11
			c-4.9-4-9.7-8.1-14.2-12.5c-9.1-8.7-17.5-18.1-25.4-27.8c-4-4.9-7.8-9.8-11.5-14.9c-3.7-5-7.3-10.1-10.9-15.3
			c-14.1-20.6-27-42-39.7-63.3c-6.4-10.7-12.7-21.4-19.2-32c-6.5-10.6-13.1-21.1-20.2-31.2c-14.1-20.3-29.6-39.8-47.2-57.1
			c-17.6-17.3-37.3-32.6-59.3-43.7c-11-5.6-22.5-10.1-34.4-13.4c-11.9-3.3-24-5.5-36.3-6.5c-12.3-1-24.7-0.8-36.9,0.3l-4.6,0.5
			c-1.5,0.2-3.1,0.3-4.6,0.5c-3.1,0.5-6.1,0.8-9.2,1.4c-3,0.6-6.1,1-9.1,1.7c-3,0.6-6,1.3-8.9,2.2c-11.8,3.3-23.3,8-34.2,13.7
			c-10.9,5.7-21.4,12.4-31.3,19.6c-10,7.3-19.6,15.1-28.8,23.3c-9.3,8.2-18.2,16.8-26.9,25.6c-17.4,17.6-34,36.1-50.2,54.9
			c-16.3,18.8-32.2,37.8-48.5,56.7c-16.2,18.9-32.7,37.6-50,55.6c-17.3,18-35.5,35.3-55.6,50.5c-10,7.6-20.6,14.6-31.7,20.7
			c-11.1,6.1-22.9,11.2-35.3,14.6c-12.4,3.5-25.3,5.2-38.2,4.8c-12.9-0.4-25.8-2.9-37.9-7.2c-12.2-4.3-23.6-10.2-34.3-17.2
			c-5.3-3.5-10.5-7.2-15.5-11.1c-5-4-9.9-8-14.5-12.3c-9.4-8.5-18.1-17.6-26.4-27.1c-2.1-2.3-4.1-4.8-6.2-7.2l-6-7l-3-3.5l-3.1-3.4
			c-2.1-2.3-4.1-4.6-6.2-6.8c-16.9-17.8-35.3-34.1-55.4-48.2c-20-14.1-41.5-26.2-64.1-35.7c-45.2-19.1-94.6-28-143.9-27.9
			c-12.3,0-24.7,0.5-37,1.6c-6.2,0.5-12.3,1.2-18.4,1.9c-6.1,0.8-12.2,1.7-18.3,2.7c-12.2,2-24.3,4.5-36.3,7.5
			c-6,1.5-12,3.1-17.9,4.9c-5.9,1.8-11.8,3.7-17.5,5.8L-0.9,556.7z"/>
	</g>
	<path class="st18" d="M0,559c0,0,257-103.7,431,106c226.2,272.6,370.4-218.7,572.6-257.9c100.5-19.5,177.9,21.1,247.5,124.5
		c61.7,91.6,132.3,266.1,270,207c176.5-75.8,198-228.2,398.9-309.2"/>
</g>
</svg>
