<svg xmlns="http://www.w3.org/2000/svg" xmlns:xlink="http://www.w3.org/1999/xlink" xml:space="preserve" id="Layer_1" x="0" y="0" style="enable-background:new 0 0 1920 784" version="1.1" viewBox="0 0 1920 784"><style>.st1{fill:none;stroke:#f5f7fa;stroke-miterlimit:10}</style><defs><path id="SVGID_1_" d="M0 0h1920v784H0z" transform="rotate(-180 960 392)"/></defs><clipPath id="SVGID_2_"><use xlink:href="#SVGID_1_" style="overflow:visible"/></clipPath><g style="clip-path:url(#SVGID_2_)"><path d="M159-194-1013 978M232-194-940 978M305-194-867 978M378-194-794 978M451-194-721 978M524-194-648 978M597-194-575 978M670-194-502 978M743-194-429 978M816-194-356 978M889-194-283 978M962-194-210 978M1035-194-137 978M1108-194-64 978M1181-194 9 978M1254-194 82 978M1327-194 155 978M1400-194 228 978M1473-194 301 978M1546-194 374 978M1619-194 447 978M1692-194 520 978M1765-194 593 978M1838-194 666 978M1911-194 739 978M1984-194 812 978M2057-194 885 978M2130-194 958 978M2203-194 1031 978M2276-194 1104 978M2349-194 1177 978M2422-194 1250 978M2495-194 1323 978M2568-194 1396 978M2641-194 1469 978M2714-194 1542 978M2787-194 1615 978M2860-194 1688 978M2933-194 1761 978" class="st1"/></g><linearGradient id="SVGID_3_" x1="247.25" x2="-8.515" y1="810.75" y2="554.985" gradientTransform="matrix(-1 0 0 1 1920 0)" gradientUnits="userSpaceOnUse"><stop offset="0" style="stop-color:#d3232b"/><stop offset="1" style="stop-color:#e74c17"/></linearGradient><path d="m1920 600-184 184h-73l257-257z" style="fill:url(#SVGID_3_)"/><linearGradient id="SVGID_4_" x1="366.75" x2="157.442" y1="711.25" y2="501.942" gradientTransform="matrix(-1 0 0 1 1920 0)" gradientUnits="userSpaceOnUse"><stop offset="0" style="stop-color:#d3232b"/><stop offset="1" style="stop-color:#e74c17"/></linearGradient><path d="m1920 381-403 403h-73l476-476z" style="fill:url(#SVGID_4_)"/><linearGradient id="SVGID_5_" x1="566.75" x2="122.082" y1="765.25" y2="320.582" gradientTransform="matrix(-1 0 0 1 1920 0)" gradientUnits="userSpaceOnUse"><stop offset="0" style="stop-color:#d3232b"/><stop offset="1" style="stop-color:#e74c17"/></linearGradient><path d="m1920 235-549 549h-73l622-622z" style="fill:url(#SVGID_5_)"/></svg>