<svg id="Isolation_Mode" data-name="Isolation Mode" xmlns="http://www.w3.org/2000/svg" xmlns:xlink="http://www.w3.org/1999/xlink" viewBox="0 0 1920 1057"><defs><style>.cls-1{opacity:0.05;}.cls-10,.cls-11,.cls-13,.cls-14,.cls-15,.cls-2,.cls-3,.cls-4,.cls-5,.cls-7,.cls-8{fill:none;stroke-miterlimit:10;}.cls-2{stroke:url(#linear-gradient);}.cls-3{stroke:url(#linear-gradient-2);}.cls-4{stroke:url(#linear-gradient-3);}.cls-5{stroke:url(#linear-gradient-4);}.cls-6{fill:url(#linear-gradient-5);}.cls-7{stroke:url(#linear-gradient-6);}.cls-8{stroke:url(#linear-gradient-7);}.cls-9{fill:url(#linear-gradient-8);}.cls-10{stroke:url(#linear-gradient-9);}.cls-11{stroke:url(#linear-gradient-10);}.cls-12{fill:url(#linear-gradient-11);}.cls-13{stroke:url(#linear-gradient-12);}.cls-14{stroke:url(#linear-gradient-13);}.cls-15{stroke:url(#linear-gradient-14);}</style><linearGradient id="linear-gradient" x1="95.68" y1="421.77" x2="1824.54" y2="-52.72" gradientTransform="translate(1920 1058) rotate(180)" gradientUnits="userSpaceOnUse"><stop offset="0" stop-color="#2f0f70"/><stop offset="0.64" stop-color="#002b62"/><stop offset="0.97" stop-color="#1b0a24"/></linearGradient><linearGradient id="linear-gradient-2" x1="95.68" y1="469.27" x2="1824.54" y2="-5.22" xlink:href="#linear-gradient"/><linearGradient id="linear-gradient-3" x1="95.68" y1="516.77" x2="1824.54" y2="42.28" xlink:href="#linear-gradient"/><linearGradient id="linear-gradient-4" x1="95.68" y1="564.27" x2="1824.54" y2="89.78" xlink:href="#linear-gradient"/><linearGradient id="linear-gradient-5" y1="678.41" x2="1920" y2="678.41" gradientUnits="userSpaceOnUse"><stop offset="0" stop-color="#fff"/><stop offset="0.31" stop-color="#7a91ad"/><stop offset="0.79" stop-color="#778eab"/><stop offset="0.97" stop-color="#fff"/></linearGradient><linearGradient id="linear-gradient-6" x1="95.68" y1="706.77" x2="1824.54" y2="232.28" xlink:href="#linear-gradient"/><linearGradient id="linear-gradient-7" x1="95.68" y1="754.27" x2="1824.54" y2="279.78" xlink:href="#linear-gradient"/><linearGradient id="linear-gradient-8" y1="488.41" y2="488.41" xlink:href="#linear-gradient-5"/><linearGradient id="linear-gradient-9" x1="95.68" y1="896.77" x2="1824.54" y2="422.28" xlink:href="#linear-gradient"/><linearGradient id="linear-gradient-10" x1="95.68" y1="944.27" x2="1824.54" y2="469.78" xlink:href="#linear-gradient"/><linearGradient id="linear-gradient-11" y1="298.41" y2="298.41" xlink:href="#linear-gradient-5"/><linearGradient id="linear-gradient-12" x1="95.68" y1="1086.77" x2="1824.54" y2="612.28" xlink:href="#linear-gradient"/><linearGradient id="linear-gradient-13" x1="95.68" y1="1134.27" x2="1824.54" y2="659.78" xlink:href="#linear-gradient"/><linearGradient id="linear-gradient-14" x1="95.68" y1="1181.77" x2="1824.54" y2="707.28" xlink:href="#linear-gradient"/></defs><title>Artboard 1</title><g class="cls-1"><path class="cls-2" d="M1920,985S1052.8,1157.8,0,761.8"/><path class="cls-3" d="M1920,937.5S1052.8,1110.3,0,714.3"/><path class="cls-4" d="M1920,890S1052.8,1062.8,0,666.8"/><path class="cls-5" d="M1920,842.5S1052.8,1015.3,0,619.3"/><path class="cls-6" d="M0,524.3c1052.8,396,1920,223.2,1920,223.2V795S1052.8,967.8,0,571.8Z"/><path class="cls-7" d="M1920,700S1052.8,872.8,0,476.8"/><path class="cls-8" d="M1920,652.5S1052.8,825.3,0,429.3"/><path class="cls-9" d="M0,334.3c1052.8,396,1920,223.2,1920,223.2V605S1052.8,777.8,0,381.8Z"/><path class="cls-10" d="M1920,510S1052.8,682.8,0,286.8"/><path class="cls-11" d="M1920,462.5S1052.8,635.3,0,239.3"/><path class="cls-12" d="M0,144.3c1052.8,396,1920,223.2,1920,223.2V415S1052.8,587.8,0,191.8Z"/><path class="cls-13" d="M1920,320S1052.8,492.8,0,96.8"/><path class="cls-14" d="M1920,272.5S1052.8,445.3,0,49.3"/><path class="cls-15" d="M1920,225S1052.8,397.8,0,1.8"/></g></svg>