<svg xmlns="http://www.w3.org/2000/svg" xmlns:xlink="http://www.w3.org/1999/xlink" xml:space="preserve" id="Layer_1" x="0" y="0" style="enable-background:new 0 0 1920 784" version="1.1" viewBox="0 0 1920 784"><style>.st2{fill:none;stroke:#fff;stroke-miterlimit:10}</style><linearGradient id="SVGID_1_" x1="960" x2="960" y1="784" y2="0" gradientUnits="userSpaceOnUse"><stop offset=".3" style="stop-color:#d4242a"/><stop offset="1" style="stop-color:#e74c17"/></linearGradient><path d="M0 0h1920v784H0z" style="fill:url(#SVGID_1_)"/><defs><path id="SVGID_2_" d="M0 0h1920v784H0z"/></defs><clipPath id="SVGID_3_"><use xlink:href="#SVGID_2_" style="overflow:visible"/></clipPath><g style="opacity:.1;clip-path:url(#SVGID_3_)"><path d="M1761-194 2933 978M1688-194 2860 978M1615-194 2787 978M1542-194 2714 978M1469-194 2641 978M1396-194 2568 978M1323-194 2495 978M1250-194 2422 978M1177-194 2349 978M1104-194 2276 978M1031-194 2203 978M958-194 2130 978M885-194 2057 978M812-194 1984 978M739-194 1911 978M666-194 1838 978M593-194 1765 978M520-194 1692 978M447-194 1619 978M374-194 1546 978M301-194 1473 978M228-194 1400 978M155-194 1327 978M82-194 1254 978M9-194 1181 978M-64-194 1108 978M-137-194 1035 978M-210-194 962 978M-283-194 889 978M-356-194 816 978M-429-194 743 978M-502-194 670 978M-575-194 597 978M-648-194 524 978M-721-194 451 978M-794-194 378 978M-867-194 305 978M-940-194 232 978M-1013-194 159 978" class="st2"/></g><linearGradient id="SVGID_4_" x1="976.042" x2="738.114" y1="809.542" y2="571.614" gradientUnits="userSpaceOnUse"><stop offset="0" style="stop-color:#d3232b"/><stop offset="1" style="stop-color:#e74c17"/></linearGradient><path d="m130 0 784 784h73L203 0z" style="fill:url(#SVGID_4_)"/><linearGradient id="SVGID_5_" x1="1155.75" x2="604.742" y1="770.25" y2="219.242" gradientUnits="userSpaceOnUse"><stop offset="0" style="stop-color:#d3232b"/><stop offset="1" style="stop-color:#e74c17"/></linearGradient><path d="m349 0 784 784h73L422 0z" style="fill:url(#SVGID_5_)"/><linearGradient id="SVGID_6_" x1="247.25" x2="-8.515" y1="810.75" y2="554.985" gradientUnits="userSpaceOnUse"><stop offset="0" style="stop-color:#d3232b"/><stop offset="1" style="stop-color:#e74c17"/></linearGradient><path d="m0 600 184 184h73L0 527z" style="fill:url(#SVGID_6_)"/><linearGradient id="SVGID_7_" x1="366.75" x2="157.442" y1="711.25" y2="501.942" gradientUnits="userSpaceOnUse"><stop offset="0" style="stop-color:#d3232b"/><stop offset="1" style="stop-color:#e74c17"/></linearGradient><path d="m0 381 403 403h73L0 308z" style="fill:url(#SVGID_7_)"/><linearGradient id="SVGID_8_" x1="566.75" x2="122.082" y1="765.25" y2="320.582" gradientUnits="userSpaceOnUse"><stop offset="0" style="stop-color:#d3232b"/><stop offset="1" style="stop-color:#e74c17"/></linearGradient><path d="m0 235 549 549h73L0 162z" style="fill:url(#SVGID_8_)"/><linearGradient id="SVGID_9_" x1="1426.75" x2="1016.08" y1="749.25" y2="338.58" gradientUnits="userSpaceOnUse"><stop offset="0" style="stop-color:#d3232b"/><stop offset="1" style="stop-color:#e74c17"/></linearGradient><path d="m641 0 784 784h73L714 0z" style="fill:url(#SVGID_9_)"/><linearGradient id="SVGID_10_" x1="1737.25" x2="1540.39" y1="694.75" y2="497.89" gradientUnits="userSpaceOnUse"><stop offset="0" style="stop-color:#d3232b"/><stop offset="1" style="stop-color:#e74c17"/></linearGradient><path d="m1006 0 784 784h73L1079 0z" style="fill:url(#SVGID_10_)"/></svg>