<?xml version="1.0" encoding="utf-8"?>
<!-- Generator: Adobe Illustrator 22.1.0, SVG Export Plug-In . SVG Version: 6.00 Build 0)  -->
<svg version="1.1" id="Isolation_Mode" xmlns="http://www.w3.org/2000/svg" xmlns:xlink="http://www.w3.org/1999/xlink" x="0px"
	 y="0px" viewBox="0 0 1920 817" style="enable-background:new 0 0 1920 817;" xml:space="preserve">
<style type="text/css">
	.st0{fill:#111C22;}
	.st1{clip-path:url(#SVGID_2_);}
	.st2{fill:none;stroke:url(#SVGID_3_);stroke-miterlimit:10;}
	.st3{fill:none;stroke:url(#SVGID_4_);stroke-miterlimit:10;}
	.st4{fill:none;stroke:url(#SVGID_5_);stroke-miterlimit:10;}
	.st5{fill:none;stroke:url(#SVGID_6_);stroke-miterlimit:10;}
	.st6{fill:none;stroke:url(#SVGID_7_);stroke-miterlimit:10;}
	.st7{fill:none;stroke:url(#SVGID_8_);stroke-miterlimit:10;}
	.st8{fill:none;stroke:url(#SVGID_9_);stroke-miterlimit:10;}
	.st9{fill:none;stroke:url(#SVGID_10_);stroke-miterlimit:10;}
	.st10{fill:none;stroke:url(#SVGID_11_);stroke-miterlimit:10;}
	.st11{fill:none;stroke:url(#SVGID_12_);stroke-miterlimit:10;}
	.st12{fill:none;stroke:url(#SVGID_13_);stroke-miterlimit:10;}
	.st13{fill:none;stroke:url(#SVGID_14_);stroke-miterlimit:10;}
	.st14{fill:url(#SVGID_15_);}
</style>
<path class="st0" d="M0-3v599c0,0,413,218.4,1920,207.5V-3H0z"/>
<g>
	<defs>
		<path id="SVGID_1_" d="M0,0v596c0,0,413,221.4,1920,210.5V0H0z"/>
	</defs>
	<clipPath id="SVGID_2_">
		<use xlink:href="#SVGID_1_"  style="overflow:visible;"/>
	</clipPath>
	<g class="st1">
		<linearGradient id="SVGID_3_" gradientUnits="userSpaceOnUse" x1="88.0628" y1="275.1222" x2="1832.1924" y2="753.803">
			<stop  offset="0" style="stop-color:#2F0F70"/>
			<stop  offset="0.6383" style="stop-color:#002B62"/>
			<stop  offset="0.9659" style="stop-color:#1B0A24"/>
		</linearGradient>
		<path class="st2" d="M0,596c0,0,867.2,232.8,1920-163.2"/>
		<linearGradient id="SVGID_4_" gradientUnits="userSpaceOnUse" x1="88.0628" y1="206.0358" x2="1832.1924" y2="684.7166">
			<stop  offset="0" style="stop-color:#2F0F70"/>
			<stop  offset="0.6383" style="stop-color:#002B62"/>
			<stop  offset="0.9659" style="stop-color:#1B0A24"/>
		</linearGradient>
		<path class="st3" d="M0,526.9c0,0,867.2,232.8,1920-163.2"/>
		<linearGradient id="SVGID_5_" gradientUnits="userSpaceOnUse" x1="88.0628" y1="136.9494" x2="1832.1924" y2="615.6302">
			<stop  offset="0" style="stop-color:#2F0F70"/>
			<stop  offset="0.6383" style="stop-color:#002B62"/>
			<stop  offset="0.9659" style="stop-color:#1B0A24"/>
		</linearGradient>
		<path class="st4" d="M0,457.8c0,0,867.2,232.8,1920-163.2"/>
		<linearGradient id="SVGID_6_" gradientUnits="userSpaceOnUse" x1="88.0628" y1="67.8629" x2="1832.1924" y2="546.5438">
			<stop  offset="0" style="stop-color:#2F0F70"/>
			<stop  offset="0.6383" style="stop-color:#002B62"/>
			<stop  offset="0.9659" style="stop-color:#1B0A24"/>
		</linearGradient>
		<path class="st5" d="M0,388.7c0,0,867.2,232.8,1920-163.2"/>
		<linearGradient id="SVGID_7_" gradientUnits="userSpaceOnUse" x1="88.0628" y1="-1.2235" x2="1832.1924" y2="477.4573">
			<stop  offset="0" style="stop-color:#2F0F70"/>
			<stop  offset="0.6383" style="stop-color:#002B62"/>
			<stop  offset="0.9659" style="stop-color:#1B0A24"/>
		</linearGradient>
		<path class="st6" d="M0,319.7c0,0,867.2,232.8,1920-163.2"/>
		<linearGradient id="SVGID_8_" gradientUnits="userSpaceOnUse" x1="88.0628" y1="-70.3099" x2="1832.1924" y2="408.3709">
			<stop  offset="0" style="stop-color:#2F0F70"/>
			<stop  offset="0.6383" style="stop-color:#002B62"/>
			<stop  offset="0.9659" style="stop-color:#1B0A24"/>
		</linearGradient>
		<path class="st7" d="M0,250.6c0,0,867.2,232.8,1920-163.2"/>
		<linearGradient id="SVGID_9_" gradientUnits="userSpaceOnUse" x1="88.0628" y1="-139.3963" x2="1832.1924" y2="339.2845">
			<stop  offset="0" style="stop-color:#2F0F70"/>
			<stop  offset="0.6383" style="stop-color:#002B62"/>
			<stop  offset="0.9659" style="stop-color:#1B0A24"/>
		</linearGradient>
		<path class="st8" d="M0,181.5c0,0,867.2,232.8,1920-163.2"/>
		<linearGradient id="SVGID_10_" gradientUnits="userSpaceOnUse" x1="88.0628" y1="-208.4828" x2="1832.1924" y2="270.1981">
			<stop  offset="0" style="stop-color:#2F0F70"/>
			<stop  offset="0.6383" style="stop-color:#002B62"/>
			<stop  offset="0.9659" style="stop-color:#1B0A24"/>
		</linearGradient>
		<path class="st9" d="M0,112.4c0,0,867.2,232.8,1920-163.2"/>
		<linearGradient id="SVGID_11_" gradientUnits="userSpaceOnUse" x1="88.0628" y1="-277.5692" x2="1832.1924" y2="201.1116">
			<stop  offset="0" style="stop-color:#2F0F70"/>
			<stop  offset="0.6383" style="stop-color:#002B62"/>
			<stop  offset="0.9659" style="stop-color:#1B0A24"/>
		</linearGradient>
		<path class="st10" d="M0,43.3c0,0,867.2,232.8,1920-163.2"/>
		<linearGradient id="SVGID_12_" gradientUnits="userSpaceOnUse" x1="88.0628" y1="-346.6556" x2="1832.1924" y2="132.0252">
			<stop  offset="0" style="stop-color:#2F0F70"/>
			<stop  offset="0.6383" style="stop-color:#002B62"/>
			<stop  offset="0.9659" style="stop-color:#1B0A24"/>
		</linearGradient>
		<path class="st11" d="M0-25.8C0-25.8,867.2,207,1920-189"/>
		<linearGradient id="SVGID_13_" gradientUnits="userSpaceOnUse" x1="88.0628" y1="-415.742" x2="1832.1924" y2="62.9388">
			<stop  offset="0" style="stop-color:#2F0F70"/>
			<stop  offset="0.6383" style="stop-color:#002B62"/>
			<stop  offset="0.9659" style="stop-color:#1B0A24"/>
		</linearGradient>
		<path class="st12" d="M0-94.9c0,0,867.2,232.8,1920-163.2"/>
		<linearGradient id="SVGID_14_" gradientUnits="userSpaceOnUse" x1="88.0628" y1="-484.8285" x2="1832.1924" y2="-6.1476">
			<stop  offset="0" style="stop-color:#2F0F70"/>
			<stop  offset="0.6383" style="stop-color:#002B62"/>
			<stop  offset="0.9659" style="stop-color:#1B0A24"/>
		</linearGradient>
		<path class="st13" d="M0-164c0,0,867.2,232.8,1920-163.2"/>
	</g>
</g>
<linearGradient id="SVGID_15_" gradientUnits="userSpaceOnUse" x1="784.2397" y1="472.2863" x2="2839.4453" y2="1036.3427">
	<stop  offset="0" style="stop-color:#2F0F70"/>
	<stop  offset="0.6383" style="stop-color:#002B62"/>
	<stop  offset="0.9659" style="stop-color:#1B0A24"/>
</linearGradient>
<path class="st14" d="M1920,806.5C413,817.4,0,596,0,596s867.2,232.8,1920-163.2V806.5z"/>
</svg>
