<svg id="Layer_1" data-name="Layer 1" xmlns="http://www.w3.org/2000/svg" xmlns:xlink="http://www.w3.org/1999/xlink" viewBox="0 0 1920 849.8"><defs><style>.cls-1{fill:url(#linear-gradient);}.cls-2{fill:none;}.cls-3{clip-path:url(#clip-path);}.cls-4{fill:url(#linear-gradient-2);}.cls-5{mask:url(#mask);}.cls-6{fill:url(#linear-gradient-3);}.cls-7{fill:url(#linear-gradient-4);}.cls-8{fill:url(#linear-gradient-5);}.cls-9{fill:url(#linear-gradient-6);}.cls-10{fill:url(#linear-gradient-7);}.cls-11{fill:url(#linear-gradient-8);}.cls-12{fill:url(#linear-gradient-9);}</style><linearGradient id="linear-gradient" x1="1294.01" y1="637.76" x2="1474" y2="-116.7" gradientUnits="userSpaceOnUse"><stop offset="0"/><stop offset="1" stop-color="#fff"/></linearGradient><clipPath id="clip-path"><rect class="cls-2" width="1920" height="851.1"/></clipPath><linearGradient id="linear-gradient-2" x1="854.53" y1="-48.75" x2="1143.34" y2="1250.01" gradientUnits="userSpaceOnUse"><stop offset="0" stop-color="#1d0038"/><stop offset="0.41" stop-color="#000245"/><stop offset="1" stop-color="#005d62"/></linearGradient><mask id="mask" x="801.59" y="-206.14" width="1161.42" height="1039.74" maskUnits="userSpaceOnUse"><rect class="cls-1" x="821.59" y="-206.14" width="1099.45" height="1039.74"/></mask><linearGradient id="linear-gradient-3" x1="833.64" y1="582.78" x2="1829.59" y2="-86.18" gradientTransform="translate(359.37 148.27)" xlink:href="#linear-gradient-2"/><linearGradient id="linear-gradient-4" x1="895.64" y1="675.95" x2="1891.59" y2="6.98" gradientTransform="translate(30.67 4.66) scale(1.13 1)" xlink:href="#linear-gradient-2"/><linearGradient id="linear-gradient-5" x1="959.43" y1="770.92" x2="1955.38" y2="101.95" gradientTransform="translate(-147.08 -97.96) scale(1.13 1)" xlink:href="#linear-gradient-2"/><linearGradient id="linear-gradient-6" x1="1023.22" y1="865.88" x2="2019.17" y2="196.92" gradientTransform="translate(-324.82 -200.58) scale(1.13 1)" xlink:href="#linear-gradient-2"/><linearGradient id="linear-gradient-7" x1="1087" y1="960.85" x2="2082.95" y2="291.88" gradientTransform="translate(-502.56 -303.19) scale(1.13 1)" xlink:href="#linear-gradient-2"/><linearGradient id="linear-gradient-8" x1="1150.79" y1="1055.81" x2="2146.74" y2="386.85" gradientTransform="translate(-680.3 -405.81) scale(1.13 1)" xlink:href="#linear-gradient-2"/><linearGradient id="linear-gradient-9" x1="1214.58" y1="1150.78" x2="2210.53" y2="481.81" gradientTransform="translate(-858.04 -508.43) scale(1.13 1)" xlink:href="#linear-gradient-2"/></defs><title>Artboard 1</title><g class="cls-3"><rect class="cls-4" width="1920" height="851.1"/><g class="cls-5"><rect class="cls-6" x="1327.07" y="339.02" width="815.42" height="56.28" transform="translate(2920.13 -951.62) rotate(120)"/><rect class="cls-7" x="1187.9" y="292.83" width="922.09" height="56.28" transform="translate(2751.39 -946.58) rotate(120)"/><rect class="cls-8" x="1069.41" y="292.83" width="922.09" height="56.28" transform="translate(2573.65 -843.96) rotate(120)"/><rect class="cls-9" x="950.92" y="292.83" width="922.09" height="56.28" transform="translate(2395.91 -741.34) rotate(120)"/><rect class="cls-10" x="832.42" y="292.83" width="922.09" height="56.28" transform="translate(2218.17 -638.72) rotate(120)"/><rect class="cls-11" x="713.93" y="292.83" width="922.09" height="56.28" transform="translate(2040.43 -536.11) rotate(120)"/><rect class="cls-12" x="595.43" y="292.83" width="922.09" height="56.28" transform="translate(1862.69 -433.49) rotate(120)"/></g></g></svg>