<svg xmlns="http://www.w3.org/2000/svg" width="20" height="20" viewBox="0 0 100 100" xml:space="preserve"><path fill-rule="evenodd" clip-rule="evenodd" d="M100 18.388a40.06 40.06 0 0 1-11.78 3.292 20.942 20.942 0 0 0 9.02-11.561 40.51 40.51 0 0 1-13.028 5.07c-3.742-4.055-9.077-6.594-14.983-6.594-11.326 0-20.51 9.36-20.51 20.896 0 1.638.172 3.241.527 4.765-17.055-.871-32.178-9.189-42.29-21.837a21.086 21.086 0 0 0-2.778 10.505c0 7.249 3.617 13.654 9.121 17.403a20.178 20.178 0 0 1-9.296-2.608v.26c0 10.138 7.076 18.577 16.463 20.507a19.99 19.99 0 0 1-9.26.355c2.614 8.304 10.185 14.356 19.173 14.517-7.026 5.61-15.871 8.956-25.486 8.956-1.655 0-3.297-.115-4.894-.295 9.085 5.932 19.872 9.392 31.456 9.392 37.739 0 58.377-31.853 58.377-59.479 0-.906-.018-1.809-.065-2.703A41.63 41.63 0 0 0 100 18.388z"/></svg>