<svg version="1.1" id="Layer_1" xmlns="http://www.w3.org/2000/svg" x="0" y="0" viewBox="0 0 30 30" style="enable-background:new 0 0 30 30" xml:space="preserve"><style>.st1{fill:#fff}.st2,.st3,.st4,.st5{fill:none;stroke:#231f20;stroke-miterlimit:10}.st3,.st4,.st5{stroke-width:1.2094}.st4,.st5{stroke-width:2}.st5{stroke-width:.9701}</style><path d="M19.2 18.9c-1.1 0-2.1.6-2.6 1.5l-9.1-4.1c.2-.4.2-.8.2-1.2s-.1-.8-.2-1.2l9.1-4.1c.5.9 1.5 1.5 2.6 1.5 1.7 0 3-1.3 3-3s-1.3-3-3-3-3 1.3-3 3v.4L6.8 13c-.5-.5-1.3-.8-2.1-.8-1.7 0-3 1.3-3 3s1.3 3 3 3c.8 0 1.5-.3 2.1-.8l9.4 4.3v.4c0 1.7 1.3 3 3 3s3-1.3 3-3-1.3-3.2-3-3.2zm0-12.6c1.1 0 1.9.9 1.9 1.9s-.9 1.9-1.9 1.9-1.9-.9-1.9-1.9.9-1.9 1.9-1.9zM4.8 17c-1.1 0-1.9-.9-1.9-1.9s.9-1.9 1.9-1.9c.3 0 .7.1.9.3.4.2.7.5.8.9.1.2.1.5.1.7s-.1.5-.1.7c-.2.4-.5.7-.8.9-.2.2-.6.3-.9.3zm14.4 6.9c-1.1 0-1.9-.9-1.9-1.9s.9-1.9 1.9-1.9 1.9.9 1.9 1.9-.8 1.9-1.9 1.9z" style="fill:#231f20"/></svg>