<svg xmlns="http://www.w3.org/2000/svg" width="22" height="22" viewBox="0 0 100 100" xml:space="preserve"><path fill-rule="evenodd" clip-rule="evenodd" d="M1.279 97.917h21.429V33.253H1.279v64.664zM75.304 31.74c-11.388 0-16.458 6.276-19.321 10.681v.222h-.121c.029-.084.092-.147.121-.222v-9.164H34.558c.288 6.066 0 64.656 0 64.656h21.421V61.801c0-1.916.171-3.86.733-5.248 1.563-3.852 5.063-7.856 10.996-7.856 7.758 0 10.85 5.912 10.85 14.614v34.605H100V60.845c0-19.865-10.562-29.104-24.696-29.105zM12.129 2.083C4.8 2.083 0 6.906 0 13.266c0 6.19 4.659 11.173 11.854 11.173h.129c7.492 0 12.133-4.983 12.133-11.173-.145-6.36-4.641-11.183-11.987-11.183z"/></svg>