<?xml version="1.0" encoding="utf-8"?>
<!-- Generator: Adobe Illustrator 22.1.0, SVG Export Plug-In . SVG Version: 6.00 Build 0)  -->
<svg version="1.1" id="Layer_1" xmlns="http://www.w3.org/2000/svg" xmlns:xlink="http://www.w3.org/1999/xlink" x="0px" y="0px"
	 viewBox="0 0 1920 833" style="enable-background:new 0 0 1920 833;" xml:space="preserve">
<style type="text/css">
	.st0{clip-path:url(#SVGID_2_);fill:url(#SVGID_3_);}
	.st1{clip-path:url(#SVGID_2_);}
	.st2{fill:none;stroke:url(#SVGID_4_);stroke-miterlimit:10;}
	.st3{fill:none;stroke:url(#SVGID_5_);stroke-miterlimit:10;}
	.st4{fill:none;stroke:url(#SVGID_6_);stroke-miterlimit:10;}
	.st5{fill:none;stroke:url(#SVGID_7_);stroke-miterlimit:10;}
	.st6{fill:none;stroke:url(#SVGID_8_);stroke-miterlimit:10;}
	.st7{fill:none;stroke:url(#SVGID_9_);stroke-miterlimit:10;}
	.st8{fill:none;stroke:url(#SVGID_10_);stroke-miterlimit:10;}
	.st9{fill:none;stroke:url(#SVGID_11_);stroke-miterlimit:10;}
	.st10{fill:none;stroke:url(#SVGID_12_);stroke-miterlimit:10;}
	.st11{fill:none;stroke:url(#SVGID_13_);stroke-miterlimit:10;}
	.st12{fill:none;stroke:url(#SVGID_14_);stroke-miterlimit:10;}
	.st13{fill:none;stroke:url(#SVGID_15_);stroke-miterlimit:10;}
	.st14{fill:none;stroke:url(#SVGID_16_);stroke-miterlimit:10;}
	.st15{fill:none;stroke:url(#SVGID_17_);stroke-miterlimit:10;}
	.st16{fill:none;stroke:url(#SVGID_18_);stroke-miterlimit:10;}
	.st17{fill:none;stroke:url(#SVGID_19_);stroke-miterlimit:10;}
	.st18{fill:none;stroke:url(#SVGID_20_);stroke-miterlimit:10;}
	.st19{fill:none;stroke:url(#SVGID_21_);stroke-miterlimit:10;}
	.st20{fill:none;stroke:url(#SVGID_22_);stroke-miterlimit:10;}
	.st21{fill:none;stroke:url(#SVGID_23_);stroke-miterlimit:10;}
	.st22{fill:none;stroke:url(#SVGID_24_);stroke-miterlimit:10;}
	.st23{fill:none;stroke:url(#SVGID_25_);stroke-miterlimit:10;}
</style>
<g>
	<defs>
		<polygon id="SVGID_1_" points="1920,784 1920,0 0,0 0,668.3 		"/>
	</defs>
	<clipPath id="SVGID_2_">
		<use xlink:href="#SVGID_1_"  style="overflow:visible;"/>
	</clipPath>
	<linearGradient id="SVGID_3_" gradientUnits="userSpaceOnUse" x1="1114.2368" y1="734.7402" x2="395.1357" y2="-1132.9253">
		<stop  offset="0" style="stop-color:#4E253E"/>
		<stop  offset="0.4843" style="stop-color:#362D8F"/>
		<stop  offset="1" style="stop-color:#4E253E"/>
	</linearGradient>
	<polygon class="st0" points="1920,784 1920,0 0,0 0,668.3 	"/>
	<g class="st1">
		
			<linearGradient id="SVGID_4_" gradientUnits="userSpaceOnUse" x1="711.6904" y1="-1101.0608" x2="1768.1127" y2="311.0682" gradientTransform="matrix(-1 0 0 1 1920 0)">
			<stop  offset="0" style="stop-color:#4E253E"/>
			<stop  offset="0.4843" style="stop-color:#363FB7"/>
			<stop  offset="1" style="stop-color:#4E253E"/>
		</linearGradient>
		<path class="st2" d="M-678.6-313.5c0,0,384.5,369,1150,204s1568.5-369,1568.5-369"/>
		
			<linearGradient id="SVGID_5_" gradientUnits="userSpaceOnUse" x1="711.6904" y1="-1055.3807" x2="1768.1127" y2="356.7483" gradientTransform="matrix(-1 0 0 1 1920 0)">
			<stop  offset="0" style="stop-color:#4E253E"/>
			<stop  offset="0.4843" style="stop-color:#363FB7"/>
			<stop  offset="1" style="stop-color:#4E253E"/>
		</linearGradient>
		<path class="st3" d="M-678.6-267.8c0,0,384.5,369,1150,204s1568.5-369,1568.5-369"/>
		
			<linearGradient id="SVGID_6_" gradientUnits="userSpaceOnUse" x1="711.6904" y1="-1009.7006" x2="1768.1127" y2="402.4284" gradientTransform="matrix(-1 0 0 1 1920 0)">
			<stop  offset="0" style="stop-color:#4E253E"/>
			<stop  offset="0.4843" style="stop-color:#363FB7"/>
			<stop  offset="1" style="stop-color:#4E253E"/>
		</linearGradient>
		<path class="st4" d="M-678.6-222.2c0,0,384.5,369,1150,204s1568.5-369,1568.5-369"/>
		
			<linearGradient id="SVGID_7_" gradientUnits="userSpaceOnUse" x1="711.6904" y1="-964.0204" x2="1768.1127" y2="448.1086" gradientTransform="matrix(-1 0 0 1 1920 0)">
			<stop  offset="0" style="stop-color:#4E253E"/>
			<stop  offset="0.4843" style="stop-color:#363FB7"/>
			<stop  offset="1" style="stop-color:#4E253E"/>
		</linearGradient>
		<path class="st5" d="M-678.6-176.5c0,0,384.5,369,1150,204s1568.5-369,1568.5-369"/>
		
			<linearGradient id="SVGID_8_" gradientUnits="userSpaceOnUse" x1="711.6904" y1="-918.3403" x2="1768.1127" y2="493.7887" gradientTransform="matrix(-1 0 0 1 1920 0)">
			<stop  offset="0" style="stop-color:#4E253E"/>
			<stop  offset="0.4843" style="stop-color:#363FB7"/>
			<stop  offset="1" style="stop-color:#4E253E"/>
		</linearGradient>
		<path class="st6" d="M-678.6-130.8c0,0,384.5,369,1150,204s1568.5-369,1568.5-369"/>
		
			<linearGradient id="SVGID_9_" gradientUnits="userSpaceOnUse" x1="711.6904" y1="-872.6602" x2="1768.1127" y2="539.4688" gradientTransform="matrix(-1 0 0 1 1920 0)">
			<stop  offset="0" style="stop-color:#4E253E"/>
			<stop  offset="0.4843" style="stop-color:#363FB7"/>
			<stop  offset="1" style="stop-color:#4E253E"/>
		</linearGradient>
		<path class="st7" d="M-678.6-85.1c0,0,384.5,369,1150,204s1568.5-369,1568.5-369"/>
		
			<linearGradient id="SVGID_10_" gradientUnits="userSpaceOnUse" x1="711.6904" y1="-826.98" x2="1768.1127" y2="585.1489" gradientTransform="matrix(-1 0 0 1 1920 0)">
			<stop  offset="0" style="stop-color:#4E253E"/>
			<stop  offset="0.4843" style="stop-color:#363FB7"/>
			<stop  offset="1" style="stop-color:#4E253E"/>
		</linearGradient>
		<path class="st8" d="M-678.6-39.4c0,0,384.5,369,1150,204s1568.5-369,1568.5-369"/>
		
			<linearGradient id="SVGID_11_" gradientUnits="userSpaceOnUse" x1="711.6904" y1="-781.2999" x2="1768.1127" y2="630.829" gradientTransform="matrix(-1 0 0 1 1920 0)">
			<stop  offset="0" style="stop-color:#4E253E"/>
			<stop  offset="0.4843" style="stop-color:#363FB7"/>
			<stop  offset="1" style="stop-color:#4E253E"/>
		</linearGradient>
		<path class="st9" d="M-678.6,6.2c0,0,384.5,369,1150,204s1568.5-369,1568.5-369"/>
		
			<linearGradient id="SVGID_12_" gradientUnits="userSpaceOnUse" x1="711.6904" y1="-735.6198" x2="1768.1127" y2="676.5092" gradientTransform="matrix(-1 0 0 1 1920 0)">
			<stop  offset="0" style="stop-color:#4E253E"/>
			<stop  offset="0.4843" style="stop-color:#363FB7"/>
			<stop  offset="1" style="stop-color:#4E253E"/>
		</linearGradient>
		<path class="st10" d="M-678.6,51.9c0,0,384.5,369,1150,204s1568.5-369,1568.5-369"/>
		
			<linearGradient id="SVGID_13_" gradientUnits="userSpaceOnUse" x1="711.6904" y1="-689.9397" x2="1768.1127" y2="722.1893" gradientTransform="matrix(-1 0 0 1 1920 0)">
			<stop  offset="0" style="stop-color:#4E253E"/>
			<stop  offset="0.4843" style="stop-color:#363FB7"/>
			<stop  offset="1" style="stop-color:#4E253E"/>
		</linearGradient>
		<path class="st11" d="M-678.6,97.6c0,0,384.5,369,1150,204s1568.5-369,1568.5-369"/>
		
			<linearGradient id="SVGID_14_" gradientUnits="userSpaceOnUse" x1="711.6904" y1="-644.2596" x2="1768.1127" y2="767.8694" gradientTransform="matrix(-1 0 0 1 1920 0)">
			<stop  offset="0" style="stop-color:#4E253E"/>
			<stop  offset="0.4843" style="stop-color:#363FB7"/>
			<stop  offset="1" style="stop-color:#4E253E"/>
		</linearGradient>
		<path class="st12" d="M-678.6,143.3c0,0,384.5,369,1150,204s1568.5-369,1568.5-369"/>
		
			<linearGradient id="SVGID_15_" gradientUnits="userSpaceOnUse" x1="711.6904" y1="-598.5795" x2="1768.1127" y2="813.5496" gradientTransform="matrix(-1 0 0 1 1920 0)">
			<stop  offset="0" style="stop-color:#4E253E"/>
			<stop  offset="0.4843" style="stop-color:#363FB7"/>
			<stop  offset="1" style="stop-color:#4E253E"/>
		</linearGradient>
		<path class="st13" d="M-678.6,189c0,0,384.5,369,1150,204S2039.9,24,2039.9,24"/>
		
			<linearGradient id="SVGID_16_" gradientUnits="userSpaceOnUse" x1="711.6904" y1="-552.8993" x2="1768.1127" y2="859.2297" gradientTransform="matrix(-1 0 0 1 1920 0)">
			<stop  offset="0" style="stop-color:#4E253E"/>
			<stop  offset="0.4843" style="stop-color:#363FB7"/>
			<stop  offset="1" style="stop-color:#4E253E"/>
		</linearGradient>
		<path class="st14" d="M-678.6,234.6c0,0,384.5,369,1150,204s1568.5-369,1568.5-369"/>
		
			<linearGradient id="SVGID_17_" gradientUnits="userSpaceOnUse" x1="711.6904" y1="-507.2192" x2="1768.1127" y2="904.9098" gradientTransform="matrix(-1 0 0 1 1920 0)">
			<stop  offset="0" style="stop-color:#4E253E"/>
			<stop  offset="0.4843" style="stop-color:#363FB7"/>
			<stop  offset="1" style="stop-color:#4E253E"/>
		</linearGradient>
		<path class="st15" d="M-678.6,280.3c0,0,384.5,369,1150,204s1568.5-369,1568.5-369"/>
		
			<linearGradient id="SVGID_18_" gradientUnits="userSpaceOnUse" x1="711.6904" y1="-461.5391" x2="1768.1127" y2="950.5899" gradientTransform="matrix(-1 0 0 1 1920 0)">
			<stop  offset="0" style="stop-color:#4E253E"/>
			<stop  offset="0.4843" style="stop-color:#363FB7"/>
			<stop  offset="1" style="stop-color:#4E253E"/>
		</linearGradient>
		<path class="st16" d="M-678.6,326c0,0,384.5,369,1150,204s1568.5-369,1568.5-369"/>
		
			<linearGradient id="SVGID_19_" gradientUnits="userSpaceOnUse" x1="711.6904" y1="-415.8589" x2="1768.1127" y2="996.27" gradientTransform="matrix(-1 0 0 1 1920 0)">
			<stop  offset="0" style="stop-color:#4E253E"/>
			<stop  offset="0.4843" style="stop-color:#363FB7"/>
			<stop  offset="1" style="stop-color:#4E253E"/>
		</linearGradient>
		<path class="st17" d="M-678.6,371.7c0,0,384.5,369,1150,204s1568.5-369,1568.5-369"/>
		
			<linearGradient id="SVGID_20_" gradientUnits="userSpaceOnUse" x1="711.6904" y1="-370.1788" x2="1768.1127" y2="1041.9502" gradientTransform="matrix(-1 0 0 1 1920 0)">
			<stop  offset="0" style="stop-color:#4E253E"/>
			<stop  offset="0.4843" style="stop-color:#363FB7"/>
			<stop  offset="1" style="stop-color:#4E253E"/>
		</linearGradient>
		<path class="st18" d="M-678.6,417.4c0,0,384.5,369,1150,204s1568.5-369,1568.5-369"/>
		
			<linearGradient id="SVGID_21_" gradientUnits="userSpaceOnUse" x1="711.6904" y1="-324.4987" x2="1768.1127" y2="1087.6302" gradientTransform="matrix(-1 0 0 1 1920 0)">
			<stop  offset="0" style="stop-color:#4E253E"/>
			<stop  offset="0.4843" style="stop-color:#363FB7"/>
			<stop  offset="1" style="stop-color:#4E253E"/>
		</linearGradient>
		<path class="st19" d="M-678.6,463c0,0,384.5,369,1150,204s1568.5-369,1568.5-369"/>
		
			<linearGradient id="SVGID_22_" gradientUnits="userSpaceOnUse" x1="711.6904" y1="-278.8186" x2="1768.1127" y2="1133.3104" gradientTransform="matrix(-1 0 0 1 1920 0)">
			<stop  offset="0" style="stop-color:#4E253E"/>
			<stop  offset="0.4843" style="stop-color:#363FB7"/>
			<stop  offset="1" style="stop-color:#4E253E"/>
		</linearGradient>
		<path class="st20" d="M-678.6,508.7c0,0,384.5,369,1150,204s1568.5-369,1568.5-369"/>
		
			<linearGradient id="SVGID_23_" gradientUnits="userSpaceOnUse" x1="711.6904" y1="-233.1385" x2="1768.1127" y2="1178.9905" gradientTransform="matrix(-1 0 0 1 1920 0)">
			<stop  offset="0" style="stop-color:#4E253E"/>
			<stop  offset="0.4843" style="stop-color:#363FB7"/>
			<stop  offset="1" style="stop-color:#4E253E"/>
		</linearGradient>
		<path class="st21" d="M-678.6,554.4c0,0,384.5,369,1150,204s1568.5-369,1568.5-369"/>
		
			<linearGradient id="SVGID_24_" gradientUnits="userSpaceOnUse" x1="711.6904" y1="-187.4583" x2="1768.1127" y2="1224.6707" gradientTransform="matrix(-1 0 0 1 1920 0)">
			<stop  offset="0" style="stop-color:#4E253E"/>
			<stop  offset="0.4843" style="stop-color:#363FB7"/>
			<stop  offset="1" style="stop-color:#4E253E"/>
		</linearGradient>
		<path class="st22" d="M-678.6,600.1c0,0,384.5,369,1150,204s1568.5-369,1568.5-369"/>
		
			<linearGradient id="SVGID_25_" gradientUnits="userSpaceOnUse" x1="711.6904" y1="-141.7782" x2="1768.1127" y2="1270.3508" gradientTransform="matrix(-1 0 0 1 1920 0)">
			<stop  offset="0" style="stop-color:#4E253E"/>
			<stop  offset="0.4843" style="stop-color:#363FB7"/>
			<stop  offset="1" style="stop-color:#4E253E"/>
		</linearGradient>
		<path class="st23" d="M-678.6,645.8c0,0,384.5,369,1150,204s1568.5-369,1568.5-369"/>
	</g>
</g>
</svg>
