<svg xmlns="http://www.w3.org/2000/svg" viewBox="0 0 1920 713" style="enable-background:new 0 0 1920 713" xml:space="preserve"><path d="M0 0v686.3c691.4-64.7 1332.7-88.6 1920-87.8V0H0z" style="fill:#111c22"/><linearGradient id="a" gradientUnits="userSpaceOnUse" x1="-.025" y1="528.705" x2="1920.008" y2="528.705"><stop offset="0" style="stop-color:#072330"/><stop offset=".52" style="stop-color:#28414d"/><stop offset=".805" style="stop-color:#2c4450"/><stop offset="1" style="stop-color:#001c2a"/></linearGradient><path d="M0 464.1s1493 118.8 1920 129.3" style="fill:none;stroke:url(#a);stroke-width:.6334;stroke-miterlimit:10"/><linearGradient id="b" gradientUnits="userSpaceOnUse" x1="-.022" y1="508.015" x2="1920.008" y2="508.015"><stop offset="0" style="stop-color:#072330"/><stop offset=".52" style="stop-color:#28414d"/><stop offset=".805" style="stop-color:#2c4450"/><stop offset="1" style="stop-color:#001c2a"/></linearGradient><path d="M0 450.9s1493 103.8 1920 114.2" style="fill:none;stroke:url(#b);stroke-width:.6334;stroke-miterlimit:10"/><linearGradient id="c" gradientUnits="userSpaceOnUse" x1="-.019" y1="487.325" x2="1920.008" y2="487.325"><stop offset="0" style="stop-color:#072330"/><stop offset=".52" style="stop-color:#28414d"/><stop offset=".805" style="stop-color:#2c4450"/><stop offset="1" style="stop-color:#001c2a"/></linearGradient><path d="M0 437.7s1493 88.7 1920 99.2" style="fill:none;stroke:url(#c);stroke-width:.6334;stroke-miterlimit:10"/><linearGradient id="d" gradientUnits="userSpaceOnUse" x1="-.016" y1="466.636" x2="1920.008" y2="466.636"><stop offset="0" style="stop-color:#072330"/><stop offset=".52" style="stop-color:#28414d"/><stop offset=".805" style="stop-color:#2c4450"/><stop offset="1" style="stop-color:#001c2a"/></linearGradient><path d="M0 424.5s1493 73.7 1920 84.2" style="fill:none;stroke:url(#d);stroke-width:.6334;stroke-miterlimit:10"/><linearGradient id="e" gradientUnits="userSpaceOnUse" x1="-.012" y1="445.946" x2="1920.008" y2="445.946"><stop offset="0" style="stop-color:#072330"/><stop offset=".52" style="stop-color:#28414d"/><stop offset=".805" style="stop-color:#2c4450"/><stop offset="1" style="stop-color:#001c2a"/></linearGradient><path d="M0 411.4s1493 58.7 1920 69.2" style="fill:none;stroke:url(#e);stroke-width:.6334;stroke-miterlimit:10"/><linearGradient id="f" gradientUnits="userSpaceOnUse" x1="-.009" y1="425.257" x2="1920.008" y2="425.257"><stop offset="0" style="stop-color:#072330"/><stop offset=".52" style="stop-color:#28414d"/><stop offset=".805" style="stop-color:#2c4450"/><stop offset="1" style="stop-color:#001c2a"/></linearGradient><path d="M0 398.2s1493 43.6 1920 54.1" style="fill:none;stroke:url(#f);stroke-width:.6334;stroke-miterlimit:10"/><linearGradient id="g" gradientUnits="userSpaceOnUse" x1="-.006" y1="404.567" x2="1920.008" y2="404.567"><stop offset="0" style="stop-color:#072330"/><stop offset=".52" style="stop-color:#28414d"/><stop offset=".805" style="stop-color:#2c4450"/><stop offset="1" style="stop-color:#001c2a"/></linearGradient><path d="M0 385s1493 28.6 1920 39.1" style="fill:none;stroke:url(#g);stroke-width:.6334;stroke-miterlimit:10"/><linearGradient id="h" gradientUnits="userSpaceOnUse" x1="-.003" y1="383.877" x2="1920.008" y2="383.877"><stop offset="0" style="stop-color:#072330"/><stop offset=".52" style="stop-color:#28414d"/><stop offset=".805" style="stop-color:#2c4450"/><stop offset="1" style="stop-color:#001c2a"/></linearGradient><path d="M0 371.8s1493 13.6 1920 24.1" style="fill:none;stroke:url(#h);stroke-width:.6334;stroke-miterlimit:10"/><linearGradient id="i" gradientUnits="userSpaceOnUse" x1="0" y1="363.154" x2="1920.008" y2="363.154"><stop offset="0" style="stop-color:#072330"/><stop offset=".52" style="stop-color:#28414d"/><stop offset=".805" style="stop-color:#2c4450"/><stop offset="1" style="stop-color:#001c2a"/></linearGradient><path d="M0 358.7s1493-1.4 1920 9" style="fill:none;stroke:url(#i);stroke-width:.6334;stroke-miterlimit:10"/><linearGradient id="j" gradientUnits="userSpaceOnUse" x1="-.003" y1="340.754" x2="1920.008" y2="340.754"><stop offset="0" style="stop-color:#072330"/><stop offset=".52" style="stop-color:#28414d"/><stop offset=".805" style="stop-color:#2c4450"/><stop offset="1" style="stop-color:#001c2a"/></linearGradient><path d="M0 345.5s1493-16.5 1920-6" style="fill:none;stroke:url(#j);stroke-width:.6334;stroke-miterlimit:10"/><linearGradient id="k" gradientUnits="userSpaceOnUse" x1="-.007" y1="320.741" x2="1920.008" y2="320.741"><stop offset="0" style="stop-color:#072330"/><stop offset=".52" style="stop-color:#28414d"/><stop offset=".805" style="stop-color:#2c4450"/><stop offset="1" style="stop-color:#001c2a"/></linearGradient><path d="M0 332.3s1493-31.5 1920-21" style="fill:none;stroke:url(#k);stroke-width:.6334;stroke-miterlimit:10"/><linearGradient id="l" gradientUnits="userSpaceOnUse" x1="-.01" y1="300.35" x2="1920.008" y2="300.35"><stop offset="0" style="stop-color:#072330"/><stop offset=".52" style="stop-color:#28414d"/><stop offset=".805" style="stop-color:#2c4450"/><stop offset="1" style="stop-color:#001c2a"/></linearGradient><path d="M0 319.1s1493-46.5 1920-36.1" style="fill:none;stroke:url(#l);stroke-width:.6334;stroke-miterlimit:10"/><linearGradient id="m" gradientUnits="userSpaceOnUse" x1="-.013" y1="279.829" x2="1920.008" y2="279.829"><stop offset="0" style="stop-color:#072330"/><stop offset=".52" style="stop-color:#28414d"/><stop offset=".805" style="stop-color:#2c4450"/><stop offset="1" style="stop-color:#001c2a"/></linearGradient><path d="M0 306s1493-61.6 1920-51.1" style="fill:none;stroke:url(#m);stroke-width:.6334;stroke-miterlimit:10"/><linearGradient id="n" gradientUnits="userSpaceOnUse" x1="-.016" y1="259.247" x2="1920.008" y2="259.247"><stop offset="0" style="stop-color:#072330"/><stop offset=".52" style="stop-color:#28414d"/><stop offset=".805" style="stop-color:#2c4450"/><stop offset="1" style="stop-color:#001c2a"/></linearGradient><path d="M0 292.8s1493-76.6 1920-66.1" style="fill:none;stroke:url(#n);stroke-width:.6334;stroke-miterlimit:10"/><linearGradient id="o" gradientUnits="userSpaceOnUse" x1="-.019" y1="238.632" x2="1920.008" y2="238.632"><stop offset="0" style="stop-color:#072330"/><stop offset=".52" style="stop-color:#28414d"/><stop offset=".805" style="stop-color:#2c4450"/><stop offset="1" style="stop-color:#001c2a"/></linearGradient><path d="M0 279.6s1493-91.6 1920-81.2" style="fill:none;stroke:url(#o);stroke-width:.6334;stroke-miterlimit:10"/><linearGradient id="p" gradientUnits="userSpaceOnUse" x1="-.023" y1="217.998" x2="1920.008" y2="217.998"><stop offset="0" style="stop-color:#072330"/><stop offset=".52" style="stop-color:#28414d"/><stop offset=".805" style="stop-color:#2c4450"/><stop offset="1" style="stop-color:#001c2a"/></linearGradient><path d="M0 266.5s1493-106.7 1920-96.2" style="fill:none;stroke:url(#p);stroke-width:.6334;stroke-miterlimit:10"/><linearGradient id="q" gradientUnits="userSpaceOnUse" x1="-.026" y1="197.35" x2="1920.008" y2="197.35"><stop offset="0" style="stop-color:#072330"/><stop offset=".52" style="stop-color:#28414d"/><stop offset=".805" style="stop-color:#2c4450"/><stop offset="1" style="stop-color:#001c2a"/></linearGradient><path d="M0 253.3s1493-121.7 1920-111.2" style="fill:none;stroke:url(#q);stroke-width:.6334;stroke-miterlimit:10"/><linearGradient id="r" gradientUnits="userSpaceOnUse" x1="-.029" y1="176.694" x2="1920.008" y2="176.694"><stop offset="0" style="stop-color:#072330"/><stop offset=".52" style="stop-color:#28414d"/><stop offset=".805" style="stop-color:#2c4450"/><stop offset="1" style="stop-color:#001c2a"/></linearGradient><path d="M0 240.1s1493-136.7 1920-126.2" style="fill:none;stroke:url(#r);stroke-width:.6334;stroke-miterlimit:10"/><linearGradient id="s" gradientUnits="userSpaceOnUse" x1="-.032" y1="156.031" x2="1920.008" y2="156.031"><stop offset="0" style="stop-color:#072330"/><stop offset=".52" style="stop-color:#28414d"/><stop offset=".805" style="stop-color:#2c4450"/><stop offset="1" style="stop-color:#001c2a"/></linearGradient><path d="M0 226.9S1493 75.1 1920 85.6" style="fill:none;stroke:url(#s);stroke-width:.6334;stroke-miterlimit:10"/><linearGradient id="t" gradientUnits="userSpaceOnUse" x1="-.035" y1="135.364" x2="1920.008" y2="135.364"><stop offset="0" style="stop-color:#072330"/><stop offset=".52" style="stop-color:#28414d"/><stop offset=".805" style="stop-color:#2c4450"/><stop offset="1" style="stop-color:#001c2a"/></linearGradient><path d="M0 213.8S1493 47 1920 57.5" style="fill:none;stroke:url(#t);stroke-width:.6334;stroke-miterlimit:10"/><linearGradient id="u" gradientUnits="userSpaceOnUse" x1="-.038" y1="114.693" x2="1920.008" y2="114.693"><stop offset="0" style="stop-color:#072330"/><stop offset=".52" style="stop-color:#28414d"/><stop offset=".805" style="stop-color:#2c4450"/><stop offset="1" style="stop-color:#001c2a"/></linearGradient><path d="M0 200.6S1493 18.8 1920 29.3" style="fill:none;stroke:url(#u);stroke-width:.6334;stroke-miterlimit:10"/><linearGradient id="v" gradientUnits="userSpaceOnUse" x1="-.041" y1="94.02" x2="1920.008" y2="94.02"><stop offset="0" style="stop-color:#072330"/><stop offset=".52" style="stop-color:#28414d"/><stop offset=".805" style="stop-color:#2c4450"/><stop offset="1" style="stop-color:#001c2a"/></linearGradient><path d="M0 187.4S1493-9.4 1920 1" style="fill:none;stroke:url(#v);stroke-width:.6334;stroke-miterlimit:10"/><linearGradient id="w" gradientUnits="userSpaceOnUse" x1="631.847" y1="616.933" x2="1960.781" y2="232.953"><stop offset="0" style="stop-color:#072330"/><stop offset=".568" style="stop-color:#1d3743"/><stop offset="1" style="stop-color:#001c2a"/></linearGradient><path d="M0 450.9s1493 103.8 1920 114.2v28.2C1493 582.9 0 464.1 0 464.1v-13.2z" style="fill:url(#w)"/><linearGradient id="x" gradientUnits="userSpaceOnUse" x1="582.191" y1="445.075" x2="1911.124" y2="61.094"><stop offset="0" style="stop-color:#072330"/><stop offset=".568" style="stop-color:#1d3743"/><stop offset="1" style="stop-color:#001c2a"/></linearGradient><path d="M1920 311.3c-427-10.5-1920 21-1920 21v13.2s1493-16.5 1920-6v-28.2z" style="fill:url(#x)"/><linearGradient id="y" gradientUnits="userSpaceOnUse" x1="549.086" y1="330.502" x2="1878.02" y2="-53.478"><stop offset="0" style="stop-color:#072330"/><stop offset=".568" style="stop-color:#1d3743"/><stop offset="1" style="stop-color:#001c2a"/></linearGradient><path d="M0 253.3s1493-121.7 1920-111.2v28.2C1493 159.8 0 266.5 0 266.5v-13.2z" style="fill:url(#y)"/></svg>