<svg xmlns="http://www.w3.org/2000/svg" xmlns:xlink="http://www.w3.org/1999/xlink" xml:space="preserve" style="enable-background:new 0 0 1920 833" viewBox="0 0 1920 833"><linearGradient id="a" x1="1190.562" x2="688.087" y1="1070.608" y2="-408.318" gradientUnits="userSpaceOnUse"><stop offset="0" style="stop-color:#005ad4"/><stop offset=".425" style="stop-color:#0035aa"/><stop offset="1" style="stop-color:#0a002a"/></linearGradient><path d="M1920 784V0H0v784s463.6 139.1 1005.1-118.9C1554.7 403.2 1920 784 1920 784z" style="fill:url(#a)"/><defs><path id="b" d="M1920 784V0H0v784s463.6 139.1 1005.1-118.9C1554.7 403.2 1920 784 1920 784z"/></defs><clipPath id="c"><use xlink:href="#b" style="overflow:visible"/></clipPath><g style="clip-path:url(#c)"><linearGradient id="d" x1="1059.426" x2="860.598" y1="1136.487" y2="551.278" gradientUnits="userSpaceOnUse"><stop offset="0" style="stop-color:#005ad4"/><stop offset=".425" style="stop-color:#0035aa"/><stop offset="1" style="stop-color:#0a002a"/></linearGradient><path d="M1920 844S1489.6 104.1 914.9 725.1C501.4 1171.9 0 844 0 844" style="fill:none;stroke:url(#d);stroke-miterlimit:10"/><linearGradient id="e" x1="1059.443" x2="860.597" y1="1091.653" y2="506.393" gradientUnits="userSpaceOnUse"><stop offset="0" style="stop-color:#005ad4"/><stop offset=".425" style="stop-color:#0035aa"/><stop offset="1" style="stop-color:#0a002a"/></linearGradient><path d="M1920 799.1s-436-669-1005.1-118.9C503.8 1077.6 0 799.1 0 799.1" style="fill:none;stroke:url(#e);stroke-miterlimit:10"/><linearGradient id="f" x1="1059.461" x2="860.598" y1="1046.821" y2="461.508" gradientUnits="userSpaceOnUse"><stop offset="0" style="stop-color:#005ad4"/><stop offset=".425" style="stop-color:#0035aa"/><stop offset="1" style="stop-color:#0a002a"/></linearGradient><path d="M1920 754.3S1479 155.5 914.9 635.4C506.5 982.8 0 754.3 0 754.3" style="fill:none;stroke:url(#f);stroke-miterlimit:10"/><linearGradient id="g" x1="1059.482" x2="860.599" y1="1001.991" y2="416.622" gradientUnits="userSpaceOnUse"><stop offset="0" style="stop-color:#005ad4"/><stop offset=".425" style="stop-color:#0035aa"/><stop offset="1" style="stop-color:#0a002a"/></linearGradient><path d="M1920 709.4S1474.7 180.1 914.9 590.5C509.7 887.6 0 709.4 0 709.4" style="fill:none;stroke:url(#g);stroke-miterlimit:10"/><linearGradient id="h" x1="1059.504" x2="860.602" y1="957.164" y2="371.738" gradientUnits="userSpaceOnUse"><stop offset="0" style="stop-color:#005ad4"/><stop offset=".425" style="stop-color:#0035aa"/><stop offset="1" style="stop-color:#0a002a"/></linearGradient><path d="M1920 664.6S1471.4 204.2 914.9 545.7C513.5 792 0 664.6 0 664.6" style="fill:none;stroke:url(#h);stroke-miterlimit:10"/><linearGradient id="i" x1="1059.526" x2="860.605" y1="912.34" y2="326.857" gradientUnits="userSpaceOnUse"><stop offset="0" style="stop-color:#005ad4"/><stop offset=".425" style="stop-color:#0035aa"/><stop offset="1" style="stop-color:#0a002a"/></linearGradient><path d="M1920 619.7S1469.4 227.8 914.9 500.8C518.2 696.1 0 619.7 0 619.7" style="fill:none;stroke:url(#i);stroke-miterlimit:10"/><linearGradient id="j" x1="1059.548" x2="860.607" y1="867.519" y2="281.979" gradientUnits="userSpaceOnUse"><stop offset="0" style="stop-color:#005ad4"/><stop offset=".425" style="stop-color:#0035aa"/><stop offset="1" style="stop-color:#0a002a"/></linearGradient><path d="M1920 574.9S1469.1 251.2 914.9 456C524 600.3 0 574.9 0 574.9" style="fill:none;stroke:url(#j);stroke-miterlimit:10"/><linearGradient id="k" x1="1059.567" x2="860.608" y1="822.702" y2="237.108" gradientUnits="userSpaceOnUse"><stop offset="0" style="stop-color:#005ad4"/><stop offset=".425" style="stop-color:#0035aa"/><stop offset="1" style="stop-color:#0a002a"/></linearGradient><path d="M1920 530S1470.7 275 914.9 411.1C531.1 505 0 530 0 530" style="fill:none;stroke:url(#k);stroke-miterlimit:10"/><linearGradient id="l" x1="1059.581" x2="860.605" y1="777.887" y2="192.243" gradientUnits="userSpaceOnUse"><stop offset="0" style="stop-color:#005ad4"/><stop offset=".425" style="stop-color:#0035aa"/><stop offset="1" style="stop-color:#0a002a"/></linearGradient><path d="M1920 485.2S1474 300 914.9 366.3C539.4 410.7 0 485.2 0 485.2" style="fill:none;stroke:url(#l);stroke-miterlimit:10"/><linearGradient id="m" x1="1059.588" x2="860.595" y1="733.076" y2="147.385" gradientUnits="userSpaceOnUse"><stop offset="0" style="stop-color:#005ad4"/><stop offset=".425" style="stop-color:#0035aa"/><stop offset="1" style="stop-color:#0a002a"/></linearGradient><path d="M1920 440.3S1478.7 326.8 914.9 321.4C548.6 317.9 0 440.3 0 440.3" style="fill:none;stroke:url(#m);stroke-miterlimit:10"/><linearGradient id="n" x1="1059.584" x2="860.578" y1="688.263" y2="102.533" gradientUnits="userSpaceOnUse"><stop offset="0" style="stop-color:#005ad4"/><stop offset=".425" style="stop-color:#0035aa"/><stop offset="1" style="stop-color:#0a002a"/></linearGradient><path d="M1920 395.4S1483.9 356 914.9 276.5C558 226.7 0 395.4 0 395.4" style="fill:none;stroke:url(#n);stroke-miterlimit:10"/><linearGradient id="o" x1="1059.554" x2="860.369" y1="643.448" y2="57.19" gradientUnits="userSpaceOnUse"><stop offset="0" style="stop-color:#005ad4"/><stop offset=".425" style="stop-color:#0035aa"/><stop offset="1" style="stop-color:#0a002a"/></linearGradient><path d="M1920 350.6s-431.4 37.2-1005.1-118.9C567.2 137 0 350.6 0 350.6" style="fill:none;stroke:url(#o);stroke-miterlimit:10"/><linearGradient id="p" x1="1059.502" x2="858.481" y1="598.625" y2="6.962" gradientUnits="userSpaceOnUse"><stop offset="0" style="stop-color:#005ad4"/><stop offset=".425" style="stop-color:#0035aa"/><stop offset="1" style="stop-color:#0a002a"/></linearGradient><path d="M1920 305.7S1491.9 421.8 914.9 186.8C575.6 48.6 0 305.7 0 305.7" style="fill:none;stroke:url(#p);stroke-miterlimit:10"/><linearGradient id="q" x1="1059.94" x2="855.278" y1="555.069" y2="-47.311" gradientUnits="userSpaceOnUse"><stop offset="0" style="stop-color:#005ad4"/><stop offset=".425" style="stop-color:#0035aa"/><stop offset="1" style="stop-color:#0a002a"/></linearGradient><path d="M1920 260.9S1493.4 457.4 914.9 142C582.9-39 0 260.9 0 260.9" style="fill:none;stroke:url(#q);stroke-miterlimit:10"/><linearGradient id="r" x1="1063.375" x2="851.335" y1="520.254" y2="-103.841" gradientUnits="userSpaceOnUse"><stop offset="0" style="stop-color:#005ad4"/><stop offset=".425" style="stop-color:#0035aa"/><stop offset="1" style="stop-color:#0a002a"/></linearGradient><path d="M1920 216S1493 493.6 914.9 97.1C589.1-126.4 0 216 0 216" style="fill:none;stroke:url(#r);stroke-miterlimit:10"/><linearGradient id="s" x1="1069.289" x2="846.901" y1="492.752" y2="-161.799" gradientUnits="userSpaceOnUse"><stop offset="0" style="stop-color:#005ad4"/><stop offset=".425" style="stop-color:#0035aa"/><stop offset="1" style="stop-color:#0a002a"/></linearGradient><path d="M1920 171.2s-429.3 359-1005.1-118.9C594.3-213.9 0 171.2 0 171.2" style="fill:none;stroke:url(#s);stroke-miterlimit:10"/><linearGradient id="t" x1="1076.623" x2="842.116" y1="469.45" y2="-220.771" gradientUnits="userSpaceOnUse"><stop offset="0" style="stop-color:#005ad4"/><stop offset=".425" style="stop-color:#0035aa"/><stop offset="1" style="stop-color:#0a002a"/></linearGradient><path d="M1920 126.3S1487 566.3 914.9 7.4C598.6-301.6 0 126.3 0 126.3" style="fill:none;stroke:url(#t);stroke-miterlimit:10"/><linearGradient id="u" x1="1084.775" x2="837.067" y1="448.568" y2="-280.51" gradientUnits="userSpaceOnUse"><stop offset="0" style="stop-color:#005ad4"/><stop offset=".425" style="stop-color:#0035aa"/><stop offset="1" style="stop-color:#0a002a"/></linearGradient><path d="M1920 81.5S1482.3 602.1 914.9-37.4C602.4-389.7 0 81.5 0 81.5" style="fill:none;stroke:url(#u);stroke-miterlimit:10"/><linearGradient id="v" x1="1093.416" x2="831.81" y1="429.133" y2="-340.847" gradientUnits="userSpaceOnUse"><stop offset="0" style="stop-color:#005ad4"/><stop offset=".425" style="stop-color:#0035aa"/><stop offset="1" style="stop-color:#0a002a"/></linearGradient><path d="M1920 36.6S1476.8 637.1 914.9-82.3C605.6-478.3 0 36.6 0 36.6" style="fill:none;stroke:url(#v);stroke-miterlimit:10"/><linearGradient id="w" x1="1102.361" x2="826.391" y1="410.601" y2="-401.657" gradientUnits="userSpaceOnUse"><stop offset="0" style="stop-color:#005ad4"/><stop offset=".425" style="stop-color:#0035aa"/><stop offset="1" style="stop-color:#0a002a"/></linearGradient><path d="M1920-8.2S1470.8 671.5 914.9-127.1C608.6-567.2 0-8.2 0-8.2" style="fill:none;stroke:url(#w);stroke-miterlimit:10"/><linearGradient id="x" x1="1111.505" x2="820.842" y1="392.657" y2="-462.845" gradientUnits="userSpaceOnUse"><stop offset="0" style="stop-color:#005ad4"/><stop offset=".425" style="stop-color:#0035aa"/><stop offset="1" style="stop-color:#0a002a"/></linearGradient><path d="M1920-53.1S1464.5 705.3 914.9-172C611.4-656.5 0-53.1 0-53.1" style="fill:none;stroke:url(#x);stroke-miterlimit:10"/><linearGradient id="y" x1="1120.783" x2="815.19" y1="375.114" y2="-524.334" gradientUnits="userSpaceOnUse"><stop offset="0" style="stop-color:#005ad4"/><stop offset=".425" style="stop-color:#0035aa"/><stop offset="1" style="stop-color:#0a002a"/></linearGradient><path d="M1920-98S1458.1 738.5 914.9-216.9C614-746.2 0-98 0-98" style="fill:none;stroke:url(#y);stroke-miterlimit:10"/></g></svg>