<?xml version="1.0" encoding="utf-8"?>
<!-- Generator: Adobe Illustrator 22.1.0, SVG Export Plug-In . SVG Version: 6.00 Build 0)  -->
<svg version="1.1" id="Layer_1" xmlns="http://www.w3.org/2000/svg" xmlns:xlink="http://www.w3.org/1999/xlink" x="0px" y="0px"
	 viewBox="0 0 1923.4 1210.9" style="enable-background:new 0 0 1923.4 1210.9;" xml:space="preserve">
<style type="text/css">
	.st0{fill-rule:evenodd;clip-rule:evenodd;fill:#F5F7FA;}
	.st1{fill:url(#SVGID_1_);}
	.st2{fill:url(#SVGID_2_);}
	.st3{fill:url(#SVGID_3_);}
	.st4{fill:url(#SVGID_4_);}
	.st5{fill:url(#SVGID_5_);}
</style>
<path class="st0" d="M1923.4,806.3v-760c-481.2-117.2-940.5,57.1-1209.2,248c-152,108-232.9,133.3-443,166.2
	C81.4,490.3,0,626.2,0,626.2v154.5v301.6c0,0,177,88.9,457-60s357.1-147,628.9-97.6C1666.2,1030.3,1923.4,806.3,1923.4,806.3z"/>
<g>
	
		<linearGradient id="SVGID_1_" gradientUnits="userSpaceOnUse" x1="1925.1439" y1="1120.3792" x2="2109.3308" y2="1079.0151" gradientTransform="matrix(-0.9937 -0.1124 -0.1124 0.9937 3967.657 223.7438)">
		<stop  offset="0" style="stop-color:#5F00E9"/>
		<stop  offset="1" style="stop-color:#0B002A"/>
	</linearGradient>
	<path class="st1" d="M1923.4,1048.9v108.3c0,0-92.9-139.4-224.4-43.1C1807.6,970.3,1923.4,1048.9,1923.4,1048.9z"/>
	
		<linearGradient id="SVGID_2_" gradientUnits="userSpaceOnUse" x1="2154.1597" y1="1114.4878" x2="2446.5149" y2="1114.4878" gradientTransform="matrix(-0.9937 -0.1124 -0.1124 0.9937 3967.657 223.7438)">
		<stop  offset="0" style="stop-color:#831092"/>
		<stop  offset="1" style="stop-color:#BF2A00"/>
	</linearGradient>
	<path class="st2" d="M1699,1114.2c-123.3,163.3-185.6-30.8-276.6-155.3c12.5,8.1,24.8,18.5,38.4,29.4
		C1592.1,1093.6,1597.8,1149,1699,1114.2z"/>
	
		<linearGradient id="SVGID_3_" gradientUnits="userSpaceOnUse" x1="2446.5149" y1="1107.7695" x2="2949.6699" y2="1107.7695" gradientTransform="matrix(-0.9937 -0.1124 -0.1124 0.9937 3967.657 223.7438)">
		<stop  offset="0" style="stop-color:#5F00E9"/>
		<stop  offset="1" style="stop-color:#0B002A"/>
	</linearGradient>
	<path class="st3" d="M1069.6,970.3c85.1-97.2,165.5-127,254.2-96.5c38,13,69.8,45.7,98.6,85.1c-216.9-140.1-318,203.6-529.3,202.7
		C966.2,1111.2,1022.4,1024.2,1069.6,970.3z"/>
	
		<linearGradient id="SVGID_4_" gradientUnits="userSpaceOnUse" x1="2949.6699" y1="937.158" x2="3931.697" y2="937.158" gradientTransform="matrix(-0.9937 -0.1124 -0.1124 0.9937 3967.657 223.7438)">
		<stop  offset="0" style="stop-color:#831092"/>
		<stop  offset="1" style="stop-color:#BF2A00"/>
	</linearGradient>
	<path class="st4" d="M757.5,1121.3c51.4,28.5,95.9,40.1,135.6,40.2c-52.4,36.1-114.5,54.3-190.6,28.6
		C427,1097.3,406.8,894.6,0,737.2V319.9C448.3,401.7,579.7,1022.9,757.5,1121.3z"/>
	<g>
		<linearGradient id="SVGID_5_" gradientUnits="userSpaceOnUse" x1="1914.9819" y1="1133.5079" x2="-22.6443" y2="914.2779">
			<stop  offset="0" style="stop-color:#FFFFFF"/>
			<stop  offset="0.2851" style="stop-color:#F5C4DE"/>
			<stop  offset="0.5172" style="stop-color:#FFFFFF"/>
			<stop  offset="0.7951" style="stop-color:#F0A7CE"/>
			<stop  offset="1" style="stop-color:#FFFFFF"/>
		</linearGradient>
		<path class="st5" d="M1922,1051c-2.4-1.6-5.2-3-7.9-4.4c-2.7-1.4-5.5-2.7-8.3-3.9c-5.6-2.4-11.4-4.5-17.3-6.1
			c-1.5-0.5-2.9-0.8-4.4-1.2c-1.5-0.4-3-0.8-4.5-1.1c-3-0.6-6-1.3-9-1.7c-6-1.1-12.1-1.5-18.2-1.8c-12.2-0.5-24.4,0.7-36.3,3.4
			c-11.9,2.7-23.4,6.9-34.4,12.3c-10.9,5.5-21.2,12.2-30.8,19.7l-7.1,5.8c-1.2,0.9-2.3,2-3.4,3l-3.4,3.1c-4.6,4-8.7,8.6-13,13
			c-0.5,0.6-1.1,1.1-1.6,1.7l-1.5,1.7l-3,3.5l-3,3.5c-1,1.2-2.1,2.3-3,3.5l-5.7,7.3c-1.9,2.4-3.8,4.8-5.7,7.4
			c-7.6,10.1-15.8,19.8-24.8,28.8c-9,9-19,17.3-30.4,23.7c-2.9,1.6-5.8,3.1-8.9,4.3c-1.5,0.7-3.1,1.2-4.6,1.8
			c-1.6,0.5-3.2,1.1-4.8,1.5c-3.2,0.9-6.5,1.6-9.9,2c-3.4,0.4-6.8,0.6-10.1,0.4c-6.8-0.2-13.5-1.7-19.8-3.9c-3.1-1.1-6.2-2.5-9.2-4
			c-2.9-1.5-5.8-3.2-8.6-4.9c-5.5-3.6-10.6-7.6-15.4-11.9c-4.8-4.3-9.3-8.8-13.6-13.6c-8.6-9.4-16.4-19.4-23.7-29.7
			c-7.3-10.2-14.3-20.7-21-31.3c-13.5-21.1-26.2-42.6-39.3-63.8c-13.1-21.2-26.4-42.1-41.1-62c-7.3-10-15-19.6-23.2-28.8
			c-8.2-9.2-16.9-17.9-26.3-25.7c-9.4-7.8-19.5-14.7-30.4-20l-2-1l-2.1-0.9c-1.4-0.6-2.8-1.2-4.2-1.8c-1.4-0.6-2.8-1.1-4.2-1.6
			l-4.4-1.4c-1.5-0.5-2.9-1-4.4-1.4l-4.4-1.3c-2.9-0.9-5.9-1.6-8.9-2.3c-23.8-5.8-48.8-6.7-72.9-2.5c-24.1,4.4-47.2,13.9-68.4,26.6
			c-21.2,12.7-40.5,28.5-58.4,45.7c-36,34.3-65.1,75.1-96.8,113.6c-15.8,19.3-32.1,38.3-49.6,56.2c-8.7,8.9-17.8,17.6-27.2,25.9
			c-9.4,8.3-19.2,16.1-29.4,23.4c-20.4,14.6-42.7,26.7-66.7,34.6c-23.9,7.9-49.4,11.2-74.6,9.4c-12.6-0.9-25.1-2.9-37.3-6
			c-3.1-0.8-6.1-1.7-9.1-2.5c-3-0.9-6-1.9-9-2.8l-17.7-6.3c-23.5-8.7-46.7-18.4-68.9-30c-22.3-11.5-43.9-24.3-64.6-38.4
			c-20.7-14.2-40.5-29.5-59.7-45.5c-38.5-32-74.5-66.6-111.7-99.8c-18.5-16.7-37.5-32.8-56.7-48.6l-14.5-11.7l-14.8-11.4
			c-2.5-1.9-4.9-3.8-7.4-5.7l-7.5-5.5c-5-3.7-10-7.4-15.1-11c-40.6-28.8-83-54.9-127-78.2l-16.6-8.5c-5.6-2.8-11.1-5.7-16.7-8.5
			l-16.9-8l-8.4-4c-2.8-1.3-5.6-2.7-8.5-3.9l-17.1-7.6l-8.5-3.8c-2.9-1.2-5.7-2.6-8.6-3.7l-34.5-14.3l0.6-1.6L35.2,750
			c2.9,1.1,5.8,2.4,8.6,3.6l8.6,3.7l17.2,7.3c2.9,1.2,5.7,2.5,8.6,3.8l8.5,3.9l17,7.8c11.3,5.4,22.4,11,33.6,16.5
			c44.5,22.8,87.4,48.7,128.4,77.3c5.1,3.6,10.1,7.3,15.2,11l7.6,5.5c2.5,1.9,5,3.8,7.5,5.7l14.9,11.4l14.7,11.7
			c19.4,15.7,38.5,31.9,57.1,48.6c18.7,16.6,37.1,33.4,55.5,50.2c18.4,16.8,37,33.4,56.1,49.3c19.1,15.9,38.7,31.2,59.1,45.4
			c20.5,14,41.7,26.9,63.7,38.4c21.9,11.7,44.8,21.4,68,30.3l17.5,6.4c2.9,1,5.9,1.9,8.8,2.9c3,0.8,5.9,1.7,8.9,2.5
			c11.9,3.1,24.1,5.2,36.4,6.1c24.6,2,49.5-1.1,73-8.6c5.9-1.9,11.7-4,17.4-6.4c5.7-2.4,11.3-5,16.8-7.9c11-5.7,21.5-12.2,31.6-19.4
			c10.1-7.1,19.9-14.9,29.2-23.1c9.4-8.2,18.3-16.8,27-25.7c17.4-17.8,33.6-36.7,49.3-56c15.7-19.3,30.9-39.1,46.5-58.6
			c15.6-19.5,32-38.5,50-56c9-8.7,18.3-17.1,28.1-25c9.8-7.9,20-15.3,30.7-21.9c21.4-13.2,45-23.4,70-28.2c24.9-4.7,50.9-4,75.6,1.7
			c3.1,0.7,6.2,1.4,9.2,2.3l4.6,1.3c1.5,0.4,3,0.9,4.5,1.4l4.5,1.4c1.5,0.5,3,1.1,4.5,1.6c1.5,0.6,3,1.2,4.5,1.8l2.2,1l2.2,1
			c11.6,5.5,22.3,12.6,32.2,20.6c9.9,8,19,16.9,27.5,26.2c8.5,9.3,16.5,19.1,24,29.2c15.1,20.1,28.8,41.1,42.1,62.3
			c13.3,21.1,26.2,42.5,39.7,63.4c6.7,10.4,13.6,20.7,20.9,30.7c7.3,10,14.8,19.7,23,28.7c8.2,9,17.1,17.3,27,23.8
			c5,3.2,10.1,6,15.6,8c5.4,2,11,3.2,16.7,3.5c2.8,0.1,5.7,0.1,8.5-0.3c2.8-0.3,5.7-0.8,8.5-1.6c5.6-1.4,11-3.8,16.2-6.5
			c10.4-5.7,19.9-13.3,28.7-21.8c8.7-8.5,16.8-17.8,24.4-27.5c1.9-2.4,3.9-4.9,5.8-7.3l5.9-7.4c1-1.3,2.1-2.4,3.1-3.6l3.2-3.5
			l3.2-3.5l1.6-1.8c0.5-0.6,1.1-1.1,1.7-1.7c4.5-4.5,8.8-9.1,13.6-13.2l3.5-3.2c1.2-1.1,2.3-2.1,3.6-3.1l7.4-5.9
			c10.2-7.6,20.9-14.5,32.4-20.1c11.5-5.5,23.6-9.7,36.1-12.4c12.5-2.6,25.3-3.7,38-3.1c6.4,0.4,12.7,1,19,2.2
			c6.3,1.1,12.4,2.6,18.5,4.5c6.1,1.8,12,4.1,17.8,6.7c2.9,1.3,5.8,2.7,8.6,4.1c2.8,1.5,5.5,3,8.3,4.9L1922,1051z"/>
	</g>
</g>
</svg>
