<svg version="1.1" id="Layer_1" xmlns="http://www.w3.org/2000/svg" x="0" y="0" viewBox="0 0 30 30" style="enable-background:new 0 0 30 30" xml:space="preserve"><style>.st0{fill:#111c22}</style><path class="st0" d="M6 13.3c.7 0 1.2.5 1.2 1.2s-.5 1.2-1.2 1.2-1.2-.5-1.2-1.2.6-1.2 1.2-1.2m0-.8c-1.1 0-2 .9-2 2s.9 2 2 2 2-.9 2-2-.9-2-2-2zM6 6.3c.7 0 1.2.5 1.2 1.2S6.7 8.7 6 8.7s-1.2-.5-1.2-1.2.6-1.2 1.2-1.2m0-.8c-1.1 0-2 .9-2 2s.9 2 2 2 2-.9 2-2-.9-2-2-2zM6 20.3c.7 0 1.2.5 1.2 1.2s-.5 1.2-1.2 1.2-1.2-.5-1.2-1.2.6-1.2 1.2-1.2m0-.8c-1.1 0-2 .9-2 2s.9 2 2 2 2-.9 2-2-.9-2-2-2zM25 14H11v1h14v-1zM25 21H11v1h14v-1zM25 7H11v1h14V7z"/><path style="fill:none" d="M0 0h30v30H0z"/></svg>