<?xml version="1.0" encoding="utf-8"?>
<!-- Generator: Adobe Illustrator 22.1.0, SVG Export Plug-In . SVG Version: 6.00 Build 0)  -->
<svg version="1.1" id="Isolation_Mode" xmlns="http://www.w3.org/2000/svg" xmlns:xlink="http://www.w3.org/1999/xlink" x="0px"
	 y="0px" viewBox="0 0 1920 817" style="enable-background:new 0 0 1920 817;" xml:space="preserve">
<style type="text/css">
	.st0{fill:#02234C;}
	.st1{clip-path:url(#SVGID_2_);}
	.st2{fill:none;stroke:#002C5B;stroke-miterlimit:10;}
	.st3{fill:url(#SVGID_3_);}
	.st4{fill:url(#SVGID_4_);}
	.st5{fill:url(#SVGID_5_);}
</style>
<path class="st0" d="M0-3v599c0,0,413,218.4,1920,207.5V-3H0z"/>
<g>
	<g>
		<defs>
			<path id="SVGID_1_" d="M0,0v596c0,0,413,221.4,1920,210.5V0H0z"/>
		</defs>
		<clipPath id="SVGID_2_">
			<use xlink:href="#SVGID_1_"  style="overflow:visible;"/>
		</clipPath>
		<g class="st1">
			<path class="st2" d="M0,596c0,0,867.2,232.8,1920-163.2"/>
			<path class="st2" d="M0,526.9c0,0,867.2,232.8,1920-163.2"/>
			<path class="st2" d="M0,457.8c0,0,867.2,232.8,1920-163.2"/>
			<path class="st2" d="M0,388.7c0,0,867.2,232.8,1920-163.2"/>
			<linearGradient id="SVGID_3_" gradientUnits="userSpaceOnUse" x1="250.725" y1="331.3497" x2="1653.1549" y2="212.8556">
				<stop  offset="0" style="stop-color:#02234C"/>
				<stop  offset="0.1895" style="stop-color:#002C5B"/>
				<stop  offset="0.6647" style="stop-color:#002C5A"/>
				<stop  offset="1" style="stop-color:#02234C"/>
			</linearGradient>
			<path class="st3" d="M1920,87.4C867.2,483.4,0,250.6,0,250.6v69.1c0,0,867.2,232.8,1920-163.2V87.4z"/>
			<path class="st2" d="M0,181.5c0,0,867.2,232.8,1920-163.2"/>
			<linearGradient id="SVGID_4_" gradientUnits="userSpaceOnUse" x1="360.3294" y1="117.8065" x2="1591.7678" y2="-9.6871">
				<stop  offset="0" style="stop-color:#02234C"/>
				<stop  offset="0.1895" style="stop-color:#002C5B"/>
				<stop  offset="0.6647" style="stop-color:#002C5A"/>
				<stop  offset="1" style="stop-color:#02234C"/>
			</linearGradient>
			<path class="st4" d="M1920-119.9C867.2,276.1,0,43.3,0,43.3v69.1c0,0,867.2,232.8,1920-163.2V-119.9z"/>
			<path class="st2" d="M0-25.8C0-25.8,867.2,207,1920-189"/>
			<path class="st2" d="M0-94.9c0,0,867.2,232.8,1920-163.2"/>
			<path class="st2" d="M0-164c0,0,867.2,232.8,1920-163.2"/>
		</g>
	</g>
</g>
<linearGradient id="SVGID_5_" gradientUnits="userSpaceOnUse" x1="784.2336" y1="345.6914" x2="2839.4392" y2="-218.365" gradientTransform="matrix(1 0 0 -1 0 818)">
	<stop  offset="0" style="stop-color:#02234C"/>
	<stop  offset="0.1895" style="stop-color:#002C5B"/>
	<stop  offset="0.6647" style="stop-color:#002C5A"/>
	<stop  offset="1" style="stop-color:#02234C"/>
</linearGradient>
<path class="st5" d="M1920,806.5C413,817.4,0,596,0,596s867.2,232.8,1920-163.2V806.5z"/>
</svg>
