<svg id="Isolation_Mode" data-name="Isolation Mode" xmlns="http://www.w3.org/2000/svg" xmlns:xlink="http://www.w3.org/1999/xlink" viewBox="0 0 1920 1057"><defs><style>.cls-1{opacity:0.05;}.cls-10,.cls-11,.cls-12,.cls-14,.cls-15,.cls-2,.cls-3,.cls-4,.cls-6,.cls-7,.cls-8{fill:none;stroke-miterlimit:10;}.cls-2{stroke:url(#linear-gradient);}.cls-3{stroke:url(#linear-gradient-2);}.cls-4{stroke:url(#linear-gradient-3);}.cls-5{fill:url(#linear-gradient-4);}.cls-6{stroke:url(#linear-gradient-5);}.cls-7{stroke:url(#linear-gradient-6);}.cls-8{stroke:url(#linear-gradient-7);}.cls-9{fill:url(#linear-gradient-8);}.cls-10{stroke:url(#linear-gradient-9);}.cls-11{stroke:url(#linear-gradient-10);}.cls-12{stroke:url(#linear-gradient-11);}.cls-13{fill:url(#linear-gradient-12);}.cls-14{stroke:url(#linear-gradient-13);}.cls-15{stroke:url(#linear-gradient-14);}.cls-16{fill:url(#linear-gradient-15);}</style><linearGradient id="linear-gradient" x1="95.68" y1="411.77" x2="1824.54" y2="-62.72" gradientTransform="translate(1920 1058) rotate(180)" gradientUnits="userSpaceOnUse"><stop offset="0" stop-color="#2f0f70"/><stop offset="0.64" stop-color="#002b62"/><stop offset="0.97" stop-color="#1b0a24"/></linearGradient><linearGradient id="linear-gradient-2" x1="95.68" y1="459.27" x2="1824.54" y2="-15.22" xlink:href="#linear-gradient"/><linearGradient id="linear-gradient-3" x1="95.68" y1="506.77" x2="1824.54" y2="32.28" xlink:href="#linear-gradient"/><linearGradient id="linear-gradient-4" y1="735.91" x2="1920" y2="735.91" gradientUnits="userSpaceOnUse"><stop offset="0" stop-color="#fff"/><stop offset="0.31" stop-color="#7a91ad"/><stop offset="0.79" stop-color="#778eab"/><stop offset="0.97" stop-color="#fff"/></linearGradient><linearGradient id="linear-gradient-5" x1="95.68" y1="649.27" x2="1824.54" y2="174.78" xlink:href="#linear-gradient"/><linearGradient id="linear-gradient-6" x1="95.68" y1="696.77" x2="1824.54" y2="222.28" xlink:href="#linear-gradient"/><linearGradient id="linear-gradient-7" x1="95.68" y1="744.27" x2="1824.54" y2="269.78" xlink:href="#linear-gradient"/><linearGradient id="linear-gradient-8" x1="233.97" y1="498.41" x2="1634.18" y2="498.41" xlink:href="#linear-gradient-4"/><linearGradient id="linear-gradient-9" x1="95.68" y1="886.77" x2="1824.54" y2="412.28" xlink:href="#linear-gradient"/><linearGradient id="linear-gradient-10" x1="95.68" y1="934.27" x2="1824.54" y2="459.78" xlink:href="#linear-gradient"/><linearGradient id="linear-gradient-11" x1="95.68" y1="981.77" x2="1824.54" y2="507.28" xlink:href="#linear-gradient"/><linearGradient id="linear-gradient-12" x1="233.97" y1="260.91" x2="1634.18" y2="260.91" xlink:href="#linear-gradient-4"/><linearGradient id="linear-gradient-13" x1="95.68" y1="1124.27" x2="1824.54" y2="649.78" xlink:href="#linear-gradient"/><linearGradient id="linear-gradient-14" x1="95.68" y1="1171.77" x2="1824.54" y2="697.28" xlink:href="#linear-gradient"/><linearGradient id="linear-gradient-15" x1="920.92" y1="245.14" x2="1528.92" y2="-482.86" gradientTransform="translate(1920 1058) rotate(180)" gradientUnits="userSpaceOnUse"><stop offset="0" stop-color="#02234c"/><stop offset="0.19" stop-color="#002c5b"/><stop offset="0.66" stop-color="#002c5a"/><stop offset="1" stop-color="#02234c"/></linearGradient></defs><title>Artboard 1</title><g class="cls-1"><path class="cls-2" d="M1920,995S1052.8,1167.8,0,771.8"/><path class="cls-3" d="M1920,947.5S1052.8,1120.3,0,724.3"/><path class="cls-4" d="M1920,900S1052.8,1072.8,0,676.8"/><path class="cls-5" d="M0,581.8C1052.8,977.8,1920,805,1920,805v47.5S1052.8,1025.3,0,629.3Z"/><path class="cls-6" d="M1920,757.5S1052.8,930.3,0,534.3"/><path class="cls-7" d="M1920,710S1052.8,882.8,0,486.8"/><path class="cls-8" d="M1920,662.5S1052.8,835.3,0,439.3"/><path class="cls-9" d="M0,344.3c1052.8,396,1920,223.2,1920,223.2V615S1052.8,787.8,0,391.8Z"/><path class="cls-10" d="M1920,520S1052.8,692.8,0,296.8"/><path class="cls-11" d="M1920,472.5S1052.8,645.3,0,249.3"/><path class="cls-12" d="M1920,425S1052.8,597.8,0,201.8"/><path class="cls-13" d="M0,106.8C1052.8,502.8,1920,330,1920,330v47.5S1052.8,550.3,0,154.3Z"/><path class="cls-14" d="M1920,282.5S1052.8,455.3,0,59.3"/><path class="cls-15" d="M1920,235S1052.8,407.8,0,11.8"/></g><path class="cls-16" d="M1920,947.5S1052.8,1120.3,0,724.3v47.5C1052.8,1167.8,1920,995,1920,995Z"/></svg>