<svg version="1.1" id="Layer_1" xmlns="http://www.w3.org/2000/svg" x="0" y="0" viewBox="0 0 466.3 158" style="enable-background:new 0 0 466.3 158" xml:space="preserve"><style>.st0{fill:none;stroke:#919da8;stroke-width:1.29;stroke-linecap:round;stroke-linejoin:round}</style><path class="st0" d="M38.5 131.2c-2.2-1.5-4.8-2.3-7.5-2.3-4.4 0-8.5 2.4-10.7 6.2-3.3-2.2-7.9-1.3-10.1 2-.6.9-1 2-1.2 3.1h0c-4.6 0-9.2 3.8-8.3 10.1M363.5 86.7h-34c-2.9-.1-5.1-2.5-5-5.4.1-2.7 2.3-4.8 5-5h7.3c.6 0 1.1-.5 1.2-1.1.5-4 4.1-6.8 8.1-6.3 3 .4 5.5 2.6 6.2 5.5.1.6.8 1 1.4.9h0c.1 0 .2-.1.3-.1 1.5-.8 3.4-.3 4.2 1.2.2.4.4.9.4 1.4 0 .6.6 1.2 1.2 1.2h3.6c2.1 0 3.9 1.7 3.9 3.9s-1.7 3.8-3.8 3.8h0z"/><path class="st0" d="M299.4 72.5c-2 1-3.5 2.9-4 5.1-.1.7-.8 1.1-1.5 1h0c-.1 0-.2-.1-.3-.1-1.6-.9-3.6-.4-4.5 1.2h0c-.3.5-.4 1-.4 1.5 0 .7-.6 1.2-1.3 1.2h-3.8c-2.3 0-4.1 1.8-4.1 4.1s1.8 4.1 4.1 4.1h31.7c3 0 5.5-2.5 5.5-5.5s-2.5-5.5-5.5-5.5h0l-6.6-.2c-1.2 0-2.3-.2-3.4-.6-4.9-1.9-7.5-7.4-5.6-12.3 1.4-3.7 5-6.2 9-6.2h.9c1.1 0 2.1-.9 2.2-2 .9-7.4 7.6-12.6 14.9-11.7 5.6.7 10.2 4.8 11.5 10.3.3 1.2 1.5 1.9 2.7 1.7h0c.2 0 .4-.1.6-.2 2.8-1.6 6.3-.6 7.8 2.2.4.8.7 1.7.7 2.6 0 1.2 1 2.1 2.2 2.1h2.7c3.9 0 7.1 3.2 7.1 7.1 0 2.1-.9 4.1-2.5 5.4"/><path class="st0" d="M296.3 101.6c0-1.6 1.2-2.9 2.8-3h2.6c.5 0 .9-.4.9-.9 0-.4.1-.8.3-1.1.5-1.1 1.8-1.5 2.9-1 .1 0 .1.1.2.1s.1.1.2.1c.5.1.9-.2 1-.7.4-2.3 2.2-4 4.5-4.4 3-.3 5.6 1.9 5.9 4.9v.1c0 .5.4.8.9.8h2.6c2.3.2 4 2.1 3.8 4.4-.1 2-1.8 3.7-3.8 3.8h-22c-1.6-.1-2.9-1.5-2.8-3.1h0z"/><path class="st0" d="M296.3 101.6h-2.8c-3 0-5.5-2.5-5.5-5.5h0c0-3.1 2.5-5.5 5.5-5.5h13.2M328.9 86.7V146c0 2.5 2 4.5 4.5 4.5M314.8 150.5h2.2c2.5 0 4.5-2 4.5-4.5v-41.4"/><path class="st0" d="M345.6 87.1c0 7.7-9 14.8-16.8 14.8M320.3 116.5c-6.1.1-11.1-4.7-11.2-10.8v-.6"/><circle class="st0" cx="211.6" cy="16.9" r="4.7"/><path class="st0" d="M211.6 2.7V6M225.8 16.9h-3.2M211.6 31.1v-3.2M197.4 16.9h3.3M221.7 6.9l-2.3 2.3M221.7 27l-2.3-2.3M201.6 27l2.3-2.3M201.6 6.9l2.3 2.3M112.1 36.1h12.2c1.6 0 2.9 1.3 2.9 2.9v1.1c0 1.6-1.3 2.9-2.9 2.9h-12.2c-1.6 0-2.9-1.3-2.9-2.9V39c0-1.6 1.3-2.9 2.9-2.9zM130.8 20.4h-13c-2.5.1-4.5-1.8-4.7-4.2-.1-2.5 1.8-4.5 4.2-4.7h4.2c2.5 0 4.5-1.9 4.5-4.4h0v-.7c0-2.5-2-4.5-4.5-4.5H79.8c-2.5 0-4.5 2-4.5 4.5h0v.7c0 2.5 2 4.5 4.5 4.5h10.8c2.5-.1 4.5 1.8 4.7 4.2s-1.8 4.5-4.2 4.7h-2.9c-2.5 0-4.5 2-4.4 4.5v.6c0 2.5 2 4.4 4.4 4.4h42.7c2.5 0 4.5-2 4.5-4.5v-.6c-.1-2.5-2.1-4.5-4.6-4.5h0zM349.2 43.3h12.2c1.6 0 2.9 1.3 2.9 2.9v1.1c0 1.6-1.3 2.9-2.9 2.9h-12.2c-1.6 0-2.9-1.3-2.9-2.9v-1.1c.1-1.6 1.3-2.9 2.9-2.9zM367.9 27.6H355c-2.5.1-4.5-1.8-4.7-4.2s1.8-4.5 4.2-4.7h4.2c2.5 0 4.5-2 4.5-4.5v-.6c0-2.5-2-4.5-4.5-4.5h-41.9c-2.5 0-4.5 2-4.5 4.5v.6c0 2.5 2 4.5 4.5 4.5h10.8c2.5-.1 4.5 1.8 4.7 4.2s-1.8 4.5-4.2 4.7h-2.9c-2.5 0-4.5 2-4.5 4.5h0v.7c0 2.5 2 4.4 4.5 4.4h42.7c2.5 0 4.5-2 4.5-4.4h0v-.6c0-2.6-2-4.6-4.5-4.6.1 0 0 0 0 0zM60.1 150.3c0-2.9-1.8-5.9-4.2-6.9.1-.6.2-1.3.2-1.9 0-6.5-5.3-11.8-11.8-11.8-4.2 0-8.2 2.3-10.3 6-3.2-2.1-7.6-1.3-9.7 2-.6.9-1 2-1.1 3H23c-4.4 0-8.9 3.6-8 9.8M28.1 150.5H67M148.9 114.4v39M69.7 153.4v-39M79.6 153.4v-29.2c0-1.7 1.3-3 3-3H136c1.7 0 3 1.3 3 3v29.2M63.8 96.7v5.7c0 4.1 3.3 7.4 7.4 7.5 2.6 0 5-1.3 6.3-3.5 1.4 3 4.9 4.4 7.9 3 1.2-.5 2.2-1.5 2.8-2.6 1.6 2.9 5.2 4 8.1 2.4 1-.6 1.8-1.4 2.4-2.4 1.6 2.9 5.2 4 8.1 2.4 1-.6 1.8-1.4 2.4-2.4 1.6 2.9 5.2 4 8.1 2.4 1-.6 1.8-1.4 2.4-2.4 1.6 2.9 5.2 4 8.1 2.4 1-.6 1.8-1.4 2.4-2.4 1.6 2.9 5.2 4 8.1 2.4 1.2-.6 2.1-1.6 2.6-2.8 2.2 3.5 6.8 4.5 10.2 2.3 2.2-1.4 3.5-3.8 3.5-6.3v-5.7M63.8 78.7h90.9c.9 0 1.7.8 1.7 1.7v11.1c0 .9-.8 1.7-1.7 1.7H63.8c-.9 0-1.7-.8-1.7-1.7V80.4c0-.9.8-1.7 1.7-1.7zM84.4 128.6h49.8M84.4 134.5h49.8M84.4 140.4h49.8M84.4 146.4h49.8M84.4 151.5h49.8M69.6 67.7h9c1.3 0 2.3 1.1 2.3 2.3h0v8.7h0-13.6 0V70c0-1.2 1-2.3 2.3-2.3h0zM87.2 67.7h9c1.3 0 2.3 1.1 2.3 2.3h0v8.7h0-13.6 0V70c0-1.2 1-2.3 2.3-2.3h0zM104.8 67.7h9c1.3 0 2.3 1 2.3 2.3h0v8.7h0-13.7 0V70c.1-1.2 1.1-2.3 2.4-2.3h0zM122.4 67.7h9c1.3 0 2.3 1 2.3 2.3h0v8.7h0H120h0V70c.1-1.2 1.1-2.3 2.4-2.3h0zM140 67.7h9c1.3 0 2.3 1.1 2.3 2.3h0v8.7h0-13.6 0V70c-.1-1.2 1-2.3 2.3-2.3h0zM153.3 150.5h1.7M182 150.5h4.4M274.7 150.5h39M337.5 150.5h28.9M378.9 114.4v39M458.1 153.4v-39M448.2 153.4v-29.2c0-1.7-1.4-3-3.1-3h-53.3c-1.7 0-3 1.3-3 3v29.2M464 96.7v5.7c0 4.1-3.3 7.4-7.4 7.5-2.6 0-5-1.3-6.3-3.5-1.4 3-4.9 4.4-7.9 3-1.2-.5-2.2-1.5-2.8-2.6-1.6 2.9-5.2 4-8.1 2.4-1-.6-1.8-1.4-2.4-2.4-1.6 2.9-5.2 4-8.1 2.4-1-.6-1.8-1.4-2.4-2.4-1.6 2.9-5.2 4-8.1 2.4-1-.6-1.8-1.4-2.4-2.4-1.6 2.9-5.2 4-8.1 2.4-1-.6-1.8-1.4-2.4-2.4-1.6 2.9-5.2 4-8.1 2.4-1.2-.6-2.1-1.6-2.6-2.8-2.2 3.5-6.8 4.5-10.2 2.3-2.2-1.4-3.5-3.8-3.5-6.3v-5.7M463.9 93.2H373c-.9 0-1.7-.8-1.7-1.7V80.4c0-.9.8-1.7 1.7-1.7h90.9c.9 0 1.7.8 1.7 1.7v11.1c0 .9-.7 1.7-1.7 1.7zM443.3 128.6h-49.7M443.3 134.5h-49.7M443.3 140.4h-49.7M443.3 146.4h-49.7M443.3 151.5h-49.7M460.5 78.7h-13.6 0V70c0-1.3 1-2.3 2.3-2.3h9c1.3 0 2.3 1 2.3 2.3v8.7h0zM442.9 78.7h-13.6 0V70c0-1.3 1-2.3 2.3-2.3h9c1.3 0 2.3 1 2.3 2.3v8.7h0zM425.3 78.7h-13.6 0V70c0-1.3 1-2.3 2.3-2.3h9c1.3 0 2.3 1 2.3 2.3v8.7h0zM407.7 78.7h-13.6 0V70c0-1.3 1-2.3 2.3-2.3h9c1.3 0 2.3 1 2.3 2.3v8.7h0zM390.1 78.7h-13.6 0V70c0-1.3 1-2.3 2.3-2.3h9c1.3 0 2.3 1 2.3 2.3v8.7h0zM374.4 150.5H370M280.3 65l-56.5-31.7-6.8 5.6M236.7 51.7 178.5 19l-37.8 31.2M232 79l-37.9-21.2L163 83.4M264.4 78.8l-30.6-17.1-8 6.6M178.5 29.4l-18.6 15.3M174.8 118.4h1.4c.4 0 .7-.7.5-1.3l-9.1-23.9c-.2-.6-.8-.6-1 0l-9.6 23.9c-.2.6 0 1.3.5 1.3h1.6l-6.7 19c-.2.6.1 1.2.5 1.2l27.9.2c.4 0 .7-.7.5-1.2l-6.5-19.2z"/><path class="st0" d="m162.2 121.4 1.8 3.1 2.4-1.6 2.3 2 2.2-4.1M164.1 141.5v6.2c0 1.5-1.2 2.7-2.7 2.7h0-3.2M174.3 150.5h-3.2c-1.5 0-2.7-1.2-2.7-2.7h0v-4.3M366 126.9l-2.3-16.9c-.2-1.9-1.2-3.5-2.7-4.2-.7-.4-1.4-.5-2.2-.7-1.1 1-2.4 1.5-3.7 1.5-1.4 0-2.7-.5-3.8-1.5-.8.2-1.6.4-2.3.7-1.5.8-2.5 2.4-2.7 4.2l-2.3 16.9s-.5 2.8 1.6 2.8 2.3-2.8 2.3-2.8l1.6-8.4c.3.4.4 1.1.3 1.6-.1 1.1-1.1 27.8-1.1 27.8-.1 1.2.7 2.2 1.7 2.3h.3c1.2.1 2.1-.8 2.3-2.1v-.1l2-18.5 2 18.5c.1 1.3 1.1 2.3 2.2 2.2h.1c1 .1 2-.8 2-2v-.4s-1.1-26.7-1.1-27.8c-.1-.5.1-1.2.3-1.6l1.6 8.4s.2 2.8 2.3 2.8c2 0 1.6-2.7 1.6-2.7z"/><ellipse class="st0" cx="355" cy="99.5" rx="4.4" ry="5"/><path d="M256.2 140.1c-1.2-3.2-3.3-4.7-6.8-4.7-.9 0-1.7.2-2.6.5.5-1.1.6-2.4.3-3.6-.2-.6-.7-2.3-1.3-4-.3-.9-.6-1.7-.8-2.5h.4c.6 0 1.1-.1 1.3-.6.4-1.2.5-2.4.3-3.6-.1-.8-.9-1-1.9-1-.6 0-1.1.2-1.5.5l-4.1.8c.8-.7 1.6-1.4 2.4-2.2l1.5-.6.1.1c.5.3 1.1.4 1.7.3 1.2-.1 2.2-1.5 2.6-2.7l1.3.1H249.4v-.1c0-.4-.2-.7-.6-1l-.3-.3c0-1.6-1.2-2.9-2.7-3.1-2.2-.4-4.3 1-4.8 3.2h-.5c-4.1-.2-8.2 1.2-11.2 4-3.6 3.3-4.5 6.8-3.7 8.6.1.3.3.5.5.6h-1.9l.6-7.3c0-.2 0-.3-.1-.4-.1-.1-.3-.2-.4-.2h-2.7l-.9-5.5v-.1c-.7-1.6-2.2-2.5-3.9-2.5-1.1-.1-2.1.4-2.7 1.3-.1.2-.1.3-.1.5-1-.2-2.1.2-2.7 1.1-.3.5-.2 1.2.2 1.6-.3.1-.6.3-.8.6-.6.5-.8 1.4-.4 2.1.3.6 1.1 1.2 3.2.9l.5.3c-.2.1-.3.3-.4.5l-.7 7.9c0 .2 0 .3.1.4.1.1.3.2.4.2h3.8c0 .1-.1.1-.1.2l-.8 2.1v.1c-5.8 4.2-8.6 9.7-8 11.6.1.5.6.8 1.1.8h2c0 .2-.1.4-.1.6-.3 3.1 1.9 6 5.1 6.3h.7c3.5-.1 6.4-2.8 6.8-6.2v-.7h14.2c.9 0 1.8-.2 2.6-.7 0 .1.1.2.2.3.3.3.6.4 1 .4h.7c0 .2-.1.4-.1.6-.3 3.2 2 6 5.1 6.3h.7c3.5-.1 6.4-2.8 6.8-6.2.1-1.5-.3-2.9-1.1-4.1h1.4c.3 0 .6-.2.6-.5v-.2l.2-.8zm-11.1-21.7c-.3 0-.7 0-1-.2-.2-.1-.3-.2-.5-.2-.3 0-.6 0-.9.2.1-.3.1-.7 0-1 .3 0 .5.1.8.1.4 0 .8-.2 1.1-.4.2-.1.4-.2.6-.2.3 0 .9 0 1.5.1-.3.8-.9 1.6-1.6 1.6zm.9-5.3c1 .2 1.8 1.1 1.8 2.1 0 .2.1.4.2.5-.9-.1-2.2-.2-2.8-.2-.4 0-.8.2-1.1.4-.2.1-.4.2-.6.2-.4 0-.8-.1-1.2-.2v-.1c.6-1.9 1.9-3 3.7-2.7zm-15.6 6.9c2.8-2.6 6.6-4 10.5-3.7.3.1.5.4.6.6.3.6.2 1.3-.2 1.9-1.3 1.3-2.7 2.5-4.1 3.7l-.8.2c-.3.1-.5.4-.4.7s.4.5.7.4l7.1-1.4c.2.1.4.3.4.6s-.4.4-.9.6c-.7-.3-1.5-.3-2.3 0-1.9.9-3.9 1.6-6 2.1-.3 0-.6-.1-.8-.2-.2-.2-.3-.5-.3-.8 0-.6 1.7-3.8 3.4-5.2.2-.2.3-.6.1-.8-.2-.2-.6-.3-.8-.1-1.7 1.4-3.8 4.9-3.8 6.1v.4h-.1c-1.8-.5-3.8-.6-5.6-.4.8-1.9 1.8-3.5 3.3-4.7zm3 12.9c.2-.1.4-.3.4-.5v-.1l.4-1.1 1.3.2c-.8 1.5-2.7 5-3.7 7.2-.3.6-.4 1.2-.4 1.9h-.3c-.7 0-1.2-.5-1.3-1.1-.6-1.6.4-4.2 3.6-6.5zm-.5 6.2c1.3-2.8 4-7.8 4-7.9.1-.3 0-.6-.3-.8-.1 0-.1 0-.2-.1 0 0-2.7-.4-4.1-.7-1.7-.4-5.1-1.8-5.3-2.4-.2-.5-.2-1-.2-1.5.4-.4 3.8-.3 5.7.2 2.2.7 4.2 1.7 6 3 1.2 1.2.9 1.8.3 2.8-.6 1-4.4 6.7-4.4 6.8-.1.2-.1.4 0 .5.1.2.2.3.4.3.5.1 1.6.4 1.9.9 0 .1.1.1.1.2h-4.3c0-.4.1-.9.4-1.3zm5 1.4c0-.3-.1-.5-.2-.8-.5-.6-1.1-1-1.9-1.2 1-1.5 3.5-5.2 4-6.1.8-1.2 1.3-2.4-.4-4.2-.9-.8-1.9-1.4-3-1.9 1.6-.5 3.8-1.4 4.7-1.8.6 1.8 1.9 6.1 2.2 7.4.4 1.2.1 2.6-.7 3.6l-.6.9c-.4.6-.6.9-1.3 1.9-.8 1.5-1.3 2.1-2.8 2.2zm-21.3-20-1.6-.9 5.2-3.6.8 4.5h-4.4zm-.5-4.9c.3-.4 1.6-.4 2.6 0l-1.9 1.3c-.7-.6-.9-1.1-.7-1.3zm-.3 2.1-1.4 1c-.5-.3-.6-.6-.6-.7 0-.1.1-.2.3-.3.4-.1 1-.1 1.7 0zm-.3-3.7c.4-.5 1-.7 1.7-.6 1.1 0 2.1.5 2.6 1.4-1.2-.7-2.8-.9-4.1-.3-.3-.2-.2-.4-.2-.5zm-2.7 1.7c.6-.6 1.6-.7 2.3-.3-.1.4-.1.8.1 1.1-.5 0-1 0-1.5.2-.8-.3-1.2-.7-.9-1zm-1.2 3.2c-.1-.2 0-.5.2-.8.2-.2.4-.3.7-.4v.3c0 .5.2.9.6 1.2-.9.1-1.3-.1-1.5-.3zm3.4 2.7h9.1l-.6 6.8h-9.1l.6-6.8zm9 7.9h4.4c1.2.5 2.4 1 3.7 1.3l1 .2-.3.8h-14.9l.6-1.7c.1-.3.4-.5.8-.6h4.7zm-.8 15.4c-.3 2.9-2.7 5.2-5.7 5.2-1.3 0-2.6-.5-3.5-1.5s-1.3-2.3-1.2-3.6c0-.2 0-.5.1-.7h1.7c0 .2-.1.4-.1.6-.2 1.8 1.1 3.3 2.9 3.5h.4c1.9 0 3.5-1.5 3.7-3.4v-.7h1.7v.6zm-2.8-.6v.6c-.1 1.3-1.3 2.4-2.6 2.4-.6 0-1.2-.2-1.6-.7-.4-.4-.6-1-.5-1.6 0-.2.1-.5.1-.7h4.6zm-10.5-1.1c-.1-.2-.1-.4 0-.6.3-1.8 2.5-6 7.5-9.7h14.3c-2.9 2.5-3.4 5.2-2.9 6.8.3 1.1 1.3 1.9 2.4 1.9h6.3c2.5 0 3.2-1 4.3-2.6.7-1 1-1.4 1.4-1.9l.6-.9c1-1.3 1.3-3 .8-4.5-.4-1.3-1.7-5.5-2.2-7.4.3 0 .5.1.8.2.1.1.3.1.4.1.3-.1 1.8-.6 1.9-1.7 0-.4-.1-.8-.4-1.1h.3c.3 0 .5 0 .8.1v.1c.1.9 0 1.9-.2 2.8H243.9V125.6c0 .1 0 0 0 0l1.1 3.3c.5 1.6 1.1 3.3 1.2 3.9.4 1.3.1 2.6-.7 3.7-.7 1-1.8 2.6-3.2 4.6-.3.4-.6.9-1 1.3l-.1.1c-.7.7-1.6 1.1-2.6 1l-28.7-.3zm44.5 1.7c-.3 2.9-2.7 5.2-5.7 5.2-2.5.1-4.6-2-4.7-4.5v-.6c0-.3.1-.5.1-.8.7-.4 1.3-.9 1.8-1.5.8-.8 1.8-1.8 2.5-1.8h4.3c1.2 1 1.8 2.5 1.7 4zm-6-5.1c-1.2 0-2.3 1.1-3.3 2.1-.5.5-1.2 1.3-1.5 1.3H242c-.1-.1-.1-.2-.1-.4.4-.4.7-.8 1-1.3l2.6-3.6c1.1-.8 2.4-1.2 3.7-1.2 2.8 0 4.4.9 5.5 3.2l-6.3-.1z" style="fill:#919da8"/></svg>