<?xml version="1.0" encoding="utf-8"?>
<!-- Generator: Adobe Illustrator 22.1.0, SVG Export Plug-In . SVG Version: 6.00 Build 0)  -->
<svg version="1.1" id="Layer_1" xmlns="http://www.w3.org/2000/svg" xmlns:xlink="http://www.w3.org/1999/xlink" x="0px" y="0px"
	 viewBox="0 0 466.3 158" style="enable-background:new 0 0 466.3 158;" xml:space="preserve">
<style type="text/css">
	.st0{fill:none;stroke:#919DA8;stroke-width:1.29;stroke-linecap:round;stroke-linejoin:round;}
	.st1{fill:#919DA8;}
</style>
<title>Ondemand</title>
<line class="st0" x1="124.3" y1="126.8" x2="124.3" y2="151.6"/>
<line class="st0" x1="72.4" y1="151.6" x2="72.4" y2="126.8"/>
<path class="st0" d="M78.8,151.6v-19.2c0-1.1,0.9-2,2-2h11.6c1.1,0,2,0.9,2,2v19.2"/>
<path class="st0" d="M100.6,130.5h15.4c1,0,1.8,0.8,1.8,1.8v9.4c0,1-0.8,1.8-1.8,1.8h-15.4c-1,0-1.8-0.8-1.8-1.8v-9.4
	C98.8,131.3,99.6,130.5,100.6,130.5z"/>
<line class="st0" x1="99.6" y1="146.1" x2="117.1" y2="146.1"/>
<path class="st0" d="M68.5,114.5v3.7c0,2.7,2.1,4.9,4.8,4.9c1.7,0,3.3-0.9,4.2-2.3c1,2,3.4,2.8,5.4,1.8c0.7-0.3,1.2-0.9,1.6-1.5
	c1.1,1.9,3.6,2.6,5.5,1.4c0.6-0.3,1.1-0.8,1.4-1.4c1.1,1.9,3.6,2.6,5.5,1.4c0.6-0.3,1.1-0.8,1.4-1.4c1.1,1.9,3.6,2.6,5.5,1.4
	c0.6-0.3,1.1-0.8,1.4-1.4c1.1,1.9,3.6,2.6,5.5,1.4c0.6-0.3,1.1-0.8,1.4-1.4c1.1,1.9,3.6,2.5,5.5,1.4c0.6-0.4,1.2-1,1.5-1.6
	c1.4,2.3,4.4,3,6.7,1.5c1.4-0.9,2.3-2.5,2.3-4.1v-3.7"/>
<path class="st0" d="M73.1,106.9h50.5c1,0,1.7,0.8,1.7,1.7v1.1c0,1-0.8,1.7-1.7,1.7H73.1c-1,0-1.7-0.8-1.7-1.7v-1.1
	C71.3,107.7,72.1,106.9,73.1,106.9z"/>
<path class="st0" d="M89.3,103.7c-7,0-12.6-5.6-12.6-12.6V80.4c0-2.1,1.7-3.8,3.8-3.8c0,0,0,0,0,0H114c2.1,0,3.8,1.7,3.8,3.8
	c0,0,0,0,0,0v10.7c0,7-5.6,12.6-12.6,12.6h-4.9"/>
<path class="st0" d="M120.5,80.4h4.1c1.4,0,2.6,1.2,2.6,2.6c0,0,0,0,0,0v6.6c0,1.4-1.2,2.6-2.6,2.6c0,0,0,0,0,0h-2.8"/>
<path class="st0" d="M310.6,77h-54c-4.6,0.2-8.4-3.4-8.5-8c-0.2-4.6,3.4-8.4,8-8.5c0.2,0,0.4,0,0.6,0h11.5c1,0,1.8-0.7,1.9-1.7
	c0.8-6.3,6.6-10.9,12.9-10.1c4.8,0.6,8.7,4.1,9.9,8.8c0.2,1,1.2,1.6,2.2,1.4c0.2,0,0.3-0.1,0.5-0.2c2.4-1.3,5.5-0.4,6.8,2
	c0.4,0.7,0.6,1.4,0.6,2.1c0,1,0.9,1.8,1.9,1.8h5.8c3.4,0.1,6,3,5.9,6.4C316.3,74.3,313.7,76.8,310.6,77L310.6,77z"/>
<path class="st0" d="M208.6,54.4c-3.2,1.6-5.6,4.6-6.4,8.1c-0.2,1.1-1.3,1.8-2.4,1.5c0,0,0,0,0,0c-0.2,0-0.4-0.1-0.5-0.2
	c-2.5-1.4-5.7-0.5-7.1,2c-0.4,0.7-0.6,1.5-0.7,2.4c0,1.1-0.9,1.9-2,1.9h-6.1c-3.6,0-6.5,2.9-6.5,6.5s2.9,6.5,6.5,6.5h50.4
	c4.8,0,8.7-3.9,8.7-8.7s-3.9-8.7-8.7-8.7l0,0l-10.5-0.2c-1.8,0-3.7-0.3-5.4-1c-7.9-3-11.8-11.8-8.9-19.6c2.2-5.9,7.9-9.9,14.2-9.9
	h1.5c1.8,0,3.3-1.3,3.5-3.1c1.4-11.7,12.1-20,23.8-18.6c8.9,1.1,16.1,7.6,18.2,16.3c0.4,1.9,2.3,3.1,4.2,2.6
	c0.3-0.1,0.6-0.2,0.9-0.3c4.4-2.5,10-0.9,12.5,3.5c0.7,1.3,1.1,2.7,1.2,4.1c0.1,1.9,1.6,3.4,3.5,3.4h4.3c6.3,0,11.3,5.1,11.3,11.4
	c0,3.3-1.5,6.5-4,8.6"/>
<path class="st0" d="M203.8,100.6c-0.1-2.6,1.9-4.7,4.5-4.8h4.2c0.8,0,1.4-0.7,1.4-1.4c0-0.6,0.2-1.2,0.5-1.8
	c0.8-1.7,2.9-2.5,4.6-1.7c0.1,0,0.2,0.1,0.3,0.2c0.1,0.1,0.2,0.1,0.4,0.2c0.7,0.2,1.5-0.3,1.7-1.1c0,0,0,0,0-0.1
	c0.7-3.6,3.6-6.4,7.2-7c4.6-0.6,8.8,3,9.4,8c0,0.7,0.6,1.3,1.4,1.3h4.1c3.6,0.3,6.3,3.4,6,7c-0.3,3.2-2.8,5.7-6,6h-35
	C205.7,105.3,203.7,103.2,203.8,100.6C203.7,100.6,203.7,100.6,203.8,100.6z"/>
<path class="st0" d="M203.8,100.7h-4.4c-4.8,0-8.8-3.9-8.8-8.8c0,0,0,0,0,0l0,0c0-4.9,3.9-8.8,8.8-8.8h21"/>
<path class="st0" d="M255.6,77v64.3c0,3.9,3.2,7.1,7.1,7.1l0,0"/>
<path class="st0" d="M233.2,148.4h3.4c3.9,0,7.1-3.2,7.1-7.1c0,0,0,0,0,0v-35.8"/>
<path class="st0" d="M282.2,77.6c0,12.3-14.4,23.6-26.7,23.6"/>
<path class="st0" d="M241.9,124.3c-10.4,0-17.9-7.8-17.9-18.2"/>
<circle class="st0" cx="210.9" cy="16.8" r="5.1"/>
<line class="st0" x1="210.9" y1="1.2" x2="210.9" y2="4.8"/>
<line class="st0" x1="226.5" y1="16.8" x2="222.9" y2="16.8"/>
<line class="st0" x1="210.9" y1="32.3" x2="210.9" y2="28.7"/>
<line class="st0" x1="195.4" y1="16.8" x2="199" y2="16.8"/>
<line class="st0" x1="221.9" y1="5.8" x2="219.4" y2="8.3"/>
<line class="st0" x1="221.9" y1="27.8" x2="219.4" y2="25.2"/>
<line class="st0" x1="199.9" y1="27.8" x2="202.5" y2="25.2"/>
<line class="st0" x1="199.9" y1="5.8" x2="202.5" y2="8.3"/>
<path class="st0" d="M85.9,60.1h18c1.6,0,2.9,1.3,2.9,2.9v3.2c0,1.6-1.3,2.9-2.9,2.9h-18c-1.6,0-2.9-1.3-2.9-2.9V63
	C83,61.4,84.3,60.1,85.9,60.1z"/>
<path class="st0" d="M111.7,39.2H94.5c-3.3,0.1-6-2.4-6.2-5.7s2.4-6,5.7-6.2c0.2,0,0.3,0,0.5,0h5.1c3.3,0,5.9-2.6,5.9-5.9
	c0,0,0,0,0,0v-0.9c0-3.3-2.6-5.9-5.9-5.9c0,0,0,0,0,0H44c-3.3,0-6,2.6-6,5.8c0,0,0,0.1,0,0.1v0.9c0,3.3,2.6,5.9,5.9,5.9
	c0,0,0.1,0,0.1,0h14.3c3.3-0.1,6,2.4,6.2,5.7c0.1,3.3-2.4,6-5.7,6.2c-0.2,0-0.3,0-0.5,0H55c-3.3,0-5.9,2.7-5.9,5.9V46
	c0,3.3,2.7,5.9,5.9,5.9h0h56.6c3.3,0,5.9-2.7,5.9-5.9v-0.9C117.6,41.9,114.9,39.2,111.7,39.2z"/>
<path class="st0" d="M350.2,88.9h-11.7c-1.4,0-2.6-1.2-2.6-2.6v-1.2c0-1.4,1.2-2.6,2.6-2.6h11.7c1.4,0,2.6,1.2,2.6,2.6v1.2
	C352.8,87.7,351.7,88.9,350.2,88.9z"/>
<path class="st0" d="M332.5,67.6h12.2c2.3-0.1,4.1-2.1,4-4.4c-0.1-2.2-1.8-3.9-4-4h-3.6c-2.3,0-4.2-1.9-4.2-4.2l0,0v-0.6
	c0-2.3,1.9-4.2,4.2-4.2h39.4c2.3,0,4.2,1.9,4.2,4.2v0.6c0,2.3-1.9,4.2-4.2,4.2l0,0h-10.2c-2.3,0.1-4.1,2.1-4,4.4
	c0.1,2.2,1.8,3.9,4,4h2.3c2.3,0,4.2,1.9,4.2,4.2c0,0,0,0,0,0v0.6c0,2.3-1.9,4.2-4.2,4.2c0,0,0,0,0,0h-40.1c-2.3,0-4.2-1.9-4.2-4.2
	v-0.6C328.3,69.5,330.2,67.6,332.5,67.6z"/>
<line class="st0" x1="343.5" y1="123.9" x2="343.5" y2="151.6"/>
<line class="st0" x1="285.4" y1="151.6" x2="285.4" y2="123.9"/>
<path class="st0" d="M305.7,151.6v-21.5c0-1.2,1-2.2,2.2-2.2h13c1.2,0,2.2,1,2.2,2.2v21.5"/>
<path class="st0" d="M329.3,129h7.1c1,0,1.8,0.8,1.8,1.8v6.1c0,1-0.8,1.8-1.8,1.8h-7.1c-1,0-1.8-0.8-1.8-1.8v-6.1
	C327.5,129.8,328.3,129,329.3,129z"/>
<line class="st0" x1="327.9" y1="141.9" x2="337.7" y2="141.9"/>
<path class="st0" d="M292.5,129h7.1c1,0,1.8,0.8,1.8,1.8v6.1c0,1-0.8,1.8-1.8,1.8h-7.1c-1,0-1.8-0.8-1.8-1.8v-6.1
	C290.7,129.8,291.5,129,292.5,129z"/>
<line class="st0" x1="291.2" y1="141.9" x2="300.9" y2="141.9"/>
<path class="st0" d="M315.9,112l32.2,9.3c1.5,0.4,3.1-0.5,3.6-2c0,0,0,0,0,0l0,0c0.4-1.5-0.4-3.1-2-3.6c0,0,0,0,0,0l-35-10.1h-0.4
	l-35,10.1c-1.5,0.4-2.4,2-2,3.5c0,0,0,0,0,0l0,0c0.4,1.5,2,2.4,3.6,2c0,0,0,0,0,0L313,112C313.9,111.7,315,111.7,315.9,112z"/>
<path class="st0" d="M314,118.5h0.9c2.2,0,3.9,1.7,3.9,3.9v0.6l0,0h-8.7l0,0v-0.6C310.1,120.2,311.8,118.5,314,118.5z"/>
<circle class="st0" cx="320.3" cy="139.6" r="0.3"/>
<path class="st0" d="M338.1,112.4v-9.1c0-1.2-1-2.1-2.1-2.2h-6.3c-1.2,0-2.2,1-2.2,2.2v0v6.1"/>
<path class="st0" d="M328.3,96h9c0.4,0,0.8,0.4,0.8,0.8V98c0,0.4-0.4,0.8-0.8,0.8h-9c-0.4,0-0.8-0.4-0.8-0.8v-1.2
	C327.5,96.4,327.9,96,328.3,96z"/>
<line class="st0" x1="29.6" y1="148.6" x2="0.6" y2="148.6"/>
<line class="st0" x1="226.4" y1="148.6" x2="197.5" y2="148.6"/>
<line class="st0" x1="68.5" y1="148.2" x2="56.4" y2="148.2"/>
<line class="st0" x1="128.8" y1="148.6" x2="138.6" y2="148.6"/>
<line class="st0" x1="268.9" y1="148.6" x2="279.3" y2="148.6"/>
<path class="st0" d="M386.4,148.4c0-4.4,2.8-9.2,6.6-10.7c-1.7-10.1,5.1-19.6,15.2-21.3c7.6-1.3,15.3,2.4,19.1,9.1
	c5-3.4,11.8-2,15.2,3c0.9,1.4,1.5,3,1.8,4.7h0.1"/>
<path class="st0" d="M436.7,147c0-1.8,1.1-3.3,2.7-4c-0.1-0.4-0.1-0.8-0.1-1.2c0-4.2,3.4-7.6,7.6-7.6c2.7,0,5.2,1.5,6.6,3.8
	c2.1-1.4,4.8-0.8,6.2,1.2c0.4,0.6,0.6,1.2,0.7,1.9h0.1c2.8,0,5.7,3.2,5.1,7.2"/>
<line class="st0" x1="368.5" y1="148.6" x2="406.8" y2="148.6"/>
<line class="st0" x1="428.4" y1="148.6" x2="465.3" y2="148.6"/>
<path class="st1" d="M159.3,139.2c-4.5-0.8-8.1,2.3-9.9,4.2c-0.2,0.2-0.2,0.6,0.1,0.8c0.2,0.2,0.6,0.2,0.8-0.1
	c1.6-1.7,4.8-4.6,8.8-3.8c1.8,0.4,3.1,2.1,3,3.9c0,0.3,0.3,0.5,0.6,0.5l0,0c0.3,0,0.6-0.3,0.5-0.6c0,0,0,0,0,0
	C163.1,141.6,161.6,139.6,159.3,139.2z"/>
<path class="st1" d="M181.5,150.1c-0.2,1.8,1.1,3.3,2.9,3.5c0.1,0,0.3,0,0.4,0c1.9,0,3.5-1.5,3.7-3.4c0.2-1.8-1.1-3.3-2.9-3.5
	c-0.1,0-0.3,0-0.4,0C183.3,146.7,181.7,148.2,181.5,150.1z M185.2,147.8c0.6,0,1.2,0.2,1.6,0.7c0.4,0.4,0.6,1,0.5,1.6
	c-0.1,1.3-1.3,2.4-2.6,2.4c-0.6,0-1.2-0.2-1.6-0.7c-0.4-0.5-0.6-1-0.5-1.6C182.8,148.9,183.9,147.8,185.2,147.8z"/>
<path class="st1" d="M192,145.3c-1.2-3.2-3.3-4.7-6.8-4.7c-0.9,0-1.7,0.2-2.6,0.5c0.5-1.1,0.6-2.4,0.3-3.6c-0.2-0.6-0.7-2.3-1.3-4
	c-0.3-0.9-0.6-1.7-0.8-2.5h0.4c0.6,0,1.1-0.1,1.3-0.6c0.4-1.2,0.5-2.4,0.3-3.6l0,0c-0.1-0.8-0.9-1-1.9-1c-0.6,0-1.1,0.2-1.5,0.5
	l-4.1,0.8c0.8-0.7,1.6-1.4,2.4-2.2l0,0c0.5-0.2,1-0.4,1.5-0.6l0.1,0.1c0.5,0.3,1.1,0.4,1.7,0.3c1.2-0.1,2.2-1.5,2.6-2.7l1.3,0.1l0,0
	c0,0,0,0,0.1,0h0.1h0.1l0,0l0,0l0,0l0,0l0,0l0,0l0,0l0,0c0,0,0,0,0-0.1l0,0l0,0l0,0l0,0c0-0.4-0.2-0.7-0.6-1
	c-0.1-0.1-0.2-0.2-0.3-0.3c0-1.6-1.2-2.9-2.7-3.1c-2.2-0.4-4.3,1-4.8,3.2h-0.3h-0.1h-0.1c-4.1-0.2-8.2,1.2-11.2,4
	c-3.6,3.3-4.5,6.8-3.7,8.6c0.1,0.3,0.3,0.5,0.5,0.6h-1.9l0.6-7.3c0-0.2,0-0.3-0.1-0.4c-0.1-0.1-0.3-0.2-0.4-0.2h-2.7l-0.9-5.5
	c0,0,0-0.1,0-0.1c-0.7-1.6-2.2-2.5-3.9-2.5c-1.1-0.1-2.1,0.4-2.7,1.3c-0.1,0.2-0.1,0.3-0.1,0.5c-1-0.2-2.1,0.2-2.7,1.1
	c-0.3,0.5-0.2,1.2,0.2,1.6c-0.3,0.1-0.6,0.3-0.8,0.6c-0.6,0.5-0.8,1.4-0.4,2.1c0.3,0.6,1.1,1.2,3.2,0.9l0.5,0.3
	c-0.2,0.1-0.3,0.3-0.4,0.5l-0.7,7.9c0,0.2,0,0.3,0.1,0.4c0.1,0.1,0.3,0.2,0.4,0.2h3.8c0,0.1-0.1,0.1-0.1,0.2l-0.8,2.1v0.1
	c-5.8,4.2-8.6,9.7-8,11.6c0.1,0.5,0.6,0.8,1.1,0.8h2c0,0.2-0.1,0.4-0.1,0.6c-0.3,3.1,1.9,6,5.1,6.3c0.2,0,0.5,0,0.7,0
	c3.5-0.1,6.4-2.8,6.8-6.2c0-0.2,0-0.4,0-0.7h14.2c0.9,0,1.8-0.2,2.6-0.7c0,0.1,0.1,0.2,0.2,0.3c0.3,0.3,0.6,0.4,1,0.4h0.7
	c0,0.2-0.1,0.4-0.1,0.6c-0.3,3.2,2,6,5.1,6.3c0.2,0,0.5,0,0.7,0c3.5-0.1,6.4-2.8,6.8-6.2c0.1-1.5-0.3-2.9-1.1-4.1h1.4
	c0.3,0,0.6-0.2,0.6-0.5c0-0.1,0-0.1,0-0.2L192,145.3z M180.9,123.6c-0.3,0-0.7,0-1-0.2c-0.2-0.1-0.3-0.2-0.5-0.2
	c-0.3,0-0.6,0-0.9,0.2c0.1-0.3,0.1-0.7,0-1c0.3,0,0.5,0.1,0.8,0.1c0.4,0,0.8-0.2,1.1-0.4c0.2-0.1,0.4-0.2,0.6-0.2
	c0.3,0,0.9,0,1.5,0.1C182.1,122.8,181.5,123.6,180.9,123.6z M181.8,118.3c1,0.2,1.8,1.1,1.8,2.1c0,0.2,0.1,0.4,0.2,0.5
	c-0.9-0.1-2.2-0.2-2.8-0.2c-0.4,0-0.8,0.2-1.1,0.4c-0.2,0.1-0.4,0.2-0.6,0.2c-0.4,0-0.8-0.1-1.2-0.2v-0.1
	C178.6,119.1,180,118,181.8,118.3z M166.2,125.2c2.8-2.6,6.6-4,10.5-3.7c0.3,0.1,0.5,0.4,0.6,0.6c0.3,0.6,0.2,1.3-0.2,1.9
	c-1.3,1.3-2.7,2.5-4.1,3.7l-0.8,0.2c-0.3,0.1-0.5,0.4-0.4,0.7c0.1,0.3,0.4,0.5,0.7,0.4l0,0l7.1-1.4c0.2,0.1,0.4,0.3,0.4,0.6
	s-0.4,0.4-0.9,0.6c-0.7-0.3-1.5-0.3-2.3,0c-1.9,0.9-3.9,1.6-6,2.1c-0.3,0-0.6-0.1-0.8-0.2c-0.2-0.2-0.3-0.5-0.3-0.8
	c0-0.6,1.7-3.8,3.4-5.2c0.2-0.2,0.3-0.6,0.1-0.8c0,0,0,0,0,0c-0.2-0.2-0.6-0.3-0.8-0.1c-1.7,1.4-3.8,4.9-3.8,6.1c0,0.1,0,0.2,0,0.4
	h-0.1c-1.8-0.5-3.8-0.6-5.6-0.4C163.6,128,164.7,126.4,166.2,125.2L166.2,125.2z M169.2,138.1c0.2-0.1,0.4-0.3,0.4-0.5
	c0,0,0,0,0-0.1l0.4-1.1l1.3,0.2c-0.8,1.5-2.7,5-3.7,7.2c-0.3,0.6-0.4,1.2-0.4,1.9h-0.3c-0.7,0-1.2-0.5-1.3-1.1
	C165,143,166,140.4,169.2,138.1L169.2,138.1z M168.6,144.3c1.3-2.8,4-7.8,4-7.9c0.1-0.3,0-0.6-0.3-0.8c-0.1,0-0.1,0-0.2-0.1
	c0,0-2.7-0.4-4.1-0.7c-1.7-0.4-5.1-1.8-5.3-2.4c-0.2-0.5-0.2-1-0.2-1.5c0.4-0.4,3.8-0.3,5.7,0.2l0,0c2.2,0.7,4.2,1.7,6,3
	c1.2,1.2,0.9,1.8,0.3,2.8s-4.4,6.7-4.4,6.8c-0.1,0.2-0.1,0.4,0,0.5c0.1,0.2,0.2,0.3,0.4,0.3c0.5,0.1,1.6,0.4,1.9,0.9
	c0,0.1,0.1,0.1,0.1,0.2h-4.3C168.3,145.2,168.4,144.7,168.6,144.3L168.6,144.3z M173.7,145.7c0-0.3-0.1-0.5-0.2-0.8
	c-0.5-0.6-1.1-1-1.9-1.2c1-1.5,3.5-5.2,4-6.1c0.8-1.2,1.3-2.4-0.4-4.2c-0.9-0.8-1.9-1.4-3-1.9c1.6-0.5,3.8-1.4,4.7-1.8
	c0.6,1.8,1.9,6.1,2.2,7.4c0.4,1.2,0.1,2.6-0.7,3.6l-0.6,0.9c-0.4,0.6-0.6,0.9-1.3,1.9C175.6,145,175.2,145.6,173.7,145.7
	L173.7,145.7z M152.4,125.7l-1.6-0.9l5.2-3.6l0.8,4.5H152.4z M151.9,120.8c0.3-0.4,1.6-0.4,2.6,0l-1.9,1.3
	C151.9,121.5,151.7,121,151.9,120.8L151.9,120.8z M151.5,122.9l-1.4,1c-0.5-0.3-0.6-0.6-0.6-0.7s0.1-0.2,0.3-0.3
	C150.3,122.8,150.9,122.8,151.5,122.9L151.5,122.9z M151.3,119.2c0.4-0.5,1-0.7,1.7-0.6c1.1,0,2.1,0.5,2.6,1.4l0,0
	c-1.2-0.7-2.8-0.9-4.1-0.3l0,0C151.2,119.5,151.3,119.3,151.3,119.2L151.3,119.2z M148.5,120.9c0.6-0.6,1.6-0.7,2.3-0.3l0,0
	c-0.1,0.4-0.1,0.8,0.1,1.1c-0.5,0-1,0-1.5,0.2C148.7,121.6,148.3,121.2,148.5,120.9L148.5,120.9z M147.4,124.1
	c-0.1-0.2,0-0.5,0.2-0.8c0.2-0.2,0.4-0.3,0.7-0.4c0,0.1,0,0.2,0,0.3c0,0.5,0.2,0.9,0.6,1.2C148,124.5,147.5,124.3,147.4,124.1
	L147.4,124.1z M150.8,126.8h9.1l-0.6,6.8h-9.1L150.8,126.8z M159.8,134.7h4.4c1.2,0.5,2.4,1,3.7,1.3l1,0.2l-0.3,0.8h-14.9l0.6-1.7
	c0.1-0.3,0.4-0.5,0.8-0.6L159.8,134.7z M159,150.1c-0.3,2.9-2.7,5.2-5.7,5.2c-1.3,0-2.6-0.5-3.5-1.5c-0.9-1-1.3-2.3-1.2-3.6
	c0-0.2,0-0.5,0.1-0.7h1.7c0,0.2-0.1,0.4-0.1,0.6c-0.2,1.8,1.1,3.3,2.9,3.5c0.1,0,0.3,0,0.4,0c1.9,0,3.5-1.5,3.7-3.4
	c0-0.2,0-0.5,0-0.7h1.7C159,149.7,159,149.9,159,150.1z M156.2,149.5c0,0.2,0,0.4,0,0.6c-0.1,1.3-1.3,2.4-2.6,2.4
	c-0.6,0-1.2-0.2-1.6-0.7c-0.4-0.4-0.6-1-0.5-1.6c0-0.2,0.1-0.5,0.1-0.7L156.2,149.5z M145.6,148.4c-0.1-0.2-0.1-0.4,0-0.6
	c0.3-1.8,2.5-6,7.5-9.7h14.3c-2.9,2.5-3.4,5.2-2.9,6.8c0.3,1.1,1.3,1.9,2.4,1.9h6.3c2.5,0,3.2-1,4.3-2.6c0.7-1,1-1.4,1.4-1.9
	l0.6-0.9c1-1.3,1.3-3,0.8-4.5c-0.4-1.3-1.7-5.5-2.2-7.4c0.3,0,0.5,0.1,0.8,0.2c0.1,0.1,0.3,0.1,0.4,0.1c0.3-0.1,1.8-0.6,1.9-1.7
	c0-0.4-0.1-0.8-0.4-1.1h0.3c0.3,0,0.5,0,0.8,0.1v0.1c0.1,0.9,0,1.9-0.2,2.8c-0.4,0-0.7,0-1.1,0H180h0h-0.1h-0.1l0,0h-0.1l0,0l0,0
	l0,0l0,0l0,0l0,0c0,0,0,0,0,0.1l0,0l0,0v0.6c0,0,0,0,0,0.1s0,0,0,0c0.3,0.9,0.7,2.1,1.1,3.3c0.5,1.6,1.1,3.3,1.2,3.9
	c0.4,1.3,0.1,2.6-0.7,3.7c-0.7,1-1.8,2.6-3.2,4.6c-0.3,0.4-0.6,0.9-1,1.3c0,0-0.1,0.1-0.1,0.1c-0.7,0.7-1.6,1.1-2.6,1L145.6,148.4z
	 M190.1,150.1c-0.3,2.9-2.7,5.2-5.7,5.2c-2.5,0.1-4.6-2-4.7-4.5c0-0.2,0-0.4,0-0.6c0-0.3,0.1-0.5,0.1-0.8c0.7-0.4,1.3-0.9,1.8-1.5
	c0.8-0.8,1.8-1.8,2.5-1.8h4.3C189.7,147.1,190.3,148.6,190.1,150.1L190.1,150.1z M184.2,145c-1.2,0-2.3,1.1-3.3,2.1
	c-0.5,0.5-1.2,1.3-1.5,1.3h-1.4c-0.1,0-0.1,0-0.2,0c-0.1-0.1-0.1-0.2-0.1-0.4c0.4-0.4,0.7-0.8,1-1.3l2.6-3.6l0,0
	c1.1-0.8,2.4-1.2,3.7-1.2c2.8,0,4.4,0.9,5.5,3.2L184.2,145z"/>
<path class="st0" d="M53.9,115.8h1.8c0.5-0.1,0.8-0.5,0.8-1c0-0.1,0-0.2-0.1-0.3L44.6,90.2c-0.1-0.4-0.6-0.5-0.9-0.4
	c-0.2,0.1-0.3,0.2-0.4,0.4l-12.4,24.4c-0.2,0.4-0.1,1,0.3,1.2c0.1,0.1,0.2,0.1,0.3,0.1h2L25,135.2c-0.2,0.4,0,1,0.4,1.2
	c0.1,0,0.2,0.1,0.3,0.1l36,0.2c0.5-0.1,0.8-0.5,0.8-1c0-0.1,0-0.2-0.1-0.3L53.9,115.8z"/>
<polyline class="st0" points="37.8,118.9 40.1,122.1 43.2,120.4 46.1,122.5 49,118.3 "/>
<path class="st0" d="M40.9,139.5v6.3c0,1.5-1.2,2.8-2.8,2.8c0,0,0,0,0,0h-3.2"/>
<path class="st0" d="M51.3,148.6H48c-1.5,0-2.8-1.2-2.8-2.8l0,0v-4.4"/>
<path class="st0" d="M340.5,106h19.4c1.8,0,3.3,1.5,3.3,3.3v42.3"/>
<path class="st0" d="M344.8,112c0-1.2,1-2.2,2.2-2.2h9.8c1.2,0,2.2,1,2.2,2.2v2.9c0,1.2-1,2.2-2.2,2.2h-1.9"/>
<path class="st0" d="M349.8,126.8h3.9c1.6,0,2.9,1.3,2.9,2.9v7.4c0,1.6-1.3,2.9-2.9,2.9h-3.9c-1.6,0-2.9-1.3-2.9-2.9v-7.4
	C346.9,128.1,348.2,126.8,349.8,126.8z"/>
</svg>
