<svg version="1.1" id="Layer_1" xmlns="http://www.w3.org/2000/svg" x="0" y="0" viewBox="0 0 466.3 158" style="enable-background:new 0 0 466.3 158" xml:space="preserve"><style>.st0,.st2{fill:none;stroke:#919da8;stroke-width:1.29;stroke-linecap:round;stroke-linejoin:round}.st2{stroke-width:.8379}</style><path class="st0" d="M155 77h-54c-4.6.2-8.4-3.4-8.5-8-.2-4.6 3.4-8.4 8-8.5h12.1c1 0 1.8-.7 1.9-1.7.8-6.3 6.6-10.9 12.9-10.1 4.8.6 8.7 4.1 9.9 8.8.2 1 1.2 1.6 2.2 1.4.2 0 .3-.1.5-.2 2.4-1.3 5.5-.4 6.8 2 .4.7.6 1.4.6 2.1 0 1 .9 1.8 1.9 1.8h5.8c3.4.1 6 3 5.9 6.4-.3 3.3-2.9 5.8-6 6h0z"/><path class="st0" d="M53 54.4c-3.2 1.6-5.6 4.6-6.4 8.1-.2 1.1-1.3 1.8-2.4 1.5h0c-.2 0-.4-.1-.5-.2-2.5-1.4-5.7-.5-7.1 2-.4.7-.6 1.5-.7 2.4 0 1.1-.9 1.9-2 1.9h-6.1c-3.6 0-6.5 2.9-6.5 6.5s2.9 6.5 6.5 6.5h50.4c4.8 0 8.7-3.9 8.7-8.7s-3.9-8.7-8.7-8.7h0l-10.5-.2c-1.8 0-3.7-.3-5.4-1-7.9-3-11.8-11.8-8.9-19.6C55.6 39 61.3 35 67.6 35h1.5c1.8 0 3.3-1.3 3.5-3.1 1.4-11.7 12.1-20 23.8-18.6 8.9 1.1 16.1 7.6 18.2 16.3.4 1.9 2.3 3.1 4.2 2.6l.9-.3c4.4-2.5 10-.9 12.5 3.5.7 1.3 1.1 2.7 1.2 4.1.1 1.9 1.6 3.4 3.5 3.4h4.3c6.3 0 11.3 5.1 11.3 11.4 0 3.3-1.5 6.5-4 8.6"/><path class="st0" d="M48.2 100.6c-.1-2.6 1.9-4.7 4.5-4.8h4.2c.8 0 1.4-.7 1.4-1.4 0-.6.2-1.2.5-1.8.8-1.7 2.9-2.5 4.6-1.7.1 0 .2.1.3.2s.2.1.4.2c.7.2 1.5-.3 1.7-1.1v-.1c.7-3.6 3.6-6.4 7.2-7 4.6-.6 8.8 3 9.4 8 0 .7.6 1.3 1.4 1.3h4.1c3.6.3 6.3 3.4 6 7-.3 3.2-2.8 5.7-6 6h-35c-2.8-.1-4.8-2.2-4.7-4.8-.1 0-.1 0 0 0z"/><path class="st0" d="M48.2 100.7h-4.4c-4.8 0-8.8-3.9-8.8-8.8h0c0-4.9 3.9-8.8 8.8-8.8h21M100 77v64.3c0 3.9 3.2 7.1 7.1 7.1h0M77.6 148.4H81c3.9 0 7.1-3.2 7.1-7.1h0v-35.8"/><path class="st0" d="M126.6 77.6c0 12.3-14.4 23.6-26.7 23.6M86.3 124.3c-10.4 0-17.9-7.8-17.9-18.2"/><circle class="st0" cx="55.3" cy="16.8" r="5.1"/><path class="st0" d="M55.3 1.2v3.6M70.9 16.8h-3.6M55.3 32.3v-3.6M39.8 16.8h3.6M66.3 5.8l-2.5 2.5M66.3 27.8l-2.5-2.6M44.3 27.8l2.6-2.6M44.3 5.8l2.6 2.5M194.6 88.9h-11.7c-1.4 0-2.6-1.2-2.6-2.6v-1.2c0-1.4 1.2-2.6 2.6-2.6h11.7c1.4 0 2.6 1.2 2.6 2.6v1.2c0 1.4-1.1 2.6-2.6 2.6zM176.9 67.6h12.2c2.3-.1 4.1-2.1 4-4.4-.1-2.2-1.8-3.9-4-4h-3.6c-2.3 0-4.2-1.9-4.2-4.2h0v-.6c0-2.3 1.9-4.2 4.2-4.2h39.4c2.3 0 4.2 1.9 4.2 4.2v.6c0 2.3-1.9 4.2-4.2 4.2h0-10.2c-2.3.1-4.1 2.1-4 4.4.1 2.2 1.8 3.9 4 4h2.3c2.3 0 4.2 1.9 4.2 4.2h0v.6c0 2.3-1.9 4.2-4.2 4.2h0-40.1c-2.3 0-4.2-1.9-4.2-4.2v-.6c0-2.3 1.9-4.2 4.2-4.2zM187.9 123.9v27.7M129.8 151.6v-27.7M150.1 151.6v-21.5c0-1.2 1-2.2 2.2-2.2h13c1.2 0 2.2 1 2.2 2.2v21.5M173.7 129h7.1c1 0 1.8.8 1.8 1.8v6.1c0 1-.8 1.8-1.8 1.8h-7.1c-1 0-1.8-.8-1.8-1.8v-6.1c0-1 .8-1.8 1.8-1.8zM172.3 141.9h9.8M136.9 129h7.1c1 0 1.8.8 1.8 1.8v6.1c0 1-.8 1.8-1.8 1.8h-7.1c-1 0-1.8-.8-1.8-1.8v-6.1c0-1 .8-1.8 1.8-1.8zM135.6 141.9h9.7M160.3 112l32.2 9.3c1.5.4 3.1-.5 3.6-2h0c.4-1.5-.4-3.1-2-3.6h0l-35-10.1h-.4l-35 10.1c-1.5.4-2.4 2-2 3.5h0c.4 1.5 2 2.4 3.6 2h0l32.1-9.2c.9-.3 2-.3 2.9 0z"/><path class="st0" d="M158.4 118.5h.9c2.2 0 3.9 1.7 3.9 3.9v.6h0-8.7 0v-.6c0-2.2 1.7-3.9 3.9-3.9z"/><circle class="st0" cx="164.7" cy="139.6" r=".3"/><path class="st0" d="M182.5 112.4v-9.1c0-1.2-1-2.1-2.1-2.2h-6.3c-1.2 0-2.2 1-2.2 2.2h0v6.1M172.7 96h9c.4 0 .8.4.8.8V98c0 .4-.4.8-.8.8h-9c-.4 0-.8-.4-.8-.8v-1.2c0-.4.4-.8.8-.8zM70.8 148.6H41.9M113.3 148.6h10.4M212.9 148.6h38.3M272.8 148.6h36.9"/><path d="M25.9 150.1c-.2 1.8 1.1 3.3 2.9 3.5h.4c1.9 0 3.5-1.5 3.7-3.4.2-1.8-1.1-3.3-2.9-3.5h-.4c-1.9 0-3.5 1.5-3.7 3.4zm3.7-2.3c.6 0 1.2.2 1.6.7.4.4.6 1 .5 1.6-.1 1.3-1.3 2.4-2.6 2.4-.6 0-1.2-.2-1.6-.7s-.6-1-.5-1.6c.2-1.3 1.3-2.4 2.6-2.4z" style="fill:#919da8"/><path class="st0" d="M184.9 106h19.4c1.8 0 3.3 1.5 3.3 3.3v42.3"/><path class="st0" d="M189.2 112c0-1.2 1-2.2 2.2-2.2h9.8c1.2 0 2.2 1 2.2 2.2v2.9c0 1.2-1 2.2-2.2 2.2h-1.9M194.2 126.8h3.9c1.6 0 2.9 1.3 2.9 2.9v7.4c0 1.6-1.3 2.9-2.9 2.9h-3.9c-1.6 0-2.9-1.3-2.9-2.9v-7.4c0-1.6 1.3-2.9 2.9-2.9zM352.4 150.2h-29M391.3 149.8h-12.1M451.6 150.2h9.8M419.7 129l-15.5-26.9c-6.9-11.9 1.7-26.9 15.5-26.9h0c13.8 0 22.4 14.9 15.5 26.9L419.7 129z"/><circle class="st0" cx="419.7" cy="93.4" r="9"/><path class="st0" d="M419.7 129v18.3c0 3.9-3.2 7.1-7.1 7.1h-44.5c-3.9 0-7.1-3.2-7.1-7.1V66.2c0-3.9 3.2-7.1 7.1-7.1h44.5c3.9 0 7.1 3.2 7.1 7.1v8.2M361.1 69h58.6M361.1 144.4h58.6M383 150h13"/><path class="st2" d="M292 135.4c-1.1-3.3-4.3-5.7-7.9-5.7-4.6 0-8.4 3.8-8.4 8.4 0 1 .2 1.9.5 2.8.7-1 3.2-4.2 7.7-5.6 3.7-.9 6.8-.2 8.1.1z"/><path class="st2" d="M285 129.8c-3.1-5.3-6.3-10.6-9.4-15.8-.4-.3-1-.7-2-1-.6-.2-1.2-.2-1.6-.2-.1 0-.8.3-1.2 1-.3.6-.2 1.2-.2 1.4l3 14.7c0 .1.4 1.4-.4 2.5s-2 1.2-2.1 1.2H258c-.3-.1-.9-.5-1.4-1.2-.6-.9-.6-1.8-.6-2.1v-3.2c-.1-.3-.4-1.4-1.4-2.1-1.2-.9-2.5-.8-2.7-.8h-9.4c-1.1.6-2.8 1.6-4.3 3.5-.7.9-1.1 1.8-2 3.5-1.7 3.5-2.5 5.3-1.8 6.4.2.3.7.9 2 1.2h39.1-39.1 3.5"/><circle class="st2" cx="284.6" cy="139.8" r="4.3"/><path class="st2" d="M290.7 135.1c1 1.3 1.6 2.9 1.6 4.6 0 4.2-3.4 7.6-7.6 7.6-4.2 0-7.6-3.3-7.6-7.5M254.4 138.8c.1.4.1.8.1 1.2 0 4-3.2 7.2-7.2 7.2s-7.2-3.2-7.2-7.2c0-.4 0-.8.1-1.2"/><path class="st2" d="M250.8 138.8c.1.4.2.8.2 1.2 0 2.1-1.7 3.7-3.7 3.7-2.1 0-3.7-1.7-3.7-3.7 0-.4.1-.8.2-1.2M263.1 133.5v-9.1c-.1-.7-.4-2.3-1.5-3.8-1.7-2.2-4-2.7-4.7-2.8-2.9 0-5.9-.1-8.8-.1v-7.6c.5-1 1.7-3.5 4.5-5.3 3.5-2.3 6.8-2.1 7.2-2l.8.2s.3.1.5.2c1.6.6 3.4 2.5 3.4 2.5.7.7 1.6 1.9 2.3 3.5h6.6c.3 0 1 .1 1.4.6 0 0 0 .1.1.1.4.5.3 1.2.3 1.7v2.1"/><path class="st2" d="M271.1 109.3V113.5c-.1.1-.1.2-.2.3-.2.4-.2.7-.2 1h-7c-.4-.1-2.3-.5-3.5-2.3-1-1.5-1-3-1-3.5"/><path class="st2" d="M258.6 118.3s1.4-4.2 3.5-4.2M245.7 124.1h-17.2c-1.3 0-2.3-1.1-2.3-2.3v-12.7c0-1.3 1.1-2.3 2.3-2.3h17.2c1.3 0 2.3 1.1 2.3 2.3v12.7c.1 1.3-1 2.3-2.3 2.3zM282.3 120.4h0c-1.8-.3-3.1-1.1-3.6-1.6l-.6-.8c-.2-.3-.3-.6-.4-.8-.1-.3-.1-.5-.2-.6-.1-.3-.1-.7-.1-1.1v0c0-2.7 2.2-4.9 4.9-4.9h0c.4 0 .8.3.8.8v8.2c0 .5-.4.8-.8.8zM261.6 103.3c.3 0 .7.1 1.1.1 3.9-.2 7.4-3.5 7.4-7.4.1-4.2-3.8-6.9-6.6-7.6-2.5-.7-6.5-.6-8.4 2.1-1.5 2.2-.7 5-.4 6.3.9 3.4 3.5 5.2 4.8 5.9l.1.1H259.9c.3.1.5.2.8.2l.6.2.3.1z"/><path class="st2" d="m264 103.2-1.5-4.5c-.2-.5-.5-2 .2-2.7.3-.3.8-.5 3.5.2 1.6.4 2.9.8 3.8 1.1"/></svg>