<?xml version="1.0" encoding="utf-8"?>
<!-- Generator: Adobe Illustrator 22.1.0, SVG Export Plug-In . SVG Version: 6.00 Build 0)  -->
<svg version="1.1" id="Layer_1" xmlns="http://www.w3.org/2000/svg" xmlns:xlink="http://www.w3.org/1999/xlink" x="0px" y="0px"
	 viewBox="0 0 466.8 158" style="enable-background:new 0 0 466.8 158;" xml:space="preserve">
<style type="text/css">
	.st0{fill:none;stroke:#919DA8;stroke-width:1.78;stroke-linecap:round;stroke-linejoin:round;}
</style>
<title>Haul</title>
<path class="st0" d="M375.2,114.4h-30.1c-2.5,0-4.6-2.1-4.6-4.6c0-2.5,2.1-4.6,4.6-4.6c0,0,0,0,0,0h6.4c0.5,0,1-0.4,1.1-0.9
	c0.4-3.5,3.6-6.1,7.2-5.7c2.7,0.3,4.9,2.3,5.5,4.9c0.1,0.6,0.7,0.9,1.3,0.8c0.1,0,0.2-0.1,0.3-0.1c1.3-0.8,3-0.3,3.8,1
	c0.2,0.4,0.4,0.8,0.4,1.3c0,0.6,0.5,1,1.1,1h3.2c1.9,0.1,3.3,1.7,3.2,3.6C378.4,112.9,377,114.3,375.2,114.4L375.2,114.4z"/>
<path class="st0" d="M318.4,101.9c-1.8,0.9-3.1,2.6-3.6,4.5c-0.1,0.6-0.7,1-1.3,0.8c0,0,0,0,0,0c-0.1,0-0.2-0.1-0.3-0.1
	c-1.4-0.8-3.2-0.3-4,1.1c0,0,0,0,0,0c-0.2,0.4-0.4,0.8-0.4,1.3c0,0.6-0.5,1.1-1.1,1.1h-3.4c-2,0-3.6,1.6-3.6,3.6
	c0,2,1.6,3.6,3.6,3.6h28.1c2.7-0.1,4.8-2.4,4.6-5.1c-0.1-2.5-2.1-4.5-4.6-4.6l0,0l-5.9-0.1c-4.7,0-8.5-3.8-8.5-8.5s3.8-8.5,8.5-8.5
	h0.8c1,0,1.8-0.8,2-1.8c0.8-6.5,6.7-11.2,13.3-10.4c5,0.6,9,4.2,10.2,9.1c0.3,1,1.3,1.7,2.4,1.5c0.2,0,0.3-0.1,0.5-0.2
	c2.4-1.4,5.6-0.5,7,1.9c0,0,0,0.1,0,0.1c0.4,0.7,0.6,1.5,0.6,2.3c0.1,1.1,0.9,1.9,2,1.9h2.4c3.5,0,6.3,2.9,6.3,6.4
	c0,1.9-0.8,3.6-2.3,4.8"/>
<path class="st0" d="M315.6,127.6c-0.1-1.4,1.1-2.6,2.5-2.7h2.3c0.4,0,0.8-0.4,0.8-0.8c0-0.3,0.1-0.7,0.3-1c0.5-1,1.6-1.4,2.6-0.9
	c0.1,0,0.1,0.1,0.2,0.1c0.1,0,0.1,0.1,0.2,0.1c0.4,0.1,0.8-0.2,0.9-0.6c0,0,0,0,0-0.1c0.4-2,2-3.6,4-3.9c2.6-0.2,5,1.7,5.2,4.3
	c0,0,0,0.1,0,0.1c0,0.4,0.4,0.7,0.8,0.7h2.3c2,0.1,3.5,1.9,3.4,3.9c-0.1,1.8-1.6,3.2-3.4,3.4h-19.5
	C316.7,130.2,315.6,129.1,315.6,127.6z"/>
<path class="st0" d="M315.6,127.7h-2.5c-2.7,0-4.9-2.2-4.9-4.9l0,0c0-2.7,2.2-4.9,4.9-4.9c0,0,0,0,0,0h11.7"/>
<path class="st0" d="M344.6,114.4v35.8c0,2.2,1.8,4,4,4"/>
<path class="st0" d="M332.1,154.3h1.9c2.2,0,4-1.8,4-4v-20"/>
<path class="st0" d="M359.4,114.8c0,6.9-8,13.2-14.9,13.2"/>
<path class="st0" d="M337,140.8c-5.4,0.1-9.9-4.2-10-9.6c0-0.2,0-0.4,0-0.6"/>
<circle class="st0" cx="224" cy="31.8" r="4.1"/>
<line class="st0" x1="224" y1="19.1" x2="224" y2="22.1"/>
<line class="st0" x1="236.6" y1="31.8" x2="233.7" y2="31.8"/>
<line class="st0" x1="224" y1="44.4" x2="224" y2="41.5"/>
<line class="st0" x1="211.4" y1="31.8" x2="214.3" y2="31.8"/>
<line class="st0" x1="232.9" y1="22.8" x2="230.9" y2="24.9"/>
<line class="st0" x1="232.9" y1="40.7" x2="230.9" y2="38.6"/>
<line class="st0" x1="215.1" y1="40.7" x2="217.2" y2="38.6"/>
<line class="st0" x1="215.1" y1="22.8" x2="217.2" y2="24.9"/>
<path class="st0" d="M133.3,53.7h10.9c1.4,0,2.5,1.1,2.5,2.5v1c0,1.4-1.1,2.5-2.5,2.5h-10.9c-1.4,0-2.5-1.1-2.5-2.5v-1
	C130.8,54.8,131.9,53.7,133.3,53.7z"/>
<path class="st0" d="M149.9,39.7h-11.5c-2.2-0.3-3.7-2.4-3.4-4.6c0.3-1.7,1.6-3.1,3.4-3.4h3.4c2.2,0,4-1.8,4-4v-0.5c0-2.2-1.8-4-4-4
	h-37.1c-2.2,0-4,1.8-4,4v0.6c0,2.2,1.8,4,4,4l0,0h9.6c2.2-0.3,4.2,1.2,4.6,3.4c0.3,2.2-1.2,4.2-3.4,4.6c-0.4,0.1-0.8,0.1-1.2,0h-2.2
	c-2.2,0-4,1.8-4,4v0.5c0,2.2,1.8,4,4,4h37.9c2.2,0,4-1.8,4-4v-0.6C153.9,41.5,152.1,39.7,149.9,39.7z"/>
<path class="st0" d="M57.1,18.1H45.6c-2.2-0.3-3.7-2.4-3.4-4.6c0.3-1.7,1.6-3.1,3.4-3.4H49c2.2,0,4-1.8,4-4V5.6c0-2.2-1.8-4-4-4
	H11.9c-2.2,0-4,1.8-4,4v0.6c0,2.2,1.8,4,4,4l0,0h9.6c2.2-0.3,4.2,1.2,4.6,3.4c0.3,2.2-1.2,4.2-3.4,4.6c-0.4,0.1-0.8,0.1-1.2,0h-2.2
	c-2.2,0-4,1.8-4,4v0.5c0,2.2,1.8,4,4,4h37.8c2.2,0,4-1.8,4-4V22C61.1,19.8,59.3,18.1,57.1,18.1z"/>
<path class="st0" d="M337.1,60.4H348c1.4,0,2.5,1.1,2.5,2.5v1c0,1.4-1.1,2.5-2.5,2.5h-10.9c-1.4,0-2.5-1.1-2.5-2.5v-1
	C334.6,61.6,335.7,60.4,337.1,60.4z"/>
<path class="st0" d="M353.7,46.5h-11.5c-2.2-0.3-3.7-2.4-3.4-4.6c0.3-1.7,1.6-3.1,3.4-3.4h3.4c2.2,0,4-1.8,4-4V34c0-2.2-1.8-4-4-4
	h-37.1c-2.2,0-4,1.8-4,4v0.6c0,2.2,1.8,4,4,4h9.6c2.2,0.3,3.7,2.4,3.4,4.6c-0.3,1.7-1.6,3.1-3.4,3.4h-2.2c-2.2,0-4,1.8-4,4v0.6
	c0,2.2,1.8,3.9,4,4h37.8c2.2,0,4-1.8,4-4v-0.6C357.7,48.3,355.9,46.5,353.7,46.5z"/>
<path class="st0" d="M53.6,154.1c0-2.6-1.4-5-3.8-6.1c0.1-0.6,0.2-1.1,0.2-1.7c0-5.8-4.7-10.5-10.5-10.5c-3.8,0-7.2,2-9.1,5.3
	c-2.9-1.9-6.7-1.1-8.6,1.7c-0.5,0.8-0.9,1.7-1,2.7h-0.1c-3.9,0-7.2,3.2-7.2,7.1c0,0.5,0.1,1,0.2,1.5"/>
<path class="st0" d="M34.5,137.1c-2-1.3-4.3-2-6.6-2.1c-3.9,0-7.5,2.1-9.5,5.5c-3-2-7-1.2-9,1.8c-0.6,0.8-0.9,1.8-1,2.8H8.3
	c-4.1,0-7.5,3.3-7.5,7.4c0,0.6,0.1,1.1,0.2,1.6"/>
<line class="st0" x1="25.2" y1="154.3" x2="59.8" y2="154.3"/>
<line class="st0" x1="132.4" y1="122.2" x2="132.4" y2="156.9"/>
<line class="st0" x1="62.2" y1="156.9" x2="62.2" y2="122.2"/>
<path class="st0" d="M70.9,156.9v-25.9c0-1.5,1.2-2.7,2.7-2.7h47.3c1.5,0,2.7,1.2,2.7,2.7v25.9"/>
<path class="st0" d="M56.9,106.6v5c0,3.6,2.9,6.6,6.6,6.6c2.3,0,4.4-1.2,5.6-3.1c1.3,2.7,4.5,3.8,7.1,2.6c1-0.5,1.8-1.3,2.4-2.2
	c1.4,2.6,4.7,3.5,7.3,2.1c0.9-0.5,1.6-1.2,2.1-2.1c1.4,2.6,4.7,3.5,7.3,2.1c0.9-0.5,1.6-1.2,2.1-2.1c1.4,2.6,4.7,3.5,7.3,2.1
	c0.9-0.5,1.6-1.2,2.1-2.1c1.4,2.6,4.7,3.5,7.3,2.1c0.9-0.5,1.6-1.2,2.1-2.1c1.4,2.6,4.7,3.5,7.3,2.1c1-0.5,1.8-1.4,2.2-2.4
	c1.9,3.1,6,4,9.1,2.1c1.9-1.2,3.1-3.3,3.1-5.6v-5"/>
<path class="st0" d="M57,90.6h80.7c0.8,0,1.5,0.7,1.5,1.5v9.9c0,0.8-0.7,1.5-1.5,1.5H57c-0.8,0-1.5-0.7-1.5-1.5v-9.9
	C55.4,91.2,56.1,90.6,57,90.6z"/>
<line class="st0" x1="75.2" y1="134.9" x2="119.3" y2="134.9"/>
<line class="st0" x1="75.2" y1="140.1" x2="119.3" y2="140.1"/>
<line class="st0" x1="75.2" y1="145.3" x2="119.3" y2="145.3"/>
<line class="st0" x1="75.2" y1="150.6" x2="119.3" y2="150.6"/>
<line class="st0" x1="75.2" y1="155.1" x2="119.3" y2="155.1"/>
<path class="st0" d="M62.1,80.8h8c1.1,0,2.1,0.9,2.1,2.1v7.7l0,0H60l0,0v-7.7C60,81.8,60.9,80.8,62.1,80.8
	C62.1,80.8,62.1,80.8,62.1,80.8z"/>
<path class="st0" d="M77.7,80.8h8c1.1,0,2.1,0.9,2.1,2.1v7.7l0,0H75.6l0,0v-7.7C75.6,81.8,76.5,80.8,77.7,80.8
	C77.7,80.8,77.7,80.8,77.7,80.8z"/>
<path class="st0" d="M93.3,80.8h8c1.1,0,2.1,0.9,2.1,2.1v7.7l0,0H91.2l0,0v-7.7C91.2,81.8,92.1,80.8,93.3,80.8
	C93.3,80.8,93.3,80.8,93.3,80.8z"/>
<path class="st0" d="M108.9,80.8h8c1.1,0,2.1,0.9,2.1,2.1v7.7l0,0h-12.1l0,0v-7.7C106.8,81.8,107.8,80.8,108.9,80.8
	C108.9,80.8,108.9,80.8,108.9,80.8z"/>
<path class="st0" d="M124.5,80.8h8c1.1,0,2.1,0.9,2.1,2.1v7.7l0,0h-12.1l0,0v-7.7C122.4,81.8,123.4,80.8,124.5,80.8
	C124.5,80.8,124.5,80.8,124.5,80.8z"/>
<line class="st0" x1="136.4" y1="154.3" x2="140.2" y2="154.3"/>
<line class="st0" x1="161.8" y1="154.3" x2="165.7" y2="154.3"/>
<line class="st0" x1="296.5" y1="154.3" x2="331.1" y2="154.3"/>
<line class="st0" x1="352.2" y1="154.3" x2="377.8" y2="154.3"/>
<line class="st0" x1="388.9" y1="122.2" x2="388.9" y2="156.9"/>
<line class="st0" x1="459.2" y1="156.9" x2="459.2" y2="122.2"/>
<path class="st0" d="M450.4,156.9v-25.9c0-1.5-1.2-2.7-2.7-2.7h-47.3c-1.5,0-2.7,1.2-2.7,2.7c0,0,0,0,0,0v25.9"/>
<path class="st0" d="M464.4,106.6v5c0,3.6-2.9,6.6-6.6,6.6c-2.3,0-4.4-1.2-5.6-3.1c-1.3,2.7-4.4,3.8-7.1,2.6c-1-0.5-1.9-1.3-2.4-2.2
	c-1.4,2.6-4.7,3.5-7.3,2.1c-0.9-0.5-1.6-1.2-2.1-2.1c-1.4,2.6-4.7,3.5-7.3,2.1c-0.9-0.5-1.6-1.2-2.1-2.1c-1.4,2.6-4.7,3.5-7.3,2.1
	c-0.9-0.5-1.6-1.2-2.1-2.1c-1.4,2.6-4.7,3.5-7.3,2.1c-0.9-0.5-1.6-1.2-2.1-2.1c-1.5,2.6-4.7,3.5-7.3,2c-1-0.5-1.8-1.4-2.2-2.4
	c-1.9,3.1-6,4-9.1,2.1c-1.9-1.2-3.1-3.3-3.1-5.6v-5"/>
<path class="st0" d="M464.4,103.5h-80.7c-0.8,0-1.5-0.7-1.5-1.5v-9.9c0-0.8,0.7-1.5,1.5-1.5h80.7c0.8,0,1.5,0.7,1.5,1.5v9.9
	C465.9,102.8,465.2,103.5,464.4,103.5z"/>
<line class="st0" x1="446.1" y1="134.9" x2="402" y2="134.9"/>
<line class="st0" x1="446.1" y1="140.1" x2="402" y2="140.1"/>
<line class="st0" x1="446.1" y1="145.3" x2="402" y2="145.3"/>
<line class="st0" x1="446.1" y1="150.6" x2="402" y2="150.6"/>
<line class="st0" x1="446.1" y1="155.1" x2="402" y2="155.1"/>
<path class="st0" d="M461.3,90.6h-12.1l0,0v-7.7c0-1.1,0.9-2.1,2.1-2.1h8c1.1,0,2.1,0.9,2.1,2.1L461.3,90.6L461.3,90.6L461.3,90.6z"
	/>
<path class="st0" d="M445.7,90.6h-12.1l0,0v-7.7c0-1.1,0.9-2.1,2.1-2.1h8c1.1,0,2.1,0.9,2.1,2.1L445.7,90.6L445.7,90.6L445.7,90.6z"
	/>
<path class="st0" d="M430.1,90.6H418l0,0v-7.7c0-1.1,0.9-2.1,2.1-2.1c0,0,0,0,0.1,0h8c1.1,0,2,0.9,2,2.1V90.6L430.1,90.6z"/>
<path class="st0" d="M414.5,90.6h-12.1l0,0v-7.7c0-1.1,0.9-2.1,2.1-2.1h8c1.1,0,2.1,0.9,2.1,2.1L414.5,90.6L414.5,90.6L414.5,90.6z"
	/>
<path class="st0" d="M398.9,90.6h-12.1l0,0v-7.7c0-1.1,0.9-2.1,2.1-2.1h8c1.1,0,2.1,0.9,2.1,2.1L398.9,90.6L398.9,90.6L398.9,90.6z"
	/>
<line class="st0" x1="385" y1="154.3" x2="381.1" y2="154.3"/>
<polyline class="st0" points="313,94.7 233.9,50.3 227.8,55.3 "/>
<polyline class="st0" points="245.3,66.6 193.7,37.6 140.6,81.3 "/>
<line class="st0" x1="175.1" y1="98.6" x2="163.1" y2="108.6"/>
<polyline class="st0" points="241.1,90.9 207.5,72 179.9,94.7 "/>
<polyline class="st0" points="269.9,90.7 242.8,75.5 235.6,81.3 "/>
<line class="st0" x1="193.7" y1="46.8" x2="177.2" y2="60.4"/>
<path class="st0" d="M159,125.8h1.2c0.4,0,0.6-0.6,0.4-1.1l-8.1-21.2c-0.2-0.5-0.7-0.5-0.9,0l-8.5,21.2c-0.2,0.5,0,1.2,0.4,1.2h1.4
	l-6,16.8c-0.2,0.5,0.1,1.1,0.5,1.1l24.8,0.2c0.4,0,0.6-0.6,0.5-1.1L159,125.8z"/>
<polyline class="st0" points="147.8,128.4 149.4,131.2 151.6,129.8 153.6,131.6 155.6,127.9 "/>
<path class="st0" d="M149.5,146.3v5.5c0,1.3-1.1,2.4-2.4,2.4h-2.8"/>
<path class="st0" d="M158.5,154.3h-2.8c-1.3,0-2.4-1.1-2.4-2.4c0,0,0,0,0,0V148"/>
<path class="st0" d="M199.5,97.2h33.2c0.9,0,1.6,0.7,1.6,1.6v22.5c0,0.9-0.7,1.6-1.6,1.6h-33.2c-0.9,0-1.6-0.7-1.6-1.6V98.8
	C197.9,97.9,198.6,97.2,199.5,97.2z"/>
<path class="st0" d="M250.1,128.3h1.7c6.1,0,6.1-9.4,6.1-9.4c-0.1-0.7-0.4-1.4-1-1.8c-1-0.9-6.9-5.4-6.9-5.4l-8.9-10.6
	c0,0-2.5-2.6-4-2.6h-2.9"/>
<line class="st0" x1="214.9" y1="128.2" x2="241.3" y2="128.2"/>
<path class="st0" d="M200.3,122.8v1.1c0,2.4,1.9,4.3,4.3,4.3c0,0,0,0,0,0h0.6"/>
<path class="st0" d="M252.2,113.4h-12.7c-0.9,0-1.6-0.7-1.6-1.6l0,0V109c0-0.9,0.7-1.6,1.6-1.6l0,0h6.8"/>
<path class="st0" d="M257.4,121.5h-2.2c-0.2,0-0.3-0.1-0.3-0.3v-2.4c0-0.2,0.1-0.3,0.3-0.3h2.4c0.2,0,0.3,0.1,0.3,0.3l-0.3,2.4
	C257.6,121.3,257.5,121.5,257.4,121.5z"/>
<line class="st0" x1="254.8" y1="123.8" x2="257" y2="123.8"/>
<line class="st0" x1="206.5" y1="97.2" x2="206.5" y2="122.8"/>
<line class="st0" x1="216.1" y1="97.2" x2="216.1" y2="122.8"/>
<line class="st0" x1="225.7" y1="97.2" x2="225.7" y2="122.8"/>
<line class="st0" x1="197.9" y1="102.9" x2="200.3" y2="102.9"/>
<line class="st0" x1="197.9" y1="117" x2="200.3" y2="117"/>
<line class="st0" x1="206.5" y1="102.9" x2="208.8" y2="102.9"/>
<line class="st0" x1="206.5" y1="117" x2="208.8" y2="117"/>
<line class="st0" x1="216.1" y1="102.9" x2="218.4" y2="102.9"/>
<line class="st0" x1="216.1" y1="117" x2="218.4" y2="117"/>
<line class="st0" x1="225.7" y1="102.9" x2="228" y2="102.9"/>
<line class="st0" x1="225.7" y1="117" x2="228" y2="117"/>
<circle class="st0" cx="245.8" cy="130.1" r="4.4"/>
<circle class="st0" cx="245.8" cy="130.1" r="1.3"/>
<circle class="st0" cx="209.9" cy="130.1" r="4.4"/>
<circle class="st0" cx="209.9" cy="130.1" r="1.3"/>
<path class="st0" d="M181.8,153.5c0,1.8-1.5,3.3-3.3,3.3c0,0,0,0,0,0h-7.3c-1.8,0-3.3-1.5-3.3-3.3c0,0,0,0,0,0v-12.3
	c0-1.8,1.5-3.3,3.3-3.3c0,0,0,0,0,0h7.3c1.9,0,3.4,1.5,3.4,3.3c0,0,0,0,0,0"/>
<path class="st0" d="M279.9,152.4c-31.9-15.6-69.1-15.6-101,0c-0.9,0.5-2.1,0.1-2.6-0.8l-1.4-2.8c-0.4-1,0-2.1,1-2.5c0,0,0,0,0,0
	c33.7-16.5,73.2-16.5,106.9,0c1,0.4,1.4,1.5,1,2.5c0,0,0,0,0,0l-1.4,2.8C282,152.5,280.9,152.8,279.9,152.4z"/>
<path class="st0" d="M277.5,141.3c0-1.9,1.5-3.3,3.4-3.3l0,0h7.3c1.8,0,3.3,1.5,3.3,3.3c0,0,0,0,0,0v12.3c0,1.8-1.5,3.3-3.3,3.3
	c0,0,0,0,0,0h-7.3c-1.8,0-3.3-1.5-3.4-3.3c0,0,0,0,0,0"/>
</svg>
