<?xml version="1.0" encoding="utf-8"?>
<!-- Generator: Adobe Illustrator 22.1.0, SVG Export Plug-In . SVG Version: 6.00 Build 0)  -->
<svg version="1.1" id="Layer_1" xmlns="http://www.w3.org/2000/svg" xmlns:xlink="http://www.w3.org/1999/xlink" x="0px" y="0px"
	 viewBox="0 0 466.3 158" style="enable-background:new 0 0 466.3 158;" xml:space="preserve">
<style type="text/css">
	.st0{fill:none;stroke:#919DA8;stroke-width:1.29;stroke-linecap:round;stroke-linejoin:round;}
</style>
<title>Field</title>
<path class="st0" d="M38.5,131.2c-2.2-1.5-4.8-2.3-7.5-2.3c-4.4,0-8.5,2.4-10.7,6.2c-3.3-2.2-7.9-1.3-10.1,2c-0.6,0.9-1,2-1.2,3.1H9
	c-4.6,0-9.2,3.8-8.3,10.1"/>
<path class="st0" d="M363.5,86.7h-34c-2.9-0.1-5.1-2.5-5-5.4c0.1-2.7,2.3-4.8,5-5h7.3c0.6,0,1.1-0.5,1.2-1.1c0.5-4,4.1-6.8,8.1-6.3
	c3,0.4,5.5,2.6,6.2,5.5c0.1,0.6,0.8,1,1.4,0.9c0,0,0,0,0,0c0.1,0,0.2-0.1,0.3-0.1c1.5-0.8,3.4-0.3,4.2,1.2c0.2,0.4,0.4,0.9,0.4,1.4
	c0,0.6,0.6,1.2,1.2,1.2h3.6c2.1,0,3.9,1.7,3.9,3.9S365.6,86.7,363.5,86.7L363.5,86.7L363.5,86.7z"/>
<path class="st0" d="M299.4,72.5c-2,1-3.5,2.9-4,5.1c-0.1,0.7-0.8,1.1-1.5,1c0,0,0,0,0,0c-0.1,0-0.2-0.1-0.3-0.1
	c-1.6-0.9-3.6-0.4-4.5,1.2c0,0,0,0,0,0c-0.3,0.5-0.4,1-0.4,1.5c0,0.7-0.6,1.2-1.3,1.2h-3.8c-2.3,0-4.1,1.8-4.1,4.1s1.8,4.1,4.1,4.1
	h31.7c3,0,5.5-2.5,5.5-5.5s-2.5-5.5-5.5-5.5l0,0l-6.6-0.2c-1.2,0-2.3-0.2-3.4-0.6c-4.9-1.9-7.5-7.4-5.6-12.3c1.4-3.7,5-6.2,9-6.2
	h0.9c1.1,0,2.1-0.9,2.2-2c0.9-7.4,7.6-12.6,14.9-11.7c5.6,0.7,10.2,4.8,11.5,10.3c0.3,1.2,1.5,1.9,2.7,1.7c0,0,0,0,0,0
	c0.2,0,0.4-0.1,0.6-0.2c2.8-1.6,6.3-0.6,7.8,2.2c0.4,0.8,0.7,1.7,0.7,2.6c0,1.2,1,2.1,2.2,2.1h2.7c3.9,0,7.1,3.2,7.1,7.1
	c0,2.1-0.9,4.1-2.5,5.4"/>
<path class="st0" d="M296.3,101.6c0-1.6,1.2-2.9,2.8-3h2.6c0.5,0,0.9-0.4,0.9-0.9c0-0.4,0.1-0.8,0.3-1.1c0.5-1.1,1.8-1.5,2.9-1
	c0.1,0,0.1,0.1,0.2,0.1c0.1,0,0.1,0.1,0.2,0.1c0.5,0.1,0.9-0.2,1-0.7c0.4-2.3,2.2-4,4.5-4.4c3-0.3,5.6,1.9,5.9,4.9c0,0,0,0.1,0,0.1
	c0,0.5,0.4,0.8,0.9,0.8h2.6c2.3,0.2,4,2.1,3.8,4.4c-0.1,2-1.8,3.7-3.8,3.8h-22C297.5,104.6,296.2,103.2,296.3,101.6
	C296.3,101.6,296.3,101.6,296.3,101.6z"/>
<path class="st0" d="M296.3,101.6h-2.8c-3,0-5.5-2.5-5.5-5.5c0,0,0,0,0,0l0,0c0-3.1,2.5-5.5,5.5-5.5h13.2"/>
<path class="st0" d="M328.9,86.7v59.3c0,2.5,2,4.5,4.5,4.5"/>
<path class="st0" d="M314.8,150.5h2.2c2.5,0,4.5-2,4.5-4.5v-41.4"/>
<path class="st0" d="M345.6,87.1c0,7.7-9,14.8-16.8,14.8"/>
<path class="st0" d="M320.3,116.5c-6.1,0.1-11.1-4.7-11.2-10.8c0-0.2,0-0.4,0-0.6"/>
<circle class="st0" cx="211.6" cy="16.9" r="4.7"/>
<line class="st0" x1="211.6" y1="2.7" x2="211.6" y2="6"/>
<line class="st0" x1="225.8" y1="16.9" x2="222.6" y2="16.9"/>
<line class="st0" x1="211.6" y1="31.1" x2="211.6" y2="27.9"/>
<line class="st0" x1="197.4" y1="16.9" x2="200.7" y2="16.9"/>
<line class="st0" x1="221.7" y1="6.9" x2="219.4" y2="9.2"/>
<line class="st0" x1="221.7" y1="27" x2="219.4" y2="24.7"/>
<line class="st0" x1="201.6" y1="27" x2="203.9" y2="24.7"/>
<line class="st0" x1="201.6" y1="6.9" x2="203.9" y2="9.2"/>
<path class="st0" d="M112.1,36.1h12.2c1.6,0,2.9,1.3,2.9,2.9v1.1c0,1.6-1.3,2.9-2.9,2.9h-12.2c-1.6,0-2.9-1.3-2.9-2.9V39
	C109.2,37.4,110.5,36.1,112.1,36.1z"/>
<path class="st0" d="M130.8,20.4h-13c-2.5,0.1-4.5-1.8-4.7-4.2c-0.1-2.5,1.8-4.5,4.2-4.7c0.1,0,0.3,0,0.4,0h3.8
	c2.5,0,4.5-1.9,4.5-4.4c0,0,0,0,0,0V6.4c0-2.5-2-4.5-4.5-4.5H79.8c-2.5,0-4.5,2-4.5,4.5c0,0,0,0,0,0v0.7c0,2.5,2,4.5,4.5,4.5h10.8
	c2.5-0.1,4.5,1.8,4.7,4.2s-1.8,4.5-4.2,4.7c-0.1,0-0.3,0-0.4,0h-2.5c-2.5,0-4.5,2-4.4,4.5v0.6c0,2.5,2,4.4,4.4,4.4h42.7
	c2.5,0,4.5-2,4.5-4.5v-0.6C135.3,22.4,133.3,20.4,130.8,20.4C130.8,20.4,130.8,20.4,130.8,20.4z"/>
<path class="st0" d="M349.2,43.3h12.2c1.6,0,2.9,1.3,2.9,2.9v1.1c0,1.6-1.3,2.9-2.9,2.9h-12.2c-1.6,0-2.9-1.3-2.9-2.9v-1.1
	C346.4,44.6,347.6,43.3,349.2,43.3z"/>
<path class="st0" d="M367.9,27.6H355c-2.5,0.1-4.5-1.8-4.7-4.2s1.8-4.5,4.2-4.7c0.1,0,0.3,0,0.4,0h3.8c2.5,0,4.5-2,4.5-4.5v-0.6
	c0-2.5-2-4.5-4.5-4.5h-41.9c-2.5,0-4.5,2-4.5,4.5v0.6c0,2.5,2,4.5,4.5,4.5h10.8c2.5-0.1,4.5,1.8,4.7,4.2s-1.8,4.5-4.2,4.7
	c-0.1,0-0.3,0-0.4,0h-2.5c-2.5,0-4.5,2-4.5,4.5c0,0,0,0,0,0v0.7c0,2.5,2,4.4,4.5,4.4h42.7c2.5,0,4.5-2,4.5-4.4c0,0,0,0,0,0v-0.6
	C372.4,29.6,370.4,27.6,367.9,27.6C368,27.6,367.9,27.6,367.9,27.6z"/>
<path class="st0" d="M60.1,150.3c0-2.9-1.8-5.9-4.2-6.9c0.1-0.6,0.2-1.3,0.2-1.9c0-6.5-5.3-11.8-11.8-11.8c-4.2,0-8.2,2.3-10.3,6
	c-3.2-2.1-7.6-1.3-9.7,2c-0.6,0.9-1,2-1.1,3H23c-4.4,0-8.9,3.6-8,9.8"/>
<line class="st0" x1="28.1" y1="150.5" x2="67" y2="150.5"/>
<line class="st0" x1="148.9" y1="114.4" x2="148.9" y2="153.4"/>
<line class="st0" x1="69.7" y1="153.4" x2="69.7" y2="114.4"/>
<path class="st0" d="M79.6,153.4v-29.2c0-1.7,1.3-3,3-3H136c1.7,0,3,1.3,3,3v29.2"/>
<path class="st0" d="M63.8,96.7v5.7c0,4.1,3.3,7.4,7.4,7.5c2.6,0,5-1.3,6.3-3.5c1.4,3,4.9,4.4,7.9,3c1.2-0.5,2.2-1.5,2.8-2.6
	c1.6,2.9,5.2,4,8.1,2.4c1-0.6,1.8-1.4,2.4-2.4c1.6,2.9,5.2,4,8.1,2.4c1-0.6,1.8-1.4,2.4-2.4c1.6,2.9,5.2,4,8.1,2.4
	c1-0.6,1.8-1.4,2.4-2.4c1.6,2.9,5.2,4,8.1,2.4c1-0.6,1.8-1.4,2.4-2.4c1.6,2.9,5.2,4,8.1,2.4c1.2-0.6,2.1-1.6,2.6-2.8
	c2.2,3.5,6.8,4.5,10.2,2.3c2.2-1.4,3.5-3.8,3.5-6.3v-5.7"/>
<path class="st0" d="M63.8,78.7h90.9c0.9,0,1.7,0.8,1.7,1.7v11.1c0,0.9-0.8,1.7-1.7,1.7H63.8c-0.9,0-1.7-0.8-1.7-1.7V80.4
	C62.1,79.5,62.9,78.7,63.8,78.7z"/>
<line class="st0" x1="84.4" y1="128.6" x2="134.2" y2="128.6"/>
<line class="st0" x1="84.4" y1="134.5" x2="134.2" y2="134.5"/>
<line class="st0" x1="84.4" y1="140.4" x2="134.2" y2="140.4"/>
<line class="st0" x1="84.4" y1="146.4" x2="134.2" y2="146.4"/>
<line class="st0" x1="84.4" y1="151.5" x2="134.2" y2="151.5"/>
<path class="st0" d="M69.6,67.7h9c1.3,0,2.3,1.1,2.3,2.3c0,0,0,0,0,0v8.7l0,0H67.3l0,0v-8.7C67.3,68.8,68.3,67.7,69.6,67.7
	C69.6,67.7,69.6,67.7,69.6,67.7z"/>
<path class="st0" d="M87.2,67.7h9c1.3,0,2.3,1.1,2.3,2.3c0,0,0,0,0,0v8.7l0,0H84.9l0,0v-8.7C84.9,68.8,85.9,67.7,87.2,67.7
	C87.2,67.7,87.2,67.7,87.2,67.7z"/>
<path class="st0" d="M104.8,67.7h9c1.3,0,2.3,1,2.3,2.3c0,0,0,0,0,0v8.7l0,0h-13.7l0,0v-8.7C102.5,68.8,103.5,67.7,104.8,67.7
	C104.8,67.7,104.8,67.7,104.8,67.7z"/>
<path class="st0" d="M122.4,67.7h9c1.3,0,2.3,1,2.3,2.3c0,0,0,0,0,0v8.7l0,0h-13.7l0,0v-8.7C120.1,68.8,121.1,67.7,122.4,67.7
	C122.4,67.7,122.4,67.7,122.4,67.7z"/>
<path class="st0" d="M140,67.7h9c1.3,0,2.3,1.1,2.3,2.3c0,0,0,0,0,0v8.7l0,0h-13.6l0,0v-8.7C137.6,68.8,138.7,67.7,140,67.7
	C140,67.7,140,67.7,140,67.7z"/>
<line class="st0" x1="153.3" y1="150.5" x2="155" y2="150.5"/>
<line class="st0" x1="182" y1="150.5" x2="186.4" y2="150.5"/>
<line class="st0" x1="274.7" y1="150.5" x2="313.7" y2="150.5"/>
<line class="st0" x1="337.5" y1="150.5" x2="366.4" y2="150.5"/>
<line class="st0" x1="378.9" y1="114.4" x2="378.9" y2="153.4"/>
<line class="st0" x1="458.1" y1="153.4" x2="458.1" y2="114.4"/>
<path class="st0" d="M448.2,153.4v-29.2c0-1.7-1.4-3-3.1-3h-53.3c-1.7,0-3,1.3-3,3v29.2"/>
<path class="st0" d="M464,96.7v5.7c0,4.1-3.3,7.4-7.4,7.5c-2.6,0-5-1.3-6.3-3.5c-1.4,3-4.9,4.4-7.9,3c-1.2-0.5-2.2-1.5-2.8-2.6
	c-1.6,2.9-5.2,4-8.1,2.4c-1-0.6-1.8-1.4-2.4-2.4c-1.6,2.9-5.2,4-8.1,2.4c-1-0.6-1.8-1.4-2.4-2.4c-1.6,2.9-5.2,4-8.1,2.4
	c-1-0.6-1.8-1.4-2.4-2.4c-1.6,2.9-5.2,4-8.1,2.4c-1-0.6-1.8-1.4-2.4-2.4c-1.6,2.9-5.2,4-8.1,2.4c-1.2-0.6-2.1-1.6-2.6-2.8
	c-2.2,3.5-6.8,4.5-10.2,2.3c-2.2-1.4-3.5-3.8-3.5-6.3v-5.7"/>
<path class="st0" d="M463.9,93.2H373c-0.9,0-1.7-0.8-1.7-1.7V80.4c0-0.9,0.8-1.7,1.7-1.7h90.9c0.9,0,1.7,0.8,1.7,1.7v11.1
	C465.6,92.4,464.9,93.2,463.9,93.2z"/>
<line class="st0" x1="443.3" y1="128.6" x2="393.6" y2="128.6"/>
<line class="st0" x1="443.3" y1="134.5" x2="393.6" y2="134.5"/>
<line class="st0" x1="443.3" y1="140.4" x2="393.6" y2="140.4"/>
<line class="st0" x1="443.3" y1="146.4" x2="393.6" y2="146.4"/>
<line class="st0" x1="443.3" y1="151.5" x2="393.6" y2="151.5"/>
<path class="st0" d="M460.5,78.7h-13.6l0,0V70c0-1.3,1-2.3,2.3-2.3h9c1.3,0,2.3,1,2.3,2.3L460.5,78.7L460.5,78.7z"/>
<path class="st0" d="M442.9,78.7h-13.6l0,0V70c0-1.3,1-2.3,2.3-2.3h9c1.3,0,2.3,1,2.3,2.3L442.9,78.7L442.9,78.7z"/>
<path class="st0" d="M425.3,78.7h-13.6l0,0V70c0-1.3,1-2.3,2.3-2.3h9c1.3,0,2.3,1,2.3,2.3L425.3,78.7L425.3,78.7z"/>
<path class="st0" d="M407.7,78.7h-13.6l0,0V70c0-1.3,1-2.3,2.3-2.3h9c1.3,0,2.3,1,2.3,2.3L407.7,78.7L407.7,78.7L407.7,78.7z"/>
<path class="st0" d="M390.1,78.7h-13.6l0,0V70c0-1.3,1-2.3,2.3-2.3h9c1.3,0,2.3,1,2.3,2.3L390.1,78.7L390.1,78.7z"/>
<line class="st0" x1="374.4" y1="150.5" x2="370" y2="150.5"/>
<polyline class="st0" points="280.3,65 223.8,33.3 217,38.9 "/>
<polyline class="st0" points="236.7,51.7 178.5,19 140.7,50.2 "/>
<polyline class="st0" points="232,79 194.1,57.8 163,83.4 "/>
<polyline class="st0" points="264.4,78.8 233.8,61.7 225.8,68.3 "/>
<line class="st0" x1="178.5" y1="29.4" x2="159.9" y2="44.7"/>
<path class="st0" d="M174.8,118.4h1.4c0.4,0,0.7-0.7,0.5-1.3l-9.1-23.9c-0.2-0.6-0.8-0.6-1,0l-9.6,23.9c-0.2,0.6,0,1.3,0.5,1.3h1.6
	l-6.7,19c-0.2,0.6,0.1,1.2,0.5,1.2l27.9,0.2c0.4,0,0.7-0.7,0.5-1.2L174.8,118.4z"/>
<polyline class="st0" points="162.2,121.4 164,124.5 166.4,122.9 168.7,124.9 170.9,120.8 "/>
<path class="st0" d="M164.1,141.5v6.2c0,1.5-1.2,2.7-2.7,2.7l0,0h-3.2"/>
<path class="st0" d="M174.3,150.5h-3.2c-1.5,0-2.7-1.2-2.7-2.7l0,0v-4.3"/>
<path class="st0" d="M245.6,77.2c-2.8-1.5-3.9,0.8-3.9,0.8s-4.8,11.8-7.4,16.2c-2.6,4.1-8.1,5.3-12.2,2.7c-1.1-0.7-2-1.6-2.7-2.7
	c-2.6-4.4-7.4-16.3-7.4-16.3s-1-2.4-3.9-0.8s-0.3,6.4-0.3,6.4l6.9,17.2c1.6,4.1,2.7,8.4,3.2,12.8c0.7,6.8-1.2,40.2-1.2,40.2
	s0,3.3,3,3.5s3.7-2.8,3.7-2.8l3.3-25.4l3.4,25.4c0,0,0.8,3,3.7,2.8s3-3.5,3-3.5s-1.9-33.5-1.2-40.2c0.5-4.4,1.5-8.7,3.2-12.8l7-17.2
	C246,83.6,248.4,78.8,245.6,77.2z"/>
<circle class="st0" cx="226.9" cy="87.9" r="6.5"/>
<path class="st0" d="M274.3,131.1l-3-19.1c-0.3-2.1-1.6-3.9-3.5-4.8c-0.9-0.4-1.8-0.6-2.8-0.8c-2.8,2.3-6.9,2.3-9.7,0
	c-1,0.2-2,0.4-3,0.8c-1.9,0.9-3.2,2.7-3.5,4.8l-3,19.1c0,0-0.7,3.2,2,3.2s3-3.2,3-3.2l2-9.5c0.4,0.5,0.5,1.2,0.4,1.8
	c-0.1,1.2-1.4,31.4-1.4,31.4c-0.1,1.3,0.9,2.5,2.2,2.6c0.1,0,0.3,0,0.4,0c1.5,0.1,2.7-0.9,2.9-2.4c0,0,0-0.1,0-0.1l2.6-20.9
	l2.6,20.9c0.1,1.5,1.4,2.6,2.8,2.5c0,0,0.1,0,0.1,0c1.3,0.1,2.5-0.9,2.6-2.2c0-0.1,0-0.3,0-0.4c0,0-1.4-30.2-1.4-31.4
	c-0.1-0.6,0.1-1.3,0.4-1.8l2,9.5c0,0,0.3,3.2,3,3.2S274.3,131.1,274.3,131.1z"/>
<circle class="st0" cx="260.2" cy="100.2" r="5.7"/>
<path class="st0" d="M210.3,131.1l-3-19.1c-0.3-2.1-1.6-3.9-3.5-4.8c-0.9-0.4-1.8-0.6-2.8-0.8c-1.4,1.1-3.1,1.7-4.8,1.7
	c-1.8,0-3.5-0.6-4.9-1.7c-1,0.2-2,0.4-3,0.8c-1.9,0.9-3.2,2.7-3.5,4.8l-3,19.1c0,0-0.7,3.2,2,3.2s3-3.2,3-3.2l2-9.5
	c0.4,0.5,0.5,1.2,0.4,1.8c-0.1,1.2-1.4,31.4-1.4,31.4c-0.1,1.3,0.9,2.5,2.2,2.6c0.1,0,0.3,0,0.4,0c1.5,0.1,2.7-0.9,2.9-2.4
	c0,0,0-0.1,0-0.1l2.6-20.9l2.6,20.9c0.1,1.5,1.4,2.6,2.8,2.5c0,0,0.1,0,0.1,0c1.3,0.1,2.5-0.9,2.6-2.3c0-0.1,0-0.3,0-0.4
	c0,0-1.4-30.2-1.4-31.4c-0.1-0.6,0.1-1.3,0.4-1.8l2,9.5c0,0,0.2,3.2,3,3.2S210.3,131.1,210.3,131.1z"/>
<circle class="st0" cx="196.2" cy="100.2" r="5.7"/>
<polygon class="st0" points="226.9,118 223.5,114.3 226.2,103 223,99.8 226.9,100.5 230.9,99.8 227.7,103 230.4,114.3 "/>
</svg>
