<svg id="Layer_1" data-name="Layer 1" xmlns="http://www.w3.org/2000/svg" viewBox="0 0 466.29 158.02"><defs><style>.cls-1{fill:none;stroke:#919da8;stroke-linecap:round;stroke-linejoin:round;stroke-width:1.29px;}</style></defs><title>Mile</title><path class="cls-1" d="M67.06,147.66c0-4.19-2.58-8.7-6.23-10.19A17.38,17.38,0,0,0,28.58,126a10.3,10.3,0,0,0-15.92,7.28h-.13c-6.46,0-13.1,5.31-11.69,14.35"/><path class="cls-1" d="M391.19,147.66c0-4.19,2.58-8.62,6.23-10.1a17.38,17.38,0,0,1,32.25-11.44,10.29,10.29,0,0,1,15.92,7.28h.13"/><path class="cls-1" d="M438.45,146.41a4.1,4.1,0,0,1,2.55-3.79,7.23,7.23,0,0,1-.1-1.15,7.12,7.12,0,0,1,13.31-3.53,4.16,4.16,0,0,1,2.33-.71,4.23,4.23,0,0,1,4.19,3.69h0c2.64,0,5.37,3,4.79,6.74"/><path class="cls-1" d="M319.69,80H268.91a7.75,7.75,0,0,1,0-15.5h10.86a1.8,1.8,0,0,0,1.78-1.6,10.88,10.88,0,0,1,21.39-1.19,1.81,1.81,0,0,0,2.16,1.34,1.92,1.92,0,0,0,.45-.18,4.67,4.67,0,0,1,6.94,3.87,1.79,1.79,0,0,0,1.79,1.72h5.41a5.77,5.77,0,0,1,0,11.54Z"/><path class="cls-1" d="M223.89,58.85a11.51,11.51,0,0,0-6,7.63,1.89,1.89,0,0,1-2.27,1.41,1.7,1.7,0,0,1-.49-.18,4.93,4.93,0,0,0-7.33,4.09,1.9,1.9,0,0,1-1.9,1.82h-5.72a6.1,6.1,0,1,0,0,12.2h47.36a8.2,8.2,0,1,0,0-16.39h0l-9.89-.24a14.31,14.31,0,0,1,0-28.62H239a3.3,3.3,0,0,0,3.28-2.94,20.09,20.09,0,0,1,39.5-2.21,3.3,3.3,0,0,0,4,2.47,3.63,3.63,0,0,0,.85-.32,8.6,8.6,0,0,1,12.8,7.15,3.31,3.31,0,0,0,3.31,3.17h4a10.65,10.65,0,0,1,6.83,18.82"/><path class="cls-1" d="M219.3,102.25a4.39,4.39,0,0,1,4.2-4.55h3.95a1.35,1.35,0,0,0,1.3-1.36,3.94,3.94,0,0,1,.44-1.65,3.26,3.26,0,0,1,4.62-1.4,1.22,1.22,0,0,0,.33.14,1.31,1.31,0,0,0,1.57-1.06,8.16,8.16,0,0,1,6.76-6.54c4.35-.57,8.3,2.78,8.82,7.49a1.35,1.35,0,0,0,1.3,1.25h3.83a6.14,6.14,0,0,1,0,12.23H223.5A4.39,4.39,0,0,1,219.3,102.25Z"/><path class="cls-1" d="M219.3,102.31h-4.17a8.26,8.26,0,0,1-8.26-8.26v0a8.26,8.26,0,0,1,8.26-8.26h19.71"/><path class="cls-1" d="M268,80v60.41a6.7,6.7,0,0,0,6.7,6.7"/><path class="cls-1" d="M247,147.14h3.25a6.7,6.7,0,0,0,6.7-6.7V106.8"/><path class="cls-1" d="M293.08,81c0,11.57-13.48,21.82-25.05,21.82"/><path class="cls-1" d="M255.2,124.5c-9.73,0-16.8-7.34-16.8-17.07"/><circle class="cls-1" cx="226.98" cy="26.27" r="4.79"/><line class="cls-1" x1="226.98" y1="11.66" x2="226.98" y2="15.03"/><line class="cls-1" x1="241.59" y1="26.27" x2="238.22" y2="26.27"/><line class="cls-1" x1="226.98" y1="40.88" x2="226.98" y2="37.51"/><line class="cls-1" x1="212.37" y1="26.27" x2="215.74" y2="26.27"/><line class="cls-1" x1="237.31" y1="15.94" x2="234.93" y2="18.32"/><line class="cls-1" x1="237.31" y1="36.6" x2="234.93" y2="34.22"/><line class="cls-1" x1="216.65" y1="36.6" x2="219.03" y2="34.22"/><line class="cls-1" x1="216.65" y1="15.94" x2="219.03" y2="18.32"/><line class="cls-1" x1="155.68" y1="113.33" x2="155.68" y2="150.73"/><line class="cls-1" x1="79.87" y1="150.73" x2="79.87" y2="113.33"/><path class="cls-1" d="M89.33,150.73v-28a2.92,2.92,0,0,1,2.92-2.92H143.3a2.92,2.92,0,0,1,2.92,2.92v28"/><path class="cls-1" d="M161.36,96.45v5.41a7.09,7.09,0,0,1-13.11,3.78A5.79,5.79,0,0,1,138,106a5.78,5.78,0,0,1-10.09,0,5.78,5.78,0,0,1-10.09,0,5.78,5.78,0,0,1-10.09,0,5.78,5.78,0,0,1-10.09,0,5.78,5.78,0,0,1-10.29-.38,7.09,7.09,0,0,1-13.11-3.78V96.45Z"/><rect class="cls-1" x="72.61" y="79.17" width="90.33" height="13.91" rx="1.64" ry="1.64"/><line class="cls-1" x1="93.97" y1="126.97" x2="141.58" y2="126.97"/><line class="cls-1" x1="93.97" y1="132.63" x2="141.58" y2="132.63"/><line class="cls-1" x1="93.97" y1="138.29" x2="141.58" y2="138.29"/><line class="cls-1" x1="93.97" y1="143.96" x2="141.58" y2="143.96"/><line class="cls-1" x1="93.97" y1="148.85" x2="141.58" y2="148.85"/><path class="cls-1" d="M79.78,68.66H88.4a2.23,2.23,0,0,1,2.23,2.23v8.28a0,0,0,0,1,0,0H77.55a0,0,0,0,1,0,0V70.89A2.23,2.23,0,0,1,79.78,68.66Z"/><path class="cls-1" d="M96.62,68.66h8.62a2.23,2.23,0,0,1,2.23,2.23v8.28a0,0,0,0,1,0,0H94.4a0,0,0,0,1,0,0V70.89A2.23,2.23,0,0,1,96.62,68.66Z"/><path class="cls-1" d="M113.47,68.66h8.62a2.23,2.23,0,0,1,2.23,2.23v8.28a0,0,0,0,1,0,0H111.24a0,0,0,0,1,0,0V70.89A2.23,2.23,0,0,1,113.47,68.66Z"/><path class="cls-1" d="M130.31,68.66h8.62a2.23,2.23,0,0,1,2.23,2.23v8.28a0,0,0,0,1,0,0H128.08a0,0,0,0,1,0,0V70.89A2.23,2.23,0,0,1,130.31,68.66Z"/><path class="cls-1" d="M147.15,68.66h8.62A2.23,2.23,0,0,1,158,70.89v8.28a0,0,0,0,1,0,0H144.93a0,0,0,0,1,0,0V70.89A2.23,2.23,0,0,1,147.15,68.66Z"/><rect class="cls-1" x="172.15" y="114.13" width="42.14" height="29.7" rx="1.68" ry="1.68"/><path class="cls-1" d="M232.78,150.15h1.78c7.12,0,7.12-10.94,7.12-10.94a3,3,0,0,0-1.2-2.1c-1.21-1-8-6.22-8-6.22l-10.24-12.26s-2.91-3-4.61-3h-3.31"/><line class="cls-1" x1="190.94" y1="150.15" x2="222.94" y2="150.15"/><path class="cls-1" d="M174.86,143.83v1.3a5,5,0,0,0,5,5h1.72"/><path class="cls-1" d="M235.07,132.89H220.34a1.83,1.83,0,0,1-1.84-1.83v-3.25a1.84,1.84,0,0,1,1.84-1.84h7.84"/><path class="cls-1" d="M241.09,142.32h-2.57a.35.35,0,0,1-.35-.35v-2.81a.35.35,0,0,1,.35-.35h2.81a.35.35,0,0,1,.35.35l-.33,2.81C241.35,142.17,241.28,142.32,241.09,142.32Z"/><line class="cls-1" x1="238.17" y1="145.03" x2="240.66" y2="145.03"/><line class="cls-1" x1="182.08" y1="114.13" x2="182.08" y2="143.83"/><line class="cls-1" x1="193.22" y1="114.13" x2="193.22" y2="143.83"/><line class="cls-1" x1="204.35" y1="114.13" x2="204.35" y2="143.83"/><line class="cls-1" x1="172.15" y1="120.75" x2="174.86" y2="120.75"/><line class="cls-1" x1="172.15" y1="137.11" x2="174.86" y2="137.11"/><line class="cls-1" x1="182.08" y1="120.75" x2="184.79" y2="120.75"/><line class="cls-1" x1="182.08" y1="137.11" x2="184.79" y2="137.11"/><line class="cls-1" x1="193.22" y1="120.75" x2="195.93" y2="120.75"/><line class="cls-1" x1="193.22" y1="137.11" x2="195.93" y2="137.11"/><line class="cls-1" x1="204.35" y1="120.75" x2="207.06" y2="120.75"/><line class="cls-1" x1="204.35" y1="137.11" x2="207.06" y2="137.11"/><circle class="cls-1" cx="227.63" cy="152.26" r="5.12"/><circle class="cls-1" cx="227.63" cy="152.26" r="1.53"/><circle class="cls-1" cx="186.09" cy="152.26" r="5.12"/><circle class="cls-1" cx="186.09" cy="152.26" r="1.53"/><line class="cls-1" x1="370.76" y1="114.53" x2="370.76" y2="150.73"/><line class="cls-1" x1="294.95" y1="150.73" x2="294.95" y2="114.53"/><path class="cls-1" d="M321.47,150.73v-28a2.93,2.93,0,0,1,2.93-2.92h16.91a2.92,2.92,0,0,1,2.92,2.92v28"/><rect class="cls-1" x="349.88" y="121.23" width="13.89" height="12.71" rx="1.69" ry="1.69"/><line class="cls-1" x1="350.47" y1="137.97" x2="363.18" y2="137.97"/><rect class="cls-1" x="301.93" y="121.23" width="13.89" height="12.71" rx="1.69" ry="1.69"/><line class="cls-1" x1="302.52" y1="137.97" x2="315.24" y2="137.97"/><path class="cls-1" d="M334.76,99l42,12.09a3.77,3.77,0,0,0,4.66-2.57h0a3.76,3.76,0,0,0-2.58-4.66l-45.7-13.17h-.51l-45.71,13.17a3.75,3.75,0,0,0-2.57,4.66h0a3.76,3.76,0,0,0,4.66,2.57L331,99A6.86,6.86,0,0,1,334.76,99Z"/><path class="cls-1" d="M330.82,107.47h4.06a3.66,3.66,0,0,1,3.66,3.66v2.2a0,0,0,0,1,0,0H327.16a0,0,0,0,1,0,0v-2.2A3.66,3.66,0,0,1,330.82,107.47Z"/><circle class="cls-1" cx="340.54" cy="135.09" r="0.42"/><path class="cls-1" d="M363.77,99.5V87.58A2.83,2.83,0,0,0,361,84.75H352.7a2.83,2.83,0,0,0-2.82,2.83V95.5"/><rect class="cls-1" x="349.88" y="78.17" width="13.89" height="3.66" rx="0.76" ry="0.76"/><line class="cls-1" x1="20.04" y1="147.92" x2="77.29" y2="147.92"/><line class="cls-1" x1="161.36" y1="147.92" x2="168.53" y2="147.92"/><line class="cls-1" x1="280.56" y1="147.92" x2="290.29" y2="147.92"/><line class="cls-1" x1="374.31" y1="147.92" x2="410.33" y2="147.92"/><line class="cls-1" x1="430.65" y1="147.92" x2="465.31" y2="147.92"/><rect class="cls-1" x="139.5" y="43.37" width="22.43" height="8.53" rx="2.75" ry="2.75"/><path class="cls-1" d="M166.44,23.71H150.28a5.57,5.57,0,0,1,0-11.13H155A5.56,5.56,0,0,0,160.59,7V6.21A5.56,5.56,0,0,0,155,.65H102.79a5.56,5.56,0,0,0-5.56,5.56V7a5.56,5.56,0,0,0,5.56,5.56h13.52a5.57,5.57,0,0,1,0,11.13H113.2a5.56,5.56,0,0,0-5.56,5.56v.81a5.56,5.56,0,0,0,5.56,5.56h53.24A5.56,5.56,0,0,0,172,30.08v-.81A5.56,5.56,0,0,0,166.44,23.71Z"/><rect class="cls-1" x="357.21" y="58.54" width="19.95" height="7.59" rx="2.44" ry="2.44" transform="translate(734.36 124.67) rotate(180)"/><path class="cls-1" d="M353.19,41.06h14.37a4.95,4.95,0,1,0,0-9.89h-4.22a5,5,0,0,1-4.95-5V25.5a5,5,0,0,1,4.95-4.95h46.45a5,5,0,0,1,4.94,4.95v.72a5,5,0,0,1-4.94,5h-12a4.95,4.95,0,0,0,0,9.89h2.76a5,5,0,0,1,5,4.94v.72a5,5,0,0,1-5,5H353.19a4.94,4.94,0,0,1-4.94-5V46A4.94,4.94,0,0,1,353.19,41.06Z"/></svg>