<svg width="217" height="131" xmlns="http://www.w3.org/2000/svg"><defs><clipPath id="f"><path d="M5.299 0c2.926 0 5.298 2.39 5.298 5.34 0 2.948-2.372 5.339-5.298 5.339C2.372 10.679 0 8.289 0 5.339 0 2.391 2.372 0 5.299 0Z"/></clipPath><clipPath id="a"><path d="M1280 0v1702H0V0h1280Z"/></clipPath><clipPath id="c"><path d="M79.195 0v11.072h97.226c3.698.186 5.548 1.9 5.548 5.142 0 3.243-1.85 5.391-5.548 6.445H105.88v21.377h61.638c3.548 0 5.322 1.773 5.322 5.32 0 3.547-1.774 5.763-5.322 6.648h-13.287c-3.893.513-5.84 2.954-5.84 7.324 0 4.37 1.947 6.98 5.84 7.83h36.993c3.922.963 5.883 3.068 5.883 6.314s-1.961 5.31-5.883 6.195h-46.171c-3.14.286-4.709 1.82-4.709 4.603 0 2.783 1.57 4.745 4.709 5.885h6.489c4.456.061 6.685 2.148 6.685 6.262 0 4.114-2.229 6.293-6.685 6.535H105.88V62.56H23.427c-2.953-1.386-4.43-3.571-4.43-6.555.001-3.918 1.478-6.134 4.43-6.648h8.127c3.268-.588 4.901-2.36 4.901-5.32 0-2.96-1.633-4.64-4.901-5.043H5.299C1.766 38.423 0 36.287 0 32.589c0-3.699 1.766-5.58 5.299-5.646h37.023c3.927-.688 5.89-2.97 5.89-6.845 0-3.876-1.963-6.31-5.89-7.302H26.755c-3.366-.909-5.048-3.043-5.048-6.404C21.707 3.03 23.389.9 26.755 0h52.44Z"/></clipPath><clipPath id="d"><path d="M37.974 0C58.86 0 75.948 17.184 75.948 38.187c0 21.002-17.088 38.186-37.974 38.186C17.088 76.373 0 59.19 0 38.187 0 17.184 17.088 0 37.974 0Z"/></clipPath><clipPath id="e"><path d="m41.139 1.193.632.637-24.683 23.866c-.949.637-1.898 1.273-3.164 1.273-1.266 0-2.215-.318-3.165-1.273L0 14.56l.633-.319c1.582-1.59 4.43-1.59 6.012 0l.509.509c2.74 2.722 5.876 5.594 6.77 6.492 1.266-1.06 6.891-6.364 12.752-11.95l.978-.934c2.501-2.387 5.004-4.786 7.189-6.89l.283-.274c1.582-1.59 4.43-1.59 6.013 0Z"/></clipPath><clipPath id="b"><path d="M990 0c5.523 0 10 4.477 10 10v586c0 5.523-4.477 10-10 10H10c-5.523 0-10-4.477-10-10V10C0 4.477 4.477 0 10 0h980Z"/></clipPath><clipPath id="g"><path d="M5.299 0c2.926 0 5.298 2.39 5.298 5.34 0 2.948-2.372 5.339-5.298 5.339C2.372 10.679 0 8.289 0 5.339 0 2.391 2.372 0 5.299 0Z"/></clipPath><clipPath id="h"><path d="M3.532 0c1.951 0 3.533 1.594 3.533 3.56S5.483 7.12 3.532 7.12C1.582 7.12 0 5.525 0 3.56S1.582 0 3.532 0Z"/></clipPath><clipPath id="i"><path d="M3.532 0c1.951 0 3.533 1.594 3.533 3.56S5.483 7.12 3.532 7.12C1.582 7.12 0 5.525 0 3.56S1.582 0 3.532 0Z"/></clipPath><clipPath id="j"><path d="M5.74 0v3.114h3.091v2.67H5.74v3.115H3.09V5.784H0v-2.67h3.09V0h2.65Z"/></clipPath><clipPath id="k"><path d="M5.74 0v3.114h3.091v2.67H5.74v3.115H3.09V5.784H0v-2.67h3.09V0h2.65Z"/></clipPath></defs><g clip-path="url(#a)" transform="translate(-531 -313)"><g clip-path="url(#b)" transform="translate(140 253)"><g clip-path="url(#c)" transform="translate(397 78.048)"><path fill="#2B9838" opacity="10%" d="M0 0h197.107v106.952H0V0z"/></g><g clip-path="url(#d)" transform="translate(460.584 103.299)"><path fill="#2A9737" d="M0 0h75.948v76.373H0V0z"/></g><g clip-path="url(#e)" transform="translate(477.673 129.472)"><path fill="#FFF" d="M0 0h41.771v26.97H0V0z"/></g><g clip-path="url(#f)" transform="translate(578.039 66.89)"><path fill="#FFF" d="M0 0h10.597v10.679H0V0z"/><path d="M5.299 10.679c2.926 0 5.298-2.39 5.298-5.34C10.597 2.391 8.225 0 5.3 0 2.372 0 0 2.39 0 5.34c0 2.948 2.372 5.339 5.299 5.339Z" stroke="#EDEDED" stroke-width="4" fill="none" stroke-miterlimit="5"/></g><g clip-path="url(#g)" transform="translate(411.13 164.78)"><path fill="#FFF" d="M0 0h10.597v10.679H0V0z"/><path d="M5.299 10.679c2.926 0 5.298-2.39 5.298-5.34C10.597 2.391 8.225 0 5.3 0 2.372 0 0 2.39 0 5.34c0 2.948 2.372 5.339 5.299 5.339Z" stroke="#EDEDED" stroke-width="4" fill="none" stroke-miterlimit="5"/></g><g clip-path="url(#h)" transform="translate(427.91 148.762)"><path fill="#A6E1F4" d="M0 0h7.065v7.12H0V0z"/></g><g clip-path="url(#i)" transform="translate(593.935 166.56)"><path fill="#A6E1F4" d="M0 0h7.065v7.12H0V0z"/></g><g clip-path="url(#j)" transform="translate(445.13 66)"><path fill="#F7C37E" d="M0 0h8.831v8.9H0V0z"/></g><g clip-path="url(#k)" transform="translate(545.805 104.266)"><path fill="#E40028" d="M0 0h8.831v8.9H0V0z"/></g></g></g></svg>