<svg width="231" height="137" xmlns="http://www.w3.org/2000/svg"><defs><clipPath id="a"><path d="M1280 0v1548H0V0h1280Z"/></clipPath><clipPath id="b"><path d="M990 0c5.523 0 10 4.477 10 10v586c0 5.523-4.477 10-10 10H10c-5.523 0-10-4.477-10-10V10C0 4.477 4.477 0 10 0h980Z"/></clipPath><clipPath id="c"><path d="M89.676 0v12.467H199.77c4.189.21 6.283 2.14 6.283 5.791 0 3.651-2.094 6.07-6.283 7.257h-79.877v24.072h69.797c4.017 0 6.025 1.997 6.025 5.99 0 3.994-2.008 6.49-6.025 7.487h-15.047c-4.407.577-6.611 3.326-6.611 8.247 0 4.92 2.204 7.86 6.611 8.816h41.89c4.441 1.085 6.662 3.455 6.662 7.11 0 3.655-2.22 5.98-6.662 6.976H164.25c-3.555.322-5.332 2.05-5.332 5.184 0 3.133 1.777 5.342 5.332 6.627h7.348c5.046.068 7.57 2.419 7.57 7.051 0 4.633-2.524 7.085-7.57 7.358h-51.706V70.445H26.528c-3.344-1.561-5.016-4.022-5.016-7.381.001-4.412 1.673-6.908 5.016-7.487h9.202c3.7-.661 5.55-2.658 5.55-5.99 0-3.333-1.85-5.225-5.55-5.679H6c-4-.643-6-3.046-6-7.211 0-4.165 2-6.284 6-6.358h41.923c4.447-.774 6.67-3.343 6.67-7.708s-2.223-7.105-6.67-8.222H30.296c-3.81-1.023-5.717-3.427-5.717-7.212 0-3.784 1.906-6.184 5.717-7.197h59.38Z"/></clipPath><clipPath id="d"><path d="M48 0c26.4 0 48 21.645 48 48.1 0 26.455-21.6 48.1-48 48.1S0 74.555 0 48.1C0 21.645 21.6 0 48 0Z"/></clipPath><clipPath id="e"><path d="M6 0c3.314 0 6 2.692 6 6.012 0 3.321-2.686 6.013-6 6.013S0 9.333 0 6.012C0 2.692 2.686 0 6 0Z"/></clipPath><clipPath id="f"><path d="M4 0c2.21 0 4 1.795 4 4.008a4.004 4.004 0 0 1-4 4.009c-2.21 0-4-1.795-4-4.009A4.004 4.004 0 0 1 4 0Z"/></clipPath><clipPath id="g"><path d="M6.5 0v3.507H10v3.007l-3.5-.001v3.508h-3V6.513H0V3.508h3.5V0h3Z"/></clipPath></defs><g clip-path="url(#a)" transform="translate(-525 -365)"><g clip-path="url(#b)" transform="translate(140 253)"><g clip-path="url(#c)" transform="translate(385 127.635)"><path fill="#E0242B" opacity="5%" d="M0 0h223.195v120.433H0V0z"/></g><g clip-path="url(#d)" transform="translate(452 151.145)"><path fill="#FFF" d="M0 0h96v96.2H0V0z"/></g><g clip-path="url(#d)" transform="translate(452 151.145)"><path fill="rgba(224, 36, 43, 0.1)" d="M0 0h96v96.2H0V0z"/></g><path d="M500 151.145c-26.4 0-48 21.645-48 48.1 0 26.455 21.6 48.1 48 48.1s48-21.645 48-48.1c0-26.455-21.6-48.1-48-48.1Z" stroke="#E0242B" fill="none" stroke-miterlimit="10"/><text transform="translate(488.396 223.145)" font-family="Kefa-Regular, Kefa" font-size="68" fill="#E0242B" text-anchor="center">!</text><g clip-path="url(#e)" transform="translate(590 115.07)"><path fill="#FFF" d="M0 0h12v12.025H0V0z"/><path d="M6 12.025c3.314 0 6-2.692 6-6.013C12 2.692 9.314 0 6 0S0 2.692 0 6.012c0 3.321 2.686 6.013 6 6.013Z" stroke="#EDEDED" stroke-width="4" fill="none" stroke-miterlimit="5"/></g><g clip-path="url(#e)" transform="translate(401 225.3)"><path fill="#FFF" d="M0 0h12v12.025H0V0z"/><path d="M6 12.025c3.314 0 6-2.692 6-6.013C12 2.692 9.314 0 6 0S0 2.692 0 6.012c0 3.321 2.686 6.013 6 6.013Z" stroke="#EDEDED" stroke-width="4" fill="none" stroke-miterlimit="5"/></g><g clip-path="url(#f)" transform="translate(420 207.262)"><path fill="#A6E1F4" d="M0 0h8v8.017H0V0z"/></g><g clip-path="url(#f)" transform="translate(608 227.303)"><path fill="#A6E1F4" d="M0 0h8v8.017H0V0z"/></g><g clip-path="url(#g)" transform="rotate(45 87.058 592.568)"><path fill="#F7C37E" d="M0 0h10v10.02H0V0z"/></g><g clip-path="url(#g)" transform="rotate(45 92.044 751.723)"><path fill="#E40028" d="M0 0h10v10.02H0V0z"/></g></g></g></svg>