<svg id="Layer_1" data-name="Layer 1" xmlns="http://www.w3.org/2000/svg" viewBox="0 0 1052.02 507.01"><defs><linearGradient id="linear-gradient" x1="-382.05" y1="-122.03" x2="915.24" y2="-122.03" gradientUnits="userSpaceOnUse"><stop offset="0" stop-color="#e0242b"/><stop offset="1" stop-color="#b70f09"/></linearGradient><linearGradient id="linear-gradient-2" y1="253.5" x2="1052.02" y2="253.5" gradientUnits="userSpaceOnUse"><stop offset="0" stop-color="#dde0e5"/><stop offset="1" stop-color="#f5f7fa"/></linearGradient><clipPath id="clip-path"/><style>.cls-1{fill:none}.cls-3{opacity:.45}</style></defs><g style="clip-path:url(#clip-path)"><path d="m910.06-209.7 3.85 42.7c14 135.24-84.46 256.2-219.91 270.12l-800.29 82.26c-135.44 13.92-256.59-84.47-270.58-219.75L-380.72-77c-14-135.29 84.46-256.24 219.91-270.17l800.29-82.26C774.92-443.37 896.07-345 910.06-209.7Z" style="fill-rule:evenodd;fill:url(#linear-gradient)"/></g><path d="M992.11 507c53.95-52.2 74.58-136.18 49-206.71l-63.17-174.13a191.62 191.62 0 0 0-285.8-94.25L0 507Z" style="fill:url(#linear-gradient-2)"/></svg>