<?xml version="1.0" encoding="utf-8"?>
<!-- Generator: Adobe Illustrator 22.0.1, SVG Export Plug-In . SVG Version: 6.00 Build 0)  -->
<svg version="1.1" id="Layer_1" xmlns="http://www.w3.org/2000/svg" xmlns:xlink="http://www.w3.org/1999/xlink" x="0px" y="0px"
	 viewBox="0 0 30 30" style="enable-background:new 0 0 30 30;" xml:space="preserve">
<style type="text/css">
	.st0{fill:#231F20;}
	.st1{fill:#FFFFFF;}
	.st2{fill:none;stroke:#231F20;stroke-miterlimit:10;}
	.st3{fill:none;stroke:#231F20;stroke-width:1.2094;stroke-miterlimit:10;}
	.st4{fill:none;stroke:#231F20;stroke-width:2;stroke-miterlimit:10;}
	.st5{fill:none;stroke:#231F20;stroke-width:0.9701;stroke-miterlimit:10;}
</style>
<path class="st0" d="M5.7,0.2c-1.7,0-3,1.3-3,3v21c0,1.7,1.3,3,3,3H19v2.5l2-1.3l2,1.3v-2.5h4.3v-21v-6H5.7z M5.7,1.2h20.6v1.5H9
	c-0.3,0-0.5,0.2-0.5,0.5c0,0.3,0.2,0.5,0.5,0.5h17.2v1.5H5.7c-1.1,0-2-0.9-2-2S4.6,1.2,5.7,1.2z M3.7,24.3V5.4
	c0.5,0.5,1.2,0.8,2,0.8h1.9v20H5.7C4.6,26.3,3.7,25.4,3.7,24.3z M20,27.3h1l-1,0.7V27.3z M22,27.9l-1-0.7h1V27.9z M26.3,26.3H8.6
	v-20h17.7V26.3z"/>
</svg>
