<?xml version="1.0" encoding="UTF-8" standalone="no"?>
<svg width="16px" height="16px" viewBox="0 0 16 16" version="1.1" xmlns="http://www.w3.org/2000/svg" xmlns:xlink="http://www.w3.org/1999/xlink">
    <!-- Generator: Sketch 48 (47235) - http://www.bohemiancoding.com/sketch -->
    <title>Shape</title>
    <desc>Created with Sketch.</desc>
    <defs></defs>
    <g id="Navbar" stroke="none" stroke-width="1" fill="none" fill-rule="evenodd" transform="translate(-1222.000000, -22.000000)">
        <g fill="#979797" fill-rule="nonzero" id="Navbar-icons" stroke="#979797">
            <g transform="translate(1141.000000, 0.000000)">
                <g id="Icon" transform="translate(59.000000, 0.000000)">
                    <g id="Search" transform="translate(15.000000, 15.000000)">
                        <path d="M21.8151738,20.9151008 L18.2032669,17.3031939 C19.0159367,16.2889418 19.4578254,15.0275492 19.4557638,13.7278819 C19.4557638,10.5645 16.8914229,8 13.7278819,8 C10.5645,8 8,10.5645 8,13.7278819 C8,16.8912638 10.5645,19.4557638 13.7278819,19.4557638 C15.0802984,19.4557638 16.3232488,18.9870321 17.3031939,18.2031078 L20.9151008,21.8150147 C21.0343077,21.9345553 21.1962376,22.0016634 21.3650577,22.0014891 C21.6224569,22.0014984 21.8545193,21.8464612 21.953044,21.6086646 C22.0515687,21.370868 21.997155,21.097137 21.8151738,20.9151008 Z M13.7278819,18.1829011 C11.2674384,18.1829011 9.27286264,16.1883254 9.27286264,13.7278819 C9.27286264,11.2674384 11.2674384,9.27286264 13.7278819,9.27286264 C16.1884845,9.27286264 18.1829011,11.2674384 18.1829011,13.7278819 C18.1829011,16.1883254 16.1884845,18.1829011 13.7278819,18.1829011 Z" id="Shape"></path>
                    </g>
                </g>
            </g>
        </g>
    </g>
</svg>