<svg id="Layer_1" data-name="Layer 1" xmlns="http://www.w3.org/2000/svg" xmlns:xlink="http://www.w3.org/1999/xlink" viewBox="0 0 356 388.55"><defs><style>.cls-1,.cls-2,.cls-4{fill:none;}.cls-2{stroke:#495865;}.cls-2,.cls-4{stroke-miterlimit:10;stroke-width:2px;}.cls-3{clip-path:url(#clip-path);}.cls-4{stroke:#e0242b;}</style><clipPath id="clip-path"><path class="cls-1" d="M0,312.1v76.45H356V312.1Zm2.65,73.62,95.64-69.33h28.82L65.49,385.72Zm115.82,0,31.13-69.33h55l31.13,69.33Zm171,0L227.9,316.39h28.81l95.65,69.33Z"/></clipPath></defs><title>India</title><rect class="cls-2" y="284.75" width="356" height="27.34"/><rect class="cls-2" y="284.75" width="18.59" height="27.34"/><rect class="cls-2" x="337.41" y="284.75" width="18.59" height="27.34"/><path class="cls-2" d="M30.85,312.1H18.59V300.6a3.05,3.05,0,0,1,.83-2.1l3.21-3.37a2.88,2.88,0,0,1,4.18,0L30,298.5a3.05,3.05,0,0,1,.83,2.1Z"/><path class="cls-2" d="M43.11,312.1H30.85V300.6a3,3,0,0,1,.84-2.1l3.21-3.37a2.87,2.87,0,0,1,4.17,0l3.21,3.37a3.05,3.05,0,0,1,.83,2.1Z"/><path class="cls-2" d="M55.38,312.1H43.11V300.6a3,3,0,0,1,.84-2.1l3.21-3.37a2.87,2.87,0,0,1,4.17,0l3.21,3.37a3,3,0,0,1,.84,2.1Z"/><path class="cls-2" d="M67.64,312.1H55.38V300.6a3.05,3.05,0,0,1,.83-2.1l3.21-3.37a2.87,2.87,0,0,1,4.17,0l3.21,3.37a3,3,0,0,1,.84,2.1Z"/><path class="cls-2" d="M79.9,312.1H67.64V300.6a3.05,3.05,0,0,1,.83-2.1l3.21-3.37a2.88,2.88,0,0,1,4.18,0l3.21,3.37a3.05,3.05,0,0,1,.83,2.1Z"/><path class="cls-2" d="M92.16,312.1H79.9V300.6a3,3,0,0,1,.84-2.1L84,295.13a2.87,2.87,0,0,1,4.17,0l3.21,3.37a3.05,3.05,0,0,1,.83,2.1Z"/><path class="cls-2" d="M104.43,312.1H92.16V300.6a3,3,0,0,1,.84-2.1l3.21-3.37a2.87,2.87,0,0,1,4.17,0l3.21,3.37a3,3,0,0,1,.84,2.1Z"/><path class="cls-2" d="M116.69,312.1H104.43V300.6a3.05,3.05,0,0,1,.83-2.1l3.21-3.37a2.87,2.87,0,0,1,4.17,0l3.21,3.37a3,3,0,0,1,.84,2.1Z"/><path class="cls-2" d="M129,312.1H116.69V300.6a3.05,3.05,0,0,1,.83-2.1l3.21-3.37a2.88,2.88,0,0,1,4.18,0l3.21,3.37a3.05,3.05,0,0,1,.83,2.1Z"/><path class="cls-2" d="M141.21,312.1H129V300.6a3.05,3.05,0,0,1,.83-2.1l3.22-3.37a2.87,2.87,0,0,1,4.17,0l3.21,3.37a3.05,3.05,0,0,1,.83,2.1Z"/><path class="cls-2" d="M153.48,312.1H141.21V300.6a3,3,0,0,1,.84-2.1l3.21-3.37a2.87,2.87,0,0,1,4.17,0l3.21,3.37a3,3,0,0,1,.84,2.1Z"/><path class="cls-2" d="M165.74,312.1H153.48V300.6a3,3,0,0,1,.83-2.1l3.21-3.37a2.87,2.87,0,0,1,4.17,0l3.21,3.37a3,3,0,0,1,.84,2.1Z"/><path class="cls-2" d="M178,312.1H165.74V300.6a3.05,3.05,0,0,1,.83-2.1l3.21-3.37a2.88,2.88,0,0,1,4.18,0l3.21,3.37a3.05,3.05,0,0,1,.83,2.1Z"/><path class="cls-2" d="M190.26,312.1H178V300.6a3.05,3.05,0,0,1,.83-2.1l3.21-3.37a2.88,2.88,0,0,1,4.18,0l3.21,3.37a3.05,3.05,0,0,1,.83,2.1Z"/><path class="cls-2" d="M202.52,312.1H190.26V300.6a3,3,0,0,1,.84-2.1l3.21-3.37a2.87,2.87,0,0,1,4.17,0l3.21,3.37a3,3,0,0,1,.83,2.1Z"/><path class="cls-2" d="M214.79,312.1H202.52V300.6a3,3,0,0,1,.84-2.1l3.21-3.37a2.87,2.87,0,0,1,4.17,0L214,298.5a3,3,0,0,1,.84,2.1Z"/><path class="cls-2" d="M227.05,312.1H214.79V300.6a3.05,3.05,0,0,1,.83-2.1l3.21-3.37a2.87,2.87,0,0,1,4.17,0l3.22,3.37a3.05,3.05,0,0,1,.83,2.1Z"/><path class="cls-2" d="M239.31,312.1H227.05V300.6a3.05,3.05,0,0,1,.83-2.1l3.21-3.37a2.88,2.88,0,0,1,4.18,0l3.21,3.37a3.05,3.05,0,0,1,.83,2.1Z"/><path class="cls-2" d="M251.57,312.1H239.31V300.6a3,3,0,0,1,.84-2.1l3.21-3.37a2.87,2.87,0,0,1,4.17,0l3.21,3.37a3.05,3.05,0,0,1,.83,2.1Z"/><path class="cls-2" d="M263.84,312.1H251.57V300.6a3,3,0,0,1,.84-2.1l3.21-3.37a2.87,2.87,0,0,1,4.17,0L263,298.5a3,3,0,0,1,.84,2.1Z"/><path class="cls-2" d="M276.1,312.1H263.84V300.6a3.05,3.05,0,0,1,.83-2.1l3.21-3.37a2.87,2.87,0,0,1,4.17,0l3.21,3.37a3,3,0,0,1,.84,2.1Z"/><path class="cls-2" d="M288.36,312.1H276.1V300.6a3.05,3.05,0,0,1,.83-2.1l3.21-3.37a2.88,2.88,0,0,1,4.18,0l3.21,3.37a3.05,3.05,0,0,1,.83,2.1Z"/><path class="cls-2" d="M300.62,312.1H288.36V300.6a3,3,0,0,1,.84-2.1l3.21-3.37a2.87,2.87,0,0,1,4.17,0l3.21,3.37a3.05,3.05,0,0,1,.83,2.1Z"/><path class="cls-2" d="M312.89,312.1H300.62V300.6a3,3,0,0,1,.84-2.1l3.21-3.37a2.87,2.87,0,0,1,4.17,0l3.21,3.37a3,3,0,0,1,.84,2.1Z"/><path class="cls-2" d="M325.15,312.1H312.89V300.6a3.05,3.05,0,0,1,.83-2.1l3.21-3.37a2.87,2.87,0,0,1,4.17,0l3.21,3.37a3,3,0,0,1,.84,2.1Z"/><path class="cls-2" d="M337.41,312.1H325.15V300.6a3.05,3.05,0,0,1,.83-2.1l3.21-3.37a2.88,2.88,0,0,1,4.18,0l3.21,3.37a3.05,3.05,0,0,1,.83,2.1Z"/><rect class="cls-2" x="145.83" y="188.52" width="62.82" height="96.24"/><path class="cls-2" d="M208.66,284.75H145.83V232.43a46.4,46.4,0,0,1,31.41-43.91h0a46.4,46.4,0,0,1,31.42,43.91Z"/><path class="cls-2" d="M186.58,236.64H169.11V221.72A3.79,3.79,0,0,1,170.3,219l5.74-5.48a2.62,2.62,0,0,1,3.61,0l5.74,5.48a3.79,3.79,0,0,1,1.19,2.73Z"/><path class="cls-2" d="M186.58,284.75H169.11V269.83a3.77,3.77,0,0,1,1.19-2.72l5.74-5.49a2.64,2.64,0,0,1,3.61,0l5.74,5.49a3.77,3.77,0,0,1,1.19,2.72Z"/><line class="cls-2" x1="145.83" y1="236.64" x2="208.66" y2="236.64"/><line class="cls-2" x1="243" y1="172.69" x2="243" y2="178.92"/><path class="cls-2" d="M265.68,236.64H238.46V217a19.45,19.45,0,0,1,13.61-18.56h0A19.45,19.45,0,0,1,265.68,217Z"/><rect class="cls-2" x="246.36" y="221.35" width="11.42" height="15.29"/><path class="cls-2" d="M265.68,178.92H238.46V161.74a21.5,21.5,0,0,1,13.61-20h0a21.5,21.5,0,0,1,13.61,20Z"/><path class="cls-2" d="M309.45,236.64H282.23V217a19.45,19.45,0,0,1,13.61-18.56h0A19.45,19.45,0,0,1,309.45,217Z"/><rect class="cls-2" x="290.13" y="221.35" width="11.42" height="15.29"/><path class="cls-2" d="M265.68,284.75H238.46V265.08a19.45,19.45,0,0,1,13.61-18.56h0a19.45,19.45,0,0,1,13.61,18.56Z"/><rect class="cls-2" x="246.36" y="269.47" width="11.42" height="15.29"/><path class="cls-2" d="M309.45,284.75H282.23V265.08a19.45,19.45,0,0,1,13.61-18.56h0a19.45,19.45,0,0,1,13.61,18.56Z"/><rect class="cls-2" x="290.13" y="269.47" width="11.42" height="15.29"/><rect class="cls-2" x="230.66" y="178.92" width="86.21" height="5.21"/><line class="cls-2" x1="316.87" y1="167.73" x2="316.87" y2="284.75"/><line class="cls-2" x1="273.96" y1="167.73" x2="273.96" y2="284.75"/><line class="cls-2" x1="265.68" y1="161.74" x2="238.46" y2="161.74"/><line class="cls-2" x1="252.07" y1="135.52" x2="252.07" y2="141.75"/><line class="cls-2" x1="261.52" y1="172.69" x2="261.52" y2="178.92"/><path class="cls-2" d="M257.78,178.92H246.36v-7.33a7,7,0,0,1,5.71-6.89h0a7,7,0,0,1,5.71,6.89Z"/><path class="cls-2" d="M90.29,236.64h27.22V217A19.45,19.45,0,0,0,103.9,198.4h0A19.45,19.45,0,0,0,90.29,217Z"/><rect class="cls-2" x="98.19" y="221.35" width="11.42" height="15.29" transform="translate(207.81 457.98) rotate(-180)"/><path class="cls-2" d="M90.29,178.92h27.22V161.74a21.5,21.5,0,0,0-13.61-20h0a21.5,21.5,0,0,0-13.61,20Z"/><path class="cls-2" d="M46.52,236.64H73.74V217A19.44,19.44,0,0,0,60.13,198.4h0A19.45,19.45,0,0,0,46.52,217Z"/><rect class="cls-2" x="54.42" y="221.35" width="11.42" height="15.29" transform="translate(120.27 457.98) rotate(-180)"/><path class="cls-2" d="M90.29,284.75h27.22V265.08a19.45,19.45,0,0,0-13.61-18.56h0a19.45,19.45,0,0,0-13.61,18.56Z"/><rect class="cls-2" x="98.19" y="269.47" width="11.42" height="15.29" transform="translate(207.81 554.22) rotate(-180)"/><path class="cls-2" d="M46.52,284.75H73.74V265.08a19.44,19.44,0,0,0-13.61-18.56h0a19.45,19.45,0,0,0-13.61,18.56Z"/><rect class="cls-2" x="54.42" y="269.47" width="11.42" height="15.29" transform="translate(120.27 554.22) rotate(-180)"/><rect class="cls-2" x="39.1" y="178.92" width="86.21" height="5.21" transform="translate(164.42 363.04) rotate(-180)"/><line class="cls-2" x1="39.1" y1="167.73" x2="39.1" y2="284.75"/><line class="cls-2" x1="82.02" y1="167.73" x2="82.02" y2="284.75"/><line class="cls-2" x1="90.29" y1="161.74" x2="117.51" y2="161.74"/><line class="cls-2" x1="103.9" y1="135.52" x2="103.9" y2="141.75"/><line class="cls-2" x1="94.46" y1="172.69" x2="94.46" y2="178.92"/><path class="cls-2" d="M98.19,178.92h11.43v-7.33a7,7,0,0,0-5.72-6.89h0a7,7,0,0,0-5.71,6.89Z"/><line class="cls-2" x1="112.69" y1="172.69" x2="112.69" y2="178.92"/><line class="cls-2" x1="177.81" y1="62.04" x2="177.81" y2="44.68"/><line class="cls-2" x1="177.81" y1="30.19" x2="177.81" y2="12.84"/><line class="cls-2" x1="194.97" y1="62.04" x2="182.1" y2="44.68"/><path class="cls-2" d="M186,44.68c7.11,5.44,17.39,13,24.64,17.17,12.15,6.94,49.18,33.75,20.06,95.66V284.75"/><path class="cls-2" d="M125,284.75V157.51C95.84,95.6,132.87,68.79,145,61.85c7.26-4.15,17.54-11.73,24.64-17.17"/><line class="cls-2" x1="160.66" y1="62.04" x2="173.52" y2="44.68"/><path class="cls-2" d="M172.06,36h10.39A3.51,3.51,0,0,1,186,39.51v5.17a0,0,0,0,1,0,0H168.55a0,0,0,0,1,0,0V39.51A3.51,3.51,0,0,1,172.06,36Z"/><path class="cls-2" d="M176,30.23h2.48a1.65,1.65,0,0,1,1.65,1.65V36a0,0,0,0,1,0,0h-5.77a0,0,0,0,1,0,0V31.88A1.65,1.65,0,0,1,176,30.23Z"/><line class="cls-2" x1="145.02" y1="61.85" x2="210.6" y2="61.85"/><line class="cls-2" x1="116.43" y1="97.32" x2="239.19" y2="97.32"/><line class="cls-2" x1="114.82" y1="104.64" x2="240.81" y2="104.64"/><line class="cls-2" x1="114.82" y1="111.96" x2="240.81" y2="111.96"/><line class="cls-2" x1="114.05" y1="119.28" x2="241.57" y2="119.28"/><line class="cls-2" x1="115.01" y1="126.61" x2="240.61" y2="126.61"/><line class="cls-2" x1="116.43" y1="133.93" x2="239.19" y2="133.93"/><line class="cls-2" x1="124.97" y1="157.51" x2="230.66" y2="157.51"/><line class="cls-2" x1="124.97" y1="161.74" x2="230.66" y2="161.74"/><rect class="cls-2" x="340.99" y="123.31" width="11.22" height="161.44"/><path class="cls-2" d="M353.24,123.31H340v-1.22a7.89,7.89,0,0,1,6.64-7.8h0a7.89,7.89,0,0,1,6.64,7.8Z"/><line class="cls-2" x1="355.76" y1="123.31" x2="337.44" y2="123.31"/><line class="cls-2" x1="354.69" y1="139.46" x2="338.51" y2="139.46"/><line class="cls-2" x1="354.69" y1="184.13" x2="338.51" y2="184.13"/><line class="cls-2" x1="354.69" y1="236.64" x2="338.51" y2="236.64"/><line class="cls-2" x1="346.6" y1="129.27" x2="346.6" y2="139.46"/><line class="cls-2" x1="346.6" y1="108.39" x2="346.6" y2="114.29"/><rect class="cls-2" x="3.69" y="123.31" width="11.22" height="161.44"/><path class="cls-2" d="M15.94,123.31H2.65v-1.22a7.9,7.9,0,0,1,6.64-7.8h0a7.9,7.9,0,0,1,6.65,7.8Z"/><line class="cls-2" x1="18.45" y1="123.31" x2="0.13" y2="123.31"/><line class="cls-2" x1="17.38" y1="139.46" x2="1.21" y2="139.46"/><line class="cls-2" x1="17.38" y1="184.13" x2="1.21" y2="184.13"/><line class="cls-2" x1="17.38" y1="236.64" x2="1.21" y2="236.64"/><line class="cls-2" x1="9.29" y1="129.27" x2="9.29" y2="139.46"/><line class="cls-2" x1="9.29" y1="108.39" x2="9.29" y2="114.29"/><g class="cls-3"><line class="cls-4" y1="316.39" x2="356" y2="316.39"/><line class="cls-4" y1="322.99" x2="356" y2="322.99"/><line class="cls-4" y1="329.6" x2="356" y2="329.6"/><line class="cls-4" y1="336.2" x2="356" y2="336.2"/><line class="cls-4" y1="342.8" x2="356" y2="342.8"/><line class="cls-4" y1="349.4" x2="356" y2="349.4"/><line class="cls-4" y1="356.01" x2="356" y2="356.01"/><line class="cls-4" y1="362.61" x2="356" y2="362.61"/><line class="cls-4" y1="369.21" x2="356" y2="369.21"/><line class="cls-4" y1="375.82" x2="356" y2="375.82"/><line class="cls-4" y1="382.42" x2="356" y2="382.42"/></g></svg>