<svg id="Layer_1" data-name="Layer 1" xmlns="http://www.w3.org/2000/svg" xmlns:xlink="http://www.w3.org/1999/xlink" viewBox="0 0 356 388.55"><defs><style>.cls-1,.cls-3{fill:none;}.cls-2{clip-path:url(#clip-path);}.cls-3{stroke:#e0242b;}.cls-3,.cls-4{stroke-miterlimit:10;stroke-width:2px;}.cls-4{fill:#fff;stroke:#495865;}</style><clipPath id="clip-path"><path class="cls-1" d="M81.21,141.82H92.72L94.56,101v-.14c.82-10.24,8.58-13.95,13.6-13.95s12.78,3.71,13.6,13.95l0,.28,1.83,40.66h11.51v10.59a31.3,31.3,0,0,1,4.17,1.76c5.59,2.82,13.1,8.72,17.13,20.73l0,.14a53.34,53.34,0,0,1,1.85,7.52,41.3,41.3,0,0,1,14.8-7.62v-13.8h15.73l2.66-59V102c1-12.06,9.94-16.44,15.73-16.44S222,89.89,223,102l0,.28,2.66,58.91h15.73v13.78a41.22,41.22,0,0,1,13.75,6.86c9.15,6.94,19.95,21.32,19.5,50.43a101.18,101.18,0,0,0,.45,11.23,97.3,97.3,0,0,0,3,16.26q.36,1.32.75,2.61A134.83,134.83,0,1,0,76.68,145.46c0,2.93.11,5.84.29,8.72a32.4,32.4,0,0,1,4.24-1.82Z"/></clipPath></defs><title>Indonesia</title><g class="cls-2"><line class="cls-3" x1="45.5" y1="13.4" x2="377.5" y2="13.4"/><line class="cls-3" x1="45.5" y1="21.69" x2="377.5" y2="21.69"/><line class="cls-3" x1="45.5" y1="29.99" x2="377.5" y2="29.99"/><line class="cls-3" x1="45.5" y1="38.28" x2="377.5" y2="38.28"/><line class="cls-3" x1="45.5" y1="46.58" x2="377.5" y2="46.58"/><line class="cls-3" x1="45.5" y1="54.87" x2="377.5" y2="54.87"/><line class="cls-3" x1="45.5" y1="63.17" x2="377.5" y2="63.17"/><line class="cls-3" x1="45.5" y1="71.46" x2="377.5" y2="71.46"/><line class="cls-3" x1="45.5" y1="79.76" x2="377.5" y2="79.76"/><line class="cls-3" x1="45.5" y1="88.05" x2="377.5" y2="88.05"/><line class="cls-3" x1="45.5" y1="96.35" x2="377.5" y2="96.35"/><line class="cls-3" x1="45.5" y1="104.64" x2="377.5" y2="104.64"/><line class="cls-3" x1="45.5" y1="112.94" x2="377.5" y2="112.94"/><line class="cls-3" x1="45.5" y1="121.24" x2="377.5" y2="121.24"/><line class="cls-3" x1="45.5" y1="129.53" x2="377.5" y2="129.53"/><line class="cls-3" x1="45.5" y1="137.83" x2="377.5" y2="137.83"/><line class="cls-3" x1="45.5" y1="146.12" x2="377.5" y2="146.12"/><line class="cls-3" x1="45.5" y1="154.42" x2="377.5" y2="154.42"/><line class="cls-3" x1="45.5" y1="162.71" x2="377.5" y2="162.71"/><line class="cls-3" x1="45.5" y1="171.01" x2="377.5" y2="171.01"/><line class="cls-3" x1="45.5" y1="179.3" x2="377.5" y2="179.3"/><line class="cls-3" x1="45.5" y1="187.6" x2="377.5" y2="187.6"/><line class="cls-3" x1="45.5" y1="195.89" x2="377.5" y2="195.89"/><line class="cls-3" x1="45.5" y1="204.19" x2="377.5" y2="204.19"/><line class="cls-3" x1="45.5" y1="212.49" x2="377.5" y2="212.49"/><line class="cls-3" x1="45.5" y1="220.78" x2="377.5" y2="220.78"/><line class="cls-3" x1="45.5" y1="229.08" x2="377.5" y2="229.08"/><line class="cls-3" x1="45.5" y1="237.37" x2="377.5" y2="237.37"/><line class="cls-3" x1="45.5" y1="245.67" x2="377.5" y2="245.67"/><line class="cls-3" x1="45.5" y1="253.96" x2="377.5" y2="253.96"/><line class="cls-3" x1="45.5" y1="262.26" x2="377.5" y2="262.26"/><line class="cls-3" x1="45.5" y1="270.55" x2="377.5" y2="270.55"/><line class="cls-3" x1="45.5" y1="278.85" x2="377.5" y2="278.85"/></g><path class="cls-4" d="M.78,309.06V297.55h8.3c0-3.42,4.4-4.15,5.73-4.15s.38-2.19.38-2.19C13,283.39,21.05,281,24,281s2.45-2.68,2-6.35,1.37-5,1.37-5h6.31v-6l13.79-9.05v-9.48h4.31v-5.6s13.79-16.38,13.36-44c-.56-36.2,24.14-36.64,24.14-36.64v-9.05h37.92v9.05s24.7.44,24.14,36.64c-.43,27.58,13.36,44,13.36,44v5.6h4.31v9.48l13.79,9.05v6H189s1.86,1.31,1.37,5-1,6.35,2,6.35,11,2.44,8.79,10.26c0,0-1,2.19.37,2.19s5.73.73,5.73,4.15h8.3v11.51Z"/><path class="cls-4" d="M100.39,149.4l2.16-47.88c.52-6.59,5.62-6.59,5.62-6.59s5.1,0,5.63,6.59L116,149.4"/><line class="cls-4" x1="9.08" y1="297.55" x2="207.26" y2="297.55"/><line class="cls-4" x1="201.53" y1="293.4" x2="14.81" y2="293.4"/><line class="cls-4" x1="33.61" y1="269.63" x2="182.73" y2="269.63"/><line class="cls-4" x1="182.73" y1="263.6" x2="33.61" y2="263.6"/><line class="cls-4" x1="47.4" y1="254.55" x2="168.94" y2="254.55"/><line class="cls-4" x1="164.63" y1="245.07" x2="51.71" y2="245.07"/><line class="cls-4" x1="51.71" y1="239.47" x2="164.63" y2="239.47"/><polygon class="cls-4" points="90.58 177.92 84.93 185.97 79.28 177.92 84.93 169.88 90.58 177.92"/><polygon class="cls-4" points="113.97 177.92 108.32 185.97 102.67 177.92 108.32 169.88 113.97 177.92"/><line class="cls-4" x1="89.21" y1="158.87" x2="127.13" y2="158.87"/><polygon class="cls-4" points="137.37 177.92 131.71 185.97 126.06 177.92 131.71 169.88 137.37 177.92"/><polygon class="cls-4" points="78.58 195.07 72.93 203.11 67.28 195.07 72.93 187.03 78.58 195.07"/><polygon class="cls-4" points="101.97 195.07 96.32 203.11 90.67 195.07 96.32 187.03 101.97 195.07"/><polygon class="cls-4" points="125.36 195.07 119.71 203.11 114.06 195.07 119.71 187.03 125.36 195.07"/><polygon class="cls-4" points="148.75 195.07 143.1 203.11 137.45 195.07 143.1 187.03 148.75 195.07"/><polygon class="cls-4" points="90.58 211.71 84.93 219.76 79.28 211.71 84.93 203.67 90.58 211.71"/><polygon class="cls-4" points="113.97 211.71 108.32 219.76 102.67 211.71 108.32 203.67 113.97 211.71"/><polygon class="cls-4" points="137.37 211.71 131.71 219.76 126.06 211.71 131.71 203.67 137.37 211.71"/><polygon class="cls-4" points="78.58 228.86 72.93 236.9 67.28 228.86 72.93 220.82 78.58 228.86"/><polygon class="cls-4" points="101.97 228.86 96.32 236.9 90.67 228.86 96.32 220.82 101.97 228.86"/><polygon class="cls-4" points="125.36 228.86 119.71 236.9 114.06 228.86 119.71 220.82 125.36 228.86"/><polygon class="cls-4" points="147.74 228.86 142.09 236.9 136.43 228.86 142.09 220.82 147.74 228.86"/><path class="cls-4" d="M72.27,177.92l-3.16-4.48a40.4,40.4,0,0,0-3.35,11.32l.85,1.21Z"/><path class="cls-4" d="M150,186l.6-.86a40.5,40.5,0,0,0-3.28-11.41l-3,4.22Z"/><path class="cls-4" d="M70.24,211.71l-5.49-7.8a75.65,75.65,0,0,1-2.27,12.85l2.1,3Z"/><path class="cls-4" d="M152.06,219.76l1.89-2.69a75.37,75.37,0,0,1-2.33-12.78l-5.21,7.42Z"/><path class="cls-4" d="M61.28,228.86l-2-2.79a66.38,66.38,0,0,1-4.76,9.31l1.07,1.52Z"/><path class="cls-4" d="M159.57,236.9l1.69-2.39a67.56,67.56,0,0,1-4.65-9.47l-2.69,3.82Z"/><line class="cls-4" x1="108.17" y1="100.76" x2="108.17" y2="149.4"/><polyline class="cls-4" points="113.48 100.2 108.17 100.76 102.86 100.2"/><path class="cls-4" d="M59.3,388.55V372.69H70.74c0-4.71,6.05-5.72,7.89-5.72s.51-3,.51-3c-3-10.76,8.08-14.12,12.11-14.12s3.37-3.7,2.69-8.75,1.89-6.85,1.89-6.85h8.7v-8.31l19-12.47V300.38h5.94v-7.72s19-22.57,18.41-60.57c-.78-49.88,33.25-50.48,33.25-50.48V169.14h52.26v12.47s34,.6,33.25,50.48c-.59,38,18.41,60.57,18.41,60.57v7.72H291v13.06l19,12.47v8.31h8.69s2.57,1.81,1.89,6.85-1.34,8.75,2.69,8.75,15.14,3.36,12.11,14.12c0,0-1.32,3,.52,3s7.89,1,7.89,5.72h11.44v15.86Z"/><path class="cls-4" d="M196.53,168.57l3-66c.72-9.08,7.75-9.08,7.75-9.08s7,0,7.75,9.08l3,66"/><line class="cls-4" x1="70.74" y1="372.69" x2="343.78" y2="372.69"/><line class="cls-4" x1="335.89" y1="366.97" x2="78.63" y2="366.97"/><line class="cls-4" x1="104.53" y1="334.22" x2="309.99" y2="334.22"/><line class="cls-4" x1="309.99" y1="325.91" x2="104.53" y2="325.91"/><line class="cls-4" x1="123.53" y1="313.44" x2="290.99" y2="313.44"/><line class="cls-4" x1="285.05" y1="300.38" x2="129.47" y2="300.38"/><line class="cls-4" x1="129.47" y1="292.66" x2="285.05" y2="292.66"/><polygon class="cls-4" points="183.03 207.86 175.24 218.94 167.45 207.86 175.24 196.78 183.03 207.86"/><polygon class="cls-4" points="215.25 207.86 207.47 218.94 199.68 207.86 207.47 196.78 215.25 207.86"/><line class="cls-4" x1="181.13" y1="181.61" x2="233.39" y2="181.61"/><polygon class="cls-4" points="247.48 207.86 239.69 218.94 231.91 207.86 239.69 196.78 247.48 207.86"/><polygon class="cls-4" points="166.49 231.49 158.7 242.57 150.91 231.49 158.7 220.41 166.49 231.49"/><polygon class="cls-4" points="198.72 231.49 190.93 242.57 183.14 231.49 190.93 220.41 198.72 231.49"/><polygon class="cls-4" points="230.94 231.49 223.16 242.57 215.37 231.49 223.16 220.41 230.94 231.49"/><polygon class="cls-4" points="263.17 231.49 255.38 242.57 247.6 231.49 255.38 220.41 263.17 231.49"/><polygon class="cls-4" points="183.03 254.42 175.24 265.5 167.45 254.42 175.24 243.34 183.03 254.42"/><polygon class="cls-4" points="215.25 254.42 207.47 265.5 199.68 254.42 207.47 243.34 215.25 254.42"/><polygon class="cls-4" points="247.48 254.42 239.69 265.5 231.91 254.42 239.69 243.34 247.48 254.42"/><polygon class="cls-4" points="166.49 278.04 158.7 289.13 150.91 278.04 158.7 266.96 166.49 278.04"/><polygon class="cls-4" points="198.72 278.04 190.93 289.13 183.14 278.04 190.93 266.96 198.72 278.04"/><polygon class="cls-4" points="230.94 278.04 223.16 289.13 215.37 278.04 223.16 266.96 230.94 278.04"/><polygon class="cls-4" points="261.77 278.04 253.99 289.13 246.2 278.04 253.99 266.96 261.77 278.04"/><path class="cls-4" d="M157.79,207.86l-4.35-6.18a55.57,55.57,0,0,0-4.61,15.6l1.17,1.66Z"/><path class="cls-4" d="M264.93,218.94l.83-1.17A55.9,55.9,0,0,0,261.24,202l-4.09,5.82Z"/><path class="cls-4" d="M155,254.42l-7.55-10.75a106.32,106.32,0,0,1-3.13,17.7l2.9,4.13Z"/><path class="cls-4" d="M267.73,265.5l2.6-3.7a104.74,104.74,0,0,1-3.2-17.61l-7.19,10.23Z"/><path class="cls-4" d="M142.65,278l-2.71-3.84A91.92,91.92,0,0,1,133.39,287l1.47,2.1Z"/><path class="cls-4" d="M278.08,289.13l2.32-3.3A94.13,94.13,0,0,1,274,272.78l-3.7,5.26Z"/><line class="cls-4" x1="207.26" y1="101.55" x2="207.26" y2="168.57"/><polyline class="cls-4" points="214.57 100.77 207.26 101.55 199.94 100.77"/></svg>