<svg id="Layer_1" data-name="Layer 1" xmlns="http://www.w3.org/2000/svg" xmlns:xlink="http://www.w3.org/1999/xlink" viewBox="0 0 356 388.55"><defs><style>.cls-1,.cls-4{fill:none;}.cls-1,.cls-3{stroke:#495865;}.cls-1,.cls-3,.cls-4{stroke-miterlimit:10;stroke-width:2px;}.cls-2{clip-path:url(#clip-path);}.cls-3{fill:#fff;}.cls-4{stroke:#e0242b;}</style><clipPath id="clip-path"><path id="_Compound_Clipping_Path_" data-name="&lt;Compound Clipping Path&gt;" class="cls-1" d="M223,341c38.58-27.53,30.24-96.35,27.53-109.07s-1.31-24.17-1-28.11a94.06,94.06,0,0,1-9.68-4.73v8.73C208.69,202.9,203,194.93,203,194.93V162.08c-8.74-1.33-18.61-6.46-18.61-6.46-9.5,8.16-21.27,6.27-21.27,6.27l-8.66,9-32.21-15.22a35.86,35.86,0,0,0-17.73-5.84c-4.72-.28-6.94,1.66-7.94,3.91A7.51,7.51,0,0,0,98.29,162c35.76,35.48,32,73.89,28.76,86.4-5,19.38-21.36,44.61-4.7,77.27C137.77,355.91,182.17,370.14,223,341Zm-63.3-48a10.74,10.74,0,1,1,10.75-10.74A10.74,10.74,0,0,1,159.68,293Z"/></clipPath></defs><title>Singapore</title><path id="_Compound_Path_" data-name="&lt;Compound Path&gt;" class="cls-1" d="M263.23,208.38c-12.09-27.74-17-49.11-17.62-57.56,5.31,1.76,17.62,4.17,17.62,4.17-7.09-18.14-13.62-48-15.74-57.2,3.12.94,12.2,2.35,12.2,2.35s-5.43-24-7.1-43.38-20.85-31.07-20.85-31.07c6.67-2.71,4.17-11.06,4.17-11.06s-5.95,3.63-23.77.84c-12.67-2-20.34-7.46-42.76-3.76-18.4,3-20,14-20,14-4.17.62-7.09,5.63-7.09,5.63-11,2.34-11.26,11-11.26,11-9.39.84-19.61,3.76-25.44,7.09s2.29,16.06,2.29,16.06c-3.75,11.47,9.59,16.27,9.59,16.27,1.25,3.54,5,6.25,5,6.25,1-4.79,6.46-7.92,6.46-7.92s14.49-2.66,17.73,4.17c2.92,6.15,1.67,11.32-7.51,13.77s-13.55-4.38-13.55-4.38a33,33,0,0,0-2.09,7.92c-1.67.42-5.63,3.34-5.63,3.34-.63,12.72,9.8,15.43,9.8,15.43-1,6-5.63,22.73-5.63,22.73h3.55l-3.34,12.52a35.86,35.86,0,0,0-17.73-5.84c-4.72-.28-6.94,1.66-7.94,3.91A7.51,7.51,0,0,0,98.29,162c35.76,35.48,32,73.89,28.76,86.4-5,19.38-21.36,44.61-4.7,77.27C137.77,355.91,182.17,370.14,223,341c38.58-27.53,30.24-96.35,27.53-109.07s-1.31-24.17-1-28.11A77,77,0,0,0,263.23,208.38ZM159.68,293a10.74,10.74,0,1,1,10.75-10.74A10.74,10.74,0,0,1,159.68,293Z"/><g class="cls-2"><circle class="cls-3" cx="114.99" cy="358.39" r="11.92"/><circle class="cls-3" cx="91.15" cy="358.39" r="11.92"/><circle class="cls-3" cx="138.82" cy="358.39" r="11.92"/><circle class="cls-3" cx="162.66" cy="358.39" r="11.92"/><circle class="cls-3" cx="186.49" cy="358.39" r="11.92"/><circle class="cls-3" cx="210.33" cy="358.39" r="11.92"/><circle class="cls-3" cx="234.16" cy="358.39" r="11.92"/><circle class="cls-3" cx="258" cy="358.39" r="11.92"/><circle class="cls-3" cx="103.07" cy="347.66" r="11.92"/><circle class="cls-3" cx="126.91" cy="347.66" r="11.92"/><circle class="cls-3" cx="150.74" cy="347.66" r="11.92"/><circle class="cls-3" cx="174.57" cy="347.66" r="11.92"/><circle class="cls-3" cx="198.41" cy="347.66" r="11.92"/><circle class="cls-3" cx="222.24" cy="347.66" r="11.92"/><circle class="cls-3" cx="246.08" cy="347.66" r="11.92"/><circle class="cls-3" cx="114.99" cy="334.55" r="11.92"/><circle class="cls-3" cx="91.15" cy="334.55" r="11.92"/><circle class="cls-3" cx="138.82" cy="334.55" r="11.92"/><circle class="cls-3" cx="162.66" cy="334.55" r="11.92"/><circle class="cls-3" cx="186.49" cy="334.55" r="11.92"/><circle class="cls-3" cx="210.33" cy="334.55" r="11.92"/><circle class="cls-3" cx="234.16" cy="334.55" r="11.92"/><circle class="cls-3" cx="258" cy="334.55" r="11.92"/><circle class="cls-3" cx="103.07" cy="323.83" r="11.92"/><circle class="cls-3" cx="126.91" cy="323.83" r="11.92"/><circle class="cls-3" cx="150.74" cy="323.83" r="11.92"/><circle class="cls-3" cx="174.57" cy="323.83" r="11.92"/><circle class="cls-3" cx="198.41" cy="323.83" r="11.92"/><circle class="cls-3" cx="222.24" cy="323.83" r="11.92"/><circle class="cls-3" cx="246.08" cy="323.83" r="11.92"/><circle class="cls-3" cx="114.99" cy="310.72" r="11.92"/><circle class="cls-3" cx="91.15" cy="310.72" r="11.92"/><circle class="cls-3" cx="138.82" cy="310.72" r="11.92"/><circle class="cls-3" cx="162.66" cy="310.72" r="11.92"/><circle class="cls-3" cx="186.49" cy="310.72" r="11.92"/><circle class="cls-3" cx="210.33" cy="310.72" r="11.92"/><circle class="cls-3" cx="234.16" cy="310.72" r="11.92"/><circle class="cls-3" cx="258" cy="310.72" r="11.92"/><circle class="cls-3" cx="103.07" cy="299.99" r="11.92"/><circle class="cls-3" cx="126.91" cy="299.99" r="11.92"/><circle class="cls-3" cx="150.74" cy="299.99" r="11.92"/><circle class="cls-3" cx="174.57" cy="299.99" r="11.92"/><circle class="cls-3" cx="198.41" cy="299.99" r="11.92"/><circle class="cls-3" cx="222.24" cy="299.99" r="11.92"/><circle class="cls-3" cx="246.08" cy="299.99" r="11.92"/><circle class="cls-3" cx="114.99" cy="286.89" r="11.92"/><circle class="cls-3" cx="91.15" cy="286.89" r="11.92"/><circle class="cls-3" cx="138.82" cy="286.89" r="11.92"/><circle class="cls-3" cx="162.66" cy="286.89" r="11.92"/><circle class="cls-3" cx="186.49" cy="286.89" r="11.92"/><circle class="cls-3" cx="210.33" cy="286.89" r="11.92"/><circle class="cls-3" cx="234.16" cy="286.89" r="11.92"/><circle class="cls-3" cx="258" cy="286.89" r="11.92"/><circle class="cls-3" cx="103.07" cy="276.16" r="11.92"/><circle class="cls-3" cx="126.91" cy="276.16" r="11.92"/><circle class="cls-3" cx="150.74" cy="276.16" r="11.92"/><circle class="cls-3" cx="174.57" cy="276.16" r="11.92"/><circle class="cls-3" cx="198.41" cy="276.16" r="11.92"/><circle class="cls-3" cx="222.24" cy="276.16" r="11.92"/><circle class="cls-3" cx="246.08" cy="276.16" r="11.92"/><circle class="cls-3" cx="114.99" cy="263.05" r="11.92"/><circle class="cls-3" cx="91.15" cy="263.05" r="11.92"/><circle class="cls-3" cx="138.82" cy="263.05" r="11.92"/><circle class="cls-3" cx="162.66" cy="263.05" r="11.92"/><circle class="cls-3" cx="186.49" cy="263.05" r="11.92"/><circle class="cls-3" cx="210.33" cy="263.05" r="11.92"/><circle class="cls-3" cx="234.16" cy="263.05" r="11.92"/><circle class="cls-3" cx="258" cy="263.05" r="11.92"/><circle class="cls-3" cx="103.07" cy="252.32" r="11.92"/><circle class="cls-3" cx="126.91" cy="252.32" r="11.92"/><circle class="cls-3" cx="150.74" cy="252.32" r="11.92"/><circle class="cls-3" cx="174.57" cy="252.32" r="11.92"/><circle class="cls-3" cx="198.41" cy="252.32" r="11.92"/><circle class="cls-3" cx="222.24" cy="252.32" r="11.92"/><circle class="cls-3" cx="246.08" cy="252.32" r="11.92"/><circle class="cls-3" cx="114.99" cy="239.22" r="11.92"/><circle class="cls-3" cx="91.15" cy="239.22" r="11.92"/><circle class="cls-3" cx="138.82" cy="239.22" r="11.92"/><circle class="cls-3" cx="162.66" cy="239.22" r="11.92"/><circle class="cls-3" cx="186.49" cy="239.22" r="11.92"/><circle class="cls-3" cx="210.33" cy="239.22" r="11.92"/><circle class="cls-3" cx="234.16" cy="239.22" r="11.92"/><circle class="cls-3" cx="258" cy="239.22" r="11.92"/><circle class="cls-3" cx="103.07" cy="228.49" r="11.92"/><circle class="cls-3" cx="126.91" cy="228.49" r="11.92"/><circle class="cls-3" cx="150.74" cy="228.49" r="11.92"/><circle class="cls-3" cx="174.57" cy="228.49" r="11.92"/><circle class="cls-3" cx="198.41" cy="228.49" r="11.92"/><circle class="cls-3" cx="222.24" cy="228.49" r="11.92"/><circle class="cls-3" cx="246.08" cy="228.49" r="11.92"/><circle class="cls-3" cx="114.99" cy="215.38" r="11.92"/><circle class="cls-3" cx="91.15" cy="215.38" r="11.92"/><circle class="cls-3" cx="138.82" cy="215.38" r="11.92"/><circle class="cls-3" cx="162.66" cy="215.38" r="11.92"/><circle class="cls-3" cx="186.49" cy="215.38" r="11.92"/><circle class="cls-3" cx="210.33" cy="215.38" r="11.92"/><circle class="cls-3" cx="234.16" cy="215.38" r="11.92"/><circle class="cls-3" cx="258" cy="215.38" r="11.92"/><circle class="cls-3" cx="103.07" cy="204.66" r="11.92"/><circle class="cls-3" cx="126.91" cy="204.66" r="11.92"/><circle class="cls-3" cx="150.74" cy="204.66" r="11.92"/><circle class="cls-3" cx="174.57" cy="204.66" r="11.92"/><circle class="cls-3" cx="198.41" cy="204.66" r="11.92"/><circle class="cls-3" cx="222.24" cy="204.66" r="11.92"/><circle class="cls-3" cx="246.08" cy="204.66" r="11.92"/><circle class="cls-3" cx="114.99" cy="191.55" r="11.92"/><circle class="cls-3" cx="91.15" cy="191.55" r="11.92"/><circle class="cls-3" cx="138.82" cy="191.55" r="11.92"/><circle class="cls-3" cx="162.66" cy="191.55" r="11.92"/><circle class="cls-3" cx="186.49" cy="191.55" r="11.92"/><circle class="cls-3" cx="210.33" cy="191.55" r="11.92"/><circle class="cls-3" cx="234.16" cy="191.55" r="11.92"/><circle class="cls-3" cx="258" cy="191.55" r="11.92"/><circle class="cls-3" cx="103.07" cy="180.82" r="11.92"/><circle class="cls-3" cx="126.91" cy="180.82" r="11.92"/><circle class="cls-3" cx="150.74" cy="180.82" r="11.92"/><circle class="cls-3" cx="174.57" cy="180.82" r="11.92"/><circle class="cls-3" cx="198.41" cy="180.82" r="11.92"/><circle class="cls-3" cx="222.24" cy="180.82" r="11.92"/><circle class="cls-3" cx="246.08" cy="180.82" r="11.92"/><circle class="cls-3" cx="114.99" cy="167.71" r="11.92"/><circle class="cls-3" cx="91.15" cy="167.71" r="11.92"/><circle class="cls-3" cx="138.82" cy="167.71" r="11.92"/><circle class="cls-3" cx="162.66" cy="167.71" r="11.92"/><circle class="cls-3" cx="186.49" cy="167.71" r="11.92"/><circle class="cls-3" cx="210.33" cy="167.71" r="11.92"/><circle class="cls-3" cx="234.16" cy="167.71" r="11.92"/><circle class="cls-3" cx="258" cy="167.71" r="11.92"/><circle class="cls-3" cx="103.07" cy="156.99" r="11.92"/><circle class="cls-3" cx="126.91" cy="156.99" r="11.92"/><circle class="cls-3" cx="150.74" cy="156.99" r="11.92"/><circle class="cls-3" cx="174.57" cy="156.99" r="11.92"/><circle class="cls-3" cx="198.41" cy="156.99" r="11.92"/><circle class="cls-3" cx="222.24" cy="156.99" r="11.92"/><circle class="cls-3" cx="246.08" cy="156.99" r="11.92"/></g><path id="_Compound_Clipping_Path_2" data-name="&lt;Compound Clipping Path&gt;" class="cls-1" d="M223,341c38.58-27.53,30.24-96.35,27.53-109.07s-1.31-24.17-1-28.11a94.06,94.06,0,0,1-9.68-4.73v8.73C208.69,202.9,203,194.93,203,194.93V162.08c-8.74-1.33-18.61-6.46-18.61-6.46-9.5,8.16-21.27,6.27-21.27,6.27l-8.66,9-32.21-15.22a35.86,35.86,0,0,0-17.73-5.84c-4.72-.28-6.94,1.66-7.94,3.91A7.51,7.51,0,0,0,98.29,162c35.76,35.48,32,73.89,28.76,86.4-5,19.38-21.36,44.61-4.7,77.27C137.77,355.91,182.17,370.14,223,341Zm-63.3-48a10.74,10.74,0,1,1,10.75-10.74A10.74,10.74,0,0,1,159.68,293Z"/><path class="cls-3" d="M96.58,153.69A7.51,7.51,0,0,0,98.29,162c35.76,35.48,32,73.89,28.76,86.4-.54,2.08-1.21,4.23-2,6.44,7.67-8.67,14.1.07,14.1.07,11.4-1,9.75,9.12,9.75,9.12,7,3.54,3.47,10.34,3.47,10.34a3.11,3.11,0,0,0-.64.66,10.74,10.74,0,1,1,7.91,18c-5.93,0-9.73-4.67-10.74-10.74-6.46,22.52,20.89,22.78,24.43,11.57,15-5.88,12.73-22.78,12.73-22.78,9.17-10.7-.57-20.81-.57-20.81s-.88-18.6-16.71-18.69c0,0,2.25-19.94-15.3-22.79l-2.23-10.72s-18.93-27.45-29-42.45a35.86,35.86,0,0,0-17.73-5.84C99.8,149.5,97.58,151.44,96.58,153.69Z"/><path class="cls-1" d="M107.86,65.52s4.94-16.62,24.31-17.19"/><line class="cls-1" x1="117.42" y1="59.73" x2="129.07" y2="56.93"/><line class="cls-1" x1="117.42" y1="62.32" x2="130.08" y2="62.64"/><line class="cls-1" x1="117.04" y1="65.11" x2="130.08" y2="67.8"/><line class="cls-1" x1="116.41" y1="68.21" x2="129.07" y2="72.13"/><path class="cls-1" d="M127.67,120.37s12.92-1.24,18.53-13.06C151,97.18,159.73,93.77,167,87.52c11.56-9.89,19-39.19,10.64-54.88"/><path class="cls-1" d="M142.27,31.32a21.06,21.06,0,0,0-3.84,8.28s10.38,1.9,16,2.91a17.06,17.06,0,0,1-16,7.14s-.59-7.23,2.44-9.69"/><ellipse class="cls-1" cx="143.77" cy="45.18" rx="1.82" ry="3.68"/><path class="cls-1" d="M173.26,18.66c1,7.38-2.9,17.33-2.9,17.33a5.36,5.36,0,0,0,4.72,2.47,18.54,18.54,0,0,0-1-20.13s-8.16,2.09-11,16"/><path class="cls-1" d="M149.36,25.69V28.4a11.18,11.18,0,0,0,5.93.72,15.89,15.89,0,0,1,13.78-13.83"/><path class="cls-1" d="M125.59,143.1s8.14-4.65,21.2-24.38c9.68-14.63,26.1-38.37,26.1-38.37"/><path class="cls-3" d="M170.55,161.76c-1,5.13-1.35,27.47-1.35,27.47-15.2,10.83-38.87,14.05-38.87,14.05,3.93-43.1-8.08-47.66-8.08-47.66l32.21,15.22,8.66-9a37.39,37.39,0,0,0,7.43-.13"/><path class="cls-1" d="M131.78,160.12s5.7-7.62,19.19-29.75c14.81-24.31,35.56-54.31,36.39-82s-13.23-30-13.23-30"/><path class="cls-1" d="M249.52,203.84a94.06,94.06,0,0,1-9.68-4.73v8.73C208.69,202.9,203,194.93,203,194.93V162.08c-8.74-1.33-18.61-6.46-18.61-6.46-9.5,8.16-21.27,6.27-21.27,6.27s.31-23.46,12.15-52.41c17.6-43,21.14-52.55,19.62-68-1.67-17-7.84-23.17-15.29-26.21"/><path class="cls-1" d="M184.39,155.62s-5.17-26,6.83-54.88c8.48-20.39,12.06-36.84,10.16-59.24"/><path class="cls-1" d="M203,162.08a149.63,149.63,0,0,1,3.32-60.2c5.45-20.12,4.84-55.29,0-70.56"/><path class="cls-1" d="M220.09,38.46s10.63,55.07-1.9,109a173.33,173.33,0,0,0,34.18-10.26s-12.16-22-11.78-45.54-.42-53.46-18.65-68.27a21.07,21.07,0,0,0,9.8,2.3"/><path class="cls-1" d="M239.84,199.11s-10.09-30.83-6.46-54.12c5.15,4.31,12.23,5.83,12.23,5.83"/><path class="cls-3" d="M133.88,203.28s7.53,20.51,3.36,44.06"/><path class="cls-3" d="M141.53,201s6.57,21.94,3,40.43"/><path class="cls-3" d="M151.29,198.07s6.13,27.86,1.12,39"/><path class="cls-1" d="M152.83,268c7.63-4.35,30.9-4.27,20.54,25.84,12.16-12.72,8.17-32.28-6.34-33.61-9.2-.84-18.09,3.8-18.09,3.8"/><path class="cls-1" d="M148,258.35c6.93-6.33,33.14-14.18,38.14,12.73"/><path class="cls-1" d="M185.53,250.27s-15.76-14.32-46.34,4.66"/><path class="cls-3" d="M168.82,231.58s-23.74,4.41-34.94,19.68"/><path class="cls-3" d="M131.12,194.93c-1.49-9.49-7.52-22.63-14.21-29.12-4.29-4.16-6-6.77-5.32-9.37,1.47-5.58,7-2.92,7-2.92S133.88,156.38,131.12,194.93Z"/><path class="cls-4" d="M339.71,363.76c-11.86-12.55-30.86-28.27-72-28.52S219.09,357.4,178,357.15s-41-18.25-82.18-18.5-71.29,16.52-82.4,24.51"/><path class="cls-4" d="M333.05,368.12c-24.81-13.95-43-18.62-72.71-18.72-41.14-.13-41.25,17.75-82.39,17.5s-41-18.25-82.18-18.5-59.19,10.36-65.88,20"/><path class="cls-4" d="M318.49,374.23c-14.85-10-30.44-15.1-58.15-15.07-41.14,0-41.25,17.75-82.39,17.5s-41-18.25-82.18-18.5S46.85,368,37.51,374.23"/><path class="cls-4" d="M304.62,379.9c-12-5.13-20.65-10.85-44.28-11-41.14-.25-41.25,12.75-82.39,12.5S136.82,365,95.77,367.91c-12.84.89-27.18,5.59-35.65,12.87"/><path class="cls-4" d="M354.9,371.44a12,12,0,0,0-15.19-7.68,15.59,15.59,0,0,0-6.21,4.49,9.11,9.11,0,0,1,6.12,5.75c1.65,5-1.72,10.65-7.52,12.56l-.57.17c4.21,2.15,11.09,1.41,15.69-.1A12,12,0,0,0,354.9,371.44Z"/><path class="cls-4" d="M339.62,374a9.11,9.11,0,0,0-6.12-5.75,12.06,12.06,0,0,0-7.39.11c-2.6.85-5.43,3.15-7.62,5.87a6,6,0,0,1,3.36,3.56c1.1,3.34-1.21,7.14-5.2,8.78,3.31,2.34,10.16,1.6,14.88.16l.57-.17C337.9,384.65,341.27,379,339.62,374Z"/><path class="cls-4" d="M321.85,377.79a6,6,0,0,0-3.36-3.56,9.43,9.43,0,0,0-6.77-.21c-4.43,1.45-9.87,8-8.71,11.55s8.5,2.72,12.93,1.27c.24-.08.48-.18.71-.27C320.64,384.93,323,381.13,321.85,377.79Z"/><path class="cls-4" d="M16.38,374a9.11,9.11,0,0,1,6.12-5.75,15.59,15.59,0,0,0-6.21-4.49,12,12,0,1,0-7.51,22.87c4.6,1.51,11.48,2.25,15.69.1l-.57-.17C18.1,384.65,14.73,379,16.38,374Z"/><path class="cls-4" d="M34.15,377.79a6,6,0,0,1,3.36-3.56c-2.19-2.72-5-5-7.62-5.87a12.06,12.06,0,0,0-7.39-.11A9.11,9.11,0,0,0,16.38,374c-1.65,5,1.72,10.65,7.52,12.56l.57.17c4.72,1.44,11.57,2.18,14.88-.16C35.36,384.93,33.05,381.13,34.15,377.79Z"/><path class="cls-4" d="M47.07,380.23a4.78,4.78,0,0,1,2.36-2.7A13.77,13.77,0,0,0,44.28,374a9.43,9.43,0,0,0-6.77.21,6,6,0,0,0-3.36,3.56c-1.1,3.34,1.21,7.14,5.2,8.78.23.09.47.19.71.27,3.42,1.12,8.55,1.85,11.26.51C48.06,386,46.17,382.94,47.07,380.23Z"/><path class="cls-4" d="M55.26,377.17a7.48,7.48,0,0,0-5.83.36,4.78,4.78,0,0,0-2.36,2.7c-.9,2.71,1,5.8,4.25,7.12l.53.19c3.58,1.18,9.51,1.84,10.46-1S58.84,378.35,55.26,377.17Z"/><path class="cls-4" d="M60.73,388.07s23.47-2.15,43.24-1.86c18.91.28,27.52-3,41.31-1.25,31.78,4.14,38.7.19,54.6-.41s44.84-1.9,79.93,2.86c10.84,1.47,26.46,1.2,29.91.63"/><path class="cls-1" d="M40.75,196.54v27.78a2.21,2.21,0,0,1-2.22,2.22h0a2.22,2.22,0,0,1-2.22-2.22V197.76a1.21,1.21,0,0,0-1.22-1.22h0a1.21,1.21,0,0,0-1.21,1.22v3.86a2.5,2.5,0,0,1-2.5,2.5h0a2.49,2.49,0,0,1-2.49-2.5V190.76a2.5,2.5,0,0,0-2.64-2.5h-.08a2.49,2.49,0,0,0-2.35,2.49v16.8a2.5,2.5,0,0,1-2.5,2.5h-.93a2.5,2.5,0,0,1-2.5-2.5V194.68a1.78,1.78,0,0,0-1.78-1.78h0a1.79,1.79,0,0,0-1.79,1.78v26a3.83,3.83,0,0,1-3.83,3.83h0a3.84,3.84,0,0,1-3.83-3.83V192.9c0-57.18,43-103.54,105.82-103.54l29.07-1.61a1.84,1.84,0,0,1,1.93,1.83h0a1.83,1.83,0,0,1-1.71,1.82L118.34,93c-47.27,0-77.59,46.36-77.59,103.54"/><path class="cls-1" d="M52.73,150.12q-1.78,4.24-3.24,8.71"/><path class="cls-1" d="M118.57,95.35c-29.7,0-47.74,18.91-62.36,47.32"/><path class="cls-1" d="M33.48,130.62c20.25-24,44.14-39.53,80-39.53"/><path class="cls-1" d="M20.59,150.13a98.79,98.79,0,0,1,8.34-13.7"/><rect class="cls-1" x="6.83" y="228.1" width="6.55" height="11.68" rx="3.27" ry="3.27"/><rect class="cls-1" x="28.94" y="208.08" width="4.55" height="18.46" rx="2.27" ry="2.27"/><rect class="cls-1" x="35.88" y="230.2" width="4.55" height="11.46" rx="2.27" ry="2.27"/><rect class="cls-1" x="18.27" y="213.7" width="6.55" height="6.55" rx="3.27" ry="3.27"/></svg>