<svg id="Layer_1" data-name="Layer 1" xmlns="http://www.w3.org/2000/svg" xmlns:xlink="http://www.w3.org/1999/xlink" viewBox="0 0 356 388.55"><defs><style>.cls-1,.cls-3,.cls-4{fill:none;}.cls-2{clip-path:url(#clip-path);}.cls-3{stroke:#495865;}.cls-3,.cls-4{stroke-miterlimit:10;stroke-width:2px;}.cls-4{stroke:#e0242b;}</style><clipPath id="clip-path"><path class="cls-1" d="M200.22,123l-6.89-11.42L104.59,110V381.1c10.74,10.76,119.23,9.07,128.28,0C242.51,333.44,255.06,225,200.22,123Zm-37.48,6.38h17.84l-28.24,51H134.5Zm26.2,65.87h17.83L157.4,276.6H139.56Zm-25.5,177.7H144.59l.44,8.19H114.48V123.58l16.7-.12,13.41,249.45h1l56.2-81.39h17.84Zm59.37,8.19H211.25a425.46,425.46,0,0,0,8.4-108.4c-2.25-42.26-11.07-82-26.24-118A311.75,311.75,0,0,0,178,123.12l12.19-.08C245,225,232.45,333.45,222.81,381.1Z"/></clipPath></defs><title>UAE</title><g class="cls-2"><line class="cls-3" x1="99.77" y1="372.91" x2="244.08" y2="372.91"/><line class="cls-3" x1="99.77" y1="365.51" x2="244.08" y2="365.51"/><line class="cls-3" x1="99.77" y1="358.1" x2="244.08" y2="358.1"/><line class="cls-3" x1="99.77" y1="350.69" x2="244.08" y2="350.69"/><line class="cls-3" x1="99.77" y1="343.29" x2="244.08" y2="343.29"/><line class="cls-3" x1="99.77" y1="335.88" x2="244.08" y2="335.88"/><line class="cls-3" x1="99.77" y1="328.47" x2="244.08" y2="328.47"/><line class="cls-3" x1="99.77" y1="321.06" x2="244.08" y2="321.06"/><line class="cls-3" x1="99.77" y1="313.66" x2="244.08" y2="313.66"/><line class="cls-3" x1="99.77" y1="306.25" x2="244.08" y2="306.25"/><line class="cls-3" x1="99.77" y1="298.84" x2="244.08" y2="298.84"/><line class="cls-3" x1="99.77" y1="291.44" x2="244.08" y2="291.44"/><line class="cls-3" x1="99.77" y1="284.03" x2="139.56" y2="284.03"/><line class="cls-3" x1="99.77" y1="276.62" x2="244.08" y2="276.62"/><line class="cls-3" x1="99.77" y1="269.21" x2="244.08" y2="269.21"/><line class="cls-3" x1="99.77" y1="261.81" x2="244.08" y2="261.81"/><line class="cls-3" x1="99.77" y1="254.4" x2="244.08" y2="254.4"/><line class="cls-3" x1="99.77" y1="246.99" x2="244.08" y2="246.99"/><line class="cls-3" x1="99.77" y1="239.59" x2="244.08" y2="239.59"/><line class="cls-3" x1="99.77" y1="232.18" x2="244.08" y2="232.18"/><line class="cls-3" x1="99.77" y1="224.77" x2="244.08" y2="224.77"/><line class="cls-3" x1="99.77" y1="217.36" x2="244.08" y2="217.36"/><line class="cls-3" x1="99.77" y1="209.96" x2="244.08" y2="209.96"/><line class="cls-3" x1="99.77" y1="202.55" x2="244.08" y2="202.55"/><line class="cls-3" x1="99.77" y1="195.14" x2="244.08" y2="195.14"/><line class="cls-3" x1="99.77" y1="187.73" x2="134.77" y2="187.73"/><line class="cls-3" x1="226.58" y1="187.73" x2="205.76" y2="187.73"/><line class="cls-3" x1="99.77" y1="180.33" x2="244.08" y2="180.33"/><line class="cls-3" x1="99.77" y1="172.92" x2="244.08" y2="172.92"/><line class="cls-3" x1="99.77" y1="165.51" x2="244.08" y2="165.51"/><line class="cls-3" x1="99.77" y1="158.11" x2="244.08" y2="158.11"/><line class="cls-3" x1="99.77" y1="150.7" x2="244.08" y2="150.7"/><line class="cls-3" x1="99.77" y1="143.29" x2="244.08" y2="143.29"/><line class="cls-3" x1="131.84" y1="134.85" x2="244.08" y2="134.85"/><line class="cls-3" x1="131.5" y1="129.43" x2="244.08" y2="129.43"/><line class="cls-3" x1="220.13" y1="284.03" x2="244.08" y2="284.03"/></g><line class="cls-3" x1="104.59" y1="138.24" x2="104.59" y2="381.1"/><path class="cls-3" d="M232.87,381.1C242.51,333.44,255.06,225,200.22,123"/><path class="cls-3" d="M222.81,381.1C232.45,333.45,245,225,190.19,123c-17.55-32.67-42-64.67-75.71-93.8v94.34"/><line class="cls-3" x1="211.72" y1="122.96" x2="190.19" y2="123.04"/><line class="cls-3" x1="131.18" y1="122.96" x2="178" y2="123.04"/><polyline class="cls-3" points="238.8 381.1 251.87 365.44 244.36 346.47 256.1 329.78 247.08 311.47 257.44 293.88 246.95 276.38 255.79 257.98 243.82 241.46 250.96 222.33 237.5 207.01 242.75 187.28 227.82 173.38 231.02 153.21 220.22 144.49 211.72 144.82 220.22 133.04"/><polygon class="cls-3" points="229.55 116.41 205.43 116.41 200.41 108.19 234.58 108.19 229.55 116.41"/><rect class="cls-3" x="211.72" y="116.41" width="12.57" height="16.63"/><line class="cls-3" x1="114.48" y1="138.3" x2="114.48" y2="381.1"/><line class="cls-3" x1="114.48" y1="6.55" x2="114.48" y2="31.64"/><path class="cls-3" d="M145,381.1,131.18,123.46l-3.62-67.37a315.62,315.62,0,0,1,50.44,67,311.75,311.75,0,0,1,15.41,31.54c15.17,36.06,24,75.78,26.24,118a425.46,425.46,0,0,1-8.4,108.4"/><polygon class="cls-3" points="219.63 291.51 201.8 291.51 145.18 372.91 163.44 372.91 219.63 291.51"/><polygon class="cls-3" points="180.58 129.34 162.74 129.34 134.5 180.35 152.34 180.35 180.58 129.34"/><polygon class="cls-3" points="206.78 195.21 188.94 195.21 139.56 276.6 157.4 276.6 206.78 195.21"/><path class="cls-3" d="M94.59,126.72c3.12-2.25,8.76-3.76,15.2-3.76,9.81,0,17.77,3.5,17.77,7.81s-8,7.81-17.77,7.81c-5.78,0-10.91-1.21-14.16-3.09"/><line class="cls-3" x1="102.51" y1="123.65" x2="102.51" y2="137.89"/><path class="cls-4" d="M261.47,346.66c5.87,0,5.87,8.06,11.75,8.06s5.88-8.06,11.75-8.06,5.88,8.06,11.75,8.06,5.88-8.06,11.75-8.06,5.88,8.06,11.76,8.06,5.87-8.06,11.75-8.06,5.88,8.06,11.76,8.06,5.88-8.06,11.76-8.06"/><path class="cls-4" d="M261.47,354.07c5.87,0,5.87,8.06,11.75,8.06s5.88-8.06,11.75-8.06,5.88,8.06,11.75,8.06,5.88-8.06,11.75-8.06,5.88,8.06,11.76,8.06,5.87-8.06,11.75-8.06,5.88,8.06,11.76,8.06,5.88-8.06,11.76-8.06"/><path class="cls-4" d="M261.47,361.48c5.87,0,5.87,8.06,11.75,8.06s5.88-8.06,11.75-8.06,5.88,8.06,11.75,8.06,5.88-8.06,11.75-8.06,5.88,8.06,11.76,8.06,5.87-8.06,11.75-8.06,5.88,8.06,11.76,8.06,5.88-8.06,11.76-8.06"/><path class="cls-4" d="M261.47,368.88c5.87,0,5.87,8.07,11.75,8.07s5.88-8.07,11.75-8.07,5.88,8.07,11.75,8.07,5.88-8.07,11.75-8.07,5.88,8.07,11.76,8.07,5.87-8.07,11.75-8.07,5.88,8.07,11.76,8.07,5.88-8.07,11.76-8.07"/><line class="cls-4" x1="284.59" y1="346.25" x2="284.59" y2="317.03"/><line class="cls-4" x1="308.48" y1="346.25" x2="308.48" y2="317.03"/><line class="cls-4" x1="332.38" y1="346.25" x2="332.38" y2="317.03"/><path class="cls-4" d="M.5,346.66c5.88,0,5.88,8.06,11.75,8.06s5.88-8.06,11.75-8.06,5.88,8.06,11.75,8.06,5.88-8.06,11.75-8.06,5.88,8.06,11.76,8.06,5.88-8.06,11.75-8.06,5.88,8.06,11.76,8.06,5.88-8.06,11.76-8.06"/><path class="cls-4" d="M.5,354.07c5.88,0,5.88,8.06,11.75,8.06s5.88-8.06,11.75-8.06,5.88,8.06,11.75,8.06,5.88-8.06,11.75-8.06,5.88,8.06,11.76,8.06,5.88-8.06,11.75-8.06,5.88,8.06,11.76,8.06,5.88-8.06,11.76-8.06"/><path class="cls-4" d="M.5,361.48c5.88,0,5.88,8.06,11.75,8.06s5.88-8.06,11.75-8.06,5.88,8.06,11.75,8.06,5.88-8.06,11.75-8.06,5.88,8.06,11.76,8.06,5.88-8.06,11.75-8.06,5.88,8.06,11.76,8.06,5.88-8.06,11.76-8.06"/><path class="cls-4" d="M.5,368.88c5.88,0,5.88,8.07,11.75,8.07s5.88-8.07,11.75-8.07S29.88,377,35.75,377s5.88-8.07,11.75-8.07S53.38,377,59.26,377s5.88-8.07,11.75-8.07S76.89,377,82.77,377s5.88-8.07,11.76-8.07"/><line class="cls-4" x1="23.62" y1="346.25" x2="23.62" y2="317.03"/><line class="cls-4" x1="47.52" y1="346.25" x2="47.52" y2="317.03"/><line class="cls-4" x1="71.41" y1="346.25" x2="71.41" y2="317.03"/></svg>