<svg id="Layer_1" data-name="Layer 1" xmlns="http://www.w3.org/2000/svg" xmlns:xlink="http://www.w3.org/1999/xlink" viewBox="0 0 356 388.55"><defs><style>.cls-1,.cls-2,.cls-3{fill:none;}.cls-2,.cls-5{stroke:#495865;}.cls-2,.cls-3,.cls-5{stroke-miterlimit:10;stroke-width:2px;}.cls-3{stroke:#e0242b;}.cls-4{clip-path:url(#clip-path);}.cls-5{fill:#fff;}</style><clipPath id="clip-path"><path class="cls-1" d="M226,157.63c-1.15,0-11.53-.42-11.53-.42V277.57l2.33,2.72h8.78v26h-2.22v15.55H240.3V350H115.7V321.85h16.93V306.3h-4v-26h9.67l1.89-2.2V184.61a17.74,17.74,0,0,1,3-10v-21A143.81,143.81,0,0,0,43.94,344.91c20.79,53.75,70.1,42.58,131.19,42.58,60.77,0,115.6,11.56,136.61-41.75A143.84,143.84,0,0,0,226,157.63Z"/></clipPath></defs><title>USA</title><line class="cls-2" x1="95.32" y1="340.04" x2="260.68" y2="340.04"/><rect class="cls-2" x="123.7" y="327.85" width="108.6" height="12.19"/><rect class="cls-2" x="140.63" y="296.3" width="74.73" height="31.54"/><line class="cls-2" x1="157.88" y1="304.37" x2="157.88" y2="321.22"/><line class="cls-2" x1="163.61" y1="304.37" x2="163.61" y2="321.22"/><line class="cls-2" x1="175.13" y1="304.37" x2="175.13" y2="321.22"/><line class="cls-2" x1="180.87" y1="304.37" x2="180.87" y2="321.22"/><line class="cls-2" x1="192.39" y1="304.37" x2="192.39" y2="321.22"/><line class="cls-2" x1="198.12" y1="304.37" x2="198.12" y2="321.22"/><rect class="cls-2" x="136.58" y="286.29" width="81.01" height="10.02"/><polygon class="cls-2" points="206.92 279.06 148.14 279.06 141.92 286.29 213.15 286.29 206.92 279.06"/><rect class="cls-2" x="148.14" y="271.21" width="58.34" height="7.84"/><line class="cls-2" x1="148.14" y1="259.39" x2="193.93" y2="213.87"/><line class="cls-2" x1="191.77" y1="271.21" x2="191.77" y2="215.96"/><line class="cls-2" x1="186" y1="271.21" x2="186" y2="221.75"/><line class="cls-2" x1="180.24" y1="271.21" x2="180.24" y2="227.48"/><line class="cls-2" x1="174.47" y1="271.21" x2="174.47" y2="233.21"/><line class="cls-2" x1="168.7" y1="271.21" x2="168.7" y2="238.95"/><line class="cls-2" x1="162.93" y1="271.21" x2="162.93" y2="244.68"/><polyline class="cls-2" points="206.48 213.87 186 213.87 186 109.03"/><line class="cls-2" x1="164.02" y1="196.35" x2="186" y2="174.35"/><line class="cls-2" x1="157.6" y1="212.29" x2="179.58" y2="190.29"/><path class="cls-2" d="M206.48,154.35V271.21H148.14v-88.6a9.83,9.83,0,0,1,2.85-6.93l35-35.39"/><path class="cls-2" d="M151.17,175.49V147.37a9.85,9.85,0,0,1,2.94-7L191,104a4.32,4.32,0,0,1,6.73.87l8.18,13.78"/><line class="cls-2" x1="151.17" y1="151.27" x2="186" y2="116.6"/><line class="cls-2" x1="151.17" y1="159.77" x2="186" y2="125.1"/><line class="cls-2" x1="151.17" y1="168.27" x2="186" y2="133.6"/><path class="cls-2" d="M197.13,127.47l21.11-21.11,14.66,22.22-26.42,25.77S202.46,134.8,197.13,127.47Z"/><line class="cls-2" x1="229.64" y1="123.64" x2="205.02" y2="148.16"/><line class="cls-2" x1="215.02" y1="117.47" x2="219.79" y2="124.58"/><line class="cls-2" x1="208.02" y1="122.36" x2="215.02" y2="132.36"/><line class="cls-2" x1="213.35" y1="122.36" x2="215.69" y2="125.69"/><path class="cls-2" d="M226.27,135.05l1.67,2.75a6.82,6.82,0,0,1-5.83,10.36h-9.28"/><polyline class="cls-2" points="155.34 139.14 144.19 121.03 144.19 22.66"/><path class="cls-2" d="M137,22.66V37l-8,39.4a16,16,0,0,0,1.9,11.44l13.28,22.39"/><path class="cls-2" d="M144.19,37s-3.69,3.33-7.21,0"/><line class="cls-2" x1="136.98" y1="33.57" x2="144.19" y2="33.57"/><line class="cls-2" x1="132.08" y1="22.66" x2="149.19" y2="22.66"/><line class="cls-2" x1="132.08" y1="17.58" x2="149.19" y2="17.58"/><rect class="cls-2" x="136.98" y="10.46" width="7.21" height="7.12"/><path class="cls-2" d="M137,10.46s-.83-5.92,3.61-6,5.64-.74,6.1-2.87S150.3,2,152.05,0c0,0-1.2,11.1-6,11.1h-1.55"/><path class="cls-2" d="M144.19,10.46s3.57-1.77,3.79-4.29S152.05,0,152.05,0"/><polyline class="cls-2" points="144.19 84.96 162.34 103.1 144.19 121.03"/><line class="cls-2" x1="192.7" y1="102.99" x2="162.34" y2="102.99"/><path class="cls-2" d="M165.41,70.36h25.19a0,0,0,0,1,0,0v13.4A12.59,12.59,0,0,1,178,96.35h0a12.59,12.59,0,0,1-12.59-12.59V70.36a0,0,0,0,1,0,0Z"/><line class="cls-2" x1="175.14" y1="89.03" x2="180.86" y2="89.03"/><path class="cls-2" d="M190.59,83.76v7.49a7.56,7.56,0,0,0,2.5,5.1c1.1,1,.61,6.54.61,6.54"/><path class="cls-2" d="M165.41,83.76v7.49a7.56,7.56,0,0,1-2.5,5.1c-1.1,1-.61,6.54-.61,6.54"/><line class="cls-2" x1="170.8" y1="94.3" x2="170.8" y2="102.99"/><line class="cls-2" x1="185.2" y1="94.3" x2="185.2" y2="102.99"/><path class="cls-2" d="M178,70.36s4.28,9,12.59,6.56"/><path class="cls-2" d="M178,70.36s-4.28,9-12.59,6.56"/><line class="cls-2" x1="181.58" y1="80.9" x2="184.75" y2="80.9"/><line class="cls-2" x1="171.25" y1="80.9" x2="174.42" y2="80.9"/><path class="cls-2" d="M165.81,70.36s-4.42-1.2-2.79-3.28c3.92-5,27.19-4.9,30,0,1.33,2.28-2.68,3.28-2.68,3.28"/><polyline class="cls-2" points="193.1 68.77 201.09 67.4 193.09 67.08"/><polyline class="cls-2" points="189.14 64.69 196.13 59.74 191.4 65.61"/><polyline class="cls-2" points="182.14 63.39 187.06 55.78 184.61 63.75"/><polyline class="cls-2" points="162.9 68.77 154.91 67.4 162.91 67.08"/><polyline class="cls-2" points="166.86 64.69 159.87 59.74 164.6 65.61"/><polyline class="cls-2" points="173.86 63.39 168.94 55.78 171.39 63.75"/><polyline class="cls-2" points="176.65 63.4 178.02 51.63 179.09 63.4"/><line class="cls-2" x1="191.57" y1="150.93" x2="191.57" y2="213.87"/><path class="cls-3" d="M.5,347.49c4.8,0,4.8,6,9.59,6s4.8-6,9.59-6,4.8,6,9.6,6,4.79-6,9.59-6,4.8,6,9.59,6,4.8-6,9.6-6,4.79,6,9.59,6,4.8-6,9.59-6,4.8,6,9.6,6,4.79-6,9.59-6,4.8,6,9.59,6,4.8-6,9.6-6,4.79,6,9.59,6,4.8-6,9.6-6,4.79,6,9.59,6,4.79-6,9.59-6,4.79,6,9.59,6,4.8-6,9.59-6,4.8,6,9.59,6,4.8-6,9.6-6,4.79,6,9.59,6,4.8-6,9.59-6,4.8,6,9.6,6,4.79-6,9.59-6,4.8,6,9.6,6,4.79-6,9.59-6,4.8,6,9.6,6,4.8-6,9.6-6,4.79,6,9.59,6,4.8-6,9.6-6,4.8,6,9.59,6,4.8-6,9.6-6,4.8,6,9.59,6,4.8-6,9.6-6,4.8,6,9.6,6,4.8-6,9.61-6,4.8,6,9.6,6"/><path class="cls-3" d="M.5,355.49c4.8,0,4.8,6,9.59,6s4.8-6,9.59-6,4.8,6,9.6,6,4.79-6,9.59-6,4.8,6,9.59,6,4.8-6,9.6-6,4.79,6,9.59,6,4.8-6,9.59-6,4.8,6,9.6,6,4.79-6,9.59-6,4.8,6,9.59,6,4.8-6,9.6-6,4.79,6,9.59,6,4.8-6,9.6-6,4.79,6,9.59,6,4.79-6,9.59-6,4.79,6,9.59,6,4.8-6,9.59-6,4.8,6,9.59,6,4.8-6,9.6-6,4.79,6,9.59,6,4.8-6,9.59-6,4.8,6,9.6,6,4.79-6,9.59-6,4.8,6,9.6,6,4.79-6,9.59-6,4.8,6,9.6,6,4.8-6,9.6-6,4.79,6,9.59,6,4.8-6,9.6-6,4.8,6,9.59,6,4.8-6,9.6-6,4.8,6,9.59,6,4.8-6,9.6-6,4.8,6,9.6,6,4.8-6,9.61-6,4.8,6,9.6,6"/><path class="cls-3" d="M.5,363.49c4.8,0,4.8,6,9.59,6s4.8-6,9.59-6,4.8,6,9.6,6,4.79-6,9.59-6,4.8,6,9.59,6,4.8-6,9.6-6,4.79,6,9.59,6,4.8-6,9.59-6,4.8,6,9.6,6,4.79-6,9.59-6,4.8,6,9.59,6,4.8-6,9.6-6,4.79,6,9.59,6,4.8-6,9.6-6,4.79,6,9.59,6,4.79-6,9.59-6,4.79,6,9.59,6,4.8-6,9.59-6,4.8,6,9.59,6,4.8-6,9.6-6,4.79,6,9.59,6,4.8-6,9.59-6,4.8,6,9.6,6,4.79-6,9.59-6,4.8,6,9.6,6,4.79-6,9.59-6,4.8,6,9.6,6,4.8-6,9.6-6,4.79,6,9.59,6,4.8-6,9.6-6,4.8,6,9.59,6,4.8-6,9.6-6,4.8,6,9.59,6,4.8-6,9.6-6,4.8,6,9.6,6,4.8-6,9.61-6,4.8,6,9.6,6"/><path class="cls-3" d="M.5,371.49c4.8,0,4.8,6,9.59,6s4.8-6,9.59-6,4.8,6,9.6,6,4.79-6,9.59-6,4.8,6,9.59,6,4.8-6,9.6-6,4.79,6,9.59,6,4.8-6,9.59-6,4.8,6,9.6,6,4.79-6,9.59-6,4.8,6,9.59,6,4.8-6,9.6-6,4.79,6,9.59,6,4.8-6,9.6-6,4.79,6,9.59,6,4.79-6,9.59-6,4.79,6,9.59,6,4.8-6,9.59-6,4.8,6,9.59,6,4.8-6,9.6-6,4.79,6,9.59,6,4.8-6,9.59-6,4.8,6,9.6,6,4.79-6,9.59-6,4.8,6,9.6,6,4.79-6,9.59-6,4.8,6,9.6,6,4.8-6,9.6-6,4.79,6,9.59,6,4.8-6,9.6-6,4.8,6,9.59,6,4.8-6,9.6-6,4.8,6,9.59,6,4.8-6,9.6-6,4.8,6,9.6,6,4.8-6,9.61-6,4.8,6,9.6,6"/><path class="cls-3" d="M.5,379.49c4.8,0,4.8,6,9.59,6s4.8-6,9.59-6,4.8,6,9.6,6,4.79-6,9.59-6,4.8,6,9.59,6,4.8-6,9.6-6,4.79,6,9.59,6,4.8-6,9.59-6,4.8,6,9.6,6,4.79-6,9.59-6,4.8,6,9.59,6,4.8-6,9.6-6,4.79,6,9.59,6,4.8-6,9.6-6,4.79,6,9.59,6,4.79-6,9.59-6,4.79,6,9.59,6,4.8-6,9.59-6,4.8,6,9.59,6,4.8-6,9.6-6,4.79,6,9.59,6,4.8-6,9.59-6,4.8,6,9.6,6,4.79-6,9.59-6,4.8,6,9.6,6,4.79-6,9.59-6,4.8,6,9.6,6,4.8-6,9.6-6,4.79,6,9.59,6,4.8-6,9.6-6,4.8,6,9.59,6,4.8-6,9.6-6,4.8,6,9.59,6,4.8-6,9.6-6,4.8,6,9.6,6,4.8-6,9.61-6,4.8,6,9.6,6"/><g class="cls-4"><line class="cls-5" x1="12" y1="68.03" x2="344" y2="68.03"/><line class="cls-5" x1="12" y1="76.32" x2="344" y2="76.32"/><line class="cls-5" x1="12" y1="84.62" x2="344" y2="84.62"/><line class="cls-5" x1="12" y1="92.91" x2="344" y2="92.91"/><line class="cls-5" x1="12" y1="101.21" x2="344" y2="101.21"/><line class="cls-5" x1="12" y1="109.5" x2="344" y2="109.5"/><line class="cls-5" x1="12" y1="117.8" x2="344" y2="117.8"/><line class="cls-5" x1="12" y1="126.1" x2="344" y2="126.1"/><line class="cls-5" x1="12" y1="134.39" x2="344" y2="134.39"/><line class="cls-5" x1="12" y1="142.69" x2="344" y2="142.69"/><line class="cls-5" x1="12" y1="150.98" x2="344" y2="150.98"/><line class="cls-5" x1="12" y1="159.28" x2="344" y2="159.28"/><line class="cls-5" x1="12" y1="167.57" x2="344" y2="167.57"/><line class="cls-5" x1="12" y1="175.87" x2="344" y2="175.87"/><line class="cls-5" x1="12" y1="184.16" x2="344" y2="184.16"/><line class="cls-5" x1="12" y1="192.46" x2="344" y2="192.46"/><line class="cls-5" x1="12" y1="200.75" x2="344" y2="200.75"/><line class="cls-5" x1="12" y1="209.05" x2="344" y2="209.05"/><line class="cls-5" x1="12" y1="217.34" x2="344" y2="217.34"/><line class="cls-5" x1="12" y1="225.64" x2="344" y2="225.64"/><line class="cls-5" x1="12" y1="233.94" x2="344" y2="233.94"/><line class="cls-5" x1="12" y1="242.23" x2="344" y2="242.23"/><line class="cls-5" x1="12" y1="250.53" x2="344" y2="250.53"/><line class="cls-5" x1="12" y1="258.82" x2="344" y2="258.82"/><line class="cls-5" x1="12" y1="267.12" x2="344" y2="267.12"/><line class="cls-5" x1="12" y1="275.41" x2="344" y2="275.41"/><line class="cls-5" x1="12" y1="283.71" x2="344" y2="283.71"/><line class="cls-5" x1="12" y1="292" x2="344" y2="292"/><line class="cls-5" x1="12" y1="300.3" x2="344" y2="300.3"/><line class="cls-5" x1="12" y1="308.59" x2="344" y2="308.59"/><line class="cls-5" x1="12" y1="316.89" x2="344" y2="316.89"/><line class="cls-5" x1="12" y1="325.18" x2="344" y2="325.18"/><line class="cls-5" x1="12" y1="333.48" x2="344" y2="333.48"/></g></svg>