<svg id="Layer_1" data-name="Layer 1" xmlns="http://www.w3.org/2000/svg" viewBox="0 0 96 96"><defs><style>.cls-1{fill:#e1252b;}.cls-2{fill:#394b59;}</style></defs><title>4PLBrokers&amp;amp;Aggregators</title><path class="cls-1" d="M61.11,24.11H34.89A1.89,1.89,0,0,0,33,26h0V46.22a1.89,1.89,0,0,0,1.89,1.89H61.11A1.89,1.89,0,0,0,63,46.22V26h0A1.89,1.89,0,0,0,61.11,24.11Zm-2.11,4v3H55v-3ZM45,33.22V28.11h5v7.38l-1.65-.9a1.75,1.75,0,0,0-1.7,0l-1.65.9Zm-8-5.11h4v3H37Zm0,16v-9h4v3.31A1.89,1.89,0,0,0,41.93,40a2,2,0,0,0,1.89.05l3.68-1.9,3.68,1.9a1.89,1.89,0,0,0,.89.22,2,2,0,0,0,1-.27A1.89,1.89,0,0,0,54,38.42V35.11h5v9Z"/><path class="cls-2" d="M75.61,41.37c1.54-1.57,3.28-3.34,3.28-5.76s-1.74-4.19-3.28-5.76a9,9,0,0,1-2-2.55,9.24,9.24,0,0,1,.13-3.42c.3-2.13.65-4.55-.72-6.43s-3.8-2.31-5.93-2.68a8.83,8.83,0,0,1-3.25-.92A9.07,9.07,0,0,1,62,11.08C61,9.15,59.81,7,57.55,6.22s-4.35.37-6.27,1.31A9.22,9.22,0,0,1,48,8.72a9.22,9.22,0,0,1-3.28-1.19c-1.92-1-4.09-2-6.27-1.31S35.05,9.15,34,11.08a9.07,9.07,0,0,1-1.85,2.77,8.83,8.83,0,0,1-3.25.92c-2.13.37-4.55.78-5.93,2.68s-1,4.3-.72,6.43a9.24,9.24,0,0,1,.13,3.42,9,9,0,0,1-2,2.55c-1.54,1.57-3.28,3.35-3.28,5.76s1.74,4.19,3.28,5.76a8.93,8.93,0,0,1,2,2.56,9.19,9.19,0,0,1-.13,3.41c-.3,2.14-.65,4.55.72,6.44s3.8,2.31,5.93,2.67a9,9,0,0,1,3.25.92A9.2,9.2,0,0,1,34,60.14c1,1.94,2.15,4.13,4.41,4.86a4.76,4.76,0,0,0,1.48.23,11.38,11.38,0,0,0,4.79-1.53A9,9,0,0,1,48,62.51a9,9,0,0,1,3.28,1.19c1.92.94,4.09,2,6.27,1.3S61,62.08,62,60.14a9.2,9.2,0,0,1,1.85-2.77,9,9,0,0,1,3.25-.92c2.13-.36,4.55-.78,5.93-2.67s1-4.3.72-6.44a9.19,9.19,0,0,1-.13-3.41A8.93,8.93,0,0,1,75.61,41.37Zm-2.7-2.65a11,11,0,0,0-2.93,4,11.34,11.34,0,0,0,0,5.12c.2,1.42.43,3,0,3.67s-2.09.92-3.51,1.17a11.23,11.23,0,0,0-4.84,1.59,11.13,11.13,0,0,0-3,4.08c-.68,1.29-1.44,2.75-2.23,3s-2.15-.48-3.42-1.1a11.51,11.51,0,0,0-5-1.58,11.51,11.51,0,0,0-5,1.58c-1.27.62-2.7,1.33-3.42,1.1s-1.55-1.72-2.23-3a11.13,11.13,0,0,0-3-4.08,11.23,11.23,0,0,0-4.84-1.59c-1.42-.25-3-.52-3.51-1.17s-.23-2.25,0-3.67a11.34,11.34,0,0,0,0-5.12,11,11,0,0,0-2.93-4c-1-1-2.2-2.24-2.2-3.11s1.17-2.06,2.2-3.11a11,11,0,0,0,2.93-4,11.39,11.39,0,0,0,0-5.13c-.2-1.42-.43-3,0-3.66s2.09-.93,3.51-1.17a11.23,11.23,0,0,0,4.84-1.59,11.13,11.13,0,0,0,3-4.08c.68-1.29,1.44-2.76,2.23-3a1.07,1.07,0,0,1,.32-.05A9.19,9.19,0,0,1,43,10.93a11.65,11.65,0,0,0,5,1.58,11.65,11.65,0,0,0,5-1.58c1.27-.63,2.7-1.34,3.42-1.1s1.55,1.72,2.23,3a11,11,0,0,0,3,4.07,11.11,11.11,0,0,0,4.84,1.6c1.42.24,3,.52,3.51,1.17s.23,2.24,0,3.66a11.39,11.39,0,0,0,0,5.13,11,11,0,0,0,2.93,4c1,1,2.2,2.25,2.2,3.11S73.94,37.67,72.91,38.72Z"/><path class="cls-2" d="M90,74.25a1.89,1.89,0,0,0-2.43-1.12l-2.77,1A27.28,27.28,0,0,0,79.31,47a1.89,1.89,0,1,0-2.82,2.52,23.53,23.53,0,0,1,4.54,24A24,24,0,0,0,79.29,70a1.89,1.89,0,0,0-3.09,2.19,56.37,56.37,0,0,1,2.72,6.18,1.89,1.89,0,0,0,1.76,1.21,1.82,1.82,0,0,0,.65-.12l7.57-2.77A1.89,1.89,0,0,0,90,74.25Z"/><path class="cls-2" d="M19.35,69.54a1.9,1.9,0,0,0-2.64.45A24,24,0,0,0,15,73.52a23.53,23.53,0,0,1,4.54-24A1.89,1.89,0,1,0,16.69,47a27.28,27.28,0,0,0-5.52,27.13l-2.77-1a1.89,1.89,0,1,0-1.3,3.55l7.57,2.77a1.82,1.82,0,0,0,.65.12,1.89,1.89,0,0,0,1.76-1.21,56.37,56.37,0,0,1,2.72-6.18A1.9,1.9,0,0,0,19.35,69.54Z"/><path class="cls-2" d="M52.29,81.66,50,83.56v-16a2,2,0,0,0-3-1.76,1.93,1.93,0,0,0-1,1.75V83.93l-2.16-2.16a1.9,1.9,0,0,0-2.68,2.68l5,5a1.88,1.88,0,0,0,2.55.12l6-5a1.89,1.89,0,1,0-2.42-2.91Z"/></svg>