<svg id="Layer_1" data-name="Layer 1" xmlns="http://www.w3.org/2000/svg" viewBox="0 0 96 96"><defs><style>.cls-1{fill:#394b59;}.cls-2{fill:#e1252b;}</style></defs><title>CPGDistribution</title><path class="cls-1" d="M84,30.1V10.41c.17-.24.33-.49.48-.74l.19-.33A2,2,0,0,0,85,8.21v-1l0-.31A6.81,6.81,0,0,0,78.39,1H74.05a6.14,6.14,0,0,0-4.52,2A5.78,5.78,0,0,0,68,7.33V8a3,3,0,0,0,1,2.88V29.6a9.77,9.77,0,0,0-4.72,4.54c-1.31-.06-2.43-.08-3.22-.08-4,0-17.06.4-17.06,5.47A2.42,2.42,0,0,0,44,40l-.9,1.69A1.92,1.92,0,0,0,42,43.44V79.88a4,4,0,0,0,1.08,2.69l1.56,5.67c.55,4.66,12.89,5,16.73,5s16.09-.37,16.73-5l1.14-3.51a2.12,2.12,0,0,0,1.17.35A10.6,10.6,0,0,0,91,74.55V42.74A14.92,14.92,0,0,0,84,30.1ZM73,15h7v6H73Zm-.6-9.39A1.85,1.85,0,0,1,73.78,5h4.88A2.62,2.62,0,0,1,81,7.27v.18a4.63,4.63,0,0,1-.33.51A2.27,2.27,0,0,0,80,9.58V11H73V9.58a2.26,2.26,0,0,0-1-1.89V7.07a1.21,1.21,0,0,0,0-.19A1.71,1.71,0,0,1,72.4,5.61ZM69,38.49c-1.07,0-2.46.18-4.35.37l-.57.06a1.69,1.69,0,0,0-.42-.23,3.05,3.05,0,0,0-1.22-.23c-.15,0-3.43,0-3.78,2.08a34.11,34.11,0,0,1-8.85-1.38A42.51,42.51,0,0,1,61,37.91,50.64,50.64,0,0,1,69,38.49ZM61.62,51c5.7,0,11.65-.88,15.38-2.73V79.37l-.19.6c-1,1.14-6.08,3.28-15.19,3.28-8.77,0-13.77-2-15-3.15l-.25-.92a2,2,0,0,0-.32-.63V48.16C49.71,50.1,55.8,51,61.62,51Zm15.29-7.35C75.89,44.83,70.8,47,61.5,47c-7.39,0-12.11-1.38-14.26-2.53a4,4,0,0,1-.88-.64l.54-1c4,1.88,11.3,2.07,14.1,2.07,3.06,0,11.44-.23,15.13-2.63Zm-4.22-4.28-.1-.11.22.08Zm1.82,48.07c-1,.74-5.58,2-13,2s-12-1.28-13-2l0,0-.56-2A43.17,43.17,0,0,0,61.5,87.31a43,43,0,0,0,13.7-2l-.65,2ZM87,74.53a6.36,6.36,0,0,1-6.13,6.34,3.93,3.93,0,0,0,.13-1V43.24a1.88,1.88,0,0,0-.58-1.35L78.16,38a1.92,1.92,0,0,0-1.44-.94c-1.64-1.38-4.75-2.16-7.9-2.58a9.29,9.29,0,0,1,2.83-1.57,2.14,2.14,0,0,0,1.49-2.37A1.63,1.63,0,0,0,73,30V25h7v4.26a2.08,2.08,0,0,0-.68,1.17,2.13,2.13,0,0,0,1.2,2.38C84.29,34.52,87,37.92,87,42.06Z"/><path class="cls-2" d="M61.52,76.23c-8.91-.09-14-6.23-14.69-10.35-.36-2.28.67-3.55,1.81-4,1.69-.79,3.7-.17,6,.53a19.3,19.3,0,0,0,6.72,1.2h.24a19.39,19.39,0,0,0,6.72-1.2c2.32-.7,4.33-1.32,6-.53,1.14.45,2.17,1.72,1.81,4C75.51,70,70.39,76.14,61.52,76.23Zm-11-10.93A6.73,6.73,0,0,0,52,68.17a11.82,11.82,0,0,0,9.48,4.27A11.79,11.79,0,0,0,71,68.17a6.73,6.73,0,0,0,1.47-2.87,16.74,16.74,0,0,0-3,.74,24.08,24.08,0,0,1-15.9,0A17,17,0,0,0,50.57,65.3ZM73,65.41h0Z"/><path class="cls-1" d="M35.87,27.56a1.86,1.86,0,0,0,.13-.67v-6A1.89,1.89,0,0,0,34.11,19H10.89A1.89,1.89,0,0,0,9,20.89v5.89L3.46,33.15A1.92,1.92,0,0,0,3,34.71a2.58,2.58,0,0,0,0,.4V83.43A1.92,1.92,0,0,0,3.8,85l9.32,6.57A1.88,1.88,0,0,0,15,93a1.88,1.88,0,0,0,.57-.09l24.14-7.55A1.88,1.88,0,0,0,41,83.55V36.88a2.11,2.11,0,0,0,.21-.31,1.9,1.9,0,0,0-.17-2ZM16.5,34.62,14.27,30H32.71l2.85,3.9ZM13,23H32v2H13Zm-2.56,8.13,1.27,2.63-3.08-.55ZM7,38.31l6,1.06V86L7,81.78ZM17,88.22V38.84l20-.75V82Z"/><path class="cls-2" d="M32.65,76.44,24,78.66V52.22a1.91,1.91,0,0,0-1-1.74,2,2,0,0,0-3,1.76v29a2,2,0,0,0,.77,1.58,2,2,0,0,0,1.23.42,2.14,2.14,0,0,0,.5-.06l11.14-2.87a2,2,0,0,0,1.49-1.58A2,2,0,0,0,32.65,76.44Z"/></svg>