<svg id="Layer_1" data-name="Layer 1" xmlns="http://www.w3.org/2000/svg" viewBox="0 0 96 96"><defs><style>.cls-1{fill:#394b59;}.cls-2{fill:#e1252b;}</style></defs><title>Dairy&amp;amp;FreshProduce</title><rect class="cls-1" x="57.5" y="62.95" width="4" height="4"/><path class="cls-2" d="M50,88.32c3.66,0,6.64-2.63,6.64-5.87s-3-5.86-6.64-5.86-6.63,2.63-6.63,5.86S46.38,88.32,50,88.32Zm-2.56-5.87c0-1,1.2-1.8,2.56-1.8s2.57.85,2.57,1.8-1.2,1.8-2.57,1.8S47.47,83.41,47.47,82.45Z"/><path class="cls-1" d="M69.5,8.56c-1,0-25,.07-25,6.63v7.12a2.52,2.52,0,0,0,.25,1.1l1.9,30.16c-2.55.23-4.95.55-7.15,1V31.59a2,2,0,0,0-.18-.84L31.72,15.9a5.11,5.11,0,0,0,.78-2.71V7.05A5.1,5.1,0,0,0,27.4,2H12.23S7.5,2,7.5,6.55v6.14c0,1.26-.09,1.89.43,2.71L1.5,31.09V79.72A11.23,11.23,0,0,0,12.73,91h15.4a11,11,0,0,0,3.49-.57c5.25,2.33,14,3.67,24.18,3.67,12.7,0,28.07-2.3,29.55-8.75a3.94,3.94,0,0,0,.15-1V74h3.91a2,2,0,0,0,2-1.91l2.91-49.85a2.55,2.55,0,0,0,.16-.87V15.19C94.5,8.63,70.52,8.56,69.5,8.56ZM26.67,62.06a4.44,4.44,0,0,0-.17,1.19V84.41a4.16,4.16,0,0,0,.15,1.06,4.36,4.36,0,0,0,.23.66l.05.12a5.16,5.16,0,0,0,.37.7H13.67A7.16,7.16,0,0,1,6.5,79.79V50h5.63a10.82,10.82,0,0,0,17.72,0H35.5v5.92C30.33,57.37,27.36,59.46,26.67,62.06ZM28.5,13a1,1,0,0,1-.5.84.93.93,0,0,1-.51.16h-15a.92.92,0,0,1-.52-.17A1,1,0,0,1,11.5,13V7a1,1,0,0,1,1-1H27.47a1,1,0,0,1,1,1ZM10.86,17.87a4.6,4.6,0,0,0,.89.08h15.5a4.53,4.53,0,0,0,.89-.08L35.5,31.74V37H29.66a11.41,11.41,0,0,0-18.32,0H5.5V31.74ZM12.49,41a2.08,2.08,0,0,0,1.77-1,7.37,7.37,0,0,1,12.48,0,2.08,2.08,0,0,0,1.77,1h7v5h-7a2.08,2.08,0,0,0-1.77,1,7.38,7.38,0,0,1-12.48,0,2.08,2.08,0,0,0-1.77-1h-7V41ZM55.82,54.06c-1.69,0-3.36,0-5,.11L49.1,26.42c5.06,1.73,14,2.53,20.44,2.53h.21c6.71,0,15.48-.8,20.54-2.56L87.69,71H85.5V63.78C85.5,56.61,69.51,54.06,55.82,54.06ZM90.5,21.41l0,0-.27.16-.17.08-.36.16-.27.11-.47.16-.33.11L88,22.4l-1.5.38L85.7,23l-1.24.24L78,24l-1.56.16-1,.07-.76,0-1.15.06-1.35.05h-.53c-1.38.05-2.76.05-4.14,0l-.54,0-1.44-.05-.54,0c-.47,0-.93,0-1.39-.08l-.46,0-1.42-.11-.32,0L59.86,24l-.16,0-1.53-.18-.06.5,0-.51c-5.21-.68-8.7-1.68-9.57-2.34V19.67l.5.18.29.1,1.29.39.3.07c.4.11.8.2,1.22.3l.3.06c.48.11,1,.2,1.47.29l.38.07,1.36.22.23,0,1.55.21.41,0c.5.07,1,.12,1.6.18l1.5.14.37,0,1.42.11.24,0,1.21.07.29,0,1.23.06,3.84.12,6.79-.28L77.73,22l.37,0c.49,0,1-.08,1.59-.15l1.51-.16.41,0,1.55-.21.23,0,1.36-.22.38-.06,1.47-.29.3-.07c.42-.1.83-.19,1.22-.3l.3-.07q.67-.18,1.29-.39l.3-.1.49-.18Zm-.71-5.57-.24.08L89,16.1l-.3.09-.64.18-.48.12-.59.14-.42.1-.78.16-.48.09-.84.16-2,.32-.94.12-.64.09-1,.11L77.48,18l-1.16.09-.64,0-1.15.06-.71,0-1.29,0-.62,0c-1.28,0-2.6,0-3.89,0l-.78,0-1.13,0L61.74,18l-1-.1-.83-.09-.83-.09-.63-.08-.94-.13-.58-.09-.9-.14-.53-.09L54.62,17l-.47-.09-.78-.16-.42-.1-.72-.17-.36-.09-.63-.18-.31-.09-.64-.21-.14-.05-.22-.09c3-1.16,10.73-2.56,20-2.56s17.08,1.39,20,2.56ZM31,75.55a1,1,0,0,1-.53.91V74.65A1,1,0,0,1,31,75.55Zm18.5-7.66c0,.15-.15.43-.55.78l-1.38-.11-.73-.07-1.61-.17-.68-.08c-1.5-.19-2.89-.41-4.23-.68s-2.68-.59-3.87-1a12.28,12.28,0,0,1,5.89-1.29C47,65.32,49.53,67.14,49.53,67.89Zm7,1.11c-.91,0-1.79,0-2.65,0A4.17,4.17,0,0,0,54,68a5.15,5.15,0,0,0-2.25-4H55.5V60h-4v3.82a14.91,14.91,0,0,0-8.56-2.31c-4.4,0-8.14,1.37-9.93,3.59a5.58,5.58,0,0,1-1.22-.89v0l0,0-.27-.33-.07-.07a1.21,1.21,0,0,0,0-.14l-.08,0-.06-.06.07,0,0-.09c.24-.63,2.13-2.16,7.5-3.48a2.06,2.06,0,0,0,.72-.37,66.76,66.76,0,0,1,10.16-1.41l.08,0,.07,0c3.09-.2,6.25-.25,9.14-.19.33,3.35,3.8,6,8,6a8.13,8.13,0,0,0,7.44-4.13c5.2,1.33,7.15,2.93,7.15,3.64C81.66,65,73.93,69,56.52,69ZM35.2,75.55c0-2.64-3.7-5.07-3.7-5.07V68.7l.13.08c.45.24.92.46,1.4.67l.29.12c.42.17.86.34,1.32.5l.45.16c.51.17,1,.33,1.66.51l.1,0c.61.17,1.25.32,1.9.47l.49.11,1.62.32.5.09,2.14.34.23,0,1.83.22.79.09,1.15.11,1.18.1c.77.06,1.54.11,2.33.15l.56,0c.62,0,1.24,0,1.87.06l.62,0q2.38.06,4.77,0l.73,0,1.86-.07.57,0c.78,0,1.56-.09,2.33-.15l.43,0,1.89-.17.63-.07c.68-.07,1.34-.15,2-.25l.24,0c.73-.1,1.44-.21,2.14-.33l.5-.1c.55-.1,1.09-.2,1.65-.32l.46-.1c.65-.15,1.29-.31,2-.49l.12,0c.54-.15,1.07-.31,1.58-.48l.45-.16c.46-.16.9-.32,1.32-.5l.29-.12c.48-.21,1-.43,1.4-.67l.13-.08V72a8.16,8.16,0,0,0-7.65,8.14A8.08,8.08,0,0,0,78,87.24c-4.83,2-12.92,3.13-22,3.13-13.15,0-19.92-2.24-22.31-3.25a1.79,1.79,0,0,0-.6-.44,5.7,5.7,0,0,1-2.57-1.82V80.63S35.2,78.2,35.2,75.55Zm46.3.53v8.14a4.1,4.1,0,0,1,0-8.14ZM63,57.88c2,.14,3.92.34,5.75.59l.43.06,1,.16a5.29,5.29,0,0,1-3.24,1A4.47,4.47,0,0,1,63,57.88Z"/><circle class="cls-2" cx="21" cy="43.45" r="3.5"/><path class="cls-2" d="M82.47,31H80a12.43,12.43,0,0,0-10.5,5.89A12.44,12.44,0,0,0,59,31H57.53a2,2,0,0,0-2,2v1.54a12.68,12.68,0,0,0,12,12.8V52h5V47.33a12.68,12.68,0,0,0,12-12.8V33A2,2,0,0,0,82.47,31ZM72,42.84a8.72,8.72,0,0,1,8.18-8.17A8.72,8.72,0,0,1,72,42.84ZM59.75,34.67a8.71,8.71,0,0,1,8.17,8.17A8.71,8.71,0,0,1,59.75,34.67Z"/></svg>