<svg id="Layer_1" data-name="Layer 1" xmlns="http://www.w3.org/2000/svg" viewBox="0 0 96 96"><defs><style>.cls-1{fill:#e1252b;}.cls-2{fill:#394b59;}.cls-3{fill:none;}</style></defs><title>eCommerceDelivery</title><path class="cls-1" d="M75,75.11A5.89,5.89,0,1,0,80.89,81,5.89,5.89,0,0,0,75,75.11Zm0,8A2.11,2.11,0,1,1,77.11,81,2.12,2.12,0,0,1,75,83.11Z"/><path class="cls-1" d="M51,75.11A5.89,5.89,0,1,0,56.89,81,5.89,5.89,0,0,0,51,75.11Zm0,8A2.11,2.11,0,1,1,53.11,81,2.12,2.12,0,0,1,51,83.11Z"/><path class="cls-2" d="M90,16.11H46A1.88,1.88,0,0,0,44.11,18V45.11H29.67L14.23,10.23A1.89,1.89,0,0,0,12.5,9.11H7a1.89,1.89,0,1,0,0,3.78h4.27l26.5,59.88a1.89,1.89,0,0,0,1.73,1.12H86A1.88,1.88,0,0,0,87.89,72V53.89H90A1.88,1.88,0,0,0,91.89,52V18A1.88,1.88,0,0,0,90,16.11Zm-1.89,11H77.89V19.89H88.11ZM74.11,29v6.93l-5.26-2.62a1.91,1.91,0,0,0-1.7,0l-5.26,2.62v-16H74.11ZM47.89,19.89H58.11v7.22H47.89ZM41.24,70.11l-3.62-8.22H84.11v8.22Zm42.87-12H36L31.9,48.89H44.11V52A1.88,1.88,0,0,0,46,53.89H84.11Zm1.89-8H47.89V30.89H58.11V39a1.89,1.89,0,0,0,2.74,1.69L68,37.12l7.15,3.57a1.83,1.83,0,0,0,.85.2A1.88,1.88,0,0,0,77.89,39V30.89H88.11V50.11Z"/><rect class="cls-3" width="96" height="96"/></svg>