<svg id="Layer_1" data-name="Layer 1" xmlns="http://www.w3.org/2000/svg" viewBox="0 0 96 96"><defs><style>.cls-1{fill:#394b59;}.cls-2{fill:#e1252b;}</style></defs><title>ElectronicsAppliances&amp;amp;WhiteGoods</title><path class="cls-1" d="M67.31,82.77a1.5,1.5,0,1,0,1.5,1.5A1.5,1.5,0,0,0,67.31,82.77Z"/><path class="cls-1" d="M90.12,51.52a1.5,1.5,0,0,0,2.55-1.06v-8a1.54,1.54,0,0,0-1.5-1.5H89.53l.07-1a1.54,1.54,0,0,0,1.08-1.43c0-2.85-1.75-5.37-4.81-6.91a3.8,3.8,0,0,0-1-.31l-.15,0,0,0V28.59a1.54,1.54,0,0,0-1.5-1.5H79.45a1.85,1.85,0,0,0-.47,0l-.08,0a1.52,1.52,0,0,0-1,1.39l-.11,2.66-.22.13a3.85,3.85,0,0,0-1,.33c-3.06,1.54-4.81,4.06-4.81,6.91A1.53,1.53,0,0,0,72.86,40l.91,12.5v.11A1.52,1.52,0,0,0,75.26,54h.5v1H73.35a1.41,1.41,0,0,0-.54,0,1.53,1.53,0,0,0-1,1.3L71.1,63c-.16-2.74-2-5-5.13-6.54a4.78,4.78,0,0,0-1.15-.33l-.13,0-.11-2.76A1.53,1.53,0,0,0,63.09,52H59a1.76,1.76,0,0,0-.55,0,1.52,1.52,0,0,0-1,1.47V56l-.2.11a5.34,5.34,0,0,0-1.06.33C52.85,58,51,60.48,51,63.39a1.53,1.53,0,0,0,1.33,1.48H51.16a1.26,1.26,0,0,0-.54,0,1.5,1.5,0,0,0-1,1.47v4A1.53,1.53,0,0,0,50,71.4a1.51,1.51,0,0,0,2.56-1.05V67.87h.47l.51,4.6c.21,1.39,1.08,1.38,1.5,1.36h.49v1H53.39a1.54,1.54,0,0,0-1.5,1.49V88.25a1.54,1.54,0,0,0,1.5,1.49h4.39A1.5,1.5,0,0,0,58,91a1.42,1.42,0,0,0,1.38.72h2a1.45,1.45,0,0,0,1.16-.55,1.4,1.4,0,0,0,.35-1.13v-.31h18.8A1.54,1.54,0,0,0,81.85,91a1.48,1.48,0,0,0,1.2.74l.17,0h2a1.46,1.46,0,0,0,1.15-.55,1.37,1.37,0,0,0,.35-1.13v-.31h4.48a1.48,1.48,0,0,0,1.07-.48,1.52,1.52,0,0,0,.42-1.11l-2-31.82a1.53,1.53,0,0,0-1.49-1.4H86.7V54h.5a1.53,1.53,0,0,0,1.49-1.4L89.28,44h.4v6.45A1.49,1.49,0,0,0,90.12,51.52Zm-29.7,4.4v-1h1.24l0,1Zm2.11,6v-3h1.23l.2,0a5.43,5.43,0,0,1,.71.21,5.31,5.31,0,0,1,2.88,2.71Zm-5.3,3a1.53,1.53,0,0,0-.67,1.49L57,69.91a1.53,1.53,0,0,0,.5.93h-1.1l-.64-6ZM60,69.54,59.55,66a1.53,1.53,0,0,0-.68-1.11l0,0h7.48l-.63,6h-6.2A1.54,1.54,0,0,0,60,69.54Zm-.44-10.62v3h-5a5.19,5.19,0,0,1,2.81-2.71A6.41,6.41,0,0,1,58,59Zm4,14.91v1h-5v-1Zm9.27,2.59,1.82-18.5H87.78l1.8,28.83H54.89V77.81h16.4A1.53,1.53,0,0,0,72.78,76.42Zm6-21.49V54h5v1ZM87.21,37H82.73v-3h1l.21.06c.23.07.52.15.63.2A5,5,0,0,1,87.21,37Zm-6.45-6,0-1h.93v1ZM83,41.47l-.62,7.9A1.53,1.53,0,0,0,83.7,51h-7L75.87,40h8.45A1.51,1.51,0,0,0,83,41.47Zm1.85,9.11a1.51,1.51,0,0,0,.52-1L86,41.7A1.54,1.54,0,0,0,84.65,40h1.94L85.8,51H84.08A1.55,1.55,0,0,0,84.88,50.58ZM79.73,34.06v3H75.25a5,5,0,0,1,2.66-2.71,5.28,5.28,0,0,1,.65-.2l.19-.06ZM71,63.91,69.9,74.82H66.51v-1H67a1.53,1.53,0,0,0,1.49-1.38l.82-7.57h.3A1.53,1.53,0,0,0,71,63.91Z"/><path class="cls-1" d="M61.34,78.79a3.49,3.49,0,1,0,3.49,3.49A3.49,3.49,0,0,0,61.34,78.79Zm.49,3.49a.47.47,0,0,1-.49.49.49.49,0,1,1,0-1A.47.47,0,0,1,61.83,82.28Z"/><path class="cls-1" d="M43.19,4.25H7.94A4.62,4.62,0,0,0,3.33,8.86v76a4.62,4.62,0,0,0,4.61,4.61h7.33v2.31h4.44V89.42H31.42v2.31h4.43V89.42h7.34a4.62,4.62,0,0,0,4.61-4.61V8.86A4.62,4.62,0,0,0,43.19,4.25ZM7.11,8.86A.83.83,0,0,1,7.94,8H43.19a.83.83,0,0,1,.83.83V53.37H7.11ZM44,57.14V84.81a.83.83,0,0,1-.83.83H7.94a.83.83,0,0,1-.83-.83V57.14Z"/><path class="cls-2" d="M9.43,33.72a1.89,1.89,0,1,0,0,3.78.92.92,0,0,1,.91.92v8.42a.91.91,0,0,1-.91.91,1.89,1.89,0,1,0,0,3.78,4.7,4.7,0,0,0,4.69-4.69V38.42A4.7,4.7,0,0,0,9.43,33.72Z"/><path class="cls-1" d="M9.43,73a1.89,1.89,0,1,0,0,3.78,4.7,4.7,0,0,0,4.69-4.7V63.67A4.7,4.7,0,0,0,9.43,59a1.89,1.89,0,0,0,0,3.78.91.91,0,0,1,.91.91v8.42A.92.92,0,0,1,9.43,73Z"/><path class="cls-1" d="M26.27,12.67H23.46a1.89,1.89,0,0,0,0,3.78h2.81a1.89,1.89,0,0,0,0-3.78Z"/><path class="cls-2" d="M71.1,63c-.16-2.74-2-5-5.13-6.54a4.78,4.78,0,0,0-1.15-.33l-.13,0-.11-2.76A1.53,1.53,0,0,0,63.09,52H59a1.76,1.76,0,0,0-.55,0,1.52,1.52,0,0,0-1,1.47V56l-.2.11a5.34,5.34,0,0,0-1.06.33C52.85,58,51,60.48,51,63.39a1.53,1.53,0,0,0,1.33,1.48H51.16a1.26,1.26,0,0,0-.54,0,1.5,1.5,0,0,0-1,1.47v4A1.53,1.53,0,0,0,50,71.4a1.51,1.51,0,0,0,2.56-1.05V67.87h.47l.51,4.6c.21,1.39,1.08,1.38,1.5,1.36h.49v1h3v-1h5v1h3v-1H67a1.53,1.53,0,0,0,1.49-1.38l.82-7.57h.3S71.45,65.27,71.1,63ZM60.42,54.94h1.24l0,1H60.42Zm-4,15.9-.64-6h1.48a1.53,1.53,0,0,0-.67,1.49L57,69.91a1.53,1.53,0,0,0,.5.93Zm-1.81-9a5.19,5.19,0,0,1,2.81-2.71A6.41,6.41,0,0,1,58,59l1.52-.07v3Zm11.1,9h-6.2a1.54,1.54,0,0,0,.5-1.3L59.55,66a1.53,1.53,0,0,0-.68-1.11l0,0h7.48Zm-3.15-9v-3h1.23l.2,0a5.43,5.43,0,0,1,.71.21,5.31,5.31,0,0,1,2.88,2.71Z"/></svg>