<svg id="Layer_1" data-name="Layer 1" xmlns="http://www.w3.org/2000/svg" viewBox="0 0 96 96"><defs><style>.cls-1{fill:#394b59;}.cls-2{fill:#e1252b;}</style></defs><title>Fashion&amp;amp;Accessories</title><path class="cls-1" d="M54.66,37.12A1.9,1.9,0,0,0,53,36.18H47.09v-6a1.9,1.9,0,0,0-1.9-1.9h-.95V25.38h4.21a1.9,1.9,0,0,0,0-3.79H44.24V18.66a1.9,1.9,0,0,0-1.89-1.9H34.48a1.9,1.9,0,0,0-1.89,1.9v2.93H18.83A11.68,11.68,0,0,0,7.28,31.67c-2.28.94-3.91,3.92-3.91,7.55,0,4.41,2.4,7.87,5.46,7.87s5.46-3.46,5.46-7.87c0-3.26-1.31-6-3.23-7.2a7.87,7.87,0,0,1,7.77-6.64H32.59v2.93h-1a1.9,1.9,0,0,0-1.89,1.9v6h-4a1.9,1.9,0,0,0-1.64.94L10.52,60.72a1.88,1.88,0,0,0,0,1.89L24.14,86.2a1.89,1.89,0,0,0,1.64,1H53a1.89,1.89,0,0,0,1.64-1L68.28,62.61a1.88,1.88,0,0,0,0-1.89ZM8.83,43.3c-.48,0-1.67-1.43-1.67-4.08s1.19-4.08,1.67-4.08,1.67,1.43,1.67,4.08S9.31,43.3,8.83,43.3ZM36.38,20.55h4.07v7.76H36.38ZM33.53,32.1H43.3v4.08H33.53Zm18.4,51.26H26.87L14.35,61.66,26.87,40H51.93l12.53,21.7Z"/><path class="cls-2" d="M56.07,21.25a1.9,1.9,0,0,0,1.17-.4l12.48-9.72a1.89,1.89,0,1,0-2.32-3L54.91,17.86a1.9,1.9,0,0,0,1.16,3.39Z"/><path class="cls-2" d="M69.72,35.89,57.24,26.18a1.9,1.9,0,0,0-2.33,3L67.4,38.88a1.86,1.86,0,0,0,1.16.4,1.89,1.89,0,0,0,1.16-3.39Z"/><path class="cls-2" d="M59.73,23.51a1.9,1.9,0,0,0,1.89,1.9H76.89a1.9,1.9,0,0,0,0-3.79H61.62A1.89,1.89,0,0,0,59.73,23.51Z"/><path class="cls-1" d="M89.55,67.17V54.4h-.91v-1h-.86V37.13A2.31,2.31,0,0,0,86.34,35a2.4,2.4,0,0,0-2.53.4L76.39,42a2.39,2.39,0,0,0-.83,1.8V53.4h-1.9V67.17H70.59v18.4a2.69,2.69,0,0,0,2.68,2.69H89.94a2.7,2.7,0,0,0,2.69-2.69V67.17ZM79.29,44.41l4.76-4.26V53.4H79.29ZM76.66,84.56H74.32V70.9h2.34Zm.73-27.43h8.52V67H77.39Zm11.55,27.4-8.55,0V70.9h8.55Z"/><path class="cls-2" d="M46.85,76.46H32a1.9,1.9,0,0,1-1.64-.94L22.86,62.61a1.88,1.88,0,0,1,0-1.89l7.45-12.91a1.89,1.89,0,0,1,1.64-1h14.9a1.87,1.87,0,0,1,1.64,1L56,60.72a1.93,1.93,0,0,1,0,1.89L48.49,75.52A1.89,1.89,0,0,1,46.85,76.46ZM33,72.68H45.76l6.36-11-6.36-11H33l-6.36,11Z"/></svg>