<svg id="Layer_1" data-name="Layer 1" xmlns="http://www.w3.org/2000/svg" viewBox="0 0 96 96"><defs><style>.cls-1{fill:#e1252b;}.cls-2{fill:#394b59;}</style></defs><title>FoodProducts</title><path class="cls-1" d="M56.38,55.4a2.91,2.91,0,0,0-2.06-.51L39,58.16l-.17.07a2.11,2.11,0,0,0-.38.17,1.54,1.54,0,0,0-.32.22,1.79,1.79,0,0,0-.27.28,2.11,2.11,0,0,0-.21.31,1.38,1.38,0,0,0-.15.36,1.84,1.84,0,0,0-.08.38l-.08,18.22a1.63,1.63,0,0,0,0,.34l.51-.13-.47.27a1.47,1.47,0,0,0,.08.28,1.85,1.85,0,0,0,.17.29l.42-.32-.34.42a1.33,1.33,0,0,0,.19.24,1.18,1.18,0,0,0,.25.19l.26-.45-.15.52a1.09,1.09,0,0,0,.24.14l.15.07a2.82,2.82,0,0,0,.82.14,2,2,0,0,0,.43,0l15.38-3.28a2.46,2.46,0,0,0,1.95-2.42V57.32A2.44,2.44,0,0,0,56.38,55.4ZM53.2,59.32V73.11l-11.74,2.5,0-13.78Z"/><path class="cls-2" d="M89.65,77.35c0-.17-.05-.33-.06-.41a.85.85,0,0,0,0-.27V63.85c0-9.75-1.56-17.17-3.22-25a144.37,144.37,0,0,1-3.71-27H62.39a128.7,128.7,0,0,1-2.71,21.87l-4.47-5.36V19.69a3,3,0,0,0-1-2.28,3.08,3.08,0,0,0-2.37-.73L24.81,20a3,3,0,0,0-2.65,3v9.17L7.67,41.6l-.19.11,0,0a1.89,1.89,0,0,0-.54.63,3,3,0,0,0-.66,1.78V83.46a3,3,0,0,0,2,2.83l20.1,7.52a4.84,4.84,0,0,0,1.05.19,2,2,0,0,0,.43,0l29.93-6.38A16.77,16.77,0,0,0,73.21,94c9.42,0,16.53-6.73,16.53-15.64A8.24,8.24,0,0,0,89.65,77.35ZM27,79.8l0,9.13L10.37,82.71V74Zm.05-13.71,0,9.37L10.37,69.64V60.53Zm35.4,18.29a11.08,11.08,0,0,1-1.68-6,12.42,12.42,0,1,1,24.83,0,11.09,11.09,0,0,1-3.53,8.23,12.93,12.93,0,0,1-8.88,3.31A12.44,12.44,0,0,1,62.47,84.38ZM78.59,11.77C79,23.35,80.71,31.61,82.4,39.66c1,4.59,1.88,9.13,2.47,14.12a1.7,1.7,0,0,0-.31-.06c-.22,0-.4,0-.58,0h0a44,44,0,0,0-4.68-15.24,2.08,2.08,0,0,0-1.78-1H67.4a2.07,2.07,0,0,0-1.78,1c-.24.42-.49.88-.75,1.39L63,37.66A139,139,0,0,0,66.5,11.77Zm6.94,55.66A16.74,16.74,0,0,0,81.25,64a9.59,9.59,0,0,0,4.19-3.57c.06,1.22.09,2.33.09,3.44Zm-8.06-8.15c.8-1.05,2.4-1.59,4.75-1.59h0c-.46,1.59-2.29,2.81-5.44,3.64A3.81,3.81,0,0,1,77.47,59.28Zm-7.68-.14A2.07,2.07,0,0,0,71,61.66a1.76,1.76,0,0,1,.1.32,16.69,16.69,0,0,0-3.61.88V44.15a.57.57,0,0,0,0-.14c.32-.79.69-1.67,1.1-2.47h7.63A41.87,41.87,0,0,1,79.84,53.8a8.08,8.08,0,0,0-5.66,3h0a6.3,6.3,0,0,0-.8,1.42,4,4,0,0,0-1-.5A2.06,2.06,0,0,0,69.79,59.14ZM63.43,45.47V65a16.53,16.53,0,0,0-6.74,13.32,15.6,15.6,0,0,0,1,5.46L31.09,89.49l.13-37.13Zm-2.31-3.7L30.62,48.3,26.83,34.94l25.49-3.72ZM26.27,30.88v-7l24.84-3v6.36Zm-12.6,11.7L23,36.49l3.08,10.84Zm13.45,9.53,0,9.67L10.37,56.21V45.7Z"/><path class="cls-1" d="M80.09,2H64.68A6.09,6.09,0,0,0,58.6,8.08V9.72a2.05,2.05,0,0,0,2,2H84.12a2.05,2.05,0,0,0,2-2V8.08A6.09,6.09,0,0,0,80.09,2ZM62.75,7.67A2,2,0,0,1,64.68,6.1h15.4A2,2,0,0,1,82,7.56Z"/></svg>