<svg id="Layer_1" data-name="Layer 1" xmlns="http://www.w3.org/2000/svg" viewBox="0 0 96 96"><defs><style>.cls-1{fill:#e1252b;}.cls-2{fill:#394b59;}</style></defs><title>Furniture&amp;amp;LargeItems</title><path class="cls-1" d="M94.48,20.85l-5.36-16A2,2,0,0,0,87.23,3.5H74.85A2,2,0,0,0,73,4.87l-5.36,16a2,2,0,0,0,1.26,2.55,1.43,1.43,0,0,0,.64.1h2.56v3.23a2.06,2.06,0,0,0,1.34,2,2,2,0,0,0,2.66-1.9V23.5h3V43.83l4,8V23.5h9.54a2,2,0,0,0,1.89-2.65ZM72,19.5l4-12h9.56l4,12Z"/><path class="cls-2" d="M82.61,46.54a10.85,10.85,0,0,0-5.48-6.24A9.9,9.9,0,0,0,69.05,40h0v-6.2c0-5.67-4.39-10.3-9.74-10.32h-33A10.33,10.33,0,0,0,16.05,33.85v6A11,11,0,0,0,2.63,45.34a11.17,11.17,0,0,0,4.81,15l.61.29v25A1.86,1.86,0,0,0,9.91,87.5h4.14v3.14a1.86,1.86,0,0,0,1.86,1.86H27.33a2,2,0,0,0,1.78-1l2.25-4H55.15l2.29,4a1.85,1.85,0,0,0,1.62,1H69.18a1.87,1.87,0,0,0,1.87-1.86V87.5h4.13a1.87,1.87,0,0,0,1.87-1.86v-25a10.77,10.77,0,0,0,5.27-5.54A11.63,11.63,0,0,0,82.61,46.54Zm-23,41h7.45v1h-7Zm-34.37,1H18.05v-1H25.7Zm50.1-31a1.84,1.84,0,0,0-1.28,1.82V83.5h-62V59.59a1.85,1.85,0,0,0-1.28-1.84,7.11,7.11,0,0,1-4.25-3.54A7.35,7.35,0,0,1,6,48.64,7.26,7.26,0,0,1,12.1,43.5h.79a7.24,7.24,0,0,1,7.16,6.77V73.66a1.82,1.82,0,0,0,1.8,1.84H64.18a1.87,1.87,0,0,0,1.87-1.86V50a7.28,7.28,0,0,1,7.61-7,7,7,0,0,1,4.94,2.47,7.52,7.52,0,0,1,1.81,5.36A7.41,7.41,0,0,1,75.33,57.53Zm-48.52-30H58.66s6.39.5,6.39,6.13v8.5a9.94,9.94,0,0,0-3,7.57V60.48a57.58,57.58,0,0,0-38,0V50.09a11,11,0,0,0-4-7.84V34.13A6.71,6.71,0,0,1,26.81,27.5ZM24.05,64.41a52.86,52.86,0,0,1,38,0V71.5h-38Z"/><path class="cls-1" d="M76.2,50.74l1.07-1.08a1.86,1.86,0,0,0-.2-2.62,1.88,1.88,0,0,0-2.48.05l-1,1L72.5,47a1.85,1.85,0,0,0-2.63.2,1.88,1.88,0,0,0,0,2.48l1,1-1,1a1.87,1.87,0,0,0,0,2.63h0a1.87,1.87,0,0,0,2.63,0l1-1,1.08,1.07a1.86,1.86,0,0,0,2.62-.2,1.88,1.88,0,0,0,0-2.48Z"/><path class="cls-1" d="M15.81,50.74l1.07-1.08a1.86,1.86,0,0,0-.2-2.62,1.88,1.88,0,0,0-2.48.05l-1,1L12.1,47a1.84,1.84,0,0,0-2.62.2,1.86,1.86,0,0,0,0,2.48l1,1-1,1-.11.13a2.13,2.13,0,0,0-.21,1.67l0,.24,0,.35.25.24a1.87,1.87,0,0,0,2.63,0l1-1,1.07,1.07a1.86,1.86,0,0,0,2.58-2.68Z"/></svg>