<svg id="Layer_1" data-name="Layer 1" xmlns="http://www.w3.org/2000/svg" viewBox="0 0 96 96"><defs><style>.cls-1{fill:#394b59;}.cls-2{fill:#e1252b;}.cls-3{fill:none;}</style></defs><title>HyperlocalDelivery</title><path class="cls-1" d="M27.81,12A2.07,2.07,0,0,0,26,14V52.16c-2-.08-3.95-.15-6-.16V75.94C27.8,80.26,33.83,84,48,84c8.07,0,17.67-3.35,25.41-6.63a145,145,0,0,0,13.53-6.56h0a12.39,12.39,0,0,0,3.66-2.53A6.11,6.11,0,0,0,92,64.22a4.51,4.51,0,0,0-1.72-3.44,7.54,7.54,0,0,0-2.94-1.34A14.54,14.54,0,0,0,84,59V14a2.07,2.07,0,0,0-2-2H59.81a2.08,2.08,0,0,0-1.9,2.09A2.08,2.08,0,0,0,60,16H80V59.41a30.15,30.15,0,0,0-4.09,1.34c-1,.41-2,.84-2.66,1.16A7,7,0,0,0,67,58H48.69c-3-2.58-7.11-4-12-4.84-2.11-.37-4.37-.61-6.72-.79V16H52a2.07,2.07,0,0,0,2-2,2.08,2.08,0,0,0-2-2ZM20,56a101,101,0,0,1,16,1.09c4.84.84,8.55,2.3,10.56,4.32A2,2,0,0,0,48,62H67a3,3,0,0,1,0,6H38a2,2,0,1,0,0,4H67a7,7,0,0,0,6.91-6s1.51-.76,3.47-1.53A20.08,20.08,0,0,1,83,63a15.89,15.89,0,0,1,3.41.34,4.31,4.31,0,0,1,1.4.6c.23.18.19.09.19.28,0,.94-.08,1.07-.37,1.4a10.73,10.73,0,0,1-2.57,1.69h0s-5.67,3.19-13.19,6.38S54.93,80,48,80c-14.6,0-18.91-3.72-28-8.63Z"/><path class="cls-2" d="M18,50H5.81A2.07,2.07,0,0,0,4,52V79a2.07,2.07,0,0,0,2,2H18a2.07,2.07,0,0,0,2-2V52A2.07,2.07,0,0,0,18,50ZM16,77H8V54h8Z"/><rect class="cls-3" width="96" height="96"/></svg>