<svg id="Layer_1" data-name="Layer 1" xmlns="http://www.w3.org/2000/svg" viewBox="0 0 96 96"><defs><style>.cls-1{fill:#394b59;}.cls-2{fill:#e1252b;}.cls-3{fill:none;}</style></defs><title>PackageDelivery</title><path class="cls-1" d="M93.13,8.5H14.87A1.87,1.87,0,0,0,13,10.37V23.63a1.87,1.87,0,0,0,1.87,1.87H20v18H2.9A1.9,1.9,0,0,0,1,45.4v9.2a1.9,1.9,0,0,0,1.9,1.9H5V85.6a1.9,1.9,0,0,0,1.9,1.9H44.1A1.9,1.9,0,0,0,46,85.6V71.5H86.11A1.89,1.89,0,0,0,88,69.61V25.5h5.13A1.87,1.87,0,0,0,95,23.63V10.37A1.87,1.87,0,0,0,93.13,8.5ZM61,25.5H76V35.91l-6.63-3.54a1.91,1.91,0,0,0-1.74,0L61,35.91ZM5,47.5H46v5H5Zm37,36H9v-27H42Zm42-16H46v-11h2.1A1.9,1.9,0,0,0,50,54.6V45.4a1.9,1.9,0,0,0-1.9-1.9H24v-18H57V39.05a1.91,1.91,0,0,0,2.8,1.68l8.7-4.54,8.7,4.54a2,2,0,0,0,1.88-.06A1.89,1.89,0,0,0,80,39.05V25.5h4Zm7-46H17v-9H91Z"/><path class="cls-2" d="M77.11,43.5H59.89A1.89,1.89,0,0,0,58,45.39v8.22a1.89,1.89,0,0,0,1.89,1.89H77.11A1.89,1.89,0,0,0,79,53.61V45.39A1.89,1.89,0,0,0,77.11,43.5ZM75,51.5H62v-4H75Z"/><path class="cls-1" d="M77.47,60.5H59.52a1.93,1.93,0,0,0-1.75,1,2,2,0,0,0,1.76,3h18a1.93,1.93,0,0,0,1.75-1A2,2,0,0,0,77.47,60.5Z"/><path class="cls-2" d="M12.53,79.5h18a1.93,1.93,0,0,0,1.75-1,2,2,0,0,0-1.76-3H12.52a1.93,1.93,0,0,0-1.75,1A2,2,0,0,0,12.53,79.5Z"/><path class="cls-2" d="M12.53,72.5h18a1.93,1.93,0,0,0,1.75-1,2,2,0,0,0-1.76-3H12.52a1.93,1.93,0,0,0-1.75,1A2,2,0,0,0,12.53,72.5Z"/><rect class="cls-3" width="96" height="96"/></svg>