<svg id="Layer_1" data-name="Layer 1" xmlns="http://www.w3.org/2000/svg" viewBox="0 0 96 96"><defs><style>.cls-1{fill:#394b59;}.cls-2{fill:#e1252b;}</style></defs><title>Pharmacy</title><path class="cls-1" d="M80.54,79.73l-6.8-12a7.23,7.23,0,0,0-3.26-3V37A11.51,11.51,0,0,0,59,25.5H50.32V22.83h5.2a4,4,0,0,0,4-4V7.46a4,4,0,0,0-4-4H29.45a4,4,0,0,0-4,4V18.87a4,4,0,0,0,4,4h5.2V25.5H26A11.51,11.51,0,0,0,14.48,37V86.5a6,6,0,0,0,6,6h44a6,6,0,0,0,5.37-3.33,6.89,6.89,0,0,0,4.45,1.59,7.11,7.11,0,0,0,3.59-1A7.44,7.44,0,0,0,80.54,79.73ZM54.82,8.17v10H30.15v-10ZM45.65,22.83V25.5H39.32V22.83Zm-15.5,54.5A2.34,2.34,0,0,0,27.82,75H19.15V43h6.14a2.34,2.34,0,0,0,0-4.67H19.15V37A6.83,6.83,0,0,1,26,30.17H59A6.84,6.84,0,0,1,65.82,37v1.33H35.15a2.34,2.34,0,0,0,0,4.67H65.82V64.22a7.28,7.28,0,0,0-1.93.77,7.39,7.39,0,0,0-2.63,10l0,.06H35.15a2.34,2.34,0,0,0,0,4.67H63.94L65.82,83V86.5a1.33,1.33,0,0,1-1.34,1.33h-44a1.33,1.33,0,0,1-1.33-1.33V79.67h8.67A2.34,2.34,0,0,0,30.15,77.33ZM72,74l-4.39,2.64-2.22-4A2.69,2.69,0,0,1,66.25,69a2.64,2.64,0,0,1,1.29-.34l.42,0h.16a2.6,2.6,0,0,1,1.54,1.24Zm3.59,11.67a2.53,2.53,0,0,1-1.86.26,2.59,2.59,0,0,1-1.54-1.23l-2.27-4L74.24,78l2.22,4A2.72,2.72,0,0,1,75.54,85.67Z"/><path class="cls-1" d="M48,14.89H37a1.89,1.89,0,0,1,0-3.78H48a1.89,1.89,0,0,1,0,3.78Z"/><path class="cls-2" d="M39.42,62.06v6a.17.17,0,0,0,.17.15h5.79a.16.16,0,0,0,.16-.15v-6h6a.16.16,0,0,0,.15-.16V56.1a.16.16,0,0,0-.15-.16h-6V50a.16.16,0,0,0-.16-.15H39.59a.17.17,0,0,0-.17.15v6h-6a.16.16,0,0,0-.14.16v5.8a.16.16,0,0,0,.14.16Z"/></svg>