<svg id="Layer_1" data-name="Layer 1" xmlns="http://www.w3.org/2000/svg" viewBox="0 0 96 96"><defs><style>.cls-1{fill:#394b59;}.cls-2{fill:#e1252b;}</style></defs><title>RetailDistribution</title><path class="cls-1" d="M93.4,48H88.3l2-4.42a1.55,1.55,0,0,0-.21-1.71,1.56,1.56,0,0,0-2.6.38L84.88,48H77.6L75,42.32a1.59,1.59,0,0,0-1.61-1,1.56,1.56,0,0,0-1.25,2.2l2,4.46H69.09a1.56,1.56,0,0,0-1.23.6,1.55,1.55,0,0,0-.28,1.33L71.05,64H67V57.89A1.89,1.89,0,0,0,65.11,56H62V45a10.29,10.29,0,0,0-4.92-8.73,11.65,11.65,0,0,0,2.81-10.36,11.87,11.87,0,0,0-23.46,2.49A11.64,11.64,0,0,0,39,35.69,10.39,10.39,0,0,0,33,45v4H23.89A1.89,1.89,0,0,0,22,50.89V56H19V47h8.12A1.88,1.88,0,0,0,29,45.12V26.88A1.88,1.88,0,0,0,27.12,25H3.88A1.88,1.88,0,0,0,2,26.88V45.12A1.88,1.88,0,0,0,3.88,47H15v9H3.89A1.89,1.89,0,0,0,2,57.89V86.11A1.89,1.89,0,0,0,3.89,88H5v4a2,2,0,0,0,2,2H89.44A1.56,1.56,0,0,0,91,92.44V88h1.5A1.5,1.5,0,0,0,94,86.5V65.89A1.89,1.89,0,0,0,92.11,64h-.68l3.48-14.07A1.57,1.57,0,0,0,93.4,48ZM6,29H25V43H6ZM87,90H9V88H87ZM48.29,20.54a8,8,0,0,1,8,8A7.9,7.9,0,0,1,53,34.91a2,2,0,0,0-1,.27,8.4,8.4,0,0,1-6.12.93,7.63,7.63,0,0,1-1.84-.84,8,8,0,0,1,4.23-14.73ZM26,53h9.11A1.89,1.89,0,0,0,37,51.11V45.74a6.3,6.3,0,0,1,5.15-6,12.09,12.09,0,0,0,2.76,1,12.31,12.31,0,0,0,3.37.48A12,12,0,0,0,53.58,40,6.2,6.2,0,0,1,58,45.74V56H55V46a2,2,0,0,0-1.31-1.89A2,2,0,0,0,51,45.89V56H44V46a2,2,0,0,0-1.31-1.89A2,2,0,0,0,40,45.89V56H26ZM6,60H63v6a3.49,3.49,0,0,0,2,1H90V84a1.11,1.11,0,0,0-1,1H7a1.11,1.11,0,0,0-1-1Zm68,4L70.74,51H75.3l1.83,4a1.56,1.56,0,0,0,1.43.92,1.58,1.58,0,0,0,1-.36A1.64,1.64,0,0,0,80,53.65L78.74,51h4.5L82,53.65a1.64,1.64,0,0,0,.37,1.94,1.61,1.61,0,0,0,1,.36A1.58,1.58,0,0,0,84.86,55l1.83-4h4.56L88,64Z"/><path class="cls-1" d="M93.08,2H67.92A1.92,1.92,0,0,0,66,3.92V29.08A1.92,1.92,0,0,0,67.92,31H93.08A1.92,1.92,0,0,0,95,29.08V3.92A1.92,1.92,0,0,0,93.08,2ZM91,27H70V6H91Z"/><path class="cls-2" d="M74.69,13H86.32a1.9,1.9,0,0,0,1.74-1,2,2,0,0,0-1.75-3H74.68a1.9,1.9,0,0,0-1.74,1A2,2,0,0,0,74.69,13Z"/><path class="cls-2" d="M74.69,19H86.32a1.9,1.9,0,0,0,1.74-1,2,2,0,0,0-1.75-3H74.68a1.9,1.9,0,0,0-1.74,1A2,2,0,0,0,74.69,19Z"/><path class="cls-2" d="M74.69,25H86.32a1.9,1.9,0,0,0,1.74-1,2,2,0,0,0-1.75-3H74.68a1.9,1.9,0,0,0-1.74,1A2,2,0,0,0,74.69,25Z"/><path class="cls-2" d="M9.86,35h5.29a1.93,1.93,0,0,0,1.75-1,2,2,0,0,0-1.76-3H9.85A1.93,1.93,0,0,0,8.1,32,2,2,0,0,0,9.86,35Z"/><path class="cls-2" d="M15.15,37H9.85A1.93,1.93,0,0,0,8.1,38a2,2,0,0,0,1.76,3h5.28a2,2,0,0,0,1.76-3A1.93,1.93,0,0,0,15.15,37Z"/><path class="cls-2" d="M21,35H22a1.93,1.93,0,0,0,1.75-1A2,2,0,0,0,22,31H21a1.93,1.93,0,0,0-1.75,1A2,2,0,0,0,21,35Z"/><path class="cls-2" d="M21,41H22a1.93,1.93,0,0,0,1.75-1A2,2,0,0,0,22,37H21a1.93,1.93,0,0,0-1.75,1A2,2,0,0,0,21,41Z"/></svg>