<svg id="Layer_1" data-name="Layer 1" xmlns="http://www.w3.org/2000/svg" viewBox="0 0 96 96"><defs><style>.cls-1{fill:#e1252b;}.cls-2{fill:#394b59;}</style></defs><title>Sports</title><path class="cls-1" d="M76.74,27.79A16.27,16.27,0,1,0,93,44.06,16.29,16.29,0,0,0,76.74,27.79Zm-9.61,8.42a1.37,1.37,0,0,0,.5,2.64,1.71,1.71,0,0,0,.5-.1l.57-.22a17.37,17.37,0,0,1,.42,1.69l-.57.08a1.34,1.34,0,0,0-.94.45A1.37,1.37,0,0,0,68.68,43l.8-.08c0,.35,0,.72,0,1.11s0,1-.06,1.56l-.58-.09a1.38,1.38,0,0,0-1,.2,1.29,1.29,0,0,0-.59.86,1.34,1.34,0,0,0,.19,1,1.41,1.41,0,0,0,.86.59l.14,0,.61.09A17,17,0,0,1,68.57,50l-.52-.24a1.37,1.37,0,0,0-1.84.61,1.3,1.3,0,0,0-.08,1,1.32,1.32,0,0,0,.67.79l.14.06.56.25a10.11,10.11,0,0,1-.53.9,13.61,13.61,0,0,1-3.76-9.36h0A13.55,13.55,0,0,1,67,34.71,14.51,14.51,0,0,1,67.69,36ZM70,53.6l.63.26a1.37,1.37,0,0,0,1.84-.6,1.37,1.37,0,0,0-.61-1.84l-.13-.06-.66-.28a19.35,19.35,0,0,0,.66-2.37l.72.1h.15a1.39,1.39,0,0,0,1.47-1.27,1.37,1.37,0,0,0-1.24-1.46l-.7-.1c.06-.64.09-1.29.09-1.92s0-1,0-1.48l.7-.08a1.43,1.43,0,0,0,.92-.52,1.39,1.39,0,0,0,.27-1,1.38,1.38,0,0,0-1.53-1.19l-.71.09a20.52,20.52,0,0,0-.59-2.37l.67-.27a1.37,1.37,0,0,0-1-2.54l-.67.26a15.83,15.83,0,0,0-1.17-2,13.42,13.42,0,0,1,15.34,0,16.61,16.61,0,0,0-1.18,2l-.67-.26a1.36,1.36,0,0,0-1,2.54l.67.26a19.27,19.27,0,0,0-.6,2.38l-.7-.09a1.35,1.35,0,0,0-1,.28,1.33,1.33,0,0,0-.52.91,1.39,1.39,0,0,0,1.19,1.54l.71.08c0,.49-.05,1-.05,1.48s0,1.3.08,2l-.66.09a1.37,1.37,0,0,0-.94.48,1.33,1.33,0,0,0-.33,1,1.36,1.36,0,0,0,.47.94,1.29,1.29,0,0,0,.91.33H81l.7-.1a19.5,19.5,0,0,0,.66,2.38l-.62.26a1.37,1.37,0,0,0,.58,2.68,1.41,1.41,0,0,0,.49-.2l.61-.26a15.81,15.81,0,0,0,.94,1.59,13.41,13.41,0,0,1-15.32,0A17.52,17.52,0,0,0,70,53.6Zm16.47-.22c-.18-.28-.36-.57-.52-.87l.53-.24a1.35,1.35,0,0,0,.78-.7,1.37,1.37,0,0,0-1.69-1.88l-.14.06L84.9,50a16.91,16.91,0,0,1-.46-1.69l.57-.09a1.33,1.33,0,0,0,.93-.48,1.34,1.34,0,0,0,.32-1,1.39,1.39,0,0,0-1.47-1.25l-.14,0L84,45.6C84,45.07,84,44.55,84,44.06s0-.77,0-1.14l.68.08h.08a1.37,1.37,0,0,0,1.45-1.29A1.35,1.35,0,0,0,85,40.27l-.61-.08a16.68,16.68,0,0,1,.42-1.69l.57.22a1.33,1.33,0,0,0,.48.1,1.28,1.28,0,0,0,1-.41,1.36,1.36,0,0,0-.47-2.23L85.78,36a14.51,14.51,0,0,1,.72-1.28,13.51,13.51,0,0,1,0,18.69Z"/><path class="cls-2" d="M71.66,73.23,53.33,48.36a31.63,31.63,0,0,0-4.25-4.71L29.13,25.58,29,25.45,15.12,7l.46-.34a1.68,1.68,0,0,0-2-2.71l-.48.36h0L4.17,10.89h0l-.49.36A1.66,1.66,0,0,0,3,12.35a1.63,1.63,0,0,0,.31,1.25A1.68,1.68,0,0,0,5.68,14l.46-.34L19.57,32.14l.11.22L31.1,56.91a32.18,32.18,0,0,0,3.23,5.45L52.92,87.57a11.81,11.81,0,0,0,16.79,2.28A12.11,12.11,0,0,0,71.66,73.23ZM12.41,9l13,17.37-3.86,2.78L8.85,11.62ZM67.63,87.21a8.44,8.44,0,0,1-12-1.63L37,60.36a28.79,28.79,0,0,1-2.89-4.87L23.25,32.07,27,29.38l.73-.52L46.82,46.15a28.56,28.56,0,0,1,3.8,4.2L69,75.23A8.72,8.72,0,0,1,67.63,87.21Z"/></svg>