<svg id="Layer_1" data-name="Layer 1" xmlns="http://www.w3.org/2000/svg" viewBox="0 0 96 96"><defs><style>.cls-1{fill:#e1252b;}.cls-2{fill:#394b59;}</style></defs><title>Supermarkets</title><path class="cls-1" d="M43.88,23H56.59a2,2,0,0,0,2-1.34A2,2,0,0,0,56.68,19H44a2.07,2.07,0,0,0-2,1.34A2,2,0,0,0,43.88,23Z"/><path class="cls-1" d="M63,24H44a2.07,2.07,0,0,0-2,1.34A2,2,0,0,0,43.88,28h19a2.05,2.05,0,0,0,2-1.34A2,2,0,0,0,63,24Z"/><path class="cls-1" d="M40.59,22a1.68,1.68,0,0,0-.22-.32l-3-3.32a2,2,0,0,0-3,2.67H32.91a2.07,2.07,0,0,0-2,1.34A2,2,0,0,0,32.82,25h1.54a2,2,0,0,0,.15,2.8,2,2,0,0,0,1.35.52,2,2,0,0,0,1.48-.65l3-3.33a1.39,1.39,0,0,0,.21-.3,2,2,0,0,0,.16-.29,1.93,1.93,0,0,0,0-1.49A1.45,1.45,0,0,0,40.59,22Z"/><path class="cls-2" d="M9.14,11H32v2H27a2,2,0,0,0-2,2V31a2,2,0,0,0,2,2H69a2,2,0,0,0,2-2V15a2,2,0,0,0-2-2H63V11H86.2a1.81,1.81,0,0,0,1.59-.91A2,2,0,0,0,86.11,7H9.05a1.81,1.81,0,0,0-1.6.91A2,2,0,0,0,9.14,11ZM36,13V11H59v2ZM29,29V17H67V29Z"/><path class="cls-2" d="M87,55H81V49.78A5.78,5.78,0,0,0,75.22,44H65.78A5.78,5.78,0,0,0,60,49.78V55H56V38a2,2,0,0,0-2-2H16a2,2,0,0,0-2,2V55H9a2,2,0,0,0-2,2v6a2,2,0,0,0,2,2h1V87a2,2,0,0,0,2,2H85a2,2,0,0,0,2-2V65h0a2,2,0,0,0,2-2V57A2,2,0,0,0,87,55ZM52,50v3.52A6.88,6.88,0,0,0,46.56,51a6.77,6.77,0,0,0-5.79,3A7,7,0,0,0,29.2,54a6.77,6.77,0,0,0-5.79-3A6.87,6.87,0,0,0,18,53.48V50Zm-3.85-4H45.28A3.5,3.5,0,0,1,48.15,46ZM36.69,46H33.82A3.5,3.5,0,0,1,36.69,46ZM25.23,46H22.36A3.5,3.5,0,0,1,25.23,46ZM52,43.8a6.88,6.88,0,0,0-5.44-2.55,6.8,6.8,0,0,0-5.79,3,7,7,0,0,0-11.57,0,6.8,6.8,0,0,0-5.79-3A6.9,6.9,0,0,0,18,43.76V40H52ZM24.85,55H22.74A3.46,3.46,0,0,1,24.85,55Zm11.46,0H34.2A3.46,3.46,0,0,1,36.31,55Zm11.46,0H45.66A3.46,3.46,0,0,1,47.77,55ZM77,49.78V55H64V49.78A1.78,1.78,0,0,1,65.78,48h9.44A1.78,1.78,0,0,1,77,49.78ZM11,61V59H85v2Zm3,24V65H83V85Z"/></svg>