<svg id="Layer_1" data-name="Layer 1" xmlns="http://www.w3.org/2000/svg" viewBox="0 0 96 96"><defs><style>.cls-1{fill:#394b59;}.cls-2{fill:#e1252b;}</style></defs><title>Wine&amp;amp;Spirits</title><path class="cls-1" d="M63.61,29.35c-2-1.91-3.66-3.56-3.66-7.47V5.48A1.5,1.5,0,0,0,58.45,4H50.8a1.5,1.5,0,0,0-1.5,1.5v16.4c0,3.91-1.69,5.56-3.65,7.47a16.43,16.43,0,0,0-2.81,3.28,8.43,8.43,0,0,1-1.26-4.75V11.48a1.5,1.5,0,0,0-1.5-1.5H32.43a1.5,1.5,0,0,0-1.5,1.5v16.4a8.43,8.43,0,0,1-1.26,4.75,16.43,16.43,0,0,0-2.81-3.28c-2-1.91-3.65-3.56-3.65-7.47V5.48A1.5,1.5,0,0,0,21.71,4H14.06a1.5,1.5,0,0,0-1.5,1.5v16.4c0,3.91-1.7,5.56-3.66,7.47s-4.21,4.09-4.21,8.53V81.47A4.64,4.64,0,0,0,9.34,86H23.07v1.45A4.65,4.65,0,0,0,27.71,92H44.79a4.65,4.65,0,0,0,4.65-4.55V86H63.17a4.65,4.65,0,0,0,4.64-4.55V37.88C67.81,33.45,65.58,31.27,63.61,29.35Zm-48-9V7h4.65v13.4Zm18.37,6V13h4.65v13.4ZM15.06,83a7.12,7.12,0,0,1,.53-.51h4.52a1.8,1.8,0,0,1,.59.52l.07.07H15ZM19,66V44.26a1.5,1.5,0,0,0-1.5-1.5H7.7V37.88c0-3.17,1.45-4.58,3.3-6.38s4.06-3.95,4.48-8.12h4.8c.43,4.17,2.58,6.26,4.49,8.12a10.81,10.81,0,0,1,2.77,3.59l-.26.26c-2,1.92-4.21,4.09-4.21,8.53V81.1L23,81a3.74,3.74,0,0,0-2.76-1.53H15.57A3.72,3.72,0,0,0,12.81,81L11,83H9.34A1.63,1.63,0,0,1,7.7,81.38V67.45h9.75A1.5,1.5,0,0,0,19,66Zm7.12-22.07c0-3.17,1.45-4.58,3.3-6.38s4.06-4,4.48-8.12h4.81c.42,4.17,2.57,6.26,4.48,8.12s3.3,3.21,3.3,6.38v4.88H26.07ZM52.3,20.38V7H57v13.4Zm1.26,23.88V66a1.5,1.5,0,0,0,1.5,1.5h9.75V81.38A1.64,1.64,0,0,1,63.17,83H61.5l-1.8-2a3.74,3.74,0,0,0-2.76-1.53H52.31A3.74,3.74,0,0,0,49.55,81l-.11.13V43.88c0-4.44-2.23-6.61-4.21-8.53L45,35.09a10.67,10.67,0,0,1,2.77-3.59c1.91-1.86,4.06-3.95,4.49-8.12H57c.42,4.17,2.58,6.26,4.48,8.12s3.3,3.21,3.3,6.38v4.88H55.06A1.5,1.5,0,0,0,53.56,44.26ZM51.81,83c.35-.4.55-.5.52-.51h4.52a1.86,1.86,0,0,1,.6.52l.06.07H51.74ZM11.07,60.09a1.51,1.51,0,0,0-1.5-1.5H7.7v-2h3.53a1.5,1.5,0,1,0,0-3H7.7v-2h3.53a1.5,1.5,0,0,0,0-3H7.7V45.76H16V64.45H7.7V61.59H9.57A1.5,1.5,0,0,0,11.07,60.09ZM33.44,89c.35-.4.55-.5.52-.51h4.52a1.8,1.8,0,0,1,.59.52l.07.07H33.37Zm13-15.5V87.38A1.64,1.64,0,0,1,44.79,89H43.13l-1.8-2a3.74,3.74,0,0,0-2.76-1.53H33.94A3.74,3.74,0,0,0,31.18,87l-1.8,2H27.71a1.64,1.64,0,0,1-1.64-1.64V73.45Zm0-21.69V70.45H26.07V51.76Zm14.84-.14h3.53v2H61.28a1.5,1.5,0,0,0,0,3h3.53v2H62.94a1.5,1.5,0,0,0,0,3h1.87v2.86H56.56V45.76h8.25v2.86H61.28a1.5,1.5,0,0,0,0,3Z"/><path class="cls-2" d="M40.41,63.59H32.1a1.5,1.5,0,1,0,0,3h8.31a1.5,1.5,0,0,0,0-3Z"/><path class="cls-2" d="M30.43,61.61H42.08a1.5,1.5,0,0,0,0-3H30.43a1.5,1.5,0,1,0,0,3Z"/><path class="cls-2" d="M30.43,56.62H42.08a1.5,1.5,0,0,0,0-3H30.43a1.5,1.5,0,0,0,0,3Z"/><path class="cls-2" d="M70.31,43.77V60.64c0,5.09,2.67,10.6,8.63,11.64V85.59H76.11a1.79,1.79,0,1,0,0,3.58H85.5a1.79,1.79,0,0,0,0-3.58h-3V72.28c6.06-1,8.79-6.54,8.79-11.64V43.77ZM88.18,46.9v7.29a1.79,1.79,0,0,0-.51.27s-3.15,2.25-6,.82A14.49,14.49,0,0,0,73.43,54V46.9ZM80.81,69.46c-3.56,0-7.38-2.76-7.38-8.82V57.78a10.82,10.82,0,0,1,6.53.89,8.33,8.33,0,0,0,3.77.89,10.49,10.49,0,0,0,4.45-1.06v2.14C88.18,66.7,84.36,69.46,80.81,69.46Z"/></svg>